<?xml version="1.0" encoding="UTF-8"?>
<svg id="Lag_1" data-name="Lag 1" xmlns="http://www.w3.org/2000/svg" viewBox="0 0 287.03 222.21">
  <g id="Group_1" data-name="Group 1">
    <path id="Path_17" data-name="Path 17" d="M0,126.63c.4-2.62,.81-5.23,1.2-7.85,1.05-7.1,3.49-13.53,9.2-18.24,3.17-2.66,6.55-5.07,10.11-7.19,4.31-2.6,8.79-4.92,13.41-6.93,5.23-2.19,10.66-3.75,16.06-5.44,4.03-1.26,8.05-2.57,12.07-3.86,.13-.07,.26-.16,.37-.26-.79-.83-1.75-1.47-2.82-1.88-.89-.31-1.62-.97-2-1.83-.69-1.47-1.7-2.77-2.97-3.8-1.57-1.25-2.27-3.31-1.76-5.25-2.09-.43-4.15-1-6.17-1.71-2.33-.78-3.59-3.29-2.82-5.63,.04-.11,.08-.22,.12-.33,.92-1.98,1.68-4.03,2.45-6.07,.6-1.66,2.02-2.89,3.76-3.25,.54-.16,1.1-.25,1.66-.26,5,.09,9.97-.62,14.75-2.08,2.59-.71,5.24-1.17,7.92-1.39,3.45-.43,6.83-1.33,10.04-2.66,1.59-.57,3.19-1.09,4.89-1.67-2.02-2.23-4.39-4.1-7.03-5.56-1.04-.51-2.09-1-3.11-1.55-1.97-1.05-3.52-2.73-4.4-4.78-1.05-2.11-2.27-4.14-3.62-6.07-.4-.68-.77-1.39-1.09-2.11-.46-.9-.45-1.97,0-2.87,2.6-5.78,9.21-8.56,15.16-6.38,5.42,1.78,10.98,3.13,16.3,5.21,2.99,1.17,5.84,2.69,8.91,3.68,2.9,.82,5.85,1.42,8.84,1.78,2.81,.44,5.59,1.01,8.4,1.49,2.63,.46,5.27,.93,7.91,1.31,2.76,.4,5.52,.79,8.3,.97,2.03-.03,4.05,.21,6.02,.71,1.39,.47,1.57-.2,1.96-1.17,1.13-2.85,1.47-5.89,2.3-8.81,.66-2.94,2.09-5.65,4.12-7.87,.17-.17,.31-.41,.51-.48,2.69-.94,4.6-3.08,6.92-4.58,1.47-.93,3.08-1.6,4.78-1.98h3.23c1.74,.59,3.51,1.06,5.31,1.41,2.99,.86,5.88,1.9,8.23,4.06,1.16,1.15,2.23,2.39,3.2,3.7,1.69,2.14,3.55,4.14,5.18,6.33,1.47,2.08,2.78,4.27,3.94,6.54,1.79,3.18,3.4,6.45,4.83,9.8,.13,.32,.2,.68,.71,.67,2.29,.07,4.54,.61,6.61,1.6,3.75,1.5,7.37,3.31,10.81,5.42,1.37,1.02,2.59,2.21,3.65,3.54,1.08,1.15,2.05,2.39,3.17,3.5,1.07,1.14,1.91,2.47,2.47,3.94,.66,1.55,1.41,3.06,2.17,4.7,.51-1,.95-2.04,1.3-3.11,2.29-5.22,4.2-10.61,7.63-15.27,1.9-2.47,4.09-4.69,6.54-6.62,3.11-2.56,6.47-4.8,10.02-6.68,4.62-2.48,9.49-4.46,14.54-5.89,1.24-.35,1.85,.01,1.85,1.36,0,2.63,1.59,4.65,2.39,6.97,.95,2.76,2.12,5.5,1.9,8.54-.14,1.9-1.07,3.53-1.56,5.31-1.13,4.04-3.04,7.82-3.98,11.92-.21,.94-.32,1.91-.31,2.87,.03,3.93,.2,7.86,.17,11.79-.05,6.47-.24,12.96-.51,19.42-.18,4.22-.66,8.53-2.7,12.52-1.56,3.05-2.65,6.34-4.04,9.49-1.52,3.45-4.26,6.23-7.7,7.8-3,1.63-6.21,2.82-9.54,3.55-3.31,.67-6.74,.46-9.95-.59-1.99-.7-4.05-1.19-6.06-1.83-2.59-.76-4.78-2.5-6.12-4.84-1.19-1.99-2.55-3.88-4.08-5.63-1.87-2.25-3.55-4.66-5.3-7-2.29-2.84-5.12-5.2-8.31-6.96-.38-.23-.55-.13-.68,.3-2.03,6.37-4.76,12.48-7.13,18.72-1.63,4.45-4.6,8.29-8.51,10.99-1.91,1.47-4.33,2.09-6.71,1.72-.64-.12-.85,.46-1.19,.78-2.14,2.25-3.93,4.8-5.33,7.57-3.01,5.38-6.87,10.23-11.42,14.39-1.6,1.51-3.45,2.73-5.47,3.61-1.98,.83-4.05,.54-6.1,.22-2.66-.5-5.24-1.32-7.71-2.44-1.41-.46-2.57-1.5-3.19-2.85-.35-.86-.79-.81-1.46-.47-1.35,.69-2.74,1.15-4.17,.31-1.44-.91-2.65-2.12-3.57-3.56-1.89-2.7-1.51-5.55-.9-8.45,.34-1.59,.5-3.21,.82-4.79,.55-2.75,2.27-4.88,4.03-6.92,1.85-2.17,3.48-4.52,4.86-7.02,1.99-3.26,3.79-6.63,5.39-10.09,.06-.15,.22-.27,.04-.5-1.18,1.33-2.36,2.65-3.54,3.98-1.35,1.53-2.7,3.07-4.04,4.62-2.02,2.33-3.98,4.7-6.05,6.99-2.08,2.42-4.35,4.67-6.79,6.73-2.8,2.25-5.52,4.59-8.22,6.97-3.01,2.66-6.08,5.25-9.13,7.86-.96,.84-1.87,1.74-2.73,2.69-2.87,3.05-6.1,5.74-9.62,8.01-.68,.42-1.3,.93-1.85,1.51-1.86,2.08-4.15,3.74-5.92,5.91-.83,.86-1.4,1.93-1.66,3.1-.4,2.12-1.58,4.02-3.31,5.32-1.83,1.61-3.78,3.07-5.83,4.38-1.31,.81-2.82,1.23-4.36,1.21-1.31-.02-2.61,.04-3.91,.17-1.96,.12-3.93-.12-5.8-.72-2.37-.68-4.81-1.1-7.18-1.81-2.54-.75-4.82-2.19-6.59-4.16-.59-.68-1.29-1.25-2.08-1.68-1.95-1.03-2.4-2.87-2.01-4.79,.48-3.07,1.14-6.11,1.98-9.09,.48-1.18,1.06-2.32,1.74-3.39-1.54,.66-2.87,1.28-4.23,1.78-4.74,1.75-8.56,4.91-12.43,8.01-1.24,1.21-2.75,2.11-4.41,2.63-1.52,.19-3.07,.13-4.57-.19-.54-.06-1.11-.12-1.66-.22-2.03-.34-3.82-1.51-4.96-3.23-.87-1.23-1.87-2.36-2.85-3.5-2.2-2.58-2.33-5.39-.83-8.34,.72-1.4,1.36-2.83,1.9-4.31,.37-1.03,.23-1.23-.84-1.55-1.8-.47-3.66-.71-5.52-.72-1.87-.04-3.73-.19-5.58-.46-1.38-.26-2.68-.83-3.8-1.67-1.9-1.41-3.47-3.21-4.6-5.28-.29-.82-.52-1.66-.69-2.51v-1.41Zm67.1-51.05c.63-.16,1.26-.34,1.9-.48,.75-.17,.5-.72,.46-1.18-.06-.68-.53-.42-.89-.35-.86,.16-1.72,.31-1.46,1.55,.03,.12-.06,.26-.09,.38-.4,.09-.7-.07-.73-.46-.06-.89-.54-.81-1.16-.61-.37,.1-.75,.18-1.14,.23q.83,1.67,2.55,1.09c.18-.05,.37-.1,.55-.16h0Zm55.87-21.51c1.08-.49,2.15-1.02,3.26-1.45,.88-.34,1.24-.79,.68-1.75-.86,.49-1.7,1.03-2.61,1.45-.78,.24-1.31,.97-1.3,1.78-.75-.5-1.73-.44-2.42,.14-.43,.29-.22,.55-.14,.85,.09,.35,.3,.37,.59,.23,.74-.25,1.4-.68,1.93-1.25h0Zm97.47,44.77c-.08-.98-.02-2.01-1-2.72-.51,1.29,.57,1.88,1.01,2.72l4.39,5.65c-.25-1.18-.46-2.13-.65-3.09-.04-.19-.12-.33-.3-.34-.54-.04-.67-.5-.89-.85-.56-.85-1.21-1.65-1.93-2.37-.11,.39-.32,.74-.62,1.01h0Zm-137.73-28.06c1.5-.51,2.99-1.01,4.49-1.53,.4-.14,.71-.24,.11-.64-.57-.46-.79-1.24-.53-1.92,.13-.42,.02-.88-.3-1.18-1.03-1.07-.92-1.82,.4-2.52,.53-.28,.66-.69,.38-1.05-.58-.73-1.1-1.62-2.24-1.63-.67,0-1.45,.07-1.92-.44-.43-.47-1.04-.73-1.67-.72-.68-.04-1.41-.14-1.62-.94-.2-.77,.34-1.26,.86-1.7,.59-.45,1.24-.82,1.93-1.09,.33-.1,.57-.39,.6-.73,.02-.44-.32-.54-.64-.67-.35-.1-.69-.26-1-.46-1.11-1.03-2.44-1.8-3.88-2.25-.7-.17-1.16-.83-1.07-1.54,.12-.9,.44-1.77,.93-2.54,.16-.28,.41-.48,.75-.3s.32,.5,.22,.8c-.13,.38-.27,.76-.44,1.13-.37,.81-.23,1.34,.74,1.52,1.09,.24,2.08,.82,2.83,1.66,.39,.42,.87,.75,1.4,.97,.71,.2,1.2,.84,1.22,1.57,.1,.86-.36,1.7-1.14,2.08-.49,.17-.93,.47-1.28,.87,.7,.14,1.46,0,1.87,.54,.43,.52,1.09,.79,1.76,.73,1.46,.09,3.37,1.88,3.42,3.36,.04,1.28-.22,2.52,.73,3.65,.4,.47,.14,1.24-.07,1.86-.08,.23-.17,.46-.34,.91,1.46-.5,2.69-.92,3.93-1.32,.26-.08,.32-.19,.22-.42-.11-.26-.3-.23-.5-.16-.54,.2-1.07,.41-1.61,.59-.39,.14-.91,.51-1.14-.05-.26-.64,.43-.71,.83-.89,.49-.22,1-.41,1.51-.57,.39-.13,.51-.31,.36-.75-1.28-3.94-3.17-7.66-5.6-11.01-.51-.67-1.06-1.31-1.57-1.98-.21-.27-.63-.59-.22-.94s.65,.11,.87,.37c.51,.63,1.01,1.26,1.5,1.9,2.49,3.36,4.43,7.09,5.74,11.06,.13,.37,.18,.96,.84,.59,.29-.16,.91-.14,.74-.63s0-1.3-.88-1.34c-.5-.02-.82-.34-.42-.67,.6-.5,.26-.89,.08-1.31-.59-1.43-1.26-2.82-2.02-4.17-.12-.2-.23-.41-.33-.62-.11-.26-.17-.54,.15-.69,.26-.12,.45,.04,.59,.25,.15,.22,.28,.46,.42,.69,.85,1.49,1.6,3.04,2.23,4.63,.38,.95,.93,.2,1.4,.13,.6-.1,.54-.45,.31-.88-.29-.53-.56-1.07-.82-1.62-.12-.25-.16-.54,.12-.72s.53,0,.67,.24c.23,.37,.44,.76,.63,1.15,.62,1.23,.59,1.19,1.88,.77,.64-.21,.77-.41,.45-1.04-1.69-3.59-3.81-6.98-6.3-10.07-.24-.28-.73-.64-.27-1.01,.43-.34,.71,.18,.96,.47,1.5,1.73,2.83,3.6,3.96,5.6,1.33,2.3,2.54,4.67,3.63,7.09,.29,.65,.65,.59,1.08,.28,.42-.29,.04-.62-.07-.89-1.15-2.77-2.59-5.4-4.31-7.86-.21-.3-.52-.66-.06-.95,.38-.24,.59,.15,.8,.41,.15,.18,.27,.38,.41,.58,1.6,2.33,2.96,4.82,4.05,7.43,.11,.26,.15,.74,.48,.68,.57-.08,1.1-.3,1.57-.63,.31-.25-.14-.65-.29-.95-.9-1.88-1.93-3.7-3.09-5.43-.19-.27-.41-.62,0-.87,.34-.21,.56,.08,.74,.32,.2,.27,.39,.55,.57,.83,1.23,1.93,2.32,3.94,3.27,6.02q.99,2.1,3.11,1.09c.45-.21,1.06-.29,1.34-.63,.4-.5-.36-.89-.41-1.41,.01-.69-.47-1.3-1.14-1.45-1.47-.43-1.72-1.6-.61-2.67,.56-.48,1.15-.92,1.77-1.33,.17-.13,.45-.24,.36-.54-.08-.23-.29-.39-.54-.41-.33-.03-.67-.04-1.01-.03-1.51,.05-3.03,.2-4.54,.15-1.42-.04-2.8-.33-3.07-2.13-.06-.43-.42-.47-.75-.54-.65-.14-1.4-.4-1.48-1.05-.16-1.46-1.06-1.61-2.21-1.59-.37-.01-.74-.07-1.09-.19-1.71-.46-2.15-1.72-1.09-3.12,.4-.52,.9-1.06,1.6-.62,.77,.48,.23,1.04-.08,1.55-.03,.08-.05,.17-.05,.25,.77,.22,1.56,.3,2.36,.26,.87-.08,1.7,.41,2.04,1.22,.2,.87,.84,1.58,1.68,1.87,.44,.21,.74,.64,.77,1.13,.14,.92,.73,1.1,1.52,1.09,1.51,.03,3.03-.03,4.54-.17,1.13-.17,2.26,.29,2.95,1.19,.72,.63,.79,1.72,.16,2.44-.08,.09-.16,.17-.25,.24-.37,.37-.79,.69-1.27,1.09,1.2,.58,1.96,1.8,1.96,3.14,.05,.52,.24,.53,.63,.31,1.06-.58,2.13-1.15,3.16-1.7-.25-.55-.5-1.03-.7-1.52-1.58-4.04-3.69-7.87-6.25-11.37-.1-.13-.2-.27-.29-.41-.15-.18-.12-.45,.06-.59,.18-.15,.45-.12,.59,.06,.19,.19,.36,.39,.53,.61,2.4,3.29,4.39,6.87,5.93,10.64,.36,.7,.52,1.5,.46,2.29,.63-.26,1.23-.58,1.81-.94,.58-.29,.55-.62,.33-1.12-.3-.67-.65-.17-.97-.09-.4,.1-.89,.5-1.14-.07-.23-.54,.35-.68,.7-.78,.84-.24,.79-.68,.47-1.34-.63-1.3-1.2-2.63-1.77-3.96-.17-.4-.66-.94-.04-1.21s.71,.47,.89,.85c.54,1.12,1.04,2.26,1.53,3.4,.64,1.47,.61,1.44,2.04,.76,.42-.11,.68-.55,.56-.97-.02-.07-.05-.15-.09-.21-.22-.56-.42-1.14-.62-1.71-.13-.37-.43-.83,.1-1.04s.61,.36,.81,.69c.41,.71,.31,2.03,.97,2.14,.68,.11,1.52-.71,2.28-1.12,.14-.1,.28-.18,.44-.25,.99-.35,1.05-1.02,.74-1.91-.19-.53-.27-.82-.92-.44-.72,.42-1.18,.83-.82,1.74,.15,.29,.1,.65-.13,.88-.92-.57-.93-1.58-1.16-2.44-1.18-4.43-2.5-8.8-5.33-12.54-.08-.11-.16-.22-.23-.34-.13-.17-.12-.4,.04-.55,.17-.16,.44-.15,.6,.02,.01,.01,.02,.02,.03,.03,.19,.19,.37,.4,.52,.62,1.17,1.61,2.14,3.35,2.9,5.18,.91,2.27,1.62,4.61,2.31,7,.19-.12,.39-.22,.59-.31,.97-.36,1.13-.98,.69-1.88-.24-.55-.46-1.12-.64-1.7-.12-.32-.25-.71,.17-.87s.57,.25,.69,.56c.27,.69,.55,1.37,.76,2.08,.14,.49,.3,.57,.77,.32,1.73-.92,1.76-.95,1.24-2.7-.08-.27-.16-.54,.14-.71,.2-.13,.47-.08,.61,.12,.03,.04,.05,.08,.06,.13,.36,1.45,1.2,1.35,2.23,.74,.05-.03,.17,.04,.43,.1-1.12,.99-2.21,1.96-.97,3.5,.21,.01,.38-.24,.63-.33,1.08-.43,1.26-1.11,.88-2.21-.45-1.3-.84-2.62-1.31-3.92-.13-.35-.35-.78,.11-.97,.54-.23,.67,.3,.81,.66,.32,.85,.6,1.71,.92,2.56,.29,.77,.2,2.08,.79,2.23,.69,.17,1.41-.87,2.16-1.3,.51-.3,.46-.64,.28-1.08-.57-1.36-1.1-2.74-1.7-4.1-.64-1.52-1.39-2.99-2.24-4.4-.14-.23-.33-.5-.05-.72,.33-.27,.57,0,.75,.24,.23,.33,.44,.67,.63,1.03,1.04,1.92,1.97,3.9,2.79,5.93,.27,.65,.4,1.64,.87,1.84,.58,.25,1.07-.72,1.68-1.05,.12-.06,.21-.17,.34-.22,.47-.21,.52-.5,.29-.96-.38-.75-.72-1.52-1.05-2.29-.15-.35-.47-.81,.05-1.06,.54-.27,.67,.28,.83,.62,.56,1.19,1.09,2.38,1.62,3.59,.13,.34,.23,.7,.29,1.06,.06,.2-.04,.42-.23,.51-.23,.09-.36-.1-.51-.23-.27-.23-.19-.72-.64-.86-.35,.54-.8,1.01-1.34,1.37-.75,.3-1.11,1.15-.81,1.91,.07,.16,.16,.31,.28,.44,2.33-1.63,4.54-3.43,6.61-5.38-1.16-1.1-1.59-2.61-2.5-3.8-.13-.17-.1-.41,.06-.56,.16-.17,.44-.18,.61-.01,0,0,.02,.02,.03,.03,.24,.23,.45,.5,.62,.78,.56,.94,1.09,1.89,1.67,2.93,2.81-3.13,4.65-7.01,5.3-11.16-1.34-.3-2.69-.51-4.06-.65-3.56-.15-7.09-.54-10.62-1.03-3.08-.43-6.15-.94-9.21-1.54-3.05-.6-6.11-1.2-9.18-1.68-3.54-.47-7-1.4-10.3-2.77-2.85-1.25-5.64-2.65-8.57-3.71-.29-.11-.56-.34-.92-.07-1.49,.98-3.15,1.66-4.9,2.01-.99,.25-2.02,.28-2.23,1.57-.04,.13-.13,.24-.26,.3-1.25,.44-.77,1.19-.41,1.98,.55,1.22,.25,1.86-1.03,2.32-1.03,.3-2.1,.49-3.17,.58-1.62,.23-2.19,.92-2.15,2.57,.04,.5,.17,1,.4,1.45,.19,.43,.5,.89,.38,1.34-.19,.73,.25,.95,.72,1.23,2.62,1.68,4.99,3.72,7.04,6.06,.7,.97,.49,2.32-.47,3.03-.18,.13-.38,.23-.59,.3-1.15,.31-2.32,.54-3.43,.95-5.2,1.96-10.63,3.21-16.16,3.73-1.99,.19-3.96,.62-5.85,1.28,1.65,1.4,1.78,1.98,1,3.55-.63,1.15-1.58,2.08-2.74,2.69-1.09,.66-2.41,1.36-1.89,3.1,.08,.31-.03,.63-.28,.83-.78,.74-1.65,1.38-2.6,1.89-.4,.18-.95,.36-1.17-.13-.23-.51,.43-.46,.68-.67,.87-.73,2.05-1.24,1.53-2.78-.11-.48,.06-.98,.43-1.3,.9-.83,1.57-1.94,2.84-2.35,.81-.3,1.42-.96,1.66-1.78,.17-.47,.1-.84-.42-.92-.77-.03-1.36-.68-1.33-1.44,0-.05,0-.09,.01-.14-2.33,.59-4.73,.92-7.14,.96-1.21-.02-2.43-.06-3.63,0-2.06,.12-3.83,.7-4.55,2.98-.6,1.92-1.38,3.78-2.03,5.69-.37,.86,.02,1.86,.88,2.23,.08,.03,.16,.06,.25,.09,.64,.26,1.3,.51,1.96,.7,1.61,.5,3.25,.91,4.9,1.24,1.4,.27,1.89,1,1.54,2.14-.52,1.69-.31,2.38,1.15,3.48,1.03,.7,1.85,1.65,2.39,2.77,.65,1.35,1.84,2.36,3.27,2.79-.54-1.61-1.02-3.1-1.55-4.58-.48-1.37-1.06-2.69-1.74-3.96-.16-.29-.38-.66,.04-.88s.59,.17,.76,.46c.16,.26,.3,.53,.43,.8,.83,1.76,1.56,3.57,2.17,5.43,.09,.25,.2,.68,.33,.69,.77,.02,1.53-.14,2.24-.46,.59-.21,.06-.68,.07-1.03,.01-.3-.08-.66,.3-.76s.51,.23,.63,.52,.08,.86,.42,.84c.67-.03,1.33-.19,1.93-.47,.42-.2,.03-.66,0-1s-.15-.74,.28-.86,.61,.25,.65,.59c.1,.94,.58,1.07,1.35,.71,.22-.09,.44-.16,.68-.2,.54-.1,.68-.31,.51-.89-.4-1.29-.81-2.56-1.32-3.81-.15-.37-.43-.83,.11-1.04,.46-.18,.59,.31,.74,.64,.83,1.95,1.47,3.98,1.92,6.05q.31,1.31,1.56,.9c.06-.03,.13-.05,.19-.06,.88-.12,.93-.61,.71-1.36-.45-1.69-1.05-3.34-1.8-4.92-.17-.34-.52-.79,.02-1.04,.5-.23,.68,.29,.86,.64,.83,1.66,1.46,3.4,1.89,5.2,.11,.4,.1,1.01,.77,.62,.49-.29,1.58,.05,1.22-1.22-.62-2.48-1.5-4.89-2.6-7.19-.11-.21-.21-.42-.29-.64-.09-.19-.03-.42,.14-.54,.19-.13,.45-.09,.59,.1,.01,.01,.02,.03,.03,.05,.17,.25,.32,.51,.45,.78,1.09,2.24,1.95,4.58,2.55,7,.1,.33,.03,1.01,.66,.68,.54-.29,1.69-.03,1.39-1.27-.22-1.16-.63-2.27-1.23-3.29-.2-.3-.51-.67-.05-.95,.44-.26,.66,.16,.87,.45,.19,.28,.36,.57,.5,.87,.41,1.02,.75,2.08,1.02,3.15,.77-.12,1.39-.73,2.21-.54,.03,.29-.13,.58-.4,.69-1.45,.46-1.66,1.64-1.76,2.89-.38-.15-.72-.31-.73-.82,0-.25,.05-.77-.4-.59-.56,.23-1.46,.08-1.58,.92-.15,1.01,.26,1.28,1.21,.97,.49-.17,.99-.33,1.48-.49Zm38.05,33.39c-.2,.11-.33,.3-.35,.52-.04,.24,.13,.6-.23,.68-.32,.07-.43-.26-.58-.47-.46-.66-.82-1.38-1.07-2.15-.61-1.78-1.04-3.67-2.3-5.13-1.34-1.53-2.07-3.51-2.04-5.55,.01-.81-.19-1.61-.58-2.32-1.36-2.35-3.67-3.62-5.87-4.91-.89-.52-1.67-.95-2-1.94-.24-.78-.81-1.42-1.56-1.75-.87-.47-1.56-1.2-1.98-2.09-.39-.78-.69-1.61-.9-2.46-.17-.57-.35-.76-.97-.48-5.42,2.45-10.94,4.68-16.54,6.69-.51,.18-.71,.36-.3,.88,.65,.81,1.25,1.67,1.84,2.53,1.07,1.31,1.79,2.86,2.11,4.52,.02,.23,.21,.59-.18,.67-.32,.07-.48-.22-.55-.48-.13-.66-.35-1.3-.66-1.9-1.14-1.78-2.26-3.58-3.45-5.33-.62-1.1-1.67-1.9-2.89-2.21-.48-.08-.88-.42-1.05-.88-.34-1.07-1.12-1.92-1.46-2.97-.21-.62-.49-.53-.97-.38-.69,.23-.34,.57-.17,.91,.27,.53,.45,1.11,1.17,1.26,.41,.13,.68,.51,.67,.93,.06,1.64,1.16,2.2,2.5,2.6,1.09,.29,2.03,.96,2.65,1.9,.9,1.62,1.48,3.4,1.7,5.23,.11,.97,.62,1.85,1.4,2.43,1.11,.71,2.06,1.63,2.8,2.72,.26,.36,.64,.61,1.07,.71,2.71,.88,4.47,2.91,6.08,5.1,.66,.81,.75,1.95,.24,2.86-.47,.69-.29,1.63,.41,2.1,.03,.02,.07,.04,.1,.06,1.07,.78,1.93,1.8,2.51,2.99,.82,1.9,2.23,3.41,3.37,5.19,.19-.49-.08-.8-.2-1.13-.79-2.01-1.92-3.86-3.35-5.48-.5-.55-.84-1.23-.96-1.97-.37-3.03-2-5.43-3.88-7.69-.75-.91-1.94-1.34-2.62-2.35-.36-.54-.88-.94-1.49-1.15-.61-.21-1.12-.66-1.4-1.24-.11-.18-.1-.4,.02-.57,.12-.16,.31-.21,.43-.06,.87,1.06,2.43,1.18,3.2,2.38,.26,.39,.6,.73,.98,1.01,3.09,2.27,5.16,5.67,5.75,9.46,.08,.53,.29,1.04,.62,1.47,.47,.61,.96,1.21,1.41,1.84,1.54,2.1,2.56,4.53,2.97,7.09,.04,.24,.16,.58-.11,.74-.3,.18-.34-.36-.69-.31,.03,.2,.07,.39,.09,.58,.34,2.65,.88,5.3,.11,7.97-.24,.53-.26,1.14-.04,1.68,.85,1.72,1.36,3.59,1.53,5.5,.08,.52,.51,1.39-.13,1.49-.68,.12-.54-.86-.65-1.37-.38-1.87-.47-3.81-1.61-5.46-.21-.39-.27-.85-.17-1.28,.11-.8,.22-1.6,.33-2.4,.22-.69,0-1.44-.58-1.89-.36-.37-.56-.86-.55-1.37-.02-.47-.18-.93-.44-1.32-.6-.78-.9-1.76-.85-2.74,0-.71-.26-1.4-.75-1.92-.72-.67-1.29-1.47-1.69-2.37-.54-1.68-1.66-3.12-3.17-4.03-.93-.57-1.35-1.7-1-2.74,.14-.52,.31-1.03,.5-1.53,.17-.3,.16-.67-.03-.96-1.34-1.68-2.63-3.46-4.84-4.11-.99-.26-1.83-.9-2.34-1.78-.32-.6-.78-1.11-1.35-1.48-1.96-1.14-3.22-3.19-3.36-5.45-.27-2.38-1.03-4.33-3.74-4.97-1.29-.22-2.27-1.28-2.38-2.59-.17-1.19-.66-2.32-1.42-3.25-.2-.41-.69-.58-1.1-.39-.03,.01-.05,.03-.08,.04-6.04,2.28-12.2,4.18-18.32,6.22-.32,.11-.69,.36-.89-.04-.24-.48,.23-.65,.56-.76,1.24-.43,2.48-.84,3.73-1.23,4.78-1.49,9.5-3.16,14.21-4.87,.27-.1,.81-.05,.69-.54-.12-.5,.1-.98,.02-1.46-2.97,.88-5.88,1.71-8.78,2.61-4.12,1.28-8.23,2.61-12.33,3.94-.21,.07-.67-.03-.56,.5,.1,.94,.26,1.86,.49,2.78,.94,2.26,2.09,4.42,3.44,6.46,1.07,1.84,2.23,3.67,3.26,5.54,.45,.79,.72,1.68,.77,2.59,.04,.74,.28,1.45,.68,2.08,1.18,1.81,1.76,3.96,1.63,6.12-.18,2.12,.16,4.26,.98,6.23,.19,.47,.36,.94,.49,1.43,.1,.37,.12,.79-.32,.94s-.67-.2-.87-.52c-.09-.14-.13-.31-.21-.46-1.16-2.49-1.52-5.27-1.04-7.97,.2-1.27,0-2.56-.58-3.71-.96-1.54-1.58-3.27-1.82-5.07-.14-.62-.39-1.21-.74-1.75-1.29-2.73-3.32-5-4.58-7.79-.93-2.07-2.34-3.92-2.7-6.24-.01-.1-.05-.2-.1-.28-.2-.28-.44-.21-.7-.07-.21,.11-.32,.23-.14,.46,.41,.64,.44,1.45,.09,2.12-.23,.67,.03,1.01,.4,1.51,.73,.97,1.72,1.82,1.72,3.21,.02,.46,.31,.86,.74,1.02,1.33,.48,1.39,1.59,1.41,2.72-.02,.32,.08,.64,.27,.91,1.12,1.59,2.69,2.96,2.6,5.15-.01,.29,.26,.46,.38,.69,.62,1.15,1.52,2.2,1.66,3.53,.14,1.13,.43,2.24,.88,3.3,.36,.7,.41,1.52,.13,2.26-.42,.98-.3,2.1,.32,2.97,1.1,2.01,2.03,4.1,2.8,6.26,.33,.71,.42,1.51,.24,2.27-.34,1.24-.23,2.57,.32,3.74,.42,.75,.48,1.65,.15,2.45-.6,1.24-1.1,2.53-1.49,3.85-.16,.5-.45,1-1.07,.84-.67-.17-.72-.78-.57-1.32,.26-1.04,.6-2.07,1.03-3.05,.41-.74,.39-1.65-.05-2.38-.67-1.15-.87-2.52-.55-3.81,.21-.85,.13-1.75-.23-2.55-.74-1.99-1.6-3.93-2.58-5.8-.8-1.22-.79-2.8,0-4.02,.27-.43,.31-.97,.09-1.43-.41-.81-.67-1.69-.76-2.6,.04-1.67-.89-2.83-1.88-3.99-.24-.28-.56-.52-.6-.91-.21-1.85-1.35-3.21-2.45-4.58-.59-.53-.64-1.45-.11-2.04,.01-.01,.03-.03,.04-.04,.43-.42,.5-1.09,.17-1.59-.58-.84-1.21-1.63-1.88-2.39-.74-.62-1.44-1.28-2.1-1.98-.87-.92-1.04-1.55-.42-2.61,.23-.34,.19-.79-.09-1.08-.2-.37-.66-.51-1.04-.34-1,.33-2.01,.63-3.02,.95-5.39,1.62-10.62,3.72-15.64,6.28-.26,.14-.64,.16-.74,.57-.4,1.38-.25,2.87,.42,4.15,.23,.52,.43,1.06,.59,1.61,.29,.7,.13,1.51-.41,2.04-1.33,1.51-1.15,1.86,.13,3.38,1.83,1.91,2.49,4.65,1.73,7.18-.14,.38-.2,.79-.16,1.19,.31,3.15,.42,6.31,.33,9.47,.06,.51-.04,1.02-.29,1.47-.64,1.03-1.04,2.19-1.18,3.4-.05,.73-.56,1.35-1.26,1.53-.31,.05-.56,.28-.65,.58-.17,.71-.77,1.24-1.5,1.3-.42,.13-.79,.39-1.06,.73-.33,.32-.69,.79-1.18,.32-.45-.43-.08-.87,.21-1.24,.13-.2,.31-.36,.52-.47,.96-.43,1.93-.81,2.34-1.92,.06-.18,.36-.32,.57-.38,.59-.16,.75-.59,.85-1.12,.13-1.11,.53-2.16,1.18-3.07,.22-.34,.32-.75,.27-1.16,.07-3.13-.05-6.26-.38-9.37-.05-.47,.01-.95,.18-1.39,.87-2.55,.04-4.68-1.73-6.49-1.4-1.43-1.6-3.07-.27-4.56,.51-.46,.62-1.21,.27-1.8-.66-1.42-1.49-2.81-1.22-4.45-.29-.16-.46,.04-.59,.12-3.77,2.29-7.68,4.35-11.1,7.22-1.86,1.49-3.57,3.14-5.13,4.94-.77,.93-1.92,1.73-1.3,3.33,.16,.6,.44,1.17,.82,1.66,.77,.71,1.39,1.57,1.81,2.53,.48,1.3,.68,1.87-.66,2.75-1.14,.75-1.16,1.24-.59,2.48,.64,1.26,1.08,2.62,1.3,4.02,.25,2.47,.66,4.93,1.25,7.34,.18,.56,.09,1.17-.24,1.65-.61,.89-.93,1.95-.91,3.03-.06,.62,.17,.73,.67,.83,1.75,.34,3.55,.43,5.33,.26,2.11-.07,4.17,.65,5.77,2.03,.86,.64,1.33,1.68,1.23,2.75-.09,1.63-.71,3.19-1.76,4.44-.89,1.06-1.54,2.3-1.91,3.64-.36,1.02-.16,2.16,.52,3,1.39,1.71,2.84,3.36,4.23,5.06,.66,.77,1.57,1.27,2.58,1.41,1.4,.24,2.83,.36,4.25,.47,1.23,.13,2.47-.27,3.39-1.1,.86-.75,1.72-1.49,2.61-2.18,4.57-3.65,9.7-6.53,15.19-8.52,1.12-.4,2.54-.25,3.32-1.21,.66-1.03,1.24-2.12,1.75-3.23,2.02-3.7,5.15-6.67,8.94-8.5,3.7-1.69,7.57-2.99,11.54-3.87,.55-.12,1.24-.22,1.42,.3,.21,.59-.33,1.09-.87,1.4-.21,.1-.43,.17-.66,.22-1.78,.61-3.57,1.17-5.33,1.83-3.23,1.05-6.22,2.73-8.8,4.95-.28,.26-.85,.55-.68,.87,.23,.43,.85,.45,1.36,.46,.47,0,.71-.32,.97-.64,.46-.71,1.1-1.29,1.87-1.66,1.12-.45,2.21-.96,3.27-1.53,1.17-.72,2.69-.35,3.41,.82,.01,.02,.03,.04,.04,.07,.36,.45,.86,.76,1.42,.88,1.18,.36,2.45,.21,3.51-.4,.76-.46,1.69-.52,2.51-.17,.73,.38,1.42,.83,2.05,1.36,1.35,.88,2.55,1.97,3.53,3.25,.44,.56,1.07,.94,1.77,1.06,1.25,.22,2.33,1.01,2.9,2.15,.16,.41,.42,.77,.76,1.05,.84,.59,1.37,1.54,1.43,2.56,.14,1.17,.22,2.34,.31,3.51,.04,.5-.07,1.01-.64,1.11-.61,.11-.77-.39-.91-.87-.18-.93-.26-1.87-.24-2.81,.09-.82-.22-1.63-.84-2.17-.52-.37-.95-.87-1.23-1.44-.41-.83-1.21-1.41-2.13-1.53-.61-.06-1.18-.31-1.64-.72-1.39-1.55-2.9-2.98-4.53-4.27-1.04-.71-1.63-1.08-2.79-.63-.62,.27-1.28,.42-1.96,.45-1.53,.01-3.06-.06-4.18-1.33-.98-1.1-1.42-1.19-2.68-.43-.51,.44-1.1,.77-1.74,.99-.77,.13-1.48,.54-1.98,1.13-.93,1.33-2.72,1.74-4.14,.94-.32-.23-.77-.16-1,.16-.04,.05-.06,.1-.09,.16-.24,.36-.51,.7-.81,1.01-1.78,2.55-3.25,5.29-4.38,8.18-.72,1.23-1.32,2.53-1.8,3.88-.58,2.41-1.11,4.83-1.62,7.25-.35,1.68,.08,2.48,1.57,2.97,.09-1.23,.5-2.45,1.84-2.52,1.28-.07,1.3-.67,1.2-1.58-.04-.33-.08-.67-.13-.99-.43-2.65,.94-4.29,3.64-4.08,1.64,.08,3.29,.04,4.93-.12,1.31,.02,2.62-.12,3.9-.41,1.15-.35,2.31-.82,3.48,0,.22,.1,.46,.12,.69,.06,1.93-.27,3.29,.74,4.49,2.03,.32,.48,.93,.68,1.47,.48,.89-.23,1.83-.1,2.62,.35,1.4,.64,2.32,2.05,3.9,2.37,.19,.04,.36,.3,.5,.49,.78,1.08,1.04,2.46,.7,3.75-.21,.41-.27,.89-.17,1.34,.5-1.01,.92-1.84,1.31-2.69,1.12-2.57,2.79-4.86,4.9-6.71,.98-.83,1.9-1.71,2.81-2.6,1.97-2.03,4.19-3.8,6.61-5.27,.59-.33,1.14-.72,1.63-1.18,1.84-1.73,3.65-3.48,5.46-5.24,2.8-2.71,5.39-5.65,8.62-7.89,3.47-2.38,6.64-5.18,9.43-8.34,.61-.72,1.3-1.37,2.07-1.92,2.84-2.06,5.34-4.55,7.42-7.38,6.07-7.69,12.76-14.81,19.53-21.87,.86-.9,1.83-1.7,2.87-2.38,1.82-1.11,3.86-1.8,5.97-2.03,.66-.09,1.26,.08,1.4,.82s-.35,1.11-.99,1.3c-.42,.12-.85,.21-1.28,.3-4.6,.89-7.09,4.08-8.78,8.12-.16,.38-.09,.53,.35,.58,2.76,.4,5.56,.56,8.35,.47,.96,0,1.87-.41,2.5-1.13,.84-1.06,2.02-1.82,3.33-2.15,.29-.07,.57-.22,.79-.42,1.14-.89,2.4-1.61,3.75-2.13,1.49-.74,3.18-.94,4.8-.57,1.91,.42,3.85,.66,5.8,.71,2.78,0,4.84,1.48,6.58,3.41,.74,.91,1.63,1.69,2.64,2.29,.51,.28,1.12,.54,1.27,1.1,.41,1.5,1.19,2.9,1.49,4.36,.28,1.32,.93,2.43,1.21,3.78,.38-.39,.68-.85,.88-1.35,4.22-7.87,7.04-16.41,8.34-25.24,.44-3,.7-6.02,.79-9.06,.03-4.15-.16-8.3-.58-12.43-.24-2.58-.42-5.17-.81-7.73-1.5-10.71-4.88-21.07-9.99-30.6-1.26-2.75-2.87-5.32-4.78-7.66-1.94-2.14-3.97-4.2-5.81-6.42-1.88-2.13-4.29-3.72-6.98-4.62-2.39-.93-4.96-1.21-7.33-2.15-.41-.13-.84-.2-1.27-.2-2.32-.15-4.6,.57-6.41,2.03-1.79,1.3-3.79,2.35-5.48,3.76-2.35,1.96-3.26,4.84-3.83,7.7-.69,3.81-1.74,7.54-3.14,11.14-.73,1.78-1.16,3.68-1.77,5.69,1.52-.57,3.15-.8,4.77-.65,.37,0,.74-.07,1.08-.22,.94-.39,2-.41,2.96-.07,.77,.32,1.67,.11,2.21-.53,.39-.55,1.15-.69,1.72-.32,.52,.3,.85,.16,1.16-.34,.81-1.48,2.56-2.19,4.17-1.68,1.73,.3,3.51,.15,5.16-.43,.84-.13,1.41-.91,1.29-1.74-.01-1.95,.82-3.81,2.27-5.1,.25-.23,.52-.42,.82-.57,.17-.1,.43-.14,.55,.06,.04,.16,.02,.32-.06,.46-.1,.22-.23,.41-.39,.58-1.38,1.27-2.15,3.08-2.12,4.96,.07,.88-.46,1.69-1.3,1.98-1.92,.85-4.03,1.15-6.11,.87-1.38-.41-2.85,.21-3.53,1.48-.32,.71-1.16,1.02-1.86,.69,0,0-.02,0-.03-.01-.34-.17-.75-.09-1.01,.19-.88,.78-2.1,1.03-3.21,.66-.61-.19-1.26-.23-1.89-.11-.98,.24-2,.32-3,.21-1.14-.03-2.28,.15-3.36,.54-.78,.24-1.08,.74-1.29,1.66,1.12-.52,2.38-.64,3.57-.33,.85,.29,1.78,.1,2.45-.5,.6-.44,1.33-.68,2.08-.66,1.59-.07,3.17,.29,4.56,1.06,.79,.43,1.11,.21,1.43-.54,.61-1.6,2.22-2.59,3.93-2.42,.5,.02,1-.05,1.48-.21,2.16-.77,4.45-1.16,6.49-2.29,.22-.09,.46-.14,.69-.12,.82,.03,1.5-.6,1.54-1.42,0,0,0,0,0,0,.09-.5,.15-1,.19-1.5,.11-1.8,1.28-3.36,2.97-3.97,1.48-.58,3.1-.71,4.66-.38,.43,.06,.99,.04,.96,.64s-.59,.54-1.02,.54c-.9-.08-1.81-.09-2.72-.02-1.97,.1-3.53,1.69-3.61,3.66-.08,.6-.21,1.19-.38,1.77-.23,.99-1.11,1.7-2.13,1.68-.74,0-1.48,.19-2.14,.53-1.08,.62-2.3,.97-3.55,1.02-.47,0-.94,.12-1.36,.33-.63,.32-1.34,.45-2.05,.38-1.41-.11-2.76,.62-3.45,1.86-.79,1.3-.77,1.25-2.19,.66-1.75-.73-3.62-1.24-5.27,.02-1.28,.99-2.93,1.37-4.52,1.03-1.63-.3-3.29,.41-4.2,1.79-1.47,2.16-3.27,4.08-5.32,5.71-1.9,1.51-3.82,2.99-5.72,4.49-1.98,1.55-3.84,3.28-6.22,4.27-.62,.14-1.2,.42-1.68,.84,.62,.64,1.59,.78,2.36,.34,.55-.26,1.16-.38,1.77-.36,.77,.02,1.53-.19,2.18-.61,3.2-1.74,6.17-3.84,9.23-5.79,.33-.21,.68-.38,1.02-.57-2.65,3.29-6.36,5.06-9.87,7.27,.54,.31,1.12,.54,1.73,.69,.71,.22,1.6,.44,1.83,1.13,.54,1.38,1.63,2.48,3.01,3.02,.17,.11,.32,.25,.45,.4,1.74,1.44,3.67,2.62,5.74,3.51,1.61,.56,2.95,1.7,3.77,3.19,.64,1.33,1.36,2.62,2.16,3.86,2,3.31,3.79,6.74,6.25,9.75,.54,.65,1.03,1.33,1.47,2.04,.69,1.23,.73,2.71,.12,3.98-.14,.38-.4,.66-.84,.56-.37-.08-.61-.44-.53-.81,0-.02,0-.03,.01-.05,.06-.43,.17-.86,.32-1.26,.26-.56,.23-1.22-.11-1.74-1.32-1.94-2.76-3.79-4.33-5.54,.85,2.22,1.96,4.29,2.97,6.42,.33,.69,.9,1.68-.06,2.14-.89,.43-1.42-.53-1.8-1.24-.87-1.52-1.64-3.09-2.31-4.71-1.26-2.91-3.14-5.51-5.51-7.62-.68-.6-1.25-1.32-1.68-2.12-.6-1.25-1.49-2.33-2.6-3.17-.62-.47-1.17-1.02-1.64-1.64-.45-.69-1.14-1.18-1.94-1.38-2.38-.46-3.99-1.96-5.44-3.74-.25-.28-.51-.54-.79-.78-.75-.8-1.91-1.08-2.95-.71-.99,.36-2.06,.43-3.09,.21-.99-.43-2.13-.29-2.97,.38-.18,.16-.45,.15-.62-.03,0,0-.01-.02-.02-.02-.2-.23-.08-.43,.08-.63,.1-.12,.29-.19,.25-.45-.88-.02-1.67,.56-2.63,.24-1.5-.54-3.16-.36-4.52,.48-5.63,3.43-11.64,6.19-17.9,8.24-1.66,.55-3.3,1.13-5.12,1.76,.65,.28,1.2,.74,1.6,1.33,.37,.77,1.29,1.09,2.06,.72,.05-.03,.11-.05,.16-.09,4.78-1.81,9.46-3.88,14.01-6.19,.76-.49,1.63-.78,2.54-.85-4.76,3.69-10.49,5.45-15.9,7.94,1.05,.11,1.94,.8,2.32,1.78,.3,.86,.69,.72,1.32,.43,4.49-2.06,8.88-4.34,13.32-6.5,1.17-.61,2.39-1.1,3.66-1.47-.24,.23-.51,.44-.8,.61-5.12,3.04-10.42,5.76-15.88,8.13-.95,.43-.91,.92-.83,1.76,.08,.82,.5,.96,1.15,1.07,1.96,.37,3.47,1.93,3.77,3.9,.03,.37,.24,.71,.55,.92,1.88,1.16,3.22,2.96,5.08,4.14,.38,.24,.64,.62,.72,1.06,.24,1.29,.89,2.48,.92,3.81,0,.28,.11,.54,.31,.72,.97,.99,1.69,2.19,2.12,3.5,1.24,2.35,2.01,4.93,2.25,7.58-.12,.77,.04,1.56,.45,2.22,2.33,2.78,2.82,6.01,2.36,9.48-.07,.55-.32,1.01-.95,.97-.57-.03-.8-.5-.82-.99-.08-.94-.08-1.88,.02-2.82,.15-1.69-.29-3.38-1.23-4.78-.38-.65-1.05-1.07-1.32-1.85h0Zm144.57-37.18c-.47-.3-.73-.83-.68-1.39,.1-1.03-.49-1.14-1.2-.97-.54,.05-1.08,.05-1.62,0-3.26,.07-6.52,.32-9.76,.73-.5,.07-.99,.17-1.49,.23-.31,.04-.64,.02-.7-.38-.05-.33,.2-.48,.47-.55,.36-.09,.72-.16,1.09-.22,3.37-.46,6.76-.73,10.16-.79,.4-.01,.8,.1,.79-.57,.07-2.15,.34-4.29,.8-6.4,.14-.77,.05-1.17-.87-1.23-1.93,0-3.82-.5-5.5-1.44-.46-.2-.97-.3-1.47-.28-2.07-.3-4.06-1.04-5.84-2.15-.36-.25-.81-.34-1.24-.26-.93,.2-1.78,.65-2.47,1.3-.5,.61-1.27,.92-2.05,.85-.81-.02-1.61,.27-2.22,.8-1.13,.9-2.28,1.77-3.46,2.61-.54,.54-1.32,.76-2.06,.59-.68-.27-.76,.08-.89,.52-.11,.37-.25,.71-.68,.76-.39,.04-.59-.28-.79-.54-.15-.18-.27-.38-.34-.6-.59-2.23-1.82-4.2-2.68-6.32-.55-1.36-1.38-2.59-2.45-3.6-1.57-1.37-3.05-2.84-4.44-4.4-.63-.65-1.32-1.23-2.06-1.74-1.52-1.23-3.41-1.77-5.04-2.77-2.49-1.45-5.1-2.69-7.79-3.72-.98-.54-2.1-.77-3.21-.67,.1,.66,.54,1.21,1.16,1.46,.97,.46,1.91,.99,2.84,1.52,5.4,2.91,10.4,6.5,14.89,10.68,.85,.71,1.54,1.6,2.03,2.59-.86-.31-1.63-.82-2.25-1.49-5.09-4.77-10.81-8.81-17.02-12-.18-.1-.36-.32-.66-.13,.27,.87,.58,1.73,.81,2.61,.21,.84,.8,1.53,1.59,1.88,3.14,1.63,6.11,3.55,8.89,5.74,.77,.44,1.32,1.19,1.51,2.05-3.67-2.41-7.14-5.08-11.19-7.09,1.73,6.49,2.83,13.13,3.27,19.83,1.05-.94,2.26-1.04,3.37-1.39,1.15-.24,2.05-1.12,2.32-2.26,.11-.57,.43-1.08,.89-1.43,1.16-.86,2.31-1.74,3.49-2.58,1.08-.82,2.41-1.26,3.77-1.24,.47,.01,.93,.14,1,.66,.08,.58-.42,.71-.86,.78-.97,.11-1.91,.42-2.77,.89-1.1,.71-2.26,1.34-3.45,1.89-.72,.32-1.24,.96-1.41,1.73-.27,1.14-1.12,2.04-2.24,2.37-1.5,.4-2.69,1.53-3.18,3-.15,.46-.12,.72,.3,1,1.03,.7,2.05,1.42,3.02,2.19,.58,.46,.87,.51,1.25-.24,.93-1.83,2.14-3.51,3.59-4.98,.26-.26,.52-.53,.79-.77,.25-.22,.56-.5,.87-.14s-.02,.61-.24,.86c-.11,.12-.24,.24-.36,.35-1.59,1.6-2.94,3.43-3.98,5.43-.24,.45-.34,.76,.18,1.07,.59,.36,1.05,1.19,1.69,1.15,.54-.04,.71-.97,1.11-1.46,.02-.03,.04-.05,.06-.08,.2-.28,.42-.61,.81-.34s.15,.6-.02,.89c-.35,.61-1.08,1.29-.98,1.79,.12,.59,.98,1.03,1.51,1.54,.12,.12,.24,.24,.36,.35s.22,.28,.42,.17c.29-.16,.72-.46,.8,.03,.09,.5-.04,1.01-.36,1.4-1.18,.9-1.33,1.91-.25,2.82,.29,.22,.58,.47,.84,.72,.37,.4,.62,.35,.93-.09,.74-1,1.58-1.93,2.49-2.78,.7-.69,1.46-1.3,2.28-1.83,.34-.21,.71-.34,.97,.08,.24,.4-.09,.59-.38,.78-.63,.38-1.2,.85-1.71,1.37,1.18,1.35,2.75,2.22,3.38,3.9-1.62-.51-2.6-1.78-3.69-2.9-.34-.35-.47-.36-.74-.03-.61,.72-1.22,1.44-1.85,2.14-.32,.35-.3,.6,.07,.91,.53,.39,.94,.92,1.2,1.53-.36,.15-.58-.05-.84-.11-.56-.13-.89-1.07-1.49-.65-.45,.31-.62,1.01-.91,1.54-.03,.06-.06,.12-.09,.18q-.83,1.7,.47,3.02c.27,.26,.52,.53,.76,.81,.24,.3,.71,.72,.42,1.02-.37,.39-.76-.13-1.1-.36-.12-.08-.2-.28-.51-.15-.79,2.22-1.42,4.5-1.88,6.81-.04,.17,.02,.34,.15,.45,.64,.61,1.29,1.22,2.06,1.94-.04-1.01,0-2.01,.15-3.01,0-3.6,1.82-6.28,4.38-8.51,2.17-1.7,4.59-3.06,7.17-4.04,5.14-2.21,10.51-3.87,16-4.96,2.01-.41,4.05-.7,6.1-.86,2.36-.34,4.75-.41,7.12-.21,0-.77-.03-1.53,0-2.3,.03-.61-.16-.77-.81-.74-2.83,.15-5.63,.48-8.42,.87-4.98,.58-9.89,1.59-14.69,3.02-.44,.14-1.12,.76-1.37,0-.2-.59,.65-.64,1.08-.77,7.67-2.29,15.6-3.63,23.6-3.97,.23-.01,.44,.05,.66-.13,.69-.55,.89-.06,.93,.52,.06,.87,.07,1.75,.03,2.62-.11,.51,.2,1.01,.71,1.12,.06,.01,.13,.02,.19,.02,1.16,.21,2.17,.9,2.8,1.89,.89,1.58,1.68,3.22,2.37,4.91-.05-6.84,.65-13.5,.42-20.18,0-.2-.01-.4-.03-.6-.29-2.9-.23-5.82,.19-8.71,.16-1.08,.45-2.14,.86-3.16,.12-.34,.06-.65-.24-.76-.42-.16-.34,.27-.4,.49-1.72,6.96-2.73,14.07-3,21.24,0,.39-.04,.77-.07,1.35-.43-.5-.68-1.13-.73-1.78-.17-1.2-.15-2.43,.06-3.62,.4-2.03-.31-3.84-.84-5.7-.27-.85-.88-1.55-1.69-1.92-.2,1.44-.43,2.79-.58,4.15-.16,1.44-.13,1.44,1.28,1.75,.23,.06,.46,.14,.68,.23-.36,.29-.81,.41-1.27,.35-.71,.04-1,.32-.92,1.06,.15,.5,.06,1.05-.23,1.48Zm-39.52,29.57c-.12,1.75,.01,3.52,.4,5.23,.43,1.73,.8,3.48,1.39,5.16,1.31,3.73,3.6,6.54,7.63,7.57,2.08,.53,4.16,1.04,6.21,1.66,2.78,.81,5.72,.95,8.56,.4,3.27-.7,6.42-1.91,9.33-3.57,3.07-1.55,5.47-4.17,6.74-7.37,1.09-2.6,2.28-5.15,3.29-7.78,.89-2.33,2.53-4.37,2.59-7.05,.03-1.57,.34-3.06-.26-4.66-.88-2.52-1.9-4.99-3.06-7.4-.62-1.29-1.89-2.13-3.31-2.2-2.56-.24-5.14-.25-7.71-.05-3.56,.28-7.1,.82-10.58,1.64-5.33,1.17-10.45,3.16-15.18,5.89-2.82,1.52-4.89,4.12-5.74,7.2-.33,1.76-.43,3.55-.3,5.33h0Zm-50.66,28.1c-.17,2.39,.71,2.92,2.87,3.15,.33,.03,.67-.1,1-.08,.58,.03,1.11-.3,1.33-.83,.84-1.38,1.83-2.67,2.94-3.84,1.35-1.52,3.41-2.21,5.41-1.81,.96,.17,1.95-.1,2.69-.74,2.98-2.21,5.46-5.04,7.27-8.28,.2-.23,.29-.54,.27-.84-.25-1.01-.35-2.05-.67-3.05-.5-1.53-.24-3.26-1.3-4.64-.07-.09-.03-.26-.02-.4,.09-.9-.42-1.75-1.25-2.11-1.16-.67-2.18-1.57-2.99-2.63-1.34-1.81-3.4-2.95-5.65-3.12-1.61-.07-3.22-.23-4.81-.47-1.54-.23-3.07-.66-4.68-.13-2.64,.88-4.71,2.83-7.3,3.79-.22,.1-.4,.26-.53,.46-1.41,1.94-3.41,2.33-5.64,2.24-2.09-.05-4.17-.21-6.24-.49-.62-.09-1.26-.23-1.59,.63-1.65,3.87-3.59,7.61-5.79,11.2-.27,.47-.93,1.02-.6,1.48,.51,.51,1.24,.73,1.95,.58,.4-.04,.8-.12,1.18-.23,.71-.22,1.47-.21,2.18,.01,.37,.16,.78,.23,1.18,.19,2.02-.32,4.08-.39,6.12-.22,2.74,.01,5.32,.07,7.89,1.62,3.08,1.65,5.26,4.6,5.94,8.03,.09,.44,.17,.95-.31,1.16-.43,.19-.52-.38-.86-.66Zm3.92,4.36c-.78,0-1.28,.03-1.78,0-1.9,.05-3.49-1.45-3.54-3.35,0-.02,0-.04,0-.05-.06-.57-.01-1.15-.1-1.71-.22-1.51-1.19-3.01-2.71-3.03-.95,.04-1.89-.22-2.69-.74-1.66-1.2-3.67-1.41-5.54-2.01-1.14-.36-2.34,.35-3.39-.04-1.51-.52-3.17-.34-4.54,.5-.79,.4-1.71,.42-2.52,.06-1.28-.43-2.63-.61-3.97-.5-.69,.02-1.31,.41-1.63,1.01-1.55,2.53-3.14,5.02-4.7,7.54-2.1,3.58-2.89,7.77-2.24,11.87,.09,1.73,1.46,3.12,3.19,3.24,.64-.02,1.27-.14,1.88-.35,1.57-.38,3.22,.29,4.07,1.67,.61,.81,.88,1.93,1.86,2.42,2.29,1.11,4.7,1.95,7.19,2.49,2.91,.83,6.05,.02,8.19-2.12,3.3-3.46,6.3-7.19,8.95-11.17,.13-.18,.41-.36,.04-.66-.7-.57-1.3-1.27-2.02-1.82-4.41-3.37-8.44-7.39-14.21-8.49-.17-.02-.31-.16-.31-.34-.02-.2,.12-.37,.31-.39,.02,0,.03,0,.05,0,.4-.02,.8,.01,1.2,.08,1.44,.34,2.82,.91,4.09,1.66,3.63,2.13,7.04,4.61,10.19,7.4,.57,.44,1,1.04,1.25,1.72l3.42-4.87Zm56.94-73.07c1.6-.93,3.23-1.75,4.81-2.65,.95-.69,2.11-1.03,3.29-.97,.2,.04,.4,.01,.58-.09,1.12-1.13,2.87-.91,4.03-1.97,.38-.23,.85-.28,1.27-.13,2.65,.49,4.9,2.08,7.5,2.71,.23,.07,.43,.2,.59,.38,1.36,1.36,3.12,1.43,4.88,1.5,.42,.02,.59-.11,.66-.54,.17-1.03,.38-2.05,.59-3.07,.4-1.87,.79-3.75,1.22-5.61,.09-.4,.11-1.04,.69-.93,.64,.12,.31,.71,.24,1.1-.13,.73-.34,1.44-.49,2.16-.45,2.24-.86,4.49-1.35,6.72-.19,.86,.51,1.03,.95,1.16,.57,.18,.35-.49,.41-.76,.79-4.74,2.09-9.38,3.89-13.84,.16-.33,.24-.7,.23-1.07-.03-.48-.33-.99,.48-1.1,.16-.02,.1-.25,0-.33-1.36-1.02-2.12-2.75-3.87-3.29-1.09-.34-2.14-.77-3.21-1.19-.69-.28-1.45-.35-2.18-.22-.73,.14-1.47,.13-2.2-.02-1.09-.2-2.2-.27-3.31-.23-.78,.03-1.55-.14-2.24-.5-.72-.39-1.57-.47-2.35-.22-2.04,.49-3.87,1.61-5.23,3.21-1.24,1.47-2.35,3.04-3.34,4.7-2.64,4.82-4.83,9.86-6.55,15.07h0ZM61.41,155.08c-1.97-.02-2.91,.7-2.78,2.02,.09,.84,.26,1.66,.51,2.46,.49,1.55,.26,2.07-1.3,2.51-.5,.14-1.05,.28-1.09,.88-.24,1.1,.1,2.25,.89,3.05,1.17,1.09,2.56,1.93,4.07,2.46,1.56,.52,3.15,.95,4.77,1.29,2.21,.4,4.34,1.16,6.64,1.15,1.53,0,3.05-.25,4.55-.18,2.18,.07,4.31-.67,5.97-2.09,.93-.72,2.21-1.24,2.49-2.5,.3-1.45,.47-2.91,.52-4.39,.03-.61-.1-1.42-1-1.52-.72-.14-1.38-.51-1.88-1.05-.85-.72-1.73-1.62-3.02-1.23-1.09,.39-2.29-.06-2.86-1.06-.59-.92-1.53-1.56-2.61-1.76-1.89-.24-3.78-.81-5.67,.03-.23,.06-.47,.08-.7,.05-2.58,0-5.17,.44-7.48-.11ZM274.53,19.56c-5.95,1.74-11.65,4.22-16.98,7.39,.83,0,1.33,0,1.83,0,1.8-.04,3.29,.87,4.86,1.54,.39,.14,.59,.56,.46,.95,0,.02-.02,.04-.02,.06-.22,.48-.64,.39-1.05,.24-.13-.04-.25-.09-.38-.14-2.03-.92-4.24-1.36-6.47-1.28-.42,.03-.96-.26-1.26-.09-1.46,.87-2.83,1.87-4.09,3,1.09-.09,2.17,.2,3.07,.82,.29,.17,.61,.29,.94,.34,2.16,.4,4.26,1.34,6.54,.76,.23-.04,.47-.03,.7,.04,2.97,.73,5.98,1.4,8.06,3.95,.56,.68,.77,.36,1.07-.24,1.31-2.67,2-5.6,2.02-8.57-.03-.71,.04-1.41,.21-2.1,.1-.32,.15-.74,.6-.65s.37,.47,.32,.82c-.09,.46-.14,.93-.15,1.4,.02,3.89-.98,7.72-2.9,11.1-.13,.23-.38,.52-.22,.74,.77,1.01,.64,2.6,2.04,3.21,.31,.13,.3,.44,.18,.7-.26,.87-.17,1.8,.26,2.6,.11-.16,.21-.32,.3-.48,1.39-3.05,2.24-6.31,3.49-9.41,.55-1.22,.73-2.58,.51-3.91-.4-1.87-.9-3.71-1.49-5.52-.76-2.44-2.71-4.45-2.46-7.28ZM83.17,30.94c-.3-.64-.55-1.11-.74-1.59-.77-1.75,.02-3.8,1.78-4.57,.3-.13,.62-.22,.95-.27,.69-.12,1.4-.17,2.1-.28,1.99-.31,2.05-.42,1.21-2.2-.04-.09-.09-.18-.13-.27-.39-.53-.29-1.27,.24-1.66,.1-.07,.21-.13,.33-.17,.27-.13,.55-.26,.59-.62,.12-1.16,.99-1.52,1.93-1.77,1.34-.43,2.65-.98,3.9-1.62-.11-.18-.29-.31-.5-.35-2.66-.68-5.19-1.73-7.82-2.5-2.1-.79-4.32-1.2-6.56-1.2-2.86,.19-5.49,1.65-7.17,3.98-1.49,1.82-1.5,1.73-.15,4.06,.96,1.65,2.29,3.11,3,4.9,1.26,3.2,3.65,5.06,7.04,6.16Zm3.53,41.86c-.62,.56-1.34,1.01-2.12,1.32-1.9,.75-3.81,1.51-5.73,2.2-.72,.26-.91,.6-.55,1.25,.48,.81,.89,1.65,1.22,2.53,.15,.35,.44,.61,.79,.74,.73,.27,1.38,.72,1.89,1.3,.26,.32,.49,.21,.79,.09,1.25-.49,2.51-.95,3.77-1.42,4.44-1.65,8.8-3.5,13.13-5.43,.28-.13,.84-.1,.63-.68-.5-1.04-1.32-1.89-2.33-2.43-.6-.42-1.09,.09-1.6,.25-.8,.25-1.57,.59-2.36,.89-.35,.13-.82,.5-1.03-.08-.18-.51,.37-.65,.72-.79,.89-.37,1.8-.71,2.73-1.08-.57-.98-1.19-1.92-2.3-1.99-1.13-.12-2.27,0-3.35,.34-2.11,.78-4.26,1.44-6.4,2.14-1.85,.61-3.71,1.21-5.56,1.83-.44,.15-1.1,1.37-.86,1.62,.4,.41,.77-.12,1.17-.17,.1-.02,.19-.05,.29-.09,2.29-.96,4.66-1.74,7.07-2.34h0ZM6.8,108.34c-.69,1.04-1.21,2.17-1.56,3.36-1.45,4.16-1.8,8.53-2.5,12.84-.49,2.99-.06,5.62,2.46,7.62,.1,.09,.2,.19,.27,.3,.71,1.01,1.89,1.57,3.12,1.48,.99,0,1.32-.34,1.36-1.26-.05-.79,.22-1.56,.76-2.13,.65-.58,.85-1.5,.5-2.29-.52-1.67-.87-3.38-1.05-5.12-.22-1.97-.81-3.89-1.74-5.64-.66-1.33-.61-2.38,.58-3.32,.95-.76,.69-1.38,.17-2.11-.35-.45-.72-.88-1.12-1.29-.7-.63-1.14-1.49-1.23-2.43Zm141.48,8.34c1.39,.2,2.75,.6,4.03,1.19,.75,.54,1.75,.58,2.53,.1,1.32-.86,2.97-1.03,4.44-.45,.39,.1,.8,.11,1.2,.03,2.75-.1,5.48,.57,7.87,1.94,.6,.32,1.18,.8,1.85,.63,1.31-.47,2.77-.06,3.64,1.02-.42-1.18-1.3-2.14-2.43-2.68-1.4-.73-2.81-1.44-4.23-2.13-.9-.52-1.92-.82-2.96-.88-1.21,0-2.42-.14-3.62-.16-2.51-.13-5.03,.12-7.47,.74-1.04,.32-2.15,.27-3.15-.14-1.19-.48-1.19-.47-1.69,.79h0Zm121.06-56.13c.6-4.4,1.47-8.76,2.62-13.04,.69-2.31-.37-3.84-1.36-5.67-.13,.23-.2,.33-.25,.44-1.72,4.56-2.96,9.28-3.71,14.09-.07,.34,.09,.68,.4,.85,1.17,.77,2,1.97,2.31,3.34h0Zm-153.49,28.66c-.2-1-.1-2.25-.84-2.84-1.68-1.33-3.03-3.07-4.96-4.11-.62-.23-1.05-.79-1.14-1.44-.13-1.42-1.14-2.61-2.52-2.97-1.39-.55-2.35-1.08-2.21-2.73,.02-.21,.01-.64-.42-.48-.3,.12-.91,.14-.74,.63,.56,1.55,.77,3.34,2.53,4.17,.67,.26,1.22,.75,1.56,1.39,.47,1,1.23,1.83,2.19,2.38,2.49,1.59,5.13,3.14,6.54,6Zm96.25-15.26c-.08,1.75-.15,3.47-.24,5.19-.02,.27,.13,.52,.38,.62,.78,.46,1.57,.91,2.31,1.43,.57,.4,.74,.16,.86-.38,.12-.66,.29-1.31,.51-1.94,.87-2.19,.89-2.19-1.14-3.41-.07-.03-.15-.06-.23-.08-.6,1.13-.51,2.58-1.58,3.69-.19-1.04-.08-2.12,.32-3.11q.4-1.43-1.2-2.02h0Zm-55.46-.74c-1.13-1.4-1.61-3.06-2.6-4.45-.59-.69-1.04-1.5-1.32-2.36-.19-.65-.55-1.23-1.05-1.68-1.33-1.41-3.23-1.84-4.84-2.92,.05,.42,.35,.49,.51,.68,1.14,1.32,2.7,2.32,3.52,3.86,1.34,2.52,3.52,4.31,5.15,6.57,.11,.24,.36,.37,.62,.31h0Zm54.94,10.21c-.56,1.43-.35,2.33,1.19,3,1.56,.79,2.99,1.8,4.25,3,.67-1.88,.5-2.15-1.34-3.25-.67-.4-.53,.4-.99,.43-.22-1.83-1.83-2.31-3.11-3.18h0Zm-95.23,8.75c-.09,1.29,.31,2.57,1.13,3.58,1.04,1.29,1.83,2.75,2.34,4.32,.26,.75,.55,1.49,.86,2.35,.55-3.2-1.72-8.56-4.32-10.24h0Zm95.58-26.13c-.04,.32-.05,.42-.07,.52-.48,1.63,.39,3.35,1.98,3.93,1.27,.58,1.21,.75,1.82-.58,.16-.35,.61-.72,.04-1.13-1.22-.87-2.43-1.77-3.77-2.75h0Zm6.28,29.98c.29-.53,.14-1.19-.34-1.55-.52-.4-1.02-.83-1.49-1.28-1.58-1.54-3.37-2.85-5.32-3.89-.3-.18-.69-.37-.76,.13-.04,.34-.67,.77,.13,1.14,2.96,1.23,5.61,3.1,7.77,5.45h0Zm3.46-18.3c-.08,.1-.15,.21-.21,.32-.3,.79-.59,1.57-.87,2.36-.51,1.49-.49,1.47,.76,2.48,.45,.36,.57,.22,.77-.21,.43-.91,.91-1.8,1.39-2.69,.16-.3,.25-.52-.07-.78-.6-.48-1.17-.99-1.77-1.5Zm-1.92,.79c-.95,.18-1.46-.61-2.27-.95,.02,.64-.74,1.16-.24,1.73,.53,.69,1.23,1.22,2.04,1.56,.3,.09,.47-1.18,.77-1.81,.03-.06,.05-.12,.07-.19,.68-1.88,.69-1.9-.9-3.12-.24-.18-.55-.74-.86-.28-.27,.39-.72,.95,.02,1.46,.63,.35,1.12,.92,1.36,1.6h0Zm44.47-22.21c-.47,2.28-.72,4.54-1.01,6.79-.03,.21-.14,.44,.22,.55,.44,.23,.98,.05,1.21-.39,.07-.13,.1-.28,.1-.43,.2-1.52,.34-3.06,.62-4.57,.28-.76-.1-1.6-.85-1.88-.09-.03-.18-.06-.28-.07h0Zm-47.77,35.45c.43-.5,.37-1.25-.13-1.68-.04-.03-.08-.07-.13-.1-1.64-1.29-3.34-2.49-5.11-3.59-.09,.46-.16,.92-.28,1.37-.05,.2-.2,.34,.1,.46,1.99,.94,3.85,2.13,5.55,3.53h0Zm-76.5-34.59c-.94-2.64-6.58-2.9-8.84-.4,.87-.04,1.73-.14,2.58-.31,2.18-.59,4.3-.87,6.26,.71h0Zm-66.2,15.64c.12,.19-.35,.92,.45,.68,1.61-.47,3.19-1.05,4.8-1.53,.41-.12,.27-.27,.25-.55-.07-.92-.44-1.14-1.29-.73-.48,.23-1.04,.29-1.08,.99-.01,.17-.26,.32-.37,.2-.79-.92-1.51,0-2.26,.08-.43,.04-.64,.32-.49,.86h0Zm57.09-17.34c-2.7-1.51-4.3-1.43-6.27,.32,.81,.5,1.8,.6,2.69,.26,.56-.26,1.2-.29,1.78-.09,.64,.22,1.36,.02,1.79-.5h0Zm-33.72,10.63c2.11-.75,4.23-1.48,6.33-2.26,.41-.15,.1-.51,.02-.77s-.11-.59-.5-.46c-.29,.1-.69,.1-.76,.54,0,.17-.01,.33-.04,.5-.06,.18-.14,.44-.28,.5-.25,.1-.31-.19-.39-.36-.11-.26-.2-.5-.57-.34-1.35,.57-2.71,1.13-4.06,1.69-.25,.11-.37,.25-.24,.54,.1,.22,.16,.45,.49,.41Zm125.06,8.11c-.12-.12-.22-.25-.34-.35-.5-.44-1.03-.86-1.51-1.32-.4-.38-.56-.23-.79,.19-.75,1.39-.77,1.38,.5,2.39,.29,.23,.57,.47,.86,.69,.12,.09,.3,.25,.42,.04,.3-.52,.56-1.06,.86-1.63h0Zm-3.83,14.2c-.11,.47-.25,.95-.34,1.45-.15,.78,.54,1.1,1.01,1.28,.43,.17,.34-.52,.45-.82,.26-.65,.41-1.34,.62-2.01,.44-1.43,.36-1.63-1.11-2.41-.05,.57-.59,1.09-.01,1.67,.26,.26,.79,.53,.52,.94-.22,.33-.66-.1-1.01-.12-.04,0-.09,.01-.13,.02Zm.63-16.76c-.09-.52-.55-.68-.87-.94-1.41-1.11-1.12-1.25-1.95,.5-.12,.26-.46,.58-.02,.87,.59,.49,1.22,.93,1.89,1.31,.02,0,.1-.08,.13-.14,.28-.54,.55-1.08,.82-1.61h0Zm-84.59-23.25c.36-.23,.65-.39,.9-.59,.29-.23,.52-.52,.81-.74q1.27-.97,.74-2.5c-2.65,1.29-2.87,1.63-2.46,3.83Zm-4.45-.97c-.12-.44-.04-1.15-.47-1.47-.4-.3-.78,.33-1.19,.51-.24,.11-.45,.29-.69,.41-.35,.13-.53,.52-.4,.88h0c.33,1.62,.31,1.63,1.74,.74,.26-.16,.51-.32,.76-.48,.22-.1,.33-.36,.25-.58h0Zm88.51,36.56c.2-.68,.74-1.36,.4-1.86-.56-.65-1.21-1.23-1.93-1.71-.09-.04-.19-.04-.27,0-.35,.19-.56,1.83-.24,2.07,.65,.5,1.33,.97,2.05,1.5h0Zm-6.71-3.4c-.18,.65,.03,1.2-.24,1.69-.07,.1-.04,.24,.06,.31,.04,.03,.09,.04,.14,.04,.79,.07,1.28,.69,1.94,1.02,.27,.13,.58,.73,.86,.23,.22-.41,.7-1.03,0-1.51-.88-.6-1.79-1.16-2.76-1.78h0Zm11.92,18.76c.71-2.27-1.16-3.04-2.25-4.45-.15,.74-.5,1.29-.01,1.85l2.26,2.59ZM63.55,74.04c.59-.36,1.24-.61,1.92-.72,.79-.25,.26-.81,.23-1.24-.03-.42-.16-.65-.69-.56-2.09,.35-2.1,.33-1.54,2.39,.02,.05,.05,.09,.08,.14Zm67.97-23.76c.64-.36,1.26-.7,1.88-1.06,.21-.12,.4-.29,.2-.56-.35-.46-.19-1.11-.57-1.56-2.15,1.3-1.99,.73-1.51,3.18h0Zm-61.65,20.47c.03,.78,.33,1.37,.62,1.23,.68-.34,1.82,.04,1.97-1.06,.05-.39,.13-1.17-.52-1.34-.55-.14-2.08,.83-2.06,1.17h0Zm30.78,.27c.56,.91,1.07,1.65,1.49,2.43,.28,.52,.48,.77,1.14,.46s.57-.64,.39-1.19c-.48-1.46-1.85-1.19-3.01-1.7h0Zm113.39,2.67c.05-.59,.89-1.12,.25-1.7-.62-.61-1.36-1.07-2.17-1.37-.04,2.4-.54,1.76,1.92,3.07h0Zm1.81,9.54c-.59,1.04-.5,1.8,.55,2.32,.21,.1,.36,.32,.58,.4,.29,.12,.57,.75,.86,.25,.21-.38,.63-.98,.03-1.46-.65-.51-1.32-1.01-2-1.52h0Zm-87.68-31.6c2.74-1.07,2.6-.62,1.97-2.7q-2.38,1.23-1.97,2.7Zm-58.94,20.23c-.48-.31,.06-1.28-.76-1.17-.64,.09-1.68-.14-1.83,.85-.06,.4-.15,1.34,.62,1.28,.64-.05,1.54,0,1.96-.97Zm146.34,1.07s-.17,.05-.2,.12c-.16,.42-.5,.81-.37,1.3,.62,.54,1.32,.98,2.06,1.32,.09-.09,.17-.2,.23-.32,.38-.69-.8-2.39-1.72-2.43Zm-115.39-12.27c-.68,.25-1.29,.64-1.8,1.16,.22,.42,.19,1.2,.74,1.15,.63-.05,1.51-.23,1.73-.9,.13-.4-.29-1.04-.66-1.41Zm-5.25,7.76c.39,.47,.64,.79,.89,1.09,.18,.21,.36,.42,.67,.21,.66-.43,1.22-.1,1.78,.23,.17,.11,.34,.22,.52,.31,.15,.07,.3,.28,.46,.1-.81-1.58-2.6-2.38-4.32-1.94h0Zm-24.51,5.24c.25,.17-.27,.82,.45,.83,.69,.01,2.09-.68,1.99-1.01-.1-.35,.19-.97-.5-.99-.82-.02-1.95,.63-1.94,1.16h0Zm150.35,19.05c.38-1.46,.71-2.82,1.08-4.16,.09-.31,.07-.52-.25-.63-.36-.12-.37,.21-.43,.4-.34,1.11-.66,2.24-.99,3.35-.14,.49,.03,.82,.59,1.05h0Zm-.95-9.73c-.05,.12-.1,.23-.14,.35-.45,1.31-.37,1.54,.73,2.29,.27,.18,.4,.26,.58-.11,.58-1.14,.37-1.63-1.17-2.52h0Zm-123.41-18.76c.45-.45,1.41-.2,1.43-.99,.01-.4-.13-1.26-.77-1.17-.48,.07-1.41,0-1.39,.87-.07,.54,.23,1.06,.73,1.28Zm10.23-1.8c-.32-.42-.26-1.27-.79-1.14-.56,.14-1.39,.27-1.57,.98-.06,.26,0,1.09,.58,1,.68-.02,1.33-.33,1.78-.84h0Zm-29.5,12.07c-1.21-.08-1.72,.64-2,1.61-.1,.33-.22,.68,.43,.51,1.29-.34,1.4-.45,1.57-2.12h0Zm140.55,16.83c-.5,1.05-.33,1.55,.57,2.11,.31,.19,.37,.09,.48-.2,.36-1-.44-1.34-1.05-1.91h0Zm-76.09-32.97c.59,1.01,1.59,1.72,2.73,1.94-.84-.68-1.42-1.71-2.74-1.94h0Zm81.28,27.4c.02-.21-.22-.32-.38-.46-.1-.09-.27-.12-.32,.05-.16,.5-.52,.96-.4,1.52,.04,.18,.21,.55,.46,.21,.25-.42,.47-.86,.64-1.32h0Zm-3.07,7.68c-.23,.72-.58,1.42,.47,1.86,.08-.7,.52-1.42-.47-1.86h0Zm-123.98-27.25c-.14-.24-.13-.62-.47-.45-.4,.2-1.08,.07-1.12,.77-.01,.22,.16,.44,.38,.3,.38-.24,.99-.09,1.21-.62Z"/>
    <path id="Path_18" data-name="Path 18" d="M287.03,170.92c.03,1.65-.08,3.3-.32,4.93-.54,3.64-2.46,6.94-5.38,9.19-2.63,2.05-5.58,3.67-8.72,4.79-4.71,1.75-9.55,3.06-14.37,4.43-.59,.06-1.02,.58-.96,1.17,0,.02,0,.04,0,.06,.11,5.08-.16,10.17-.8,15.21-.3,2.2-.89,4.36-1.74,6.41-1.8,4.17-4.42,5.66-8.9,4.93-6.7-1.21-13.24-3.13-19.53-5.74-9.04-3.45-17.54-8.16-25.27-13.99-6.43-4.97-12.01-10.95-16.52-17.72-3.61-5.28-5.8-11.39-6.34-17.76-.39-4.86-.52-9.75-.38-14.62-.03-1.31,.26-2.61,.86-3.78,1.41-2.54,2.94-4.91,5.58-6.34,1.42-.77,2.82-1.57,4.26-2.3,3.88-1.88,8.28-2.41,12.5-1.52,3.32,.58,6.59,1.37,9.81,2.36,.84,.26,1,.08,.79-.75-.4-1.7-.68-3.43-.86-5.17-.5-2.33,.98-4.63,3.31-5.14,0,0,0,0,0,0,2.15-.69,4.32-.41,6.5-.2,6.62,.78,13.14,2.26,19.45,4.42,8.24,2.61,16.45,5.33,24.67,8.02,4.07,1.34,7.9,3.29,11.38,5.79,6.43,4.56,9.68,10.92,10.68,18.59,.19,1.57,.28,3.15,.27,4.74Zm-33.35,27.72c0-1.62,.02-3.23,0-4.85-.14-8.06-2.24-15.48-7.18-21.97-1.47-1.93-2.92-3.87-4.38-5.8-4.44-5.95-9.97-11.01-16.28-14.91-6.89-4.44-14.54-7.58-22.56-9.26-1.84-.41-3.7-.71-5.58-.88-5.31-.33-9.6,2.15-13.73,5.03-.51,.44-.95,.96-1.29,1.55-1.45,2.03-1.56,4.4-1.74,6.75-.38,4.8-.26,9.63,.38,14.4,.51,4.21,1.89,8.27,4.06,11.92,4.76,7.7,10.97,14.39,18.3,19.71,9.76,7.17,20.69,12.01,32.19,15.62,3.49,1.13,7.07,1.97,10.7,2.52,2.54,.36,3.54-.2,4.63-2.54,.59-1.33,1.02-2.71,1.3-4.13,.93-4.34,.98-8.75,1.18-13.16Zm30.29-27.86c0-.77,.03-1.55,0-2.32-.03-.74-.09-1.48-.2-2.21-.93-6.68-3.68-12.32-9.27-16.39-3.14-2.33-6.61-4.18-10.29-5.5-6.47-2.28-12.93-4.6-19.43-6.8-8.13-2.76-16.24-5.57-24.86-6.41-1.76-.32-3.56-.28-5.3,.12-1.66,.51-2.27,1.32-2.17,3.03,.17,2.08,.45,4.15,.86,6.19,.08,.63,.54,1.15,1.15,1.32,9.31,3.93,18.01,8.81,25.13,16.16,3.55,3.86,6.87,7.94,9.94,12.2,2.63,3.51,4.64,7.44,5.94,11.63,.87,2.8,1.42,5.69,1.63,8.61,.05,.69,.27,.84,.94,.64,2.97-.87,5.96-1.67,8.93-2.55,3.94-1.04,7.71-2.67,11.17-4.82,3.55-2.17,5.76-6,5.85-10.16,.04-.91,0-1.82,0-2.73Z"/>
    <path id="Path_19" data-name="Path 19" d="M199.06,82.65c.07-.18,.11-.24,.12-.31,.54-1.23-.02-2.67-1.25-3.21-.02,0-.05-.02-.07-.03-.66-.33-1.25-.79-1.87-1.18-.27-.17-.56-.35-.41-.7,.18-.41,.55-.32,.87-.17,.89,.47,1.74,1.02,2.53,1.65,.15,.09,.31,.18,.48,.25,.09-1.24,.2-2.39,.26-3.55,.11-2.02,.16-4.04,.3-6.05,.1-.67-.21-1.34-.79-1.7-.63-.44-1.21-.95-1.92-1.53-.29,2.8,.48,5.55-.69,8.37-.3-.78-.43-1.61-.38-2.44-.04-2.02-.07-4.04-.06-6.06,.02-.5-.23-.98-.66-1.25-3.28-2.35-6.85-4.29-10.61-5.76-.22-.07-.44-.16-.66-.26-.35-.19-1-.24-.74-.84,.23-.52,.72-.18,1.06-.04,3.78,1.42,7.38,3.28,10.72,5.56,.21,.15,.44,.28,.82,.52,0-.48,.01-.83,0-1.18-.1-2.05-.2-4.1-.31-6.15-.02-.41-.1-.91,.45-.95s.57,.5,.6,.89c.09,1.17,.13,2.35,.2,3.53,.02,.36,0,.63,.58,.69,.87,.09,1.45,.91,2.38,1.31,.03-1.89-.1-3.78-.4-5.65-.04-.32-.32-.41-.55-.54-.55-.32-1.12-.61-1.66-.95-.35-.22-.92-.43-.58-.97,.3-.47,.72-.09,1.06,.1,.46,.25,.92,.51,1.54,.86-.2-2.27-.56-4.31-.93-6.35-.07-.4-.2-.78-.27-1.18-.06-.33-.15-.73,.32-.82,.38-.07,.52,.28,.58,.57,.25,1.22,.5,2.44,.72,3.66,.23,1.12,.4,2.25,.5,3.39-.05,.89,.49,1.71,1.33,2.01,.44,.21,.87,.46,1.28,.73,.2-.17,.14-.34,.14-.5,0-.28,.04-.58,.38-.62,.41-.04,.55,.32,.51,.6-.17,1.08,.48,1.65,1.24,2.21,.45,.34,.79,.82,.95,1.36-.76,.13-1.19-.52-1.92-.75,.06,.62,.12,1.19,.16,1.76,.09,1.38,.17,2.75,.25,4.13-.03,.3,.04,.61,.18,.87,.28,.41,.54,.71-.02,1.25-.31,.3-.09,1.15-.1,1.76q-.04,2.37,1.72,4.14c.23-.46,.08-.93,.16-1.37,.05-.3,.1-.64,.5-.64,.38,0,.5,.32,.51,.63,.02,.74,.02,1.48,0,2.22-.04,1.78-.08,3.57-.16,5.35,.06,.74-.26,1.46-.85,1.91-.15-.49-.21-1.01-.15-1.52-.04-1.04,0-2.09,.1-3.13,.37-1.53-.43-3.11-1.9-3.7-.12,1.42-.24,2.84-.37,4.26-.53,5.86-1.33,11.7-2.1,17.53,0,.89-.32,1.74-.89,2.42-.27-.52-.33-1.13-.16-1.69,.49-3.83,.99-7.67,1.5-11.5,.14-.52-.12-1.07-.61-1.3-.58-.42-1.11-.9-1.59-1.44-.17,1.21-.62,2.27,.4,3.19,.18,.16,.42,.46,.25,.7-.21,.3-.5,0-.71-.1-.74-.38-.54,.67-1.19,.62,.3-2.28-1.76-2.83-3.05-4.09-.99,2.64,.01,5.75-2.23,7.92,.05-1.42,.46-2.76,.58-4.15,.11-1.27,.3-2.54,.49-3.8,.13-.47-.1-.96-.53-1.17-.55-.32-1.06-.7-1.69-1.13-.22,1.01-.4,1.91-.61,2.82-.15,1-.77,1.87-1.65,2.36,.33-1.46,.65-2.75,.91-4.04,.37-1.83,.36-1.85-1.28-2.76-2.06-1.21-4.3-2.1-6.62-2.64-.36-.07-.84-.15-.73-.64s.6-.35,.94-.28c2.49,.58,4.88,1.53,7.09,2.83,.32,.18,.64,.36,1.12,.63,.29-2.39,.58-4.67,.84-6.95,.17-1.44,.24-2.89,.22-4.33,0-.43-.07-1.02,.55-1s.48,.63,.49,1.04c-.05,3.63-.39,7.26-1.01,10.84-.19,.65,.12,1.34,.73,1.63,1.89,1.2,3.69,2.53,5.39,3.99Zm3.68-.57c.4-3.01,.69-5.93,.86-8.87,.03-1.66-1-3.16-2.57-3.72-.21,3.28-.41,6.57-.62,9.85-.03,.3,.09,.6,.33,.79,.65,.62,1.29,1.25,2.01,1.95h0Zm1.01-17.06c-.13-1.92-.25-3.56-.36-5.19-.04-1.48-1.21-2.68-2.68-2.78,.11,1.65,.22,3.29,.33,4.93,.01,.2,.03,.4,.04,.6,0,.24,.11,.47,.3,.61l2.37,1.82Zm-6.54-3.5c-.43,2.88,.49,4.54,2.92,5.32,0-.93,0-1.83,0-2.74,.04-.31-.09-.61-.34-.79l-2.58-1.79Zm4.03,3c-.56,2.83,.1,4.33,2.41,5.55,.52-3.16,.06-4.22-2.41-5.55h0Z"/>
    <path id="Path_20" data-name="Path 20" d="M141.91,100.42c1.13-.93,1.86-2.12,3.29-2.68-.4,1.07-1.07,2.03-1.95,2.76-.83,.56-1.12,1.65-.67,2.55,.12,.34,.23,.7,.31,1.05,4.55-4.45,8.56-9.32,13.68-13.02-.21,.79-.68,1.49-1.33,1.99-3.21,3.12-6.39,6.27-9.46,9.52-.25,.27-.5,.54-.77,.8-1.11,1.11-2.44,2.12-1.71,4.06-.22-.06-.3-.05-.32-.09q-.65-1.14-1.56-.18c-4.35,4.6-8.63,9.25-13.12,13.71-.14,.14-.28,.3-.42,.43-.26,.25-.56,.44-.87,.11-.28-.3-.05-.57,.16-.79,.44-.46,.9-.91,1.35-1.37,1.36-1.4,2.72-2.8,4.1-4.18,.47-.34,.64-.96,.41-1.49-.19-.7-.32-1.41-.38-2.13-1.07,1.01-2.12,1.99-3.15,2.97-.17,.16-.32,.35-.49,.51-.27,.25-.57,.59-.93,.21-.31-.33-.01-.64,.22-.87,1.17-1.21,2.32-2.44,3.53-3.6,.44-.37,.62-.97,.46-1.52-.33-1.43-.62-2.87-.93-4.3l-.3-.15c-.41,.49-.81,.98-1.23,1.46-.22,.25-.5,.57-.84,.25-.38-.34-.09-.68,.16-.95,.46-.49,.93-.98,1.43-1.43,.33-.24,.47-.66,.35-1.06-1.31-5.35-2.53-10.74-5.06-15.7-.49-1.15-1.17-2.2-2.02-3.12-.21-.2-.35-.44-.11-.69,.21-.2,.53-.2,.74,0,.43,.33,.79,.74,1.04,1.22,2.04,3.41,3.58,7.1,4.56,10.95,.64,2.29,1.22,4.6,1.84,6.98,.73-.56,1.41-1.18,2.04-1.86,.2-.19,.26-.49,.13-.73-.15-.41-.57-.93,.06-1.22,.56-.25,.63,.44,.97,.73,.79-.76,1.69-1.4,2.67-1.9-.42,.92-1.01,1.75-1.76,2.43-.43,.34-.55,.94-.29,1.42,.48,1.25,.88,2.54,1.32,3.85,1.3-1.27,2.59-2.54,3.87-3.8,.27-.26,.14-.58,.06-.86-1.78-6.31-4.17-12.44-7.12-18.29-.33-.63-.58-1.37-1.37-1.68-.26-.1-.39-.38-.29-.64,.02-.05,.04-.09,.07-.13,.14-.28,.47-.39,.75-.25,.04,.02,.08,.05,.12,.08,.49,.37,.88,.84,1.15,1.39,1.52,2.66,2.81,5.44,3.88,8.3,1.41,3.53,2.65,7.11,3.77,10.92Zm-7.99,13.28c2.41-2.57,4.61-5.02,6.94-7.33,.97-.75,1.29-2.07,.77-3.18-.22-.57-.32-.66-.75-.21-.98,1.02-1.97,2.02-2.98,3.01-.4,.31-.63,.79-.61,1.3,.03,.45-.01,1.03-.69,.41-.22-.21-.36-.05-.5,.09-1.42,1.39-3.33,2.56-2.26,5.07,.06,.28,.09,.56,.08,.84h0Zm.38-12.32c-.62,.75-1.24,1.5-1.87,2.24-.15,.14-.23,.34-.21,.54,.34,1.62,.68,3.25,1.09,5.18,.98-1.04,1.76-1.87,2.55-2.69,.2-.18,.27-.47,.18-.72-.39-1.58-.97-3.11-1.74-4.54h0Z"/>
    <path id="Path_21" data-name="Path 21" d="M200.83,105.17c0,.35-.03,.71-.45,.79-.39,.08-.77-.16-.85-.55,0,0,0,0,0,0-.22-.7-.37-1.43-.56-2.14-.11-.81-.51-1.55-1.11-2.09-.16-.13-.27-.31-.31-.51-.87-3.56-3.88-4.69-6.77-5.94-2.01-.84-4.12-1.44-6.28-1.78-.97-.17-1.69-.94-2.63-1.24-1.12-.52-2.44-.4-3.44,.32-.1,.09-.22,.16-.35,.2-2.55,.59-4.57,2.23-6.8,3.45-1.49,.81-2.83,1.88-4.34,2.69-1.14,.66-2.45,.98-3.77,.91-.35-.02-.83,.01-.83-.51,0-.46,.44-.46,.76-.46,1.33-.13,2.61-.59,3.73-1.33,3.53-1.75,6.85-3.88,10.48-5.5,2.2-1.11,4.8-1.08,6.97,.07,.92,.44,2.04,.29,3.05,.58,3.79,1.13,7.47,2.45,10.41,5.25,.22,.21,.54,.42,.58,.67,.38,2.33,2.27,4.1,2.39,6.51,.02,.2,.05,.39,.09,.59Z"/>
    <path id="Path_22" data-name="Path 22" d="M202.17,46.28c-.14-.68-.25-1.2-.34-1.73-.06-.33-.12-.73,.31-.85s.56,.25,.64,.59c.06,.19,.11,.39,.14,.59-.03,1.3,.62,2.51,1.73,3.2,.38,.26,.64,.66,.72,1.11-.67,.2-1.07-.45-1.69-.52,.26,1.17,.34,2.38,.25,3.57-.35-.13-.6-.44-.67-.8-.21-.46-.34-.95-.38-1.46,.02-1.91-1.02-2.92-2.64-3.71-2.21-1.07-4.36-2.25-6.59-3.26-.21-.1-.51-.24-.65-.16-.27,.15-.1,.48-.07,.73,.19,1.3,.4,2.59,.61,3.88,.1,.62,.06,1.26-.11,1.86-.44-.31-.71-.8-.73-1.34-.3-1.55-.58-3.11-.78-4.67-.02-.78-.55-1.45-1.31-1.64-1.34-.45-2.65-.97-4.02-1.29-.34-.08-.73-.18-.66-.6,.09-.52,.55-.4,.9-.33,1.59,.39,3.14,.9,4.65,1.52-.09-.74-.17-1.37-.22-2-.06-.25,.09-.5,.34-.56,.25-.06,.5,.09,.56,.34,0,.03,.01,.06,.01,.09,.13,.62,.22,1.26,.31,1.88,.05,.37,.1,.72,.51,.9,3.15,1.38,6.22,2.93,9.2,4.64Z"/>
    <path id="Path_23" data-name="Path 23" d="M59.24,134.46c-.71-.35-1.29-.91-1.67-1.61-3.73-5.27-8.01-10.13-12.77-14.5-1.56-1.49-3.35-2.71-5.31-3.61-.29-.12-.62-.26-.5-.63,.14-.43,.5-.36,.84-.23,1.15,.47,2.24,1.09,3.22,1.85,3.97,2.89,7.19,6.56,10.37,10.26,1.82,2.07,3.51,4.25,5.06,6.53,.45,.55,.71,1.23,.74,1.95Z"/>
    <path id="Path_24" data-name="Path 24" d="M32.34,118.98c-.43-.38-.66-.95-.61-1.52-.1-2.09,.24-4.17,.99-6.12,.18-.29,.24-.64,.17-.97-.76-2.01-.53-4.22-1.2-6.21-.76-1.98-1.25-4.05-1.47-6.17-.19-1.27-.59-2.49-1.19-3.62-.19-.43-.28-.91,.24-1.13,.57-.24,.75,.23,.9,.66,.86,2.01,1.31,4.18,1.31,6.37-.04,.37,.02,.74,.18,1.08,.83,1.73,1.3,3.62,1.36,5.54,.08,1.14,.27,2.27,.56,3.37,.13,.49,.11,1.01-.06,1.48-.59,1.79-.87,3.67-.84,5.55,.02,.58-.09,1.16-.33,1.7Z"/>
    <path id="Path_25" data-name="Path 25" d="M93.01,134.62c-.58-.62-.99-1.38-1.19-2.2-1.56-5.13-3.15-10.26-4.92-15.33-.61-1.78-1.3-3.53-2.08-5.23-.16-.35-.51-.81-.02-1.06,.51-.26,.65,.32,.81,.66,1.54,3.46,2.86,7.03,3.94,10.66,1.23,3.77,2.49,7.51,3.42,11.37,.14,.37,.15,.76,.05,1.14Z"/>
    <path id="Path_26" data-name="Path 26" d="M12.33,123.55c.06-1.58-.1-3.16-.48-4.7-.27-.92-.14-1.91,.36-2.72,.54-.83,.67-1.86,.37-2.8-.27-.9-.45-1.82-.73-2.72-.29-.98-.93-1.81-1.8-2.36-.26-.16-.5-.34-.71-.56-.26-.27-.73-.62-.34-.99,.3-.3,.53,.23,.8,.38,2.65,1.47,3.14,4.1,3.65,6.73,.12,.8,.03,1.62-.27,2.38-.31,.9-.33,1.86-.08,2.78,.41,1.91,.54,3.87,.39,5.81,0,.13-.02,.27-.06,.4-.12,.42-.24,1.01-.72,.97-.59-.06-.35-.69-.37-1.08-.04-.5,0-1.01,0-1.51Z"/>
    <path id="Path_27" data-name="Path 27" d="M112.04,134.73c-.21,.54-.53,1.02-.94,1.43-2.38,2.61-4.92,5.06-7.48,7.49-1.49,1.41-3.01,2.79-4.52,4.16-.31,.28-.68,.75-1.1,.28-.4-.45,.08-.79,.4-1.08,4.19-3.79,8.3-7.65,12.14-11.79,.27-.35,.65-.6,1.07-.71,.19-.04,.42-.1,.42,.22Z"/>
    <path id="Path_28" data-name="Path 28" d="M29.44,136.33c.59,.07,1.16,.24,1.69,.5,3.29,1.32,6.25,3.34,8.7,5.91,.98,1.06,1.96,2.13,2.92,3.21,.28,.31,.5,.73,.08,1.06-.46,.37-.65-.04-.93-.38-3.41-4.18-7.29-7.74-12.62-9.32-.31-.09-.59-.17-.58-.56,.01-.28,.25-.41,.73-.42Z"/>
    <path id="Path_29" data-name="Path 29" d="M37.94,130c.37,.1,.71,.29,.99,.56,3.42,2.83,6.51,6.03,9.22,9.55,.88,1.06,1.68,2.18,2.49,3.29,.14,.19,.42,.49,.17,.71-.29,.26-.58-.04-.77-.25-.37-.39-.7-.81-1.03-1.23-2.93-3.94-6.26-7.56-9.92-10.82-.44-.37-.9-.69-1.35-1.06-.17-.12-.24-.34-.16-.54,.06-.14,.22-.23,.37-.21Z"/>
    <path id="Path_30" data-name="Path 30" d="M108.05,130.84c-.45-.11-.53-.4-.3-.74,.19-.23,.42-.44,.66-.61,3.91-3.29,7.93-6.48,11.31-10.35,.14-.15,.29-.28,.45-.4,.15-.11,.35-.29,.52-.09,.07,.15,.08,.32,.02,.47-.27,.66-.68,1.25-1.2,1.73-2.62,2.67-5.38,5.19-8.27,7.56-.82,.69-1.66,1.37-2.5,2.05-.19,.2-.43,.33-.7,.38Z"/>
    <path id="Path_31" data-name="Path 31" d="M77.03,150.25c.23,.06,.59,.13,.94,.25,4.38,1.63,8.48,3.94,12.14,6.86,.08,.06,.16,.13,.22,.21,.26,.3,.68,.63,.31,1.02-.33,.34-.68-.05-.95-.27-2.93-2.31-6.12-4.28-9.5-5.86-1.09-.52-2.23-.94-3.4-1.24-.3-.08-.59-.23-.53-.62,.06-.33,.35-.36,.77-.35Z"/>
    <path id="Path_32" data-name="Path 32" d="M70.31,125.79c-.52,.05-1.12-.39-1.52,.45-.17,.36-.62-.02-.66-.38-.28-1.29-.3-2.61-.06-3.91,.3-1.31,1.6-2.13,2.91-1.83,.3,.07,.59,.19,.85,.37,1.11,.77,1.63,2.15,1.29,3.46-.38,1.2-1.55,1.98-2.8,1.85Zm-.08-1.16c1.21-.01,1.88-.58,1.87-1.5,.08-1.01-.68-1.9-1.69-1.98-.01,0-.02,0-.04,0-.99,.04-1.39,.78-1.44,2.38-.04,1.09,.69,1.05,1.3,1.11Z"/>
    <path id="Path_33" data-name="Path 33" d="M92.85,116.69c-.52-.44-.92-1.02-1.14-1.66-1.82-4.12-4.04-8.06-6.6-11.77-.11-.17-.21-.34-.31-.52-.13-.25-.25-.52,.02-.73,.33-.25,.59,0,.75,.25,2.71,4.28,5.71,8.41,7.16,13.37,.06,.23,.12,.45,.15,.69,0,.12,0,.25-.03,.37Z"/>
    <path id="Path_34" data-name="Path 34" d="M36.12,154.6c-.1,.44-.34,.57-.67,.34-.26-.21-.49-.46-.68-.73-1.84-2.5-4-4.74-6.44-6.65-.94-.71-1.96-1.31-3.05-1.77-.31-.12-.71-.25-.54-.69,.16-.41,.57-.32,.88-.19,.65,.28,1.28,.59,1.89,.94,3.43,2.04,5.91,5.05,8.31,8.15,.12,.19,.22,.39,.3,.59Z"/>
    <path id="Path_35" data-name="Path 35" d="M198.35,39.54c.07,.53,.14,.96,.18,1.38,.01,.14,.06,.35-.16,.42-.17,.04-.35-.05-.42-.21-.2-.23-.34-.5-.43-.78-.19-1.2-1.16-2.12-2.36-2.25-.29-.08-.58-.18-.86-.29-.27-.11-.48-.28-.38-.61,.08-.26,.36-.41,.62-.33,.01,0,.03,0,.04,.01,.55,.14,1.09,.32,1.71,.51-.09-.7-.3-1.37-.62-1.99-.11-.34-.25-.69,.19-.85,.36-.13,.54,.18,.66,.47,.07,.12,.12,.24,.16,.37,.38,1.94,1.84,3.5,3.75,4,.96,.3,1.77,.93,2.29,1.79-1.68-.1-2.86-1.14-4.38-1.64Z"/>
    <path id="Path_36" data-name="Path 36" d="M52.88,140.36c-.04,.46-.25,.41-.5,.28-.32-.19-.59-.46-.78-.77-2.46-3.58-5.18-6.97-8.15-10.14-.24-.26-.65-.58-.3-.93,.42-.41,.72,.07,.98,.34,3.03,3.21,5.79,6.65,8.26,10.3,.18,.3,.34,.6,.47,.92Z"/>
    <path id="Path_37" data-name="Path 37" d="M196.69,28.3c0,1.68-2.55,3.21-4.06,2.44-.62-.29-.88-1.03-.59-1.65,.03-.05,.06-.11,.09-.16,.19-.27,.3-.58,.34-.91-.02-1.05,.82-1.93,1.87-1.95,.08,0,.15,0,.23,0,1.14-.03,2.09,.86,2.12,2,0,.07,0,.14,0,.22Zm-3.48,1.39c.67,.06,1.34-.13,1.88-.52,.49-.33,.63-1,.3-1.49,0,0-.01-.02-.02-.03-.29-.45-.88-.6-1.34-.33-.46,.18-.69,.7-.51,1.16,.01,.04,.03,.08,.05,.11,.18,.43,.22,.74-.37,1.11h0Z"/>
    <path id="Path_38" data-name="Path 38" d="M110.97,114.09c-1.02,0-1.21-.24-1.03-1.29,.03-.77,.28-1.52,.7-2.17,.89-1.07,1.96-.93,2.5,.33,.81,1.86-.08,3.13-2.18,3.13Zm1.32-2.17c-.06-.17-.02-.82-.44-.77-.66,.07-.71,.78-.79,1.34-.06,.38,.14,.47,.47,.43,.48-.05,.86-.2,.77-1Z"/>
    <path id="Path_39" data-name="Path 39" d="M85.39,149.35c.16,.08,.37,.17,.57,.29,2.1,1.26,4.09,2.71,5.92,4.34,.08,.06,.15,.13,.21,.21,.22,.28,.66,.61,.43,.92-.31,.41-.77,.02-1.04-.2-2-1.69-4.12-3.23-6.34-4.61-.26-.11-.39-.41-.3-.67,.07-.22,.26-.29,.55-.27Z"/>
    <path id="Path_40" data-name="Path 40" d="M114.35,75.57c0-.71,.16-1.41,.5-2.03,.33-.71,1.12-1.06,1.87-.84,.92,.32,.93,1.16,.82,1.95-.05,.78-.72,1.37-1.49,1.32,0,0-.01,0-.02,0-.38,0-.6-.11-.78,.41s-.59,.32-.78-.11c-.07-.22-.11-.45-.11-.69Z"/>
    <path id="Path_41" data-name="Path 41" d="M40.38,148.2c-.06,.52-.36,.54-.65,.37-.25-.17-.47-.38-.64-.63-1.32-1.75-2.79-3.37-4.39-4.86-.29-.26-.71-.57-.31-.99,.34-.36,.68-.04,.96,.21,1.77,1.61,3.37,3.39,4.77,5.33,.11,.18,.2,.37,.27,.58Z"/>
    <path id="Path_42" data-name="Path 42" d="M68.53,149.11c1.3,.02,2.6,.19,3.87,.49,.34,.1,.88,.25,.8,.61-.09,.43-.64,.41-1.03,.34-1.62-.3-3.27-.4-4.91-.32-.43,.02-.86,.11-1.29,.16-.36,.05-.71,.04-.79-.4-.06-.37,.24-.54,.54-.61,.92-.2,1.87-.3,2.82-.27Z"/>
    <path id="Path_43" data-name="Path 43" d="M57.79,125.05c-.53-.17-.99-.5-1.33-.94-1.34-1.52-2.83-2.89-4.45-4.09-.3-.22-.68-.48-.41-.89s.66-.2,.97,.04c1.7,1.21,3.24,2.64,4.58,4.24,.41,.45,.64,1.04,.65,1.64Z"/>
    <path id="Path_44" data-name="Path 44" d="M125.36,64.38c0-1.09,.82-2,1.9-2.12,.77,.01,1.38,.65,1.36,1.41,0,.01,0,.02,0,.03,0,.81-.74,1.74-1.39,1.74-.73,0-1.87-.65-1.87-1.06Z"/>
    <path id="Path_45" data-name="Path 45" d="M41.26,89.33c-.29,.51-.74,.92-1.28,1.16-1.88,1.04-3.77,2.06-5.66,3.09-.24,.13-.51,.28-.73,.01-.16-.18-.14-.46,.05-.61,.04-.03,.08-.06,.12-.07,2.22-1.45,4.59-2.66,7.06-3.61,.15-.01,.29,0,.44,.03Z"/>
    <path id="Path_46" data-name="Path 46" d="M122.31,124.75c-.14,.64-.46,1.22-.93,1.67-1.27,1.29-2.63,2.49-4.06,3.59-.23,.2-.51,.38-.81,.13-.18-.15-.21-.42-.06-.61,.03-.04,.07-.07,.11-.09,1.78-1.57,3.57-3.13,5.37-4.69,.09-.11,.25-.12,.35-.04,.01,.01,.03,.02,.04,.04Z"/>
    <path id="Path_47" data-name="Path 47" d="M81.94,104.21c-.44-.11-.83-.38-1.09-.76-1.04-1.48-2.07-2.97-3.09-4.47-.2-.29-.53-.67-.1-.96s.64,.18,.84,.47c.98,1.4,1.95,2.81,2.92,4.22,.39,.4,.58,.94,.53,1.49Z"/>
    <path id="Path_48" data-name="Path 48" d="M68.59,113.95c-.03,.42-.16,.83-.37,1.19-.16,.23-.4,.47-.66,.39-.64-.18-1.17-.63-1.46-1.23-.26-.71,.1-1.49,.8-1.76,.84-.4,1.69,.29,1.69,1.41Z"/>
    <path id="Path_49" data-name="Path 49" d="M119.86,114.56c-.16,.69-.54,1.3-1.1,1.73-.93,.72-1.79,1.53-2.56,2.41-.2,.27-.49,.42-.77,.13s-.14-.65,.09-.91c1.19-1.42,2.66-2.57,4.34-3.37Z"/>
    <path id="Path_50" data-name="Path 50" d="M82.3,149.94c-.3-.14-.6-.28-.9-.43-1.17-.58-2.34-1.16-3.51-1.76-.28-.14-.56-.34-.4-.7s.5-.32,.78-.19c1.49,.62,2.92,1.37,4.28,2.23,.21,.14,.5,.32,.38,.63-.1,.27-.4,.15-.64,.21Z"/>
    <path id="Path_51" data-name="Path 51" d="M43.17,139.1c.12,.04,.24,.1,.35,.17,1.01,.88,1.89,1.9,2.62,3.02,.11,.17,.17,.39-.02,.55-.17,.12-.41,.09-.55-.08-.94-.99-1.88-1.99-2.77-3.03-.26-.3-.01-.55,.37-.63Z"/>
    <path id="Path_52" data-name="Path 52" d="M50.85,130.32c.15,.08,.29,.18,.41,.29,.84,.91,1.68,1.83,2.49,2.76,.16,.18,.42,.47,.16,.68s-.59,.05-.81-.17c-.67-.7-1.32-1.42-1.97-2.14-.24-.24-.45-.5-.63-.78-.21-.35-.03-.55,.36-.64Z"/>
    <path id="Path_53" data-name="Path 53" d="M28.96,151.05c.14,.06,.27,.14,.4,.24,.72,.7,1.38,1.47,1.96,2.3,.13,.19,.28,.43,.07,.64-.19,.19-.5,.2-.69,.01-.01-.01-.03-.03-.04-.04-.73-.79-1.45-1.59-2.1-2.44-.25-.32-.1-.65,.41-.71Z"/>
    <path id="Path_54" data-name="Path 54" d="M29.91,139.37c.63,.15,1.21,.47,1.68,.92,.16,.14,.21,.36,.13,.55-.09,.15-.28,.21-.44,.14-.63-.22-1.26-.44-1.87-.71-.21-.11-.29-.38-.17-.59,0,0,0-.02,.01-.02,.12-.25,.34-.3,.65-.29Z"/>
    <path id="Path_55" data-name="Path 55" d="M96.39,30.89c-.14-.54,0-1.12,.39-1.52,1.72-2.13,3.88-3.85,6.33-5.05,.21-.1,.44-.17,.67-.21,.32-.06,.64-.03,.72,.35,.07,.34-.21,.45-.47,.54-2.46,1.03-4.63,2.63-6.33,4.68-.27,.3-.54,.6-.82,.88-.15,.12-.32,.23-.49,.32Z"/>
    <path id="Path_56" data-name="Path 56" d="M90.41,27.96c-.29-.03-.3-.22-.21-.43,.11-.32,.26-.62,.44-.9,1.62-2.2,3.66-4.06,6-5.47,.17-.11,.35-.2,.54-.27,.32-.11,.69-.25,.87,.17,.16,.37-.19,.53-.45,.67-2.39,1.33-4.47,3.15-6.11,5.33-.26,.4-.64,.71-1.07,.9Z"/>
    <path id="Path_57" data-name="Path 57" d="M126.4,28.46c-.03,.24-.19,.45-.42,.53-1.5,.76-2.9,1.7-4.18,2.8-.11,.08-.22,.15-.34,.21-.25,.12-.56,.26-.75,.03s.04-.53,.2-.7c1.32-1.39,2.91-2.51,4.67-3.27,.46-.21,.83,.03,.82,.41Z"/>
    <path id="Path_58" data-name="Path 58" d="M103.35,30.27c-.33,.03-.46-.05-.39-.34,.08-.29,.24-.56,.48-.75,1.1-.93,2.34-1.69,3.68-2.24,.3-.13,.7-.28,.89,.13,.2,.44-.22,.57-.52,.69-1.29,.56-2.5,1.29-3.59,2.18-.17,.12-.35,.23-.54,.33Z"/>
    <path id="Path_59" data-name="Path 59" d="M128.8,31.15c.66-1.21,3.45-2.72,4.52-2.58,.24,0,.46,.15,.54,.37,.07,.22-.01,.46-.21,.5-1.66,.27-3.01,1.4-4.85,1.71Z"/>
    <path id="Path_60" data-name="Path 60" d="M118.74,30.16c-.22-.08-.45-.09-.5-.19-.04-.16,0-.33,.1-.45,.89-1,2.04-1.73,3.31-2.12,.23-.08,.49,.03,.59,.26,.12,.18,.08,.42-.09,.54-1.14,.68-2.3,1.32-3.42,1.97Z"/>
    <path id="Path_61" data-name="Path 61" d="M95.22,27.24c-.43-.08-.42-.42-.26-.67,.81-1.16,1.9-2.1,3.17-2.71,.19-.09,.42-.03,.54,.15,.14,.16,.12,.41-.05,.54,0,0,0,0,0,0-1.09,.78-2.13,1.64-3.11,2.56-.09,.06-.19,.1-.29,.12Z"/>
    <path id="Path_62" data-name="Path 62" d="M107.78,30.27c-.52-.01-.53-.23-.41-.54,.85-1.02,1.95-1.81,3.2-2.29,.43,0,.74,.36,.41,.62-1.04,.82-2.17,1.52-3.2,2.22Z"/>
    <path id="Path_63" data-name="Path 63" d="M116.4,29.02c.04,.23-.07,.46-.27,.58-.89,.53-1.79,1.06-2.7,1.57-.22,.12-.55,.28-.71-.02-.14-.26,.08-.52,.28-.7,.79-.69,1.67-1.25,2.62-1.68,.34-.16,.66-.1,.78,.25Z"/>
    <path id="Path_64" data-name="Path 64" d="M263.2,67.91c-.38,.42-.94,.64-1.51,.57-4.32,.22-8.63,.68-12.91,1.37-.66,.11-1.31,.29-1.96,.43-.3,.06-.66,.15-.75-.25-.09-.38,.24-.51,.54-.61,1.51-.44,3.07-.74,4.64-.89,3.36-.43,6.73-.81,10.12-.91,.63-.11,1.27,0,1.84,.29Z"/>
    <path id="Path_65" data-name="Path 65" d="M268.89,88.87c-.81,6.76-2.65,13.14-6.85,18.67-1.43,1.7-3.23,3.05-5.27,3.94-.4,.2-.93,.33-1.17-.15-.29-.55,.22-.85,.63-1.08,1.19-.64,2.27-1.45,3.38-2.19,1.2-.82,2.21-1.88,2.96-3.12,2.23-3.59,4.12-7.36,4.51-11.63,.22-2.38,.78-4.78,.16-7.21-.17-.68-.11-1.71,.53-1.84,.6-.12,.68,.9,.82,1.49,.28,1.01,.39,2.06,.3,3.11Z"/>
    <path id="Path_66" data-name="Path 66" d="M227.62,95.57c.36-2.28,1.1-4.48,2.18-6.52,.35-.55,.93-.92,1.58-.99,.94-.26,1.8-.76,2.5-1.45,.26-.27,.56-.48,.89-.65,2.52-1.09,5.06-2.17,7.6-3.23,.35-.15,.86-.42,1.05,.07,.18,.44-.32,.67-.69,.83-2.38,.99-4.74,2.07-7.21,2.83-.74,.21-1.43,.61-1.98,1.14-.16,.18-.34,.33-.55,.44-1.88,.89-2.65,2.55-3.32,4.42-.57,1.62-.65,3.37-.23,5.04,.12,.53,.4,1.14-.34,1.35s-.99-.42-1.16-.98c-.21-.75-.32-1.52-.33-2.3Z"/>
    <path id="Path_67" data-name="Path 67" d="M242.7,103.75c-3.93-.01-7.11-3.21-7.1-7.14-.06-1.23,.48-2.42,1.44-3.19,.26-.21,.6-.41,.92-.18,.37,.27,.14,.62-.04,.89-.79,1.21-.86,2.75-.19,4.03,.15,.34,.29,.68,.41,1.03,.49,2.08,2.4,3.52,4.54,3.4,.17,0,.34,.02,.5,.04,.32,.03,.66,.11,.69,.46,.02,.4-.33,.55-.67,.62-.16,.02-.32,.04-.48,.04Z"/>
    <path id="Path_68" data-name="Path 68" d="M247.84,81.73c.52-.48,1.17-.8,1.87-.92,3.76-1.01,7.52-2.08,11.48-1.48,2.55-.7,4.1,.74,5.48,2.55,.26,.34,.75,.69,.38,1.11-.42,.48-.86,.02-1.22-.25-.31-.21-.58-.47-.8-.76-.86-1.29-2.1-1.51-3.56-1.64-4.59-.3-9.21,.17-13.65,1.39Z"/>
    <path id="Path_69" data-name="Path 69" d="M247.93,103.81c-.45-.1-1.31,.27-1.39-.27-.09-.61,.78-.67,1.31-.8,.68-.17,1.39-.24,2.07-.39,3.78-.69,6.92-3.35,8.22-6.97,.21-.52,.3-1.53,.97-1.27,.78,.3,.14,1.14-.08,1.66-1.32,3.2-3.8,5.78-6.94,7.24-1.33,.53-2.75,.8-4.18,.79Z"/>
    <path id="Path_70" data-name="Path 70" d="M255.66,83.5c3.58,.03,6.84,2.1,8.39,5.32,.38,.65,.48,1.42,.28,2.14-.06,.19-.17,.4-.4,.41s-.32-.19-.39-.39c-.15-.41-.3-.82-.45-1.23-1.17-3.12-3.61-4.51-6.74-4.96-.3-.04-.6-.04-.9-.1-.37-.07-.93,.08-.93-.5,0-.55,.54-.61,.96-.69,.06-.01,.12-.02,.18-.01Z"/>
    <path id="Path_71" data-name="Path 71" d="M255.43,106.96c-.29,0-.51-.06-.59-.33-.05-.2,.04-.42,.22-.52,.15-.13,.32-.24,.51-.32,2.89-1.12,4.52-3.5,6.03-6,.42-.69,.79-1.41,1.21-2.09,.17-.28,.45-.66,.79-.48,.39,.2,.12,.59-.02,.88-1.05,2.22-2.36,4.31-3.91,6.22-.86,1.14-2.04,1.99-3.39,2.45-.29,.08-.59,.14-.85,.2Z"/>
    <path id="Path_72" data-name="Path 72" d="M243.71,108.58c-1.51,.26-3.06-.06-4.34-.91-.78-.39-1.62-.67-2.48-.84-.7-.14-1.31-.59-1.65-1.22-.12-.24-.26-.52-.04-.75,.25-.25,.51-.03,.72,.11,1.13,.73,2.35,1.3,3.54,1.91,1.41,.66,2.97,.9,4.51,.69,.7-.05,1.41-.1,2.12-.13,.24,0,.61-.13,.67,.24s-.26,.55-.56,.59c-.83,.13-1.66,.2-2.49,.29Z"/>
    <path id="Path_73" data-name="Path 73" d="M233.8,92.17c.53,.23,.17,.54,.03,.79-.86,1.42-1.26,3.07-1.15,4.72,.16,1.91,.63,3.78,1.4,5.54,.11,.25,.4,.58-.01,.78-.34,.17-.59-.14-.7-.41-1.43-3.39-2.62-6.81-.63-10.41,.36-.66,.78-1.05,1.06-1.02Z"/>
    <path id="Path_74" data-name="Path 74" d="M241.28,113.23c-2.63-.38-5.21-1.04-7.7-1.95-1.64-.65-2.99-1.89-3.78-3.47-.28-.39-.38-.87-.28-1.34,.45,.05,.59,.43,.75,.74,1.07,2.1,3.04,3.59,5.35,4.06,1.05,.24,2.1,.44,3.15,.65,.97,.11,1.86,.58,2.5,1.32Z"/>
    <path id="Path_75" data-name="Path 75" d="M252.94,89.62c-1.49,.18-2.92-.21-4.34,.02-.9,.08-1.79,.32-2.61,.69-1.4,.54-2.24,1.98-2.03,3.47,.04,.26,.21,.67-.26,.72-.37,.04-.47-.31-.57-.6-.43-1.37,.16-2.86,1.41-3.57,2.13-1.25,4.63-1.74,7.08-1.41,.53-.02,1.03,.24,1.33,.68Z"/>
    <path id="Path_76" data-name="Path 76" d="M245.61,85.84c-.39,.48-.92,.82-1.52,.98-2.19,.79-4.18,2.02-5.86,3.62-.22,.22-.54,.58-.84,.34-.29-.23,.01-.56,.2-.78,2.09-2.3,4.94-3.78,8.03-4.16Z"/>
    <path id="Path_77" data-name="Path 77" d="M249.92,91.48c.98-.02,1.93,.32,2.69,.94,.3,.27,.6,.64,.34,1.05-.28,.44-.73,.24-1.07,.04-.97-.62-2.16-.79-3.27-.47-.32,.09-.71,.17-.86-.24-.14-.36,.11-.64,.38-.86,.52-.37,1.16-.54,1.8-.47Z"/>
    <path id="Path_78" data-name="Path 78" d="M248.27,113.68c-.83,.04-1.46,.08-2.1,.1-.26,0-.62,.06-.65-.3s.26-.53,.59-.57c.57-.07,1.14-.14,1.71-.15,1.55,.04,3.09-.24,4.53-.82,.24-.11,.64-.32,.82,.02s-.24,.5-.46,.68c-1.3,.89-2.88,1.26-4.43,1.05Z"/>
    <path id="Path_79" data-name="Path 79" d="M246.78,98.56c-.74,.03-1.48-.09-2.17-.34-.43-.12-.78-.43-.96-.83-.13-.25-.08-.55,.11-.75,.18-.17,.45-.18,.65-.03,1.18,.66,2.57,.86,3.89,.54,.33-.07,.72-.1,.83,.33,.09,.37-.17,.63-.48,.8-.59,.25-1.23,.35-1.86,.29Z"/>
    <path id="Path_80" data-name="Path 80" d="M249.64,108.34c-.62,0-1.23-.1-1.81-.31-.18-.08-.41-.19-.33-.42,.08-.14,.22-.24,.38-.27,.69-.1,1.4-.17,2.1-.22,1.04-.07,2.06-.24,3.06-.53,.36-.11,.81-.27,.96,.19s-.27,.72-.66,.87c-1.2,.41-2.44,.64-3.7,.7Z"/>
    <path id="Path_81" data-name="Path 81" d="M250.18,84.99c-1,0-2,.11-2.98,.33-.3,.06-.66,.18-.76-.23-.09-.35,.19-.57,.5-.65,1.59-.46,3.25-.57,4.89-.33,.25,.04,.6,.13,.58,.46-.03,.38-.4,.4-.69,.42-.44,.02-.88,0-1.53,0Z"/>
    <path id="Path_82" data-name="Path 82" d="M255.08,89.17c.91,.26,1.76,.71,2.49,1.32,.15,.1,.19,.29,.1,.44-.09,.13-.23,.07-.36,.05-.88-.22-1.71-.59-2.47-1.1-.18-.07-.28-.28-.2-.46,0-.02,.01-.03,.02-.05,.07-.11,.28-.14,.43-.21Z"/>
    <path id="Path_83" data-name="Path 83" d="M251.63,97.04c-.2,.02-.4-.08-.5-.26-.1-.23,0-.49,.22-.59,.6-.29,1.14-.68,1.61-1.15,.11-.07,.24-.08,.36-.03,.16,.09,.15,.28,.12,.45-.38,.74-1.03,1.31-1.82,1.59Z"/>
    <path id="Path_84" data-name="Path 84" d="M182.53,116.06c.19-1.95,1.41-3.66,3.19-4.48,1.48-.84,3.33-.63,4.59,.52,1.25,1.03,2.18,2.4,2.68,3.95,.12,.31,.11,.63-.23,.78-.36,.16-.56-.1-.71-.38-.12-.24-.22-.5-.34-.73-.26-.58-.58-1.13-.93-1.66-.87-1.11-1.95-2.18-3.44-1.9-1.79,.27-3.23,1.61-3.65,3.37-.33,1.28,.37,2.25,1.13,3.18,.25,.3,.87,.57,.35,1.03-.43,.38-.82-.07-1.11-.37-.88-.88-1.43-2.05-1.52-3.3Z"/>
    <path id="Path_85" data-name="Path 85" d="M194.08,112.88c-.04,.44-.32,.54-.63,.37-.25-.16-.47-.37-.64-.62-.94-1.36-2.1-2.55-3.44-3.51-.3-.19-.58-.43-.33-.82,.21-.33,.53-.21,.8-.04,1.68,1.13,3.09,2.61,4.15,4.34,.04,.09,.08,.18,.1,.28Z"/>
    <path id="Path_86" data-name="Path 86" d="M189.94,117.84c-.02,.3-.07,.69-.54,.74-.51,.05-.58-.31-.56-.73-.02-.54-.29-1.05-.73-1.37-.53-.5-1.01-.5-1.31,.25-.12,.3-.23,.62-.61,.5-.45-.14-.43-.56-.36-.93,.29-.86,1.18-1.36,2.06-1.17,1.14,.45,1.93,1.49,2.06,2.71Z"/>
    <path id="Path_87" data-name="Path 87" d="M190.94,105.03c.18,.07,.34,.16,.5,.26,1.36,1.09,2.51,2.42,3.41,3.92,.14,.23,.4,.58,.07,.8-.28,.19-.6-.03-.78-.27-.99-1.47-2.2-2.79-3.58-3.91-.18-.12-.24-.34-.15-.53,.1-.22,.29-.25,.54-.27Z"/>
    <path id="Path_88" data-name="Path 88" d="M155.2,128.23c-.3,0-.61,0-.91,0-.33,0-.76,.06-.79-.41-.03-.51,.43-.53,.79-.55,1.68-.17,3.38,.05,4.96,.64,3.42,1.35,6.48,3.5,8.91,6.25,.99,1.14,1.88,2.36,2.82,3.56,.22,.28,.57,.63,.14,.94-.37,.27-.69-.04-.93-.34-.61-.76-1.21-1.53-1.8-2.31-2.36-3.05-5.45-5.45-8.98-6.97-1.32-.59-2.76-.87-4.21-.82Z"/>
    <path id="Path_89" data-name="Path 89" d="M155.5,138.44c1.42-.01,2.8,.47,3.9,1.37,1.89,1.53,3.4,3.47,4.43,5.68,.19,.37,.35,.82-.12,1.06-.57,.29-.65-.28-.82-.61-1.04-2.27-2.66-4.24-4.7-5.69-1.62-1.18-3.87-.98-5.26,.47-1.01,.99-1.09,1.47-.48,2.76,.17,.35,.52,.79,.06,1.07-.55,.34-.74-.24-.95-.59-.88-1.16-.7-2.81,.42-3.75,.89-1.04,2.17-1.68,3.53-1.77Z"/>
    <path id="Path_90" data-name="Path 90" d="M157.65,135.99c.21,.09,.53,.2,.83,.34,1.48,.74,2.79,1.76,3.87,3,1.2,1.45,2.3,2.98,3.29,4.57,.21,.31,.43,.7,0,.96-.39,.23-.6-.16-.79-.42-.77-1.1-1.51-2.22-2.3-3.31-1.26-1.84-3.01-3.29-5.05-4.19-.29-.12-.59-.23-.51-.62,.06-.26,.29-.34,.66-.34Z"/>
    <path id="Path_91" data-name="Path 91" d="M147.75,139.09c.05,.38,0,.57-.22,.67-.32,.13-.52-.06-.64-.32-.3-.64-.58-1.29-.85-1.93-.69-1.87-1.92-3.5-3.53-4.68-.28-.2-.74-.45-.38-.87,.32-.37,.67-.03,.97,.18,1.36,.94,2.46,2.22,3.17,3.71,.54,1.12,1.03,2.26,1.48,3.25Z"/>
    <path id="Path_92" data-name="Path 92" d="M172.71,136.56c-.08,.11-.14,.26-.23,.3-.31,.12-.52-.09-.67-.31-.63-.95-1.37-1.82-2.19-2.61-.58-.55-1.2-1.07-1.79-1.61-.2-.18-.41-.41-.2-.69s.48-.16,.7,.02c1.59,1.18,2.97,2.61,4.1,4.24,.11,.22,.21,.44,.28,.67Z"/>
    <path id="Path_93" data-name="Path 93" d="M145.9,131.71c.27,.07,.49,.25,.62,.5,.81,1.23,1.5,2.53,2.07,3.88,.11,.24,.25,.58-.01,.74-.32,.2-.58-.09-.72-.35-.68-1.41-1.44-2.79-2.26-4.12-.21-.31-.08-.57,.31-.65Z"/>
    <path id="Path_94" data-name="Path 94" d="M158.12,142.3c.18,.1,.36,.22,.52,.35,.87,.88,1.6,1.88,2.19,2.97,.13,.23,.27,.53,.02,.73-.29,.23-.59,.05-.78-.2-.69-1.11-1.49-2.14-2.38-3.09-.16-.14-.19-.38-.07-.55,.09-.16,.25-.21,.5-.21Z"/>
    <path id="Path_95" data-name="Path 95" d="M166.84,141.48c-.02,.16,.03,.38-.17,.42-.16,.02-.33-.03-.45-.14-.85-.99-1.69-1.99-2.51-2.99-.14-.16-.14-.4,0-.56,.11-.13,.29-.19,.45-.13,1.15,.9,2.07,2.07,2.68,3.41Z"/>
    <path id="Path_96" data-name="Path 96" d="M83.53,166.18c-.64-.21-1.19-.64-1.53-1.22-1.82-2.17-3.97-4.04-6.36-5.55-.73-.48-1.53-.85-2.37-1.1-.3-.09-.64-.21-.55-.59,.11-.45,.51-.4,.82-.29,.64,.2,1.26,.45,1.86,.77,2.87,1.63,5.41,3.79,7.49,6.37,.45,.42,.68,1.02,.63,1.63Z"/>
    <path id="Path_97" data-name="Path 97" d="M80.89,167.52c-.03,.27-.06,.57-.37,.66-.35,.1-.42-.24-.55-.46-1.24-2.56-3.23-4.68-5.7-6.08-.33-.17-.75-.36-.54-.81s.63-.23,.96-.07c.92,.42,1.77,.98,2.5,1.68,1.22,1.21,2.3,2.55,3.23,3.99,.23,.33,.39,.71,.45,1.11Z"/>
    <path id="Path_98" data-name="Path 98" d="M77.88,167.74c.01,.4-.25,.37-.48,.33-.36-.1-.67-.33-.87-.65-.99-1.32-2.22-2.43-3.64-3.27-.29-.15-.53-.39-.31-.72,.27-.41,.66-.25,.98-.06,1.62,1.01,3.02,2.35,4.11,3.93,.08,.14,.15,.29,.2,.44Z"/>
    <path id="Path_99" data-name="Path 99" d="M266.07,29.78c2.41,.08,4.62,1.39,5.83,3.48,.29,.44,.42,.99-.08,1.36-.42,.28-.98,.17-1.26-.25,0,0,0,0,0-.01-1.12-1.35-2.55-2.42-4.16-3.11-.26-.15-.5-.35-.68-.59-.18-.18-.44-.37-.24-.69,.13-.19,.38-.28,.6-.2Z"/>
    <path id="Path_100" data-name="Path 100" d="M274.73,40.04c-.11-.54-.05-1.1,.19-1.6,.48-1.37,.75-2.8,.81-4.24,0-.37-.02-.83,.49-.83,.49,0,.54,.45,.53,.83-.03,1.65-.36,3.28-.99,4.81-.19,.47-.56,.84-1.03,1.03Z"/>
    <path id="Path_101" data-name="Path 101" d="M81,23.91c-.32,0-.4-.21-.34-.46,.07-.29,.18-.58,.33-.84,1.4-2.46,3.17-4.69,5.24-6.61,.22-.21,.46-.4,.71-.57,.27-.18,.57-.28,.79,.05,.19,.28,0,.51-.2,.7-.68,.65-1.4,1.26-2.04,1.95-1.37,1.49-2.57,3.12-3.6,4.86-.18,.4-.5,.73-.9,.92Z"/>
    <path id="Path_102" data-name="Path 102" d="M74.76,21.19c.07-.23,.19-.65,.35-1.05,.56-1.33,1.34-2.57,2.3-3.64,.36-.45,.83-.79,1.37-1,.28-.1,.55-.11,.71,.17,.19,.32-.07,.49-.3,.63-1.64,1.19-2.85,2.88-3.45,4.82-.06,.15-.08,.33-.14,.48-.1,.25-.21,.57-.54,.47-.29-.08-.32-.4-.3-.88Z"/>
    <path id="Path_103" data-name="Path 103" d="M77.95,21.83c-.4-.16-.29-.48-.22-.76,.25-.8,.62-1.55,1.11-2.24,.55-.96,1.27-1.81,2.13-2.51,.29-.21,.65-.52,.97-.15,.37,.42-.08,.63-.35,.86-1.22,1.1-2.19,2.45-2.85,3.96-.17,.35-.32,.75-.79,.84Z"/>
    <path id="Path_104" data-name="Path 104" d="M86.56,21.03c-.38-.07-.3-.32-.2-.53,.66-1.28,1.63-2.37,2.82-3.17,.17-.13,.41-.1,.55,.07,.16,.14,.18,.38,.04,.55,0,0,0,0,0,0-.97,1.01-1.95,2-2.94,2.99-.07,.07-.19,.07-.27,.1Z"/>
    <path id="Path_105" data-name="Path 105" d="M246.03,217.12c-1.59-.07-3.16-.36-4.68-.85-6.94-2.24-13.92-4.39-20.45-7.7-6.42-3.18-12.51-7-18.18-11.38-3.15-2.54-5.96-5.46-8.37-8.71-.13-.15-.24-.32-.34-.5-.22-.45-.89-.97-.31-1.39,.64-.47,.87,.36,1.15,.75,4.07,5.34,9.07,9.9,14.75,13.46,8.11,5.37,16.94,9.58,26.22,12.5,3.14,.97,6.2,2.26,9.53,2.49,1.32,.09,2.69,.33,3.73-.92,.34-.41,.69-.12,.76,.34,.07,.66-.33,1.29-.96,1.49-.9,.36-1.87,.51-2.84,.42Z"/>
    <path id="Path_106" data-name="Path 106" d="M223.81,188.18c-1.33-.04-2.65-.24-3.94-.58-.55-.15-1.08-.36-1.6-.61-.5-.25-1.18-.6-.87-1.25,.28-.6,.96-.3,1.44-.09,1.59,.65,3.3,.99,5.02,.97,3.42,.07,5.09-2.23,4.04-5.53-.4-1.14-1-2.21-1.77-3.15-3.34-4.45-7.49-8.24-12.23-11.16-2.17-1.38-4.63-2.22-7.18-2.47-.23-.02-.47-.06-.7-.09-.29-.04-.54-.16-.56-.48-.03-.37,.25-.55,.56-.59,.4-.07,.8-.09,1.2-.06,2.22,.15,4.38,.79,6.34,1.87,5.8,3.27,10.77,7.82,14.54,13.3,.87,1.17,1.4,2.55,1.53,4,.24,3.77-1.81,5.94-5.82,5.92Z"/>
    <path id="Path_107" data-name="Path 107" d="M210.9,146.69c.93,0,1.85,.26,2.66,.72,4.93,2.68,10.11,4.93,14.46,8.59,.86,.71,1.78,1.33,2.75,1.87,4.35,2.47,7.56,6.11,10.48,10.06,.26,.35,.48,.73,.65,1.13,.15,.37,.23,.82-.2,1.09-.34,.18-.76,.1-1.02-.19-.26-.22-.49-.46-.69-.73-3.08-4.12-6.84-7.7-11.12-10.56-5.65-3.9-11.43-7.59-17.25-11.22-.27-.17-.62-.28-.73-.76Z"/>
    <path id="Path_108" data-name="Path 108" d="M251.52,198.55c.01,3.88-.29,7.75-.91,11.57-.04,.4-.14,.79-.27,1.17-.13,.36-.4,.66-.85,.53-.43-.13-.34-.46-.31-.82,.43-5.02,1.1-10.02,1.11-15.08,0-2.93-.22-5.85-.67-8.74-.4-2.12-1.16-4.15-2.27-6.01-.91-1.65-1.78-3.31-2.84-4.88-.22-.32-.59-.78-.23-1.07,.39-.31,.79,.15,1.11,.43,.15,.14,.28,.29,.38,.46,2.99,4.61,5.45,9.41,5.65,15.09,.09,2.39,.23,4.77,.08,7.33Z"/>
    <path id="Path_109" data-name="Path 109" d="M188.04,161.14c-.01-2.39,.39-4.77,1.18-7.03,.44-1.25,1.22-2.34,2.25-3.17,.3-.27,.68-.45,1.08-.51,.31-.08,.62,.07,.77,.34,.12,.25,.05,.56-.17,.73-4.58,4.35-4.05,9.65-2.62,14.99,.95,3.12,2.19,6.15,3.7,9.05,.15,.27,.27,.54,.39,.82,.17,.5,.53,1.18-.06,1.45-.52,.24-.96-.38-1.22-.85-1.51-2.89-2.83-5.88-3.95-8.95-.9-2.18-1.37-4.52-1.36-6.88Z"/>
    <path id="Path_110" data-name="Path 110" d="M216.26,192.83c2.34,1.28,4.71,2.52,7.17,3.57,2.44,1.15,5.15,1.62,7.84,1.37,2.65-.16,4.88-2.05,5.47-4.63,.65-2.11,.61-4.36-.12-6.44-1.3-3.54-3-6.92-5.07-10.07-.23-.36-.79-.82-.27-1.21,.48-.36,.99,.07,1.27,.5,2.57,3.96,4.97,8.03,5.81,12.76,.41,2.35-.08,4.78-1.37,6.79-1.62,2.6-4.2,3.38-7.06,3.23-5.26-.28-9.48-3.07-13.67-5.86Z"/>
    <path id="Path_111" data-name="Path 111" d="M182.12,157.84c0-2.23,.22-4.45,.66-6.64,.01-.1,.03-.2,.05-.3,.19-.54,.18-1.38,1.01-1.25,.79,.12,.58,.89,.52,1.42-.25,2.41-.31,4.83-.4,7.24-.03,3.5,.48,6.98,1.51,10.33,.15,.51,.27,1.04,.34,1.57,.06,.52-.05,1.08-.65,1.22-.65,.16-.88-.4-1.04-.87-.73-2.2-1.31-4.45-1.73-6.73-.37-1.97-.46-3.99-.28-5.99Z"/>
    <path id="Path_112" data-name="Path 112" d="M203.46,156.01c1.95,0,3.89,.4,5.68,1.17,.64,.29,1.51,.71,1.23,1.48-.31,.84-1.22,.45-1.86,.21-1.73-.68-3.57-1-5.42-.95-.54,.02-1.07,.08-1.6,.19-2.84,.62-3.84,2.04-3.51,4.91,.06,.5,.1,1,.1,1.5,.02,.32-.21,.6-.53,.64-.31,.04-.49-.18-.65-.4-1.29-1.86-.65-5.74,1.16-7.09,1.55-1.16,3.45-1.75,5.39-1.67Z"/>
    <path id="Path_113" data-name="Path 113" d="M240.18,179.59c-.06,.23,.12,.68-.24,.75-.44,.1-.59-.38-.75-.69-1.82-3.34-3.95-6.5-6.36-9.44-2.57-3.26-5.67-6.06-9.18-8.27-.39-.26-.77-.54-1.12-.85-.2-.17-.41-.42-.22-.7,.22-.32,.5-.08,.71,.03,1.86,.95,3.62,2.08,5.26,3.37,4.9,3.87,8.33,8.92,11.46,14.21,.29,.48,.45,1.02,.45,1.58Z"/>
    <path id="Path_114" data-name="Path 114" d="M212.36,189.8c-.61-.03-1.18-.31-1.59-.77-5.19-4.56-9.41-10.11-12.43-16.32-.26-.58-.48-1.18-.68-1.78-.1-.2,0-.45,.2-.54,.02-.01,.05-.02,.07-.02,.29-.09,.43,.12,.53,.35,2.96,6.92,7.63,12.59,13.03,17.71,.46,.33,.77,.83,.87,1.38Z"/>
    <path id="Path_115" data-name="Path 115" d="M201.69,149.31c1.26,.1,2.49,.41,3.64,.91,2.69,1.15,5.29,2.5,7.77,4.05,.5,.31,1.32,.72,.99,1.29-.4,.68-1.16,.12-1.69-.18-2.4-1.42-4.89-2.69-7.44-3.8-1.53-.8-3.28-1.08-4.99-.79-.31,.07-.64,.06-.77-.3-.14-.4,.14-.63,.46-.78,.64-.27,1.33-.41,2.02-.39Z"/>
    <path id="Path_116" data-name="Path 116" d="M185.92,173.5c.32,.03,.6,.23,.73,.52,1.43,2.59,2.85,5.18,4.26,7.78,.19,.35,.34,.81-.1,1.09-.41,.26-.77,0-1.07-.31-.16-.17-.31-.36-.42-.56-1.17-2.08-2.34-4.16-3.48-6.26-.23-.45-.41-.92-.51-1.41-.12-.32,.04-.68,.37-.8,.07-.03,.14-.04,.21-.04Z"/>
    <path id="Path_117" data-name="Path 117" d="M228.77,206.31c-.55,.16-1.13,.11-1.64-.16-4.88-1.84-9.47-4.34-13.66-7.43-.24-.18-.73-.4-.48-.75,.27-.38,.59,.05,.85,.21,4.35,2.86,8.98,5.27,13.81,7.21,.7,.27,.69,.29,1.12,.92Z"/>
    <path id="Path_118" data-name="Path 118" d="M244.38,199.04c.54,.84,.65,1.89,.3,2.83-1.14,4.04-5.34,6.38-9.38,5.24-.33-.09-.66-.21-.98-.35-.28-.12-.54-.27-.79-.44-.2-.13-.39-.34-.22-.58,.14-.21,.36-.08,.54,.02,.09,.05,.18,.08,.28,.12,3.48,1.64,7.62,.15,9.26-3.32,.29-.62,.49-1.28,.59-1.96,.1-.45,.23-.89,.41-1.55Z"/>
    <path id="Path_119" data-name="Path 119" d="M194.73,143.27c-.02,.42-.3,.78-.69,.9-2.02,.82-3.96,1.82-5.8,3-.12,.07-.24,.13-.37,.17-.4,.13-.81,.23-1.08-.2s-.01-.79,.33-1.03c.63-.45,1.28-.86,1.94-1.25,1.36-.8,2.79-1.47,4.29-1.97,.54-.19,1.12-.24,1.38,.39Z"/>
    <path id="Path_120" data-name="Path 120" d="M197.86,142.42c3.99,.23,7.87,1.35,11.37,3.29,.27,.16,.73,.31,.54,.71s-.59,.16-.88,.01c-3.32-1.56-6.87-2.6-10.51-3.07-.2-.03-.39-.08-.59-.14-.29-.09-.67-.15-.63-.53,.05-.45,.47-.23,.7-.29Z"/>
    <path id="Path_121" data-name="Path 121" d="M198.26,184.15c.26,.06,.48,.22,.61,.44,2.12,2.64,4.43,5.12,6.92,7.43,.24,.21,.64,.53,.4,.81-.26,.32-.7,.05-.99-.17-1.41-1.14-2.71-2.4-3.89-3.77-1.16-1.17-2.18-2.46-3.05-3.86-.15-.27-.44-.62,0-.88Z"/>
    <path id="Path_122" data-name="Path 122" d="M263.24,164.44c-.09,1.69-1.07,3.2-2.58,3.96-1.81,.97-3.77,1.64-5.79,1.98-.51,.11-1.1,.04-1.25-.56-.17-.67,.44-.82,.92-.95,1.41-.34,2.79-.78,4.13-1.31,.54-.2,1.04-.47,1.51-.8,1.42-1.13,2.41-2.34,.53-4.44-3.2-3.44-7.22-6-11.69-7.45-3.27-1.15-6.65-1.91-10-2.75-.34-.08-.89-.02-.83-.52,.06-.55,.59-.45,.98-.37,5.62,1.11,11.17,2.41,16.25,5.21,2.7,1.53,5.08,3.56,7.03,5.98,.51,.55,.8,1.27,.8,2.02Z"/>
    <path id="Path_123" data-name="Path 123" d="M280.34,161.4c-.02,.23-.07,.45-.14,.67-.16,.42-.41,.85-.93,.76-.44-.08-.5-.55-.47-.9-.03-1.29-.53-2.53-1.41-3.48-3.4-4.56-7.96-8.12-13.21-10.32-3.1-1.47-6.33-2.67-9.64-3.58-.4-.1-.99-.16-.84-.78,.13-.51,.66-.37,1.04-.31,.63,.1,1.25,.25,1.86,.44,4.81,1.44,9.43,3.44,13.77,5.95,3.49,2.13,6.48,4.98,8.77,8.36,.71,.92,1.13,2.03,1.19,3.19Z"/>
    <path id="Path_124" data-name="Path 124" d="M257.06,178.15c2.09,.11,4.18-.03,6.23-.4,2.01-.39,3.97-1.05,5.8-1.96,4.4-2.38,5.25-6.85,3.88-10.83-.7-1.86-1.69-3.6-2.94-5.15-.73-.93-1.65-1.69-2.71-2.22-1.97-1.09-4.01-2.06-6.1-2.89-.47-.18-.93-.4-1.36-.66-.34-.2-.75-.48-.5-.95,.22-.4,.66-.29,1-.15,2.98,1.14,5.84,2.59,8.52,4.33,3.91,2.63,6.4,9.03,5.39,13.43-.48,2.2-1.85,4.11-3.77,5.28-3.76,2.24-8.14,3.19-12.49,2.72-.4,0-.77-.21-.96-.55Z"/>
    <path id="Path_125" data-name="Path 125" d="M217.96,132.75c1.7,.12,3.36,.55,4.9,1.29,2.45,1.17,5.05,2,7.73,2.46,5.22,.95,10.36,2.32,15.54,3.52,.6,.11,1.17,.34,1.68,.67,.24,.17,.59,.38,.52,.68-.08,.35-.51,.27-.78,.25-.43-.05-.86-.14-1.28-.25-5.27-1.23-10.5-2.68-15.82-3.63-2.81-.48-5.55-1.31-8.14-2.49-1.47-.75-3.11-1.12-4.77-1.07-.38,.02-.68-.08-.77-.48-.09-.35,.12-.7,.47-.79,.24-.07,.48-.13,.73-.16Z"/>
    <path id="Path_126" data-name="Path 126" d="M259.47,188.37c-.38,0-.73-.06-.84-.44-.14-.47,.21-.69,.56-.81,.8-.26,1.62-.46,2.43-.68,5.12-1.44,9.96-3.76,14.3-6.84,.35-.24,.73-.65,1.14-.19s.08,.89-.25,1.24c-.19,.19-.39,.37-.62,.52-4.92,3.45-10.48,5.87-16.35,7.12-.13,.02-.26,.06-.37,.08Z"/>
    <path id="Path_127" data-name="Path 127" d="M239.41,143.85c.41,.1,.8,.19,1.19,.29,3.21,.88,6.37,1.93,9.47,3.15,.75,.29,1.52,.52,2.29,.78,.23,.05,.45,.13,.66,.24,.43,.28,.62,.82,.47,1.31-.18,.47-.71,.3-1.08,.17-2.25-.77-4.49-1.59-6.75-2.34-1.95-.64-3.92-1.21-5.88-1.81-.19-.07-.38-.13-.58-.17-.56-.05-.98-.55-.93-1.11,0-.03,0-.07,.01-.1,.04-.39,.74-.24,1.13-.4Z"/>
    <path id="Path_128" data-name="Path 128" d="M226.02,140.77c2.24,.26,4.41,.92,6.41,1.96,.5,.24,.92,.68,.67,1.3-.27,.67-.89,.67-1.46,.5-1.25-.38-2.48-.84-3.73-1.23-.67-.22-1.37-.33-2.08-.34-.58,0-1.05,.12-1.22,.78-.05,.42-.43,.72-.85,.67,0,0-.02,0-.03,0-.44-.07-.55-.45-.65-.81-.35-1.04,.21-2.17,1.25-2.53,.54-.21,1.11-.3,1.69-.29Z"/>
    <path id="Path_129" data-name="Path 129" d="M281.35,168.01c-.17,2.21-.49,4.4-.95,6.56-.04,.2-.1,.39-.19,.57-.25,.48-.61,.85-1.19,.69-.6-.16-.72-.67-.65-1.2,.18-1.29,.38-2.59,.59-3.88,.29-1.55,.48-3.11,.57-4.69,.01-.44,.06-.93,.62-1.01s.75,.37,.92,.77c.24,.7,.34,1.44,.28,2.18Z"/>
    <path id="Path_130" data-name="Path 130" d="M251.97,162.86c-.01,.37-.12,.73-.32,1.04-.3,.43-.71,.89-1.22,.63-.46-.23-.2-.78-.01-1.16,.25-.6,.12-1.3-.35-1.77-1.36-1.72-3.25-2.95-5.38-3.49-.41-.13-.83-.26-1.24-.41-.2-.06-.33-.27-.28-.48,.04-.23,.24-.3,.45-.32,.1-.01,.2,0,.3,0,2.75,.39,5.27,1.71,7.16,3.74,.54,.61,.86,1.38,.9,2.2Z"/>
    <path id="Path_131" data-name="Path 131" d="M215.8,135.94c.31,0,.58,.22,.66,.53,.44,1.65,.98,3.28,1.6,4.87,.13,.21,.07,.49-.13,.64-.24,.15-.56,.09-.72-.14-.23-.24-.43-.52-.58-.81-.56-1.26-.98-2.57-1.25-3.92-.15-.43,.02-.91,.41-1.15Z"/>
  </g>
</svg>