<?xml version="1.0" encoding="UTF-8"?>
<svg id="Lag_1" data-name="Lag 1" xmlns="http://www.w3.org/2000/svg" viewBox="0 0 287.88 216.59">
  <g id="Group_2" data-name="Group 2">
    <path id="Path_132" data-name="Path 132" d="M235.47,164.5c.09,.44,.47,.67,.73,.97,3.89,4.33,7.75,8.69,11.38,13.25,1.51,1.63,2.03,3.95,1.37,6.07-.84,2.46-1.58,4.95-2.64,7.32-1.95,4.28-5.24,7.81-9.39,10.03-3.36,1.91-7.03,1.92-10.71,1.28-5.59-.86-10.63-3.86-14.05-8.37-5.22-6.76-10.04-13.79-14.58-21.04-2.94-4.68-5.91-9.34-9.17-13.8-.39-.53-.63-.94-1.18-.07-5.04,8.07-10.73,15.68-16.14,23.49-4.23,6.09-8.36,12.25-12.54,18.38-.56,.79-1.01,1.65-1.34,2.56-1.41,4.11-4.45,7.44-8.42,9.22-5.54,2.7-11.45,3.03-17.46,2.68-12.71-.72-21.86-7.71-29.37-17.45-3.01-3.9-3.57-8.6-3.4-13.38,.11-5.08,2.11-9.95,5.61-13.64,11.44-12.3,22.86-24.62,34.24-36.97,5.16-5.61,10.16-11.38,15.26-17.05,.51-.38,.62-1.1,.24-1.61-.06-.08-.14-.16-.22-.22-1.34-1.59-2.61-3.24-3.89-4.89-.36-.46-.61-.54-1.09-.13-9.19,7.72-18.95,14.68-28.48,21.94-12.34,9.41-24.8,18.66-37.18,28-10.46,7.89-20.41,16.44-30.62,24.65-.73,.8-1.76,1.26-2.85,1.27-.39-.03-.83,.36-1.21,.59-6.17,3.35-13.73,2.75-19.29-1.55-1.85-1.54-3.2-3.61-3.85-5.93-.24-.82-.5-.86-1.13-.39-1.83,1.34-3.75,2.55-5.52,3.96-1.63,1.18-3.66,1.64-5.64,1.27-2.87-.36-5.52-1.73-7.47-3.87-2.62-2.38-4.41-5.54-5.11-9.01-.83-4.84-.25-9.44,2.69-13.53,.49-.64,1.07-1.21,1.73-1.69,12.21-9.52,24.01-19.57,36.27-29.02,13.66-10.54,27.76-20.44,41.61-30.71,11.66-8.65,23.64-16.83,35.32-25.44,.85-.63,.28-.92-.04-1.32-5.22-6.69-10.48-13.36-15.68-20.07-3.8-4.91-7.53-9.89-11.31-14.82-1.1-1.44-2.26-2.84-3.49-4.16-.82-.78-1.29-1.86-1.31-2.99,.03-5.48,.52-10.92,2.81-15.93,3.44-7.53,9.73-11.08,17.57-12.06,3.25-.57,6.59-.38,9.75,.56,1.97,.54,3.68,1.78,4.79,3.49,1.35,1.97,2.84,3.85,4.45,5.62,10.02,11.93,19.63,24.21,29.79,36.02,.69,.8,1.08,.99,2.09,.35,12.78-8.08,24.74-17.39,37.3-25.8,2.23-1.49,4.48-2.96,6.6-4.6,.29-.25,.66-.41,1.04-.44,6.18-.27,12.17,.45,17.36,4.24,3.91,2.68,6.96,6.44,8.77,10.82,.49,1.25,1.1,2.44,1.66,3.67,.41-.22,.74-.55,.97-.95,6-7.69,12.4-15.06,19.16-22.09,.58-.57,1.1-1.19,1.55-1.86,.56-.75,1.41-1.23,2.35-1.31,4.35-.96,8.9-.14,12.65,2.27,1.61,1.01,1.79,2.14,.69,3.67-2.19,3.04-4.33,6.11-6.54,9.13-.58,.8-.42,1.02,.45,1.28,4.48,1.35,4.49,1.38,7.32-2.41,2.17-2.91,4.31-5.84,6.45-8.77,1.07-1.47,1.53-1.53,3.09-.53,.54,.28,1.1,.54,1.66,.76,2.69,1.35,5.08,3.22,7.03,5.51,1.17,1.13,1.26,2.98,.21,4.22-10.46,15.8-22.06,30.74-33.36,45.9-11.32,15.2-22.45,30.54-32.95,46.36-.62,.93-1.25,1.86-1.95,2.73-.36,.32-.4,.88-.07,1.25,.04,.05,.09,.09,.15,.13,7.63,8.34,14.25,17.53,21.29,26.38,5.01,6.41,10.55,12.38,16.57,17.86,1.33,1.19,2.26,2.71,3.49,3.98,.47,.58,.39,1.43-.18,1.91-1.3,1.53-2.82,2.85-4.52,3.91-.78,.48-1.69,.52-2.04-.45-.93-2.58-2.96-4.06-5.1-5.29-3.8-2.09-8.02-3.29-12.35-3.51-.2-.01-.45-.08-.64,.16Zm-2.99,21.19l1.38,1.61c.62-.67,.07-1.05-.23-1.53-.4-.63-.79-.05-1.18-.06,.4-.51,.31-1.24-.19-1.64-.35-.35-.61-.79-.94-1.15-.18-.2-.3-.71-.64-.45-.3,.22-.13,.62,.1,.93,.57,.76,1.13,1.54,1.71,2.3h0Zm-91.64,13.72l2.55-3.67c-.64-.23-1.01-.11-1.3,.37-.38,.62-.78,1.23-1.22,1.81-.34,.46-.55,.89-.13,1.4-1.3-.03-1.4,1.18-2.11,2.03,1.49,.02,1.72-1.1,2.2-1.94h0Zm-25.72-13.13c-.67,.78-1.32,1.57-2.01,2.32-.38,.41-.09,.68,.12,.99s.47,.28,.61-.01c.51-1.07,2.27-1.66,1.26-3.33,.56,.36,1.09,.87,1.65-.08,.41-.7,1.36-1.26,.25-2.24l-1.88,2.34Zm114.58-88.29c.17-.26,.33-.52,.5-.77,3.54-5.01,7.09-10.01,10.64-15.01,.25-.35,.61-.78,.15-1.09-.48-.33-.58,.33-.76,.59-2.53,3.59-5.05,7.2-7.55,10.81-.79,1.31-1.66,2.58-2.6,3.79-.44,.45-.58,1.12-.36,1.71-.44-.19-.95,0-1.16,.43-1.28,1.88-2.6,3.74-3.89,5.62-.19,.27-.55,.56-.19,1.04l5.22-7.11Zm-43.21-2.9c.41-.65,1.29-.51,1.8-1-2.4-2.83-4.81-5.58-7.09-8.43-.76-.94-1.4-1.13-2.4-.41,1.36,1.58,2.71,3.14,4.06,4.72,.38,.44,.71,.9,1.41,.78,.31-.05,.74,.09,.47,.5-.41,.64,.05,.92,.36,1.26,.73,.69,1.23,1.6,1.4,2.59-.55-.34-1.07-.72-1.58-1.12-1.84-1.66-1.83-1.68-4.03-.6-.13,.07-.27,.14-.41,.19-.65,.23-.86,.53-.28,1.12,.46,.46,.87,.97,1.24,1.52,.24,.5,.84,.72,1.35,.48,.06-.03,.11-.06,.17-.1,1.1-.66,2.3-1.16,3.54-1.48h0ZM125.46,18.18c-.05,1.08-1.02,1.17-1.79,1.59,.48,.73,1.03,1.41,1.65,2.02,.67,.53,1.56-.44,2.38,.08-.11,.38-.4,.69-.78,.83-.81,.28-.5,.63-.16,1.08,.99,1.32,1.78,1.52,3.42,.88,.34-.13,.45-.27,.2-.57-1.68-1.94-3.11-4.09-4.95-5.88-1.24-1.95-2.86-3.59-4.26-5.4-1.29-1.66-1.69-1.73-3.89-.88,1.46,.93,1.59,3.48,4.06,2.88,.28-.06,.55,.11,.62,.39h0c.06,.34-.22,.45-.43,.62s-.87,.07-.48,.63c.47,.75,1.03,1.44,1.67,2.05,.49,.41,1.13-.18,1.71-.24,.34-.04,.67-.05,1.01-.07Zm-5.64,180.6c.17-.26,.33-.52,.52-.77,6.7-8.69,13.28-17.5,20.26-25.96,1.48-1.79,1.42-3.57,1.29-5.82-.48,.59-.81,.99-1.13,1.41-7.23,9.5-14.25,19.18-21.82,28.41-.93,1.13-.92,1.13,.25,2.11,.23,.19,.44,.42,.65,.62-.63-.09-1.24-.34-1.75-.72-.16-.18-.42-.21-.62-.07-.63,.23-.95,.93-.72,1.56,.11,.3,.34,.55,.63,.69,.54,.37,.92,.4,1.33-.17,.35-.45,.73-.88,1.12-1.3h0Zm28.32-140.32c-.65-.78-1.26-1.42-1.75-2.14-.42-.71-1.28-1.01-2.05-.72-2.71,.64-5.44,1.19-8.18,1.71-.59,.11-1.57,.67-1.75-.31-.19-1,.94-.8,1.52-.93,2.81-.63,5.65-1.18,8.6-1.78-.21-.31-.31-.52-.46-.68-3.24-3.82-6.49-7.63-9.71-11.47-.29-.42-.84-.56-1.3-.35-1.02,.33-2.04,.64-3.06,.95-.45,.14-.98,.34-1.18-.25s.36-.77,.79-.92c1.07-.36,2.15-.69,3.33-1.06-.38-.59-.84-1.12-1.35-1.6-.78-.64-1.45-1.4-1.98-2.25-2.1-2.85-4.51-5.47-6.77-8.2-.29-.46-.88-.64-1.38-.42-1.81,.62-3.62,1.22-5.44,1.78-.56,.17-1.36,.88-1.69,.02-.33-.88,.72-.91,1.26-1.11,1.88-.69,3.79-1.31,5.78-1.98-.27-.31-.53-.64-.77-.99-.36-.81-1.3-1.17-2.11-.81-.03,.01-.06,.03-.09,.04-.87,.28-1.76,.51-2.66,.69-.4,.09-.92,.3-1.09-.25-.2-.65,.42-.73,.84-.85,1.07-.3,2.16-.55,3.29-.83q-1.55-2.32-4.08-1.83c-.15,.03-.3,.06-.45,.08-.32,.04-.65,0-.75-.36-.12-.43,.19-.65,.53-.76,.44-.14,.88-.25,1.33-.34,.54-.12,.58-.31,.25-.78-1.42-2.04-1.41-2.05-3.77-1.37-.18,.05-.37,.11-.55,.16-.36,.09-.73,.08-.88-.31-.19-.48,.19-.72,.55-.85,.67-.24,1.36-.43,2.16-.68-.8-1.07-1.57-2.04-2.26-3.05-.29-.51-.91-.73-1.46-.5-2.26,.59-4.42,1.47-6.61,2.26-.41,.15-.97,.49-1.19-.13s.42-.72,.83-.88c2.06-.8,4.13-1.6,6.26-2.2,.24-.07,.59,.02,.65-.34,.1-.57-1.77-2.22-2.37-2.07-3.28,.74-6.49,1.74-9.61,2.99-.4,.17-.92,.57-1.2-.01-.32-.65,.32-.86,.75-1.06,1.47-.65,2.98-1.2,4.52-1.63,1.74-.51,3.49-1,5.32-1.52-.18-.28-.33-.45-.43-.65-.26-.5-1.13-1.05-.46-1.55s.93,.5,1.33,.9,.54,1.1,1.3,.95c1.18-.24,2.36-.5,3.73-.79-1.26-1.38-2.41-2.62-3.53-3.87-.33-.33-.81-.44-1.26-.31-6.38,.7-11.22,4.09-14.88,9.21-3.24,4.53-3.57,9.97-4,15.33,0,.47,.22,.91,.59,1.2,1.11,1.17,2.26,2.32,3.27,3.58,4.21,5.23,8.4,10.47,12.56,15.74,9.15,11.51,18.63,22.74,27.61,34.38,15.65,20.3,31.51,40.42,47.31,60.59,5.5,7.01,11.4,13.7,16.3,21.19,4.27,6.54,8.33,13.21,12.91,19.53,.23,.32,.35,.78,1,.92-.48-8.14,2.95-16.03,9.23-21.24,6.43-5.66,13.69-7.62,22.01-6.67-1.33-2.37-1.72-2.55-4.06-2.3-2.62,.31-5.2,.82-7.74,1.54-4.75,1.3-9.43,2.82-13.35,6.05-.15,.12-.31,.23-.47,.32-.38,.24-.81,.41-1.13-.01-.35-.48-.06-.9,.32-1.2,.48-.38,.98-.74,1.5-1.06,3.86-2.36,8.04-4.13,12.42-5.25,3.13-.87,6.32-1.47,9.55-1.79-1.37-1.57-2.59-2.93-3.76-4.33-.61-.72-1.12-1.46-2.16-.62-.24,.12-.51,.18-.77,.17-2.25,.4-4.47,1-6.63,1.78-.22,.08-.59,.01-.6,.4-.03,.62,1.5,1.81,2.09,1.62,1.87-.66,3.79-1.18,5.74-1.56,.56-.16,1.15-.11,1.68,.12,.17,.08,.29,.22,.36,.4,.05,.22-.18,.33-.35,.39-.36,.13-.73,.22-1.1,.28-1.84,.32-3.66,.78-5.43,1.38-.77,.22-.88,.56-.55,1.21,.16,.2,.12,.49-.07,.65-1.18-1.59-2.47-.78-3.77-.13-.25,.16-.58,.09-.75-.16-.02-.02-.03-.05-.04-.08-.15-.29-.04-.64,.25-.79,0,0,0,0,.01,0,.46-.27,.94-.52,1.43-.73,.34-.15,.55-.32,.23-.67-.63-.71-.96-2.01-2.36-1.23-.28,.18-.65,.11-.84-.17-.02-.03-.04-.06-.05-.09-.19-.39,.03-.67,.35-.87,.22-.13,.52-.15,.66-.49-.34-.43-.72-.87-1.04-1.34-.24-.45-.79-.63-1.25-.41-2.74,.83-5.43,1.84-8.05,3.02-.53,.25-1.28,1.03-1.67,.22-.41-.87,.67-1.03,1.22-1.31,2.65-1.26,5.4-2.31,8.22-3.13-1.27-2.58-1.82-2.76-4.07-1.38-.16,.1-.32,.21-.48,.32-.31,.2-.65,.33-.91-.04s-.02-.67,.26-.9c.64-.49,1.34-.9,2.08-1.2,.41-.19,.43-.36,.17-.76-1.79-2.68-1.78-2.69-4.8-1.64-.1,.04-.22,.07-.33,.11-.41,.15-.89,.31-1.1-.21-.25-.6,.27-.81,.7-.97,.85-.32,1.7-.63,2.65-.98-.47-.56-.9-1.15-1.31-1.75-.26-.62-.97-.92-1.59-.66-.07,.03-.15,.07-.21,.11-1.86,.82-3.73,1.58-5.61,2.33-.5,.2-1.17,.7-1.49-.06-.28-.68,.49-.85,.95-1.05,1.86-.8,3.74-1.56,5.6-2.35,.23-.1,.57-.09,.62-.41,.08-.57-1.46-1.78-2-1.57-1.17,.46-2.33,.96-3.51,1.42-.38,.15-.87,.37-1.09-.18-.22-.53,.23-.75,.63-.93,1.02-.44,2.04-.88,3.07-1.27,.57-.21,.74-.4,.29-.95-1.24-1.52-2.45-3.08-3.63-4.65-.39-.53-.71-.53-1.22-.22-.95,.57-1.93,1.1-2.91,1.61-.44,.24-1,.82-1.39,.18-.41-.66,.36-.91,.78-1.16,.95-.57,1.92-1.12,2.91-1.63,.49-.25,.61-.45,.21-.93-.72-.86-1.4-1.74-2.04-2.67-.24-.48-.84-.68-1.32-.43-.04,.02-.07,.04-.11,.07-2.76,1.14-5.45,2.42-8.07,3.85-.39,.22-.89,.54-1.21-.02-.33-.58,.22-.8,.6-1.05,.22-.15,.47-.26,.7-.39,2.61-1.39,5.29-2.65,8.03-3.76-.73-.9-1.45-1.7-2.06-2.58-.5-.73-1-.96-1.8-.51-.39,.22-.94,.44-1.21-.1-.3-.6,.26-.83,.68-.96,.76-.23,.64-.54,.24-1.05-1.1-1.37-2.19-2.76-3.24-4.17-.21-.41-.7-.57-1.11-.36-.05,.02-.09,.05-.13,.09-1.51,.74-2.99,1.56-4.41,2.45-.35,.24-.77,.52-1.1,.02s.07-.81,.43-1.03c1.05-.64,2.1-1.27,3.18-1.84,1.86-.99,1.83-.95,.55-2.67-.52-.68-.92-.83-1.69-.39-1.93,1.02-3.79,2.18-5.55,3.47-.09,.07-.18,.15-.27,.21-.34,.23-.71,.4-1-.02-.25-.36,0-.66,.26-.9,.23-.21,.47-.39,.72-.58,1.66-1.23,3.44-2.31,5.3-3.22,.59-.3,.72-.53,.24-1.08-.82-.92-1.6-1.88-2.33-2.88-.48-.65-.92-1.1-1.75-.51-.24,.22-.62,.21-.85-.04-.03-.03-.05-.06-.07-.09-.25-.44,.08-.7,.4-.94,.19-.14,.67-.18,.47-.5-.39-.62-.84-1.2-1.37-1.71-.39-.38-.77,.11-1.14,.22-.43,.13-.94,.44-1.21-.13-.28-.6,.3-.76,.69-.99,.26-.15,.79-.21,.41-.71-.58-.77-1.21-1.5-1.81-2.25-.28-.35-.55-.14-.8,.01-.69,.41-1.37,.84-2.06,1.26-.28,.17-.59,.25-.83-.04-.23-.27-.19-.68,.08-.91,0,0,.02-.01,.02-.02,.17-.15,.35-.3,.54-.43,.57-.48,1.72-.6,1.72-1.28,0-.6-.85-1.21-1.33-1.81-.05-.06-.1-.12-.15-.18-.18-.44-.67-.64-1.11-.47-.08,.03-.16,.08-.23,.14-1.11,.61-2.24,1.16-3.36,1.75-.36,.19-.75,.35-1.01-.08s.02-.77,.36-.97c.79-.46,1.6-.9,2.42-1.31,1.52-.76,1.47-.7,.44-2.1-.59-.8-1.08-.82-1.9-.4-1.64,.83-3.33,1.54-5.01,2.29-.38,.17-.78,.31-1.18,.46-.3,.17-.69,.06-.86-.24,0-.02-.02-.03-.03-.05-.18-.4,.09-.66,.41-.84,.23-.13,.49-.21,.73-.32,1.81-.81,3.63-1.63,5.44-2.45,.23-.1,.57-.13,.61-.46,.07-.66-1.74-2-2.37-1.75-2.84,1.13-5.67,2.29-8.42,3.63-.4,.19-.9,.53-1.19-.07-.27-.58,.26-.83,.67-1.02,1.17-.56,2.35-1.11,3.55-1.62,1.73-.75,3.47-1.46,5.28-2.22-.33-.38-.64-.78-.93-1.19-.29-.65-1.05-.95-1.7-.66-.08,.03-.15,.07-.21,.12-.96,.46-1.98,.8-2.98,1.2-.4,.16-.86,.36-1.08-.18s.25-.76,.64-.92c.95-.4,1.9-.8,2.88-1.13,.65-.22,.79-.44,.29-1.01-1.34-1.54-2.65-3.11-3.92-4.71-.26-.39-.78-.51-1.19-.28-1.3,.44-2.62,.83-3.93,1.25-.45,.14-.96,.33-1.13-.32-.14-.55,.35-.71,.75-.84,1.16-.39,2.32-.75,3.49-1.13,.25-.08,.67-.03,.43-.56-.31-.87-1.26-1.33-2.13-1.02-.02,0-.04,.01-.05,.02-1.64,.53-3.27,1.07-4.9,1.6-.39,.13-.8,.18-.98-.29s.18-.71,.55-.86c.35-.14,.72-.25,1.08-.37l4.38-1.47c-.37-.41-.72-.83-1.04-1.28-.4-.81-1.38-1.14-2.19-.73,0,0-.01,0-.02,.01-1.63,.54-3.3,.94-4.96,1.38-.44,.12-1.01,.3-1.17-.31-.17-.62,.41-.72,.85-.84,1.47-.4,2.95-.78,4.41-1.22,.35-.1,.89-.02,1-.42,.12-.45-.41-.67-.64-1.02-.19-.3-.58-.42-.9-.26-.66,.19-1.33,.33-2.01,.47-.39,.08-.83,.09-.95-.38-.16-.59,.35-.7,.74-.81,.56-.16,1.13-.27,1.87-.45-.38-.41-.74-.84-1.07-1.29-.38-.74-1.27-1.05-2.03-.69-1.05,.34-2.14,.57-3.21,.83-.46,.11-1.08,.4-1.25-.3-.16-.67,.52-.78,.97-.9,.99-.28,2-.5,3-.75,.23-.06,.59,.02,.54-.42-.38-.86-1.22-1.43-2.16-1.46-1.37,.33-2.74,.67-4.11,1.01-.49,.12-1.09,.28-1.21-.41-.1-.6,.48-.7,.93-.81,1.37-.34,2.73-.67,4.25-1.04h0Zm-36.37,60.28c.58-.46,1.01-.84,1.48-1.16,.37-.22,.52-.69,.34-1.09-1.08-4.52-2.68-8.91-4.78-13.06-.25-.46-.96-1.09-.3-1.5,.73-.45,.97,.51,1.25,.98,1.82,3.33,3.23,6.87,4.21,10.54,.26,.91,.53,1.81,.8,2.75q2.12-1.3,1.4-3.48c-.17-.52-.36-1.02-.52-1.54-.12-.38-.24-.82,.21-1.03,.52-.24,.77,.17,.93,.58,.3,.8,.55,1.61,.84,2.41,.08,.23,.13,.7,.45,.49,.79-.54,1.55-1.12,2.29-1.74,.47-.38,.01-.79,0-1.18-.02-.34,0-.64,.34-.78,.29-.12,.5,.04,.69,.27,.14,.16,.13,.47,.44,.47,.74,0,2.17-1.83,1.95-2.55-.99-3.38-2.3-6.67-3.9-9.8-.23-.45-.51-.87-.72-1.32-.16-.26-.08-.6,.18-.77,.02-.01,.04-.02,.06-.03,.25-.13,.57-.04,.7,.21,.26,.34,.49,.69,.69,1.07,1.44,2.7,2.64,5.52,3.59,8.43,.74,2.25,.71,2.21,2.61,.78,.61-.35,.82-1.13,.47-1.74-.78-2.23-1.6-4.45-2.55-6.61-.19-.43-.6-1,.04-1.32s.86,.33,1.04,.78c.72,1.71,1.44,3.43,2.09,5.17,.9,2.42,.94,2.44,2.78,.63,.28-.28,.42-.5,.23-.9-1.57-3.31-2.78-6.83-5.11-9.72-.26-.32-.7-.66-.27-1.09,.48-.46,.84,0,1.14,.33,.9,1.01,1.65,2.15,2.22,3.38,.98,2.02,1.89,4.07,2.86,6.09,.12,.25,.11,.81,.66,.52,.37-.2,.24-.5,.12-.8-1.76-4.92-4.06-9.63-6.86-14.05-.23-.34-.63-.74-.19-1.12,.52-.45,.83,.1,1.09,.46,.94,1.32,1.78,2.72,2.51,4.16,1.74,3.32,3.25,6.76,4.5,10.3,1.1-.33,1.23-.96,.83-1.96-.83-2.09-1.56-4.21-2.32-6.32-.17-.47-.49-1.06,.13-1.33,.7-.31,.89,.39,1.07,.88,.77,2.07,1.5,4.15,2.29,6.21,.1,.27,.02,.97,.63,.65,.45-.23,1.07-.45,.73-1.3-1.12-3.01-2.59-5.88-4.39-8.54-2.88-3.96-5.93-7.81-8.92-11.69-.19-.24-.31-.67-.83-.52,.49,1.21-.83,1.43-1.21,2.22,1.06,.55,2.08,1.06,3.09,1.61,.8,.37,1.53,.89,2.14,1.53,.18,.21,.39,.48,.25,.72s-.49,.15-.73,.04c-.35-.15-.69-.33-1.01-.53-1.21-.73-2.46-1.41-3.74-2.02-.68-.45-1.55-.48-2.25-.08-.51,.26-1.1,.3-1.63,.1l1.1-1.04c-2.23-1.32-3.37-1.21-4.95,.47,1.59,.54,3.2,1,4.74,1.63,1.5,.61,3.14,1.05,4.28,2.72-.28,0-.55-.02-.83-.06-.34-.08-.66-.18-.98-.32-3.43-1.67-7.09-2.83-10.87-3.44-.94-.19-1.91,.19-2.47,.97,3.27,.8,6.45,1.91,9.51,3.3,.84,.26,1.55,.84,1.96,1.62-.83,.05-1.66-.15-2.37-.58-3.07-1.38-6.26-2.46-9.53-3.23-.43-.19-.91-.18-1.33,.02-1,.68-1.97,1.4-3.08,2.19,2.06,.28,4.14-.17,5.45,1.82-1.87-.09-3.69-.63-5.56-.45-.08,0-.15-.04-.19-.1-.44-1.12-.95-.34-1.39-.03-12.19,8.49-24,17.52-36.09,26.16-15.44,11.03-30.48,22.6-45.1,34.7-.46,.38-.92,.78-1.38,1.17,2.2-.61,4.35-1.23,6.52-1.79,7.76-2,15.46-1.96,22.93,1.13,6.23,2.58,10.71,6.93,12.11,13.96,.05,.13,.12,.26,.2,.37,.49-.44,1.01-.85,1.56-1.22,.89-.52,.94-1.17,.57-2.04-.5-1.17-.9-2.39-1.4-3.57-1.32-3.31-3.38-6.28-6.03-8.67-.46-.41-1.56-.76-.94-1.53s1.3,.16,1.8,.59c3.01,2.63,5.31,5.98,6.67,9.74,.39,1.01,.71,.85,1.36,.29,.5-.43,.31-.8,.14-1.23-1.33-3.35-3.07-6.51-5.18-9.43-.19-.24-.37-.5-.53-.76-.2-.25-.15-.61,.1-.8,0,0,.02-.01,.03-.02,.23-.16,.55-.12,.72,.11,.34,.36,.66,.75,.96,1.15,1.93,2.71,3.57,5.62,4.87,8.68,.13,.3,.08,1.03,.72,.71,.52-.25,1.09-.59,.66-1.44-.6-1.17-1.1-2.39-1.64-3.59-.17-.37-.33-.77,.1-1.04,.49-.31,.81,.04,1,.44,.5,1,.95,2.03,1.47,3.02,.15,.28,.05,1.01,.73,.69,.54-.25,.58-.68,.38-1.25-1.38-3.76-2.81-7.48-5.76-10.34-.3-.29-.69-.65-.26-1.08s.77-.01,1.07,.27c1.31,1.21,2.4,2.62,3.25,4.19,1.06,1.94,1.95,3.96,2.68,6.04,.08,.23,.01,.7,.52,.6,.72-.26,1.15-1.01,1-1.76-.41-1.45-.92-2.88-1.52-4.27-.19-.42-.43-.94,.18-1.19,.52-.21,.73,.25,.92,.64,.52,1.17,.97,2.36,1.36,3.58,.11,.32,0,1.07,.6,.85,.46-.18,1.16-.47,.83-1.37-1.32-3.55-2.83-6.96-5.54-9.68-.3-.3-.74-.6-.3-1.05,.38-.4,.78-.08,1.11,.2,.8,.72,1.51,1.55,2.1,2.46,1.44,2.16,2.63,4.48,3.53,6.91,.1,.26,0,.79,.55,.7,.74-.23,1.16-1.02,.93-1.76-.83-2.21-1.85-4.35-3.03-6.39-.82-1.45-1.74-2.83-2.76-4.14-.22-.28-.41-.63-.03-.91,.31-.22,.58-.01,.8,.22,.18,.19,.35,.41,.52,.62,1.29,1.69,2.43,3.49,3.41,5.37,.9,1.65,1.62,3.4,2.34,5.1,1.36-.52,1.54-1.34,1-2.59-.61-1.42-1.12-2.89-1.78-4.29-.18-.38-.46-.86,.03-1.13,.57-.32,.81,.23,1,.64,.59,1.34,1.2,2.68,1.73,4.06,.6,1.56,.62,1.56,1.87,.42,.42-.39,.33-.72,.18-1.13-.43-1.16-.86-2.32-1.3-3.48-1.33-3.51-3.16-6.81-5.45-9.79-.37-.49-1.5-.98-.8-1.61,.77-.7,1.3,.45,1.73,.97,2.14,2.65,3.88,5.6,5.15,8.77,.68,1.67,1.31,3.36,1.99,5.1,.38-.31,.77-.59,1.19-.84,.88-.45,.96-1.05,.54-1.9-.43-.87-.77-1.77-1.15-2.67-.17-.41-.35-.87,.18-1.1s.76,.21,.94,.61c.42,.96,.81,1.92,1.24,2.88,.08,.19,.07,.49,.34,.54,.53,.1,1.85-1.39,1.69-1.91-1.35-4.45-3.42-8.65-6.12-12.44-.33-.46-1.36-.96-.61-1.56,.64-.52,1.08,.48,1.44,.95,2.62,3.51,4.66,7.42,6.02,11.58,.5,1.48,.63,1.49,1.81,.48,.51-.44,.21-.83,.13-1.25-.09-.5-.57-1.16,.14-1.41,.64-.22,.68,.54,.86,.98,.08,.19,.08,.48,.37,.51,.56,.05,1.63-1.27,1.46-1.82-1-3.82-2.57-7.47-4.66-10.83-.23-.34-.63-.75-.12-1.1,.48-.33,.75,.17,1,.5,1.06,1.48,1.92,3.09,2.55,4.8,.83,2.17,1.61,4.35,2.42,6.52q1.79-1.03,1.32-2.47c-.56-1.69-1.22-3.34-1.99-4.95-.21-.43-.63-1,.04-1.3,.64-.29,.81,.39,1.03,.82,.79,1.59,1.47,3.24,2.03,4.94,.36,1.05,.61,1.09,1.41,.3,.26-.24,.33-.63,.17-.94-.21-.67-.4-1.34-.62-2-1.18-3.44-2.25-6.94-4.39-9.94-.19-.27-.33-.58-.04-.83,.38-.34,.73-.09,.99,.21,.77,.97,1.41,2.04,1.88,3.18,1.26,2.74,2.31,5.58,3.14,8.49,.17,.59,.37,.92,.99,.46,.19-.14,.4-.23,.63-.27,.96-.14,.94-.65,.7-1.45-.82-2.87-1.82-5.68-3.01-8.41-.19-.42-.5-.94,.05-1.23,.64-.34,.86,.3,1.06,.73,.36,.77,.69,1.56,1.01,2.35,1.1,2.86,2.03,5.78,2.76,8.75,.17,.63,.31,.84,.93,.35,1.82-1.42,1.84-1.39,1.22-3.67-.07-.26-.15-.52-.21-.79-.08-.37-.04-.72,.38-.84s.65,.15,.77,.52c.19,.55,.35,1.11,.48,1.68,.15,.74,.44,.65,.91,.26,.3-.26,.39-.69,.24-1.05-1.12-5.59-3.13-10.97-5.97-15.92-.16-.27-.33-.52-.48-.79-.18-.33-.27-.68,.12-.91,.33-.2,.59,.02,.78,.27,.23,.31,.44,.64,.64,.97,2.14,3.6,3.79,7.46,4.92,11.49,.12,.42,.08,.93,.51,1.24,.32-.29,.66-.55,1.01-.79,1.01-.57,1.13-1.31,.78-2.41-.96-3.55-2.26-7.01-3.88-10.31-.21-.38-.43-.84,.09-1.11s.77,.21,.96,.57c.48,.93,.96,1.86,1.37,2.81,1.13,2.81,2.1,5.69,2.89,8.61h0Zm64.53-50.77c-.68-2.15-1.67-4.19-2.94-6.05-.25-.39-.86-.83-.26-1.28,.63-.47,.95,.24,1.24,.65,1.02,1.55,1.94,3.17,2.75,4.84,.16,.31,.05,1.1,.82,.79s.56-.83,.33-1.41c-.83-2.09-1.67-4.17-2.68-6.17-.77-1.52-1.62-2.99-2.42-4.49-.16-.3-.37-.66,.06-.91,.34-.19,.58,.06,.76,.32,.2,.28,.38,.58,.55,.88,1.77,3.05,3.3,6.23,4.57,9.51,.12,.31,.04,1.17,.77,.78,.52-.28,1.35-.56,.78-1.56-.84-1.48-1.6-3-2.39-4.51-.19-.36-.59-.8-.11-1.13,.56-.38,.83,.2,1.03,.58,.77,1.43,1.48,2.89,2.25,4.32,.14,.26,.11,.92,.72,.56,.44-.26,.85-.58,.39-1.19-.32-.43-.62-.89-.91-1.34-.18-.22-.15-.55,.06-.74,.21-.19,.52-.2,.74-.01,.4,.26,.57,.72,.88,1.06,.25,.27,.3,1.18,.9,.57,.48-.49,1.87-.53,1.13-1.82-.69-1.21-1.4-2.4-2.11-3.6-.22-.38-.74-.79-.19-1.19,.51-.37,.85,.14,1.09,.52,.74,1.18,1.43,2.38,2.15,3.57,.13,.21,.15,.55,.52,.5,.84-.24,1.33-1.12,1.09-1.96-1.27-2.99-2.82-5.86-4.63-8.56-.24-.34-.63-.74-.15-1.1,.44-.33,.79,.09,1.03,.43,.45,.63,.87,1.27,1.28,1.93,1.42,2.36,2.68,4.82,3.76,7.35,.32-.26,.65-.51,1-.73,1.02-.56,1.08-1.24,.53-2.24-1.18-2.13-2.26-4.31-3.37-6.48-.2-.39-.59-.9,.03-1.19,.52-.24,.7,.33,.89,.68,1.25,2.27,2.51,4.53,3.6,6.89,.14,.3,.23,.91,.75,.45,.37-.33,1.37-.28,.85-1.26-.45-.85-.89-1.72-1.31-2.59-.19-.4-.58-.9,0-1.21,.57-.3,.8,.28,1,.68,.94,1.91,1.85,3.83,2.8,5.74,.15,.31,.14,1.06,.75,.68,.48-.31,1.44-.48,.94-1.51-.59-1.22-1.12-2.47-1.73-3.67-.63-1.24-1.33-2.45-2-3.67-.19-.34-.46-.74-.05-1.03,.47-.33,.77,.08,1.01,.45,.19,.29,.37,.59,.54,.89,1.11,1.99,2.18,4.01,3.09,6.11,.11,.25,.1,.67,.51,.68,.83,.02,1.82-1.48,1.5-2.28-1.63-4.14-3.69-8.1-6.17-11.8-.28-.41-1.12-.91-.39-1.41,.6-.42,.97,.41,1.27,.85,2.27,3.32,4.2,6.86,5.76,10.58,.3,.71,.56,1.44,.87,2.15,.44,1.03,.43,2.2-.01,3.23l-.68-1.29q-2.11,1.54-.85,3.89c1.31-.95,2.61-1.9,3.93-2.82,.43-.23,.6-.75,.38-1.19-.6-1.59-1.2-3.19-1.8-4.78-.15-.41-.32-.7-.81-.34-.28,.21-.66,.37-.91-.03-.28-.44,.05-.74,.38-.95,.5-.31,.52-.64,.28-1.16-1.12-2.59-2.39-5.12-3.82-7.55-.29-.47-1.09-1.09-.4-1.58,.77-.54,1.06,.46,1.38,.96,1.42,2.31,2.66,4.72,3.71,7.22,.14,.3,.24,.91,.54,.78,.69-.32,1.34-.74,1.91-1.25,.44-.37,0-.79-.14-1.15-1.1-2.73-2.45-5.35-4.03-7.83-.21-.34-.6-.77-.1-1.11s.74,.16,.98,.5c.18,.25,.34,.52,.49,.79,1.35,2.3,2.55,4.69,3.61,7.14,.1,.27,.11,.67,.49,.72,.69,.09,1.51-1.17,1.2-1.84-1.05-2.24-2.22-4.43-3.5-6.55-.21-.36-.54-.8,0-1.1,.46-.25,.66,.21,.86,.53,1.16,1.92,2.27,3.86,3.25,5.89,.68,1.4,.64,1.35,1.9,.53,.56-.23,.83-.86,.6-1.42-.04-.1-.09-.19-.16-.27-.58-1.09-1.02-2.26-1.62-3.34-1.08-1.96-2.24-3.89-3.36-5.82-.2-.34-.45-.75-.05-1.04,.47-.34,.76,.08,1,.44,.15,.22,.29,.45,.43,.69,1.78,2.76,3.33,5.67,4.65,8.68,.26,.64,.5,.6,.99,.25,.42-.2,.59-.71,.39-1.13,0,0,0-.02-.01-.03-.56-1.53-1.21-3.02-1.96-4.46-1-1.83-2.01-3.66-3.01-5.49-.18-.33-.45-.73,0-1.02s.68,.14,.9,.45c.09,.13,.16,.26,.24,.4,1.76,2.96,3.3,6.05,4.6,9.24,.1,.27,.05,.77,.58,.7,.83-.2,1.34-1.03,1.15-1.86-.01-.06-.03-.12-.06-.18-.99-2.36-2.14-4.64-3.46-6.82-.23-.38-.64-.87-.08-1.21s.79,.28,.99,.66c1.2,2.21,2.45,4.39,3.44,6.71,.12,.28,.03,1.03,.7,.7,.5-.24,1.02-.55,.6-1.34-.57-1.05-1.05-2.15-1.56-3.24-.19-.4-.55-.9,.05-1.2,.52-.26,.73,.27,.92,.64,.51,1,.97,2.02,1.48,3.02,.11,.21,.08,.58,.45,.59,.81,.03,2.13-1.78,1.83-2.53-1.07-3.12-2.76-5.98-4.97-8.42-.27-.28-.6-.61-.23-.99s.7-.04,1,.21c.63,.56,1.2,1.2,1.68,1.9,1.45,2.06,2.63,4.29,3.53,6.64,.1,.25,.04,.83,.62,.57,.47-.22,.41-.58,.2-.96-.11-.21-.2-.42-.3-.63-1.46-3.12-3.14-6.13-5.04-9-.22-.32-.53-.69-.13-1.02,.45-.38,.77,.02,1.03,.37s.5,.69,.73,1.04c1.68,2.64,3.19,5.4,4.51,8.24,.28,.61,.47,.85,1.11,.32,1.52-1.24,1.56-1.21,.63-2.98-.3-.58-.65-1.14-1.03-1.68-4.34-6.49-11.75-10.24-19.55-9.9-1.34,.02-2.76-.26-3.63,1.23-.12,.21-.43,.32-.65,.47-3.7,2.47-7.41,4.92-11.11,7.41-9.84,6.61-19.32,13.77-29.46,19.92-2.34,1.42-2.3,1.41-.55,3.52,.54,.64,.9,.7,1.59,.21,2.72-1.93,5.49-3.8,8.25-5.67,.6-.53,1.36-.84,2.17-.88-.33,.86-.95,1.58-1.75,2.04-2.62,1.81-5.23,3.63-7.89,5.39-.75,.49-.77,.79-.19,1.46,4.32,4.98,8.6,10,12.89,15,.25,.29,.45,.68,.92,.78,.01-.41-.12-.81-.38-1.13-.55-.93-1.13-1.84-1.71-2.76-.22-.35-.38-.74,.05-1.02,.36-.24,.65,0,.88,.29,.25,.29,.48,.6,.69,.93,.55,.93,1.11,1.89,1.67,2.84h0Zm33.63,10.63c.06,.91-.26,1.8-.88,2.46-3.15,4.63-6.49,9.12-9.96,13.51-.2,.25-.65,.57-.31,.86,.37,.33,.52-.26,.74-.46,.13-.14,.25-.29,.36-.45,3.43-4.37,6.76-8.82,10.3-13.1,14.2-17.18,28.14-34.58,42.19-51.89,4.06-5.01,7.72-10.32,11.56-15.5,.31-.42,.64-.76-.11-1.15-2.47-1.34-5.24-2-8.05-1.91-.48,.02-.8,.14-.94,.64-.32,.91-.83,1.75-1.48,2.47-2.95,3.71-5.91,7.42-8.87,11.13-.92,1.14-1.86,2.26-2.8,3.39-.21,.26-.47,.43-.79,.23-.31-.18-.41-.58-.23-.88,0-.01,.01-.02,.02-.03,.12-.2,.25-.38,.41-.55,1.37-1.67,2.76-3.33,4.11-5.01,2.98-3.71,5.93-7.43,8.91-11.16q-.72,.11-1.08,.47c-6.35,6.46-12.35,13.25-17.98,20.35-6.25,7.89-12.8,15.53-19.41,23.1-2.83,3.25-5.76,6.42-8.62,9.64-5.71,6.42-11.43,12.83-17.17,19.24-.33,.37-.78,.73-.16,1.23,.36,.29,.6,1.17,1.21,.21,.17-.27,.57-.1,.87-.05,.71,.12,.71,.12,1.07-.68-.28-.11-.57-.21-.85-.34-.33-.15-.63-.37-.47-.8,.14-.35,.47-.35,.78-.29,.19,.04,.37,.1,.55,.17,1.02,.35,1.71,.07,1.97-.96,.14-.53,.3-.8,.83-.93,.28-.07,.74-.36,.44-.74-.99-1.28-.04-1.1,.74-1.08,.89,.03,1.31-.48,1.28-1.46-.02-.72,.52-.71,.96-.56,.87,.29,1.72,.63,2.55,1.02,.78,.23,1.44,.74,1.84,1.44-1.53,.32-2.63-.63-3.87-1.06-.45-.16-.75-.22-.93,.41-.15,.52-.13,.75,.4,.94,.46,.19,.9,.43,1.3,.72,.21,.14,.48,.35,.33,.66s-.47,.26-.71,.18c-.58-.19-1.15-.41-1.7-.68-.32-.21-.76-.12-.97,.2-.05,.08-.09,.17-.11,.27-.16,.51,.43,.37,.67,.54,.47,.34,1.61,.18,1.28,1.09-.3,.83-1.17,.27-1.69,.01-1.11-.54-1.87-.32-2.35,.88,1.51,.82,3.03,1.61,4.52,2.47,.47,.27,1.48,.44,1.1,1.18-.42,.83-1.13,.06-1.67-.21-1.47-.74-2.92-1.52-4.37-2.31-.27-.19-.64-.14-.84,.13-.04,.06-.07,.12-.09,.19-.21,.46,.26,.47,.49,.59,.91,.48,1.85,.93,2.75,1.43,.39,.22,.94,.55,.68,1.05-.27,.52-.81,.17-1.21-.02-1.03-.5-2.05-1.03-3.08-1.54-.31-.15-.67-.37-.91,.04-.31,.54,.28,.53,.5,.68,.95,.5,1.83,1.12,2.62,1.84,.26,.25,.37,.61,.31,.96-.12,.52-.61,0-.87,.34,.68,.79,1.4,1.54,2.01,2.37,.54,.72,.82,.58,1.33-.06,3.38-4.31,6.65-8.71,9.75-13.23,.39-.75,1.03-1.34,1.81-1.66h0Zm-58.16,49.27c-.74-.31-1.59-.04-2.03,.63-2.67,3.04-5.36,6.06-8.07,9.06-.53,.79-1.4,1.29-2.35,1.35,2.72-3.86,6.19-7.06,8.92-10.9-13.24,14.64-26.86,28.91-40.62,43.53,2.01-.37,4.08-.41,6.1-.1,4.15,.74,7.87,2.3,10.35,5.98,.64,.96,.91,.75,1.5,.01,10.76-13.53,22.14-26.51,33.7-39.33,1.83-2.03,3.57-4.15,5.3-6.27,.62-.76,.55-1.33-.12-1.84-.77-.59-.77,.4-1.08,.69-.53,.5-.94,1.12-1.47,1.62-.39,.5-1.04,.72-1.66,.55-.03-.68,.46-1.05,.84-1.44,.71-.76,1.36-1.58,1.93-2.45,.49-.73-.2-1.07-.53-1.45-.44-.51-.65,.1-.86,.34-.71,.81-1.36,1.67-2.06,2.49-.34,.39-.76,1.04-1.28,.6-.46-.39,.07-.92,.37-1.3,.62-.79,1.27-1.55,1.89-2.34,.15-.19,.44-.42,.04-.66-.26-.16-.54-.32-.78,.06-.11,.16-.22,.32-.34,.47-.65,.81-1.29,1.64-1.95,2.44-.3,.35-.72,.81-1.15,.49-.51-.38,.03-.8,.22-1.18,.13-.27,.45-.43,.46-.78-.69-.43-1.6-.21-2.03,.48-.04,.06-.07,.12-.09,.18-.21,.33-.45,.63-.73,.89-.32,.32-.71,.85-1.13,.52-.45-.35,.01-.83,.25-1.22s.67-.64,.76-1.16c-.55-.26-.85,.07-1.17,.43-.73,.84-1.46,1.69-2.23,2.5-.28,.3-.71,.72-1.07,.4-.4-.35,.01-.78,.27-1.1,.58-.72,1.19-1.41,1.88-2.21h0Zm-17.69,85.86c4.6,.16,9.17-.75,13.36-2.65,2.89-1.45,5.12-3.94,6.23-6.98,.71-1.47,1.05-3.1,1-4.73-.13-1.86-.38-3.71-.75-5.54-.72-3.84-3.37-7.03-7-8.46-1.51-.64-3.08-1.16-4.64-1.66-2.31-.73-2.3-.71-1.96,1.75,.08,.59,.27,.86,.9,.94,2.59,.41,5.02,1.5,7.05,3.16,3.91,3.2,4.74,8.86,1.91,13.05-3.19,4.77-7.63,6.75-13.16,6.84-6.38,.1-12.13-1.98-17.73-4.81-3.72-1.88-7.01-4.5-9.67-7.7-2.69-3.05-3.91-7.12-3.34-11.14,.22-1.9,1.03-3.69,2.33-5.1,2.7-3.03,7.35-3.3,10.38-.6,.77,.69,1.39,1.53,1.82,2.48,.15,.3,.13,.87,.72,.69,.43-.12,.7-.54,.64-.98,0-.54-.08-1.08-.26-1.6-.62-1.72-1.8-3.19-3.35-4.17-2.1-1.36-4.5-2.17-7-2.34-4.78-.66-9.28,2.41-10.4,7.1-1.72,5.72-.64,11.92,2.91,16.72,2.06,2.54,4.36,4.89,6.86,7,6.57,6.13,14.41,8.67,23.17,8.72h0Zm-48.05-70.3q-2.22,1.29-1.6,3.61c.5,1.39,.74,2.86,.71,4.33-.04,.38-.08,.91-.49,.93-.33,.02-.36-.52-.43-.84-.39-1.62-.76-3.24-1.15-4.86-.06-.24-.05-.58-.38-.64-.51-.08-1.68,1.39-1.57,1.93,.33,1.04,.61,2.11,.81,3.18,.05,.6,.44,1.44-.28,1.65-.84,.23-.59-.86-.99-1.34-.43,.6-1.51,.64-1.3,1.78,.37,1.96,.71,3.93,1.08,6.03,.93-.72,1.79-1.42,2.67-2.08,19.25-14.46,38.54-28.87,57.64-43.54,2.01-1.55,3.96-3.17,5.92-4.77,.24-.2,.72-.38,.45-.8-.44-.67-.83-1.49-1.55-1.81-.43-.19-.85,.52-1.28,.82-.47,.33-.9,.73-1.38,1.04-.72,.32-1.13,1.09-.99,1.87,.11,.5-.09,1.01-.49,1.31-.78-1.5-.78-1.5-2.13-.52-3.43,2.46-6.84,4.95-10.31,7.34-.94,.65-1.53,1.27-1.28,2.51,.12,.6,.04,1.48-.65,1.53s-.36-.84-.51-1.3c0-.04-.01-.08,0-.12-.02-.62-.23-.77-.76-.38-.72,.52-1.7,.8-1.5,2.04,.06,.32-.12,.64-.43,.75-.42,.1-.46-.34-.52-.61-.15-.58-.46-.62-.93-.41-.22,.1-.46,.24-.71,.02q1.36-1.62,.77-3.03c-.56,.46-1.15,.89-1.76,1.28-.66,.26-.99,1-.74,1.67,.02,.04,.03,.08,.05,.12,.29,.72,.4,1.51,.31,2.28-.06,.3-.16,.68-.5,.7-.27,.02-.41-.31-.5-.57-.11-.33-.18-.67-.26-1.01-.29-1.2-.57-2.4-.87-3.59-.05-.22,.02-.6-.44-.49-1.02,.42-1.64,1.45-1.55,2.55,.33,1.55,.65,3.11,.94,4.67,.08,.42,.04,.96-.45,1.07-.61,.13-.59-.48-.67-.86-.31-1.4-.57-2.81-.88-4.21-.06-.26-.01-.69-.46-.65-.7,.05-1.62,1.5-1.44,2.24,.46,1.76,.82,3.55,1.09,5.36,.17,.91-.07,1.85-.66,2.56-.81-2.68-.82-5.35-1.81-7.85-.37,.32-.75,.62-1.15,.89-.89,.44-1.29,1.49-.92,2.41,.5,2.11,.77,4.27,1.12,6.41,.15,.57,.13,1.17-.06,1.72-.09,.22-.22,.43-.49,.42s-.39-.23-.43-.46c-.1-.53-.16-1.07-.23-1.61-.29-2.32-.7-4.63-1.24-6.91-.95,.33-1.07,.89-.91,1.75,.42,2.21,.74,4.44,1.08,6.66,.08,.54,.36,1.34-.39,1.49-.8,.16-.75-.67-.84-1.22-.26-1.61-.46-3.23-.76-4.83-.02-.72-.18-1.43-.48-2.08q-2.34,1.53-1.74,4.05c.13,.57,.27,1.13,.39,1.7,.21,.75,.28,1.53,.21,2.31-.05,.31-.14,.68-.46,.74-.4,.07-.44-.37-.53-.64-.12-.45-.22-.9-.3-1.36-.24-1.37-.56-2.73-.97-4.06-2.1,1.13-2.12,1.16-1.57,3.35,.3,.96,.49,1.96,.57,2.96,.01,.41-.02,1.03-.43,1.11-.52,.09-.52-.55-.62-.92-.31-1.16-.56-2.34-.85-3.5-.06-.26-.05-.77-.52-.48-.52,.33-1.13,.61-.84,1.53,.41,1.33,.75,2.69,1.02,4.06,.12,.58,.32,1.48-.37,1.63-.72,.16-.57-.79-.77-1.28-.6-1.52-.23-3.43-1.72-4.61-.14-.15-.14-.38-.02-.54,.55-.89-.18-1.62-.28-2.43-.02-.18-.13-.24-.32-.22-.88,.24-1.44,1.1-1.31,2,.87,3.06,1.74,6.11,2.41,9.22,.18,.64,.2,1.31,.06,1.96-.05,.18-.14,.38-.35,.4-.25,.03-.31-.2-.37-.37-.1-.25-.17-.52-.21-.78-.56-3.09-1.44-6.11-2.28-9.13-.47-1.66-.59-1.68-1.87-.53-.28,.21-.4,.58-.28,.91,.17,.64,.35,1.27,.49,1.91,.48,2.12,.96,4.24,1.42,6.36,.09,.42,.14,1-.31,1.11-.5,.12-.6-.47-.72-.87-.1-.33-.14-.68-.23-1.02-.29-1.55-.67-3.09-1.13-4.6-1.13,.56-1.6,1.91-1.07,3.05,.68,2.11,1.12,4.28,1.28,6.49,.05,.69,.12,1.44-.6,1.96-.33-.56-.5-1.2-.5-1.85-.29-2.23-.74-4.44-1.35-6.6-.07-.25,.05-.69-.44-.66-.87,.27-1.43,1.11-1.33,2.01,.36,1.19,.77,2.36,1.1,3.55,.16,.59,.73,1.54,.08,1.75-.8,.26-1.03-.81-1.27-1.48-.43-1.24-.8-2.49-1.2-3.76h0Zm85.86,1.5c.49,.1,.63,.17,.7,.13,.81-.44,1.47-1.11,1.9-1.92,.23-.46-.63-.94-.94-1.46-.1-.17-.25-.29-.35-.46-.42-.71-.77-.76-1.3-.03-5.47,7.57-11.45,14.75-17.04,22.23-3.95,5.29-8.08,10.43-12.22,15.56-.52,.64-.63,.94,.32,1.19,1.44,.38,2.84,.89,4.25,1.39,4.01,1.31,7.28,4.24,9.03,8.08,.08,.16,.11,.38,.4,.43,.28-.35,.74-.65,.31-1.24-2.61-3.52-5.14-7.12-9.76-8.13-.45-.1-.98-.31-.85-.9,.15-.67,.68-.4,1.12-.3,2.82,.66,5.36,2.21,7.23,4.43,.23,.26,.46,.87,.93,.21,.28-.39,.68-.69,.1-1.24-1.39-1.49-3.06-2.69-4.9-3.56-.38-.15-.93-.29-.68-.85,.24-.52,.72-.24,1.11-.1,1.47,.57,2.81,1.42,3.95,2.51q1.91,1.71,3.38-.47c.17-.26,.41-.49,.17-.83-1.47-2.14-2.9-4.31-5.25-5.57-.4-.21-1-.32-.69-.94,.27-.53,.81-.32,1.22-.13,1.16,.6,2.2,1.42,3.05,2.41,.26,.28,.55,.84,.94,.18,.27-.47,1.26-.76,.43-1.58-.84-.9-1.76-1.72-2.76-2.44-.4-.26-1.05-.51-.64-1.11,.37-.54,.91-.14,1.32,.12,.95,.65,1.83,1.4,2.63,2.23,.28,.26,.47,1.04,1.12,.32,.52-.58,.59-1.01-.1-1.48-.51-.34-.97-.76-1.46-1.11-.35-.25-.78-.49-.47-1,.29-.47,.77-.31,1.12-.07,.63,.43,1.22,.93,1.83,1.39,.19,.14,.28,.47,.65,.26,.71-.29,1.05-1.09,.76-1.8-.1-.25-.28-.47-.5-.62-.12-.1-.25-.18-.37-.28-.28-.22-.57-.48-.34-.87,.26-.44,.65-.31,1-.1,.2,.12,.36,.29,.57,.39,.39,.19,.66,1.09,1.24,.23,.42-.63,1.2-1.11,.3-2.04-1.09-1.29-2.33-2.45-3.69-3.46-.31-.2-.6-.44-.4-.84,.23-.47,.64-.34,.99-.16,.27,.14,.53,.31,.77,.5,1.14,.92,2.19,1.94,3.13,3.07,.16,.19,.25,.52,.59,.46,.54-.09,1.06-1.54,.7-1.98-1.09-1.4-2.34-2.66-3.73-3.77-.35-.27-.94-.53-.58-1.07,.41-.61,.9-.11,1.27,.16,1.11,.83,2.13,1.78,3.02,2.84q1.01,1.16,2.04,.1c.22-.3,.54-.51,.9-.6,.02,.62-.18,1.24-.57,1.72-.95,1.15,.09,1.73,.58,2.46,.54,.8,.83-.42,1.46-.13-.75,1.32-.21,2.36,.88,3.33,.28-.43,.6-.84,.94-1.23,.75-.73,.71-1.35,.08-2.19-1.54-2.31-3.26-4.5-5.13-6.55-.29-.28-.55-.62-.24-1.01,.37-.44,.77-.2,1.1,.09,.83,.75,1.57,1.59,2.22,2.5,1.19,1.61,2.36,3.23,3.59,4.92,1.07-1.42,2.08-2.77,3.09-4.13,.6-.86,.39-2.04-.47-2.64-.02-.01-.03-.02-.05-.03-.73-.43-.9,.62-1.34,.97-.74,.58,.03,.99,.23,1.46s.64,1.03,.19,1.36c-.36,.27-.83-.26-1.07-.64-.37-.59-.75-.82-1.35-.31-.17,.14-.44,.26-.6,.02-.06-.18-.03-.38,.08-.53,.83-.91,.18-1.52-.39-2.15-.36-.4-.71-.81-1.07-1.21-.27-.3-.55-.65-.21-1.01,.4-.43,.78-.1,1.07,.21,.53,.56,1.02,1.16,1.53,1.73,.14,.16,.21,.43,.51,.38,.26-.05,1.54-1.66,1.42-1.86-.4-.69-.65-1.68-1.83-1.12,0-.2-.05-.35,0-.42,.36-.43,.31-1.08-.13-1.44-.07-.06-.15-.11-.23-.15-.48-.33-.6,.4-.92,.6-.13,.08-.22,.22-.34,.31-.24,.18-.54,.44-.81,.22-.31-.26-.03-.58,.13-.82,.26-.38,.57-.73,.87-1.08,.43-.51-.06-.75-.28-1.07-.3-.43-.55-.23-.83,.05-.46,.47-.92,.93-1.39,1.38-.3,.28-.68,.49-1.01,.14-.36-.38-.06-.69,.24-.97,.39-.37,.78-.74,1.15-1.13,.34-.36,.9-.62,.25-1.28-.59-.61-.88-.28-1.27,.14-.25,.35-.6,.6-1.01,.73-.32,.06-.77-.02-.58-.41,.42-.9,1-1.71,1.73-2.39,.69-.55,1.34-1.17,2.01-1.76,.28-.25,.39-.57,0-.84-1.26,.87-2.02,2.46-3.77,2.67,0-.22-.03-.32,0-.37,1.55-1.96,3.29-3.76,5.19-5.37,.21-.19,.53-.18,.72,.03,0,0,0,.01,.01,.02,.22,.2,.23,.54,.03,.76-.02,.02-.05,.05-.07,.07-.52,.5-1.08,.97-1.83,1.64h0Zm-139.09,7.08c1.17,.1,2.66,.16,4.14,.35,4.79,.63,9.18,2.12,12.21,6.27,2.29,3.13,4.23,6.42,3.65,10.58-.34,2.58-1.06,5.1-2.15,7.47-1.77,4.23-5.71,7.15-10.27,7.6-4.93,.55-8.22-1.46-9.02-6.24-.54-2.27-.84-4.58-.89-6.91,.01-.24,.1-.57-.3-.63-.83,.05-1.52,.64-1.7,1.45-.05,1.24-.12,2.49-.08,3.73,.02,2.79,1.29,5.43,3.46,7.19,2.9,2.41,6.7,3.45,10.43,2.87,4.48-.6,7.84-3.26,10.31-7.04,1.76-2.75,3.04-5.77,3.78-8.95,2.04-8.28-.96-14.58-8.78-18.23-4.98-2.23-10.48-3.05-15.9-2.37-8.48,.84-16.03,4.14-23.16,8.76-3.01,1.82-4.99,4.96-5.33,8.47-.49,3.88,.31,7.81,2.27,11.2,1.61,2.93,4.52,3.74,7.47,4.39,.35,.08,.93,.54,1.11-.24,.15-.67-.21-.89-.83-1.09-2.7-.73-4.97-2.54-6.28-5.01-3.23-6.21-1.49-13.28,4.4-16.92,2.44-1.52,4.99-2.85,7.64-3.97,4.38-1.8,9.08-2.72,13.82-2.7ZM281.55,24.07c-.71-.76-1.42-1.51-2.12-2.27-.27-.3-.48-.66-.1-1.02s.72-.14,1,.15c.65,.65,1.28,1.33,1.93,1.99,1.67,1.7,1.66,1.7,2.93-.39,.22-.25,.2-.62-.05-.84-.02-.01-.03-.03-.05-.04-1.98-2.21-4.24-4.14-6.72-5.76-.64-.38-.98-.39-1.47,.28-12.95,17.59-25.93,35.15-39.48,52.28-9.38,11.86-19.05,23.48-28.46,35.31-1.63,2.05-1.65,1.97,.01,3.98,.6,.73,1.1,.61,1.24-.13,.21-1.09,.96-1.51,1.63-2.19,1.36-1.47,2.6-3.05,3.69-4.74,.42-.64,.88-1.24,1.38-1.82,.64-.71,2.06-1.41,.84-2.81-.14-.17-.01-.46,.21-.59,.2-.14,.47-.11,.64,.06,.58,.74,.89,.27,1.27-.22,1.06-1.38,2.13-2.74,3.22-4.09,.39-.49,.71-.91,.07-1.45-.22-.18-.26-.51-.08-.73,0,0,0,0,0,0,.14-.21,.42-.26,.62-.12,.03,.02,.06,.05,.09,.08,.57,.63,.86,.19,1.22-.25,2.51-3.08,4.89-6.26,7.27-9.44,1.19-1.59,2.46-3.11,3.67-4.68,.22-.28,.61-.5,.42-.99-.22-.59-.05-.78,.63-.82,.86-.04,1.07-.99,1.53-1.55,.37-.45-.21-.74-.38-1.09-.16-.31-.44-.62-.1-.94,.4-.37,.74-.07,.95,.26,.42,.65,.65,.32,1-.08,.92-1.03,1.64-2.21,2.51-3.28,3.34-4.09,6.5-8.33,9.71-12.53,.41-.53,1.12-1.02,.6-1.91-.09-.16,.09-.47,.25-.46,1.35,.12,1.5-1.19,2.19-1.85,.6-.58,.81-1.17,.07-1.83-.24-.15-.31-.47-.16-.71,.02-.04,.05-.07,.09-.1,.19-.2,.51-.2,.7-.01,.04,.04,.07,.08,.09,.13,.53,.83,.83,.36,1.24-.13,4.18-5.01,7.7-10.52,11.65-15.71,1.58-2.08,3.06-4.24,4.71-6.27,.99-1.22,2.12-2.28,3.08-3.49,.63-.78,.83-.56,1.2,.08,.47,.84,.91,1.7,1.42,2.52,.89,1.43,.91,1.42,2.19,.22h0Zm-44.3,136.1c-5.51-.26-10.89,1.7-14.93,5.44-1.05,.96-2.08,1.95-3.14,2.9-6.02,5.37-7.98,18.97-1.75,26.72,4.14,5.14,14.03,6.79,19.02,3.7,3.97-2.31,6.99-5.96,8.5-10.29,.64-1.46,1.01-3.02,1.11-4.61,0-.38,.09-.74-.4-.96-1.96-.91-2.37-.67-2.37,1.48,0,.31,0,.62,0,.93-.18,5.81-5.19,11.62-10.81,12.13-5.24,.58-10.38-1.72-13.43-6.01-1.38-1.76-2.13-3.93-2.16-6.16-.16-4.72,.88-9.4,3-13.61,2.43-4.58,6.03-7.84,11.24-8.97,6.24-1.35,12.14-.17,17.82,2.45,2.05,.94,3.75,2.5,4.88,4.45q.75,1.27,1.84,.27c.17-.16,.33-.32,.5-.47,.23-.13,.3-.43,.17-.65-.03-.05-.06-.09-.1-.12-2-2.49-4.52-4.53-7.38-5.96-3.62-1.77-7.6-2.67-11.62-2.63h0Zm-167.14-4.28c-.78,.63-1.48,1.29-2.27,1.82-.72,.41-1.02,1.29-.7,2.06,.48,1.68,.69,3.43,.62,5.17-.04,.4-.2,.86-.62,.87-.48,0-.5-.52-.54-.89-.11-1.51-.33-3.01-.66-4.48-.07-.28,.12-.86-.45-.71-.43,.07-.77,.42-.83,.86,0,.27,.03,.54,.09,.81,.32,1.76,.41,3.55,.27,5.33-.13,1.64-.24,3.29-.36,4.94,.36,.02,.52-.23,.71-.4,4.07-3.46,8.28-6.74,12.49-10.02,1.04-.81,1.75-1.43,1.22-3.01-.5-1.49-.53-3.15-.94-4.71-.92,.16-1.53,1.04-1.36,1.96,.02,.1,.04,.19,.08,.29,.25,.79,.22,1.63-.06,2.4-.1,.24-.25,.53-.56,.49-.27-.03-.3-.34-.33-.56-.08-.65-.13-1.31-.19-1.97-.05-.62-.29-.74-.79-.34-.78,.63-1.56,1.24-2.37,1.83-.37,.22-.53,.68-.37,1.09,.24,.78,.35,1.59,.33,2.41-.03,.43-.05,1-.52,1.04-.4,.04-.46-.53-.57-.89-.09-.78-.28-1.55-.58-2.28-.41,.3-.76,.58-1.14,.84-.31,.21-.66,.32-.91-.05-.22-.32,0-.59,.23-.81,.18-.2,.39-.37,.62-.51,1.27-.62,1.01-1.51,.45-2.57ZM144.16,39.29c2.25,3.26,5.14,6.01,6.92,9.59-1.15-.71-2.14-1.64-2.94-2.73-1.62-2.01-3.22-4.04-4.83-6.06-.25-.31-.43-.76-.98-.63-.71,.17-1.43,.32-2.32,.52,2.14,2.45,4.14,4.73,6.14,7.02,.19,.24,.48,.39,.78,.39,.59,0,1.44-.15,.68,.94-.21,.29,.14,.48,.3,.67,2.03,2.38,4.06,4.75,6.09,7.12,.25,.29,.46,.55,.95,.45,.71-.15,1.67-.31,.67,.91-.11,.1-.14,.26-.09,.4,.52,1.43,2.09,2.16,3.52,1.65,.09-.03,.18-.07,.27-.11-.51-.56-.99-1.1-1.47-1.64-1.11-1.23-2.24-2.44-3.33-3.68-.29-.33-.68-.8-.15-1.2,.48-.36,.72,.18,1,.48,4.25,4.52,8.32,9.19,12.27,13.99,.21,.39,.7,.54,1.09,.33,.1-.05,.19-.13,.25-.21-.29-.36-.54-.69-.81-1.02-3.9-4.72-7.82-9.42-11.7-14.15-3.48-4.23-6.93-8.48-10.35-12.75-.61-.78-1.12-.93-1.95-.25h0Zm-25.15-29.11c-.15-.23-.3-.45-.43-.68-.16-.28-.31-.59,0-.83,.23-.18,.56-.14,.73,.09,.02,.03,.04,.06,.06,.1,.49,.97,1.51,1.56,2.6,1.51,.33,0,.61,.23,.66,.55,.04,.46-.41,.33-.67,.43-.13,.05-.31,.01-.31,.3,.13,.17,.3,.38,.47,.59,4.85,5.94,9.7,11.88,14.55,17.82,.44,.54,.74,1.31,1.65,1.26,.15,0,.28,.1,.29,.25,0,.05,0,.1-.03,.15-.32,.58,.14,.86,.41,1.2,1.12,1.42,2.31,2.78,3.37,4.24,.44,.8,1.45,1.1,2.26,.68-.07-.15-.15-.3-.25-.44-8.33-10.62-16.67-21.23-25-31.84-.82-1.22-2.13-2.04-3.59-2.23-1.06-.1-2.12-.31-3.18-.37-.88-.12-1.77-.05-2.62,.18,1.07,1.22,2.07,2.32,3.03,3.48,.32,.43,.86,.63,1.38,.5,1.86-.24,3.73-.65,5.72-.01-.43,.31-.93,.51-1.45,.59-1.13,.18-2.26,.31-3.39,.48-.32,.05-.75,0-.41,.61,.98,1.76,2.18,2.2,4.16,1.4h0Zm3.63,175.55c-.53,.98-1.18,1.9-1.93,2.72-.59,.86-1.26,1.66-2,2.39-.63,.53-.19,1.79-1.43,1.89-.35,.03-.85,.73-.06,1.21,.2,.12,.51,.25,.37,.63-.34,.07-.69-.04-.91-.31-.54-.45-.71,.06-.98,.34-.33,.34-.22,.59,.11,.84,.28,.2,.54,.43,.78,.69,.67,.81,1.07,.63,1.72-.16,7.88-9.7,15.16-19.87,22.82-29.75,.72-.95,.98-2.17,.71-3.33-.44,.23-.8,.58-1.04,1.02-4.43,5.65-9.05,11.16-13.18,17.02-1.89,2.72-4.65,4.72-7.82,5.67-.61,.24-1.14,.63-1.54,1.14-.59,.65-.33,.93,.19,1.44,.74,.7,.88-.06,1.17-.38,.84-1.17,1.87-2.2,3.03-3.05h0Zm27.59-25.2c-.36,.45-.58,.71-.78,.99-1.44,1.9-2.82,3.86-4.35,5.68-1.44,1.73-2.54,3.71-4.09,5.39-2.21,2.4-4.14,5.07-6.15,7.66-5.23,6.72-10.45,13.45-15.66,20.19-.19,.25-.63,.58-.06,.79s1.19,1.26,1.83,.23c.45-.64,.93-1.25,1.44-1.84,9.02-11.59,17.45-23.64,26.72-35.03,.93-1.13,1.34-2.61,1.11-4.06h0Zm-15.27-124.41c-.45-.44-.75-.72-1.04-1.02-.23-.24-.37-.53-.12-.83s.57-.18,.81,.04c.38,.33,.73,.68,1.08,1.04,.23,.32,.62,.47,1,.38,.83-.21,1.65-.39,2.62-.62-.52-.66-.96-1.14-1.31-1.69-.32-.63-1.08-.88-1.71-.56,0,0-.01,0-.02,0-1.48,.5-2.99,.9-4.5,1.31-.45,.12-1.08,.42-1.26-.28s.51-.76,.96-.9c1.6-.47,3.21-.92,5.02-1.43l-4.82-5.91c-.12-.16-.33-.21-.51-.14-.79,.22-1.59,.42-2.48,.66,1.03,1.33,1.92,2.76,2.67,4.26-.93-.47-1.71-1.17-2.28-2.05-1.17-2.06-2.71-2.01-4.61-1.27-.79,.31-.9,.44-.33,1.1,2.31,2.68,4.6,5.4,6.88,8.11,.29,.34,.56,.6,1.06,.47,.88-.23,1.77-.43,2.88-.68Zm69.83,27.41c-.25-.17-.36-.04-.48,.04-6.83,4.69-13.21,9.98-19.86,14.91-.48,.35-.3,.59,0,.91,.89,.96,1.79,1.91,2.63,2.91,.46,.54,.71,.43,1.13-.05,4.84-5.48,9.69-10.95,14.55-16.4,.68-.77,1.35-1.55,2.02-2.33h0ZM16.84,177.57c-1.19-.73-2.33-1.36-3.39-2.11-1.82-1.37-2.96-3.44-3.14-5.71-.04-.3-.09-.72,.28-.78,.32-.05,.32,.34,.35,.61,.33,3.28,2.3,5.23,5.01,6.7,1.33,.72,2.37,.87,3.36-.38-6.17-3.36-7.83-7.61-7.09-13.48-.07,0-.15,0-.22,.03-.17,.09-.33,.2-.48,.32-2.84,2.27-3.39,5.39-2.99,8.78,0,1.02,.33,2.01,.96,2.8,1.24,1.31,2.65,2.45,4.2,3.39,.96,.7,2.28,.63,3.15-.18ZM242.87,54.63c-.47,.13-.68,.53-.94,.84-7.72,9.57-16.04,18.62-23.52,28.4-1.03,1.35-2.49,2.44-2.34,4.47,.04,.5-.41,1.03-.94,.28-.44-.62-.57,.01-.71,.19-.89,1.11-1.73,2.27-2.62,3.38-.55,.73-.71,1.68-.44,2.55,1.39-1.71,2.61-3.27,3.9-4.79,9.15-10.83,17.86-22.04,26.74-33.11,.57-.59,.88-1.39,.87-2.21Zm2.62-11.33c-.49,.07-.61,.39-.78,.62-4.25,5.54-8.66,10.94-13.04,16.38-3.21,4-6.41,8.01-9.58,12.04-.15,.19-.72,.43-.13,.8,.33,.21,.65,.41,.96-.05,.14-.18,.29-.36,.46-.52,7.17-8.01,13.84-16.46,20.56-24.86,1.07-1.34,1.15-2.86,1.55-4.42h0Zm-15.78,121.84c.01,.14,0,.19,.02,.21,3.76,4.59,7.53,9.18,11.29,13.77,.15,.18,.3,.42,.54,.37,1.1-.23,2.21,.06,3.49-.07-.42-.5-.7-.85-1.01-1.19-3.51-3.89-6.86-7.93-10.11-12.04-.79-1.34-2.47-1.86-3.87-1.18-.11,.05-.22,.08-.36,.13h0Zm-50.33-83.57c.77,.94,1.56,1.91,2.35,2.87,4.79,5.89,9.97,11.43,14.87,17.22,.64,.76,1.35,.34,1.82,.01,.41-.29-.24-.69-.46-.97-5.25-6.56-10.9-12.76-16.45-19.05-.77-.86-1.33-1.15-2.13-.08h0Zm29.3,35.72c-.06-.14-.13-.28-.22-.4-3.8-4.29-7.61-8.57-11.41-12.86-.21-.34-.65-.45-.99-.26-.54,.26-1.18,.3-1.66,.83,.62,.76,1.24,1.49,1.84,2.24,.74,.94,1.82-.31,2.59,.43-.2,.43-.6,.59-.94,.82-.15,.1-.41,.21-.25,.41,.6,.8,1.23,1.58,1.88,2.34,.36,.42,.78,.07,1.17,.02,.31-.04,.66-.08,.81,.25,.12,.27-.1,.5-.3,.7-.17,.17-.64,.29-.4,.57,.48,.56,.66,1.58,1.74,1.38,.33-.06,.74-.14,.93,.22s-.18,.54-.41,.73c-.14,.12-.2,.25-.08,.39,.81,1.02,1.63,2.04,2.47,3.05,.12,.09,.28,.11,.43,.07,.93-.29,1.86-.6,2.82-.91h0Zm-23.41,39.05c-3.03,5.18-6.95,9.71-10.24,14.7-.48,.72-1.4,1.29-1.08,2.41,.03,.1-.02,.28-.17,.22-.91-.34-.97,.56-1.26,.98-1.58,2.28-3.08,4.61-4.61,6.92-.14,.23-.3,.45-.48,.65-.22,.21-.49,.41-.81,.17-.23-.17-.28-.5-.11-.74,.84-1.1-.09-1.73-.53-2.48-1.64,.89-.63,2.35-.68,3.57-.65-.12-.78-.75-1.25-.91q-1.36,1.61-.4,3.44c.43,.73,.72,1.53,.85,2.36,.29-.38,.46-.58,.61-.8,3.39-5.07,6.97-10.01,10.52-14.96,3.32-4.64,6.51-9.39,9.75-14.09,.33-.49,.74-.97-.11-1.45h.01Zm58.93-107.16c-2.77,3.45-5.42,6.7-8.02,9.99-6.01,7.63-12.77,14.61-18.86,22.18-.67,.84-.98,1.91-.89,2.98,.49-.13,.65-.52,.88-.8,4.68-5.93,9.36-11.86,14.39-17.49,3.72-4.16,6.94-8.77,10.77-12.83,1.05-1.08,1.67-2.51,1.72-4.02h.01ZM57.64,177.77c1.7-1.43,3.4-2.85,5.1-4.28,.19-.13,.32-.33,.34-.56,.14-1.5,.37-2.99,.47-4.5,.26-2.32,.19-4.67-.2-6.97-1.71,1.02-3.12,2.01-2.76,4.33,.1,1.28-.04,2.57-.41,3.8-.68,2.77-1.53,5.51-2.54,8.18Zm154-54.83c-.28,.79-1.54,.52-1.42,1.33,.09,.61,.72,1.16,1.17,1.68,.56,.65,.83,1.74,2.03,1.53,.18-.03,.29,.16,.28,.41-.08,1.87,.58,2.39,2.33,1.87,.44-.13,.88-.26,1.33-.35,.52-.1,.64-.27,.27-.75-2.51-3.23-5-6.47-7.49-9.71-.24-.31-.48-.65-.94-.49-.89,.32-2.12,.25-2.56,1.02-.26,.46,.84,1.23,1.27,1.9,.04,.06,.1,.12,.14,.19,.59,1.02,1.33,1.65,2.59,1.19,.34-.09,.7-.03,.99,.18h0Zm-74.79,61.66c-.4,.53-.68,.89-.96,1.25-3.76,4.99-7.4,10.07-10.97,15.2-.2,.28-.84,.65-.28,1,.47,.29,1.13,.8,1.71,0,1.38-1.9,2.77-3.8,4.17-5.7,.23-.31,.4-.61-.15-.77-.18-.05-.38-.17-.29-.41,.1-.29,.38-.26,.58-.16,.69,.35,.95-.15,1.27-.6,1.47-2.08,2.89-4.2,4.47-6.19,.81-1.03,.99-2.43,.46-3.63h0Zm-95-15.54c1.14-.81,2.19-1.57,3.27-2.3,.62-.32,1.04-.94,1.12-1.63,.03-.42,.18-.96,.72-.84,.57,.12,.36,.68,.32,1.08-.22,.81-.34,1.65-.36,2.5,1.73-.83,1.8-.97,1.09-2.58-.19-.42-.44-.82-.62-1.25-.34-.83-.71-.98-1.51-.41-3.78,2.68-7.6,5.31-11.42,7.94-1.4,.97-1.54,1.58-.71,3.21,1.53-.78,2.71-2.07,4.18-2.94,1.26-.74,2.65-1.46,2.73-3.28,0-.28,.23-.52,.52-.52,0,0,.01,0,.02,0,.64,.02,.38,.65,.66,1.02h0Zm97.88-63.13c-1.16,.87-2.31,1.77-3.49,2.61-.66,.46-1.25,.88-.96,1.84,.06,.19,.09,.5-.2,.58-.25,.08-.43-.12-.56-.31-.22-.33-.47-.54-.83-.21-1.1,1.03-2.7,1.48-3.35,3.03-.06,.15-.29,.34-.42,.33-1.29-.15-1.93,.94-2.71,1.61-.6,.52-.1,1.47,.19,2.04,.21,.39,.76-.23,1.09-.47,3.78-2.68,7.54-5.4,11.32-8.07,.54-.38,.81-.75,.53-1.42-.21-.48-.19-1.06-.61-1.56Zm93.23,88.51l-12.06-16.06c-.85,1.17-.69,2.79,.36,3.79,3.11,3.82,6.13,7.71,9.1,11.65,.52,.89,1.67,1.18,2.55,.66,.02-.01,.03-.02,.05-.03h0Zm-40.65-90.52c-.87-1.02-1.65-1.96-2.46-2.89-.33-.38-.87-.76-.38-1.25,.57-.58,.95,.08,1.28,.46,.76,.86,1.5,1.75,2.24,2.64,.26,.31,.52,.61,.96,.38,.6-.19,1.18-.47,1.71-.82-1.13-1.32-2.27-2.63-3.39-3.94-.18-.21-.34-.36-.68-.22-1.89,.83-3.78,1.63-5.67,2.43-.43,.18-.47,.39-.16,.76,.99,1.18,1.94,2.39,2.91,3.59,.15,.27,.49,.37,.76,.23,0,0,.01,0,.02-.01,.91-.45,1.85-.88,2.87-1.36h0Zm-47.07-56.3c-1.59-1.84-3.27-3.51-4.61-5.42-.83-1.59-2.8-2.21-4.39-1.38-.04,.02-.09,.05-.13,.07-.75,.32-.94,.42-.34,1.09,1.19,1.31,2.32,2.67,3.47,4.01q2.34,2.73,5.81,1.77s.06-.04,.19-.14h0Zm76.49,128.88c-.22,.03-.28,.16-.36,.3-.29,.48-.2,1.09,.21,1.47,1.88,2.49,3.73,5,5.6,7.49,2.01,2.68,4.06,5.33,6.04,8.03,.38,.52,.71,.52,1.12,.19,.3-.23,1.02-.35,.74-.82-.37-.87-1.02-1.58-1.86-2.02-.24-.09-.42-.06-.36-.35,.09-.46-.21-.72-.44-1.02-3.42-4.26-6.84-8.52-10.27-12.78-.14-.18-.3-.35-.43-.49Zm-2.78-72.72c-.19,.22-.36,.43-.53,.63q-1,1.25,.13,2.28c.12,.1,.23,.21,.32,.33,.22,.3,.59,.63,.25,1.01s-.7,.1-1-.15c-.27-.22-.52-.47-.79-.66-.33-.23-.66-.57-1.06-.04-.32,.41-.46,.72-.06,1.2,.62,.74,1.16,1.53,1.71,2.33,.19,.28,.41,.65,.05,.93-.32,.24-.68,.05-.91-.23-.52-.63-.98-1.29-1.49-1.91-.16-.19-.25-.66-.64-.41-.35,.22-.32,.55-.09,.9,.77,1.14,1.53,2.3,2.38,3.59,1.83-2.83,3.6-5.58,5.38-8.33,.2-.25,.24-.59,.1-.87-.52-1.06-1.05-2.13-1.59-3.22q-1.38,1.38-.41,2.87c.19,.29,.37,.58,.54,.89,.16,.31,.34,.71,.02,.96-.39,.3-.71-.05-.97-.33-.49-.53-.72-1.27-1.33-1.75Zm-23.2-36.62c4.02-3.36,8.17-6.04,12.09-9.03,.06-.04,.13-.09,.18-.14,.41-.59,.38-1.38-.08-1.93-.23-.41-.69,.21-1,.41-.84,.58-1.6,1.26-2.46,1.82-2.46,1.62-4.81,3.4-7.24,5.07-.98,.67-1.93,1.25-1.36,2.71,.08,.22-.05,.52-.13,1.09Zm-59.18,114.9c-.12,.08-.2,.1-.24,.16-4.47,6.09-9.02,12.12-13.66,18.08-.21,.26-.52,.57,0,.8,.4,.18,.79,.78,1.27,.12,.3-.4,.59-.81,.87-1.22,3.61-5.15,7.26-10.27,11.09-15.24,.64-.83,1.28-1.54,.65-2.7h0ZM261.2,46.58c.53-.72,1.03-1.43,1.57-2.13,.3-.39,.42-.71-.05-1.06-.27-.18-.34-.54-.16-.81,0,0,0-.01,.01-.02,.14-.27,.47-.38,.74-.24,.02,.01,.04,.02,.06,.04,.61,.44,.85,.03,1.16-.41,1.56-2.25,3.11-4.5,4.73-6.7,.39-.53,.25-1.35,.73-1.62,.74-.4,1.01-1.13,1.53-1.66,.66-.68,.33-1.26-.21-1.65-.6-.44-.71,.36-.92,.64-3.16,4.32-6.28,8.68-9.44,13.01-.99,1.37-1.03,1.34,.25,2.61Zm-28.02,143.16c.3-.79,.73-1.38,.11-2.14-1.33-1.63-2.59-3.32-3.89-4.98-.13-.17-.26-.53-.47-.42-.42,.21-.54,.09-.49-.32,.01-.43-.16-.84-.48-1.13-1.49-1.91-2.98-3.83-4.49-5.72-.22-.28-.37-.86-.77-.71s-.57,.7-.7,1.15c-.13,.41,.23,.63,.43,.89,1.52,1.94,3.04,3.88,4.59,5.8,2.02,2.51,4.07,5.01,6.16,7.59Zm-50.7-112.48l.24,.15c.33-.23,.68-.44,1-.7,2.36-1.89,4.7-3.8,7.06-5.7q1.57-1.26,.65-3.35c-2.85,2.16-5.67,4.31-8.51,6.45-.27,.18-.38,.52-.26,.82,.32,.76,.25,1.63-.19,2.32Zm41.27,54.65c0-.08-.02-.16-.05-.23-3.6-4.74-7.69-9.04-11.42-13.65-.18-.3-.57-.4-.87-.22-.05,.03-.09,.06-.13,.1-.45,.38,.07,.61,.23,.83,3.22,4.29,6.43,8.58,9.9,12.66,.46,.78,1.47,1.04,2.25,.58,.03-.02,.06-.04,.09-.06Zm10.47-43.66c-.47-.06-.89-.32-1.15-.72-.1-.17-.17-.4-.32-.47-.7-.42-1.21-1.1-1.43-1.89-.65-1.47-.95-1.4-1.95-.1-.61,.8-1.29,1.55-1.85,2.37-.21,.31-1,.63-.44,1.06,.53,.4,.8,1.62,1.96,.82-.52,1.32,.53,1.84,1.06,2.57,.83,1.16,.89,1.15,1.67-.1,.14-.22,.71-.49,.23-.82-.97-.67-1.46-1.78-2.33-2.54-.32-.28-.7-.66-.32-1.09,.42-.49,.83-.12,1.16,.22,.86,.85,1.61,1.8,2.23,2.84l1.48-2.15Zm-29.15,37.8c1.45,1.86,2.89,3.68,4.3,5.5,.18,.31,.57,.42,.88,.25,.85-.34,1.72-.64,2.58-.96,.24-.09,.52-.12,.35-.55-.21-.75-.99-1.18-1.74-.97-.08,.02-.16,.05-.23,.09-.61,.22-1.21,.47-1.83,.66-.37,.12-.81,.15-.94-.35-.1-.42,.23-.61,.55-.76,.81-.26,1.6-.6,2.35-1.02-.76-1.02-1.51-2-2.23-3-.18-.36-.61-.5-.97-.33,0,0,0,0,0,0-1.06,.38-2.09,.86-3.06,1.44h0ZM22.11,174.09c-.72-.38-1.37-.69-1.99-1.06-2.3-1.3-4.06-3.38-4.97-5.87-.12-.34,.02-1.2-.64-.87-.59,.3-1.75,.28-1.36,1.67,.85,2.84,2.8,5.21,5.42,6.6,1.75,1.04,1.82,.99,3.54-.48h0ZM198.1,103.21c.02,.07,.04,.14,.08,.21,3.84,4.36,7.69,8.72,11.53,13.08,.34,.39,.79,.51,1.1,.22,.42-.4-.15-.66-.35-.91-3.36-4.07-6.77-8.1-10.09-12.21-.75-.91-1.36-1.19-2.28-.39h0ZM39.05,180.6c4.4,.85,8.99-4.24,9.35-10.2-2.06,.7-2.76,2.39-2.97,4.44,.3,.17,.56-.37,1.03-.03-2.35,2.1-5.01,3.73-7.42,5.79h0Zm-15.09-7.76c-2.23-1.4-4.13-3.29-5.53-5.53-.09-.15-.16-.34-.42-.25-.49,.18-.73,.2-.26-.38,.06-.74-.15-1.47-.59-2.06-.55-.14-1.65,1.12-1.49,1.72,.93,3.41,3.29,5.45,6.31,6.88,.62,.44,1.48,.3,1.93-.32,.02-.02,.03-.04,.05-.07h0Zm9.34-1.23c4.3-2.98,8.54-5.92,12.78-8.85,.34-.23,.28-.46,.08-.77-.41-.67-.8-.33-1.22-.04-3.64,2.48-7.25,4.99-10.93,7.41-.81,.42-1.14,1.43-.72,2.25h0ZM150.04,53.09c-1.21-1.4-2.34-2.7-3.47-4-.13-.19-.37-.29-.6-.24-1.14,.25-2.29,.5-3.63,.8,1.21,1.43,2.3,2.71,3.38,4,.21,.23,.55,.31,.84,.2,1.1-.24,2.2-.48,3.47-.76h0Zm80.25,141.56l-10.17-13.06c-.47,.64-.41,1.52,.13,2.1,2.5,3.27,4.99,6.55,7.42,9.87,.56,.88,1.6,1.31,2.61,1.1h0Zm-41.52-126.65c-.2-.76-.54-1.48-1-2.11-.32-.3-.9,.52-1.39,.79-.31,.17-.33,.48-.36,.8s-.15,.72-.52,.6c-1.37-.48-1.62,.33-1.74,1.42-.03,.3-.27,.69-.6,.29-.67-.81-.94,.12-1.36,.29-.55,.22-.52,.66-.3,1.15,.17,.39,.31,.79,.41,1.2,.15,.65,.41,.58,.85,.25,1.85-1.42,3.71-2.83,5.57-4.24,.16-.13,.31-.28,.45-.43Zm2.19,29.15c-.56-.86-1.25-1.62-2.05-2.27-.11,.03-.21,.09-.29,.16-1.35,1.12-3.04,1.55-4.56,2.34-1.17,.6-1.11,.52-.38,1.6,.62,.92,1.18,.99,2.13,.5,1.45-.75,3.01-1.29,4.51-1.93,.23-.09,.55-.05,.63-.4h0ZM115.89,11.86c-1.47,.27-2.63,.5-3.79,.7-.63,.11-.36,.4-.17,.71,1.99,3.21,2.01,3.22,5.54,2.28,.11-.04,.22-.07,.33-.09,.66-.07,.8-.31,.33-.86-.63-.73-1.22-1.49-1.82-2.23-.19-.24-.37-.51-.43-.5h0ZM33.6,168.77c.1-.01,.2-.04,.29-.08,3.61-2.45,7.23-4.9,10.84-7.35,.42-.28,.45-.52,.1-.91-.26-.41-.8-.53-1.21-.28-.06,.04-.11,.08-.16,.13-3.2,2.19-6.25,4.58-9.27,7.01-.48,.33-.71,.91-.59,1.48Zm174.21-45.48c-.05-.11-.11-.22-.18-.32-.73-.94-1.47-1.88-2.19-2.83-.17-.27-.52-.35-.8-.2-.89,.34-1.78,.68-2.67,1-.35,.13-.56,.28-.27,.65,.85,1.09,1.51,2.52,2.61,3.16,.76,.44,1.93-.77,2.97-1.1,.11-.02,.22-.06,.32-.12,.08-.07,.15-.16,.21-.25ZM44.54,173.18c-1.43,1.1-2.81,2.16-4.18,3.24-.13,.14-.22,.32-.27,.5-.38,.98-.38,.98-1.32,.8-.11,0-.22,.04-.3,.12-.86,.66-1.71,1.33-2.68,2.09,1.05,.43,1.82,.97,2.76,.23,1.93-1.51,3.92-2.96,5.86-4.45,.17-.13,.61-.21,.35-.56-.44-.58-.03-1.21-.22-1.97h0ZM179.96,80.14c-.1-.44-.47-.69-.75-.99-1.5-1.65-3.05-3.24-4.51-4.92-1.52-1.73-2.97-3.52-4.44-5.31-.32-.39-.65-.41-.96-.11-.36,.34,.08,.55,.24,.74,2.64,3.26,5.33,6.48,7.93,9.77,.71,.9,1.41,1.3,2.49,.81h0Zm21.07,35.25c-.94,.34-2.3,.46-3,1.33-.31,.38,.97,1.36,1.48,2.1,.22,.31,.48,.6,.72,.9,.14,.28,.49,.4,.77,.26,.92-.37,1.85-.71,2.77-1.05,.28-.1,.53-.23,.26-.57-.76-.96-1.55-1.91-2.32-2.86-.14-.16-.32-.21-.69-.12h0Zm17.23-12.7c-.37-.53-.81-1.01-1.31-1.44-.48-.32-.65,.36-.88,.65-.97,1.2-1.81,2.51-2.86,3.62-.93,.97-.74,1.61,.11,2.45,.46,.45,.63,.47,1.01-.05,1.11-1.52,2.28-3,3.43-4.5,.16-.21,.3-.44,.5-.73h0Zm14.97,41.31c-2.57-3.35-5.09-6.55-7.5-9.83-.4-.83-1.4-1.18-2.23-.78-.05,.03-.11,.05-.16,.09,.03,.11,.08,.21,.13,.3,2.76,3.3,5.53,6.6,8.28,9.91,.38,.46,.81,.49,1.47,.31h0Zm-7.59,1.17c-.22-.51-.56-.95-1-1.3q-1.56-1.75-3.76-.92-2.02,.76-.65,2.46c.34,.42,.58,1.03,1.34,.83,1.34-.38,2.69-.71,4.06-1.06h0Zm-95.09-33.97q2.74-1.75,1.9-4.72s-.03-.07-.04-.11q-.6-2.11-2.3-.74c-.42,.34-.98,.59-.73,1.38,.43,1.36,.77,2.74,1.17,4.18h0Zm37.19,68.27c.89-1.33,1.75-2.63,2.64-3.93,.17-.22,.18-.52,.02-.75-.8-1.31-1.6-2.63-2.41-3.94-.1-.17-.18-.44-.52-.28-.64,.42-.84,1.26-.47,1.92,.55,.79,1.05,1.61,1.5,2.46,.18,.36,.88,1.35-.53,.99-.21-.05-.3,.19-.41,.34-1.03,1.4-1.03,1.49,.16,3.18h0Zm-39.61-72.24c-.59,.52-1.21,1-1.87,1.44-.95,.54-.84,1.28-.46,2.04,.43,.85,.84-.38,1.34-.04-.13,.45-.36,.88-.67,1.24-.37,.66-.28,1.48,.23,2.04,.24,.33,.7-.37,1.08-.58,.3-.16,.53-.44,.83-.61,.57-.27,.84-.94,.6-1.53-.3-1.28-.61-2.55-1.08-4h0Zm91.56,76.63c-.3,.85-.16,1.8,.37,2.53,1.63,2.14,3.22,4.32,4.79,6.5,.64,.78,1.58,1.25,2.59,1.29l-7.76-10.31Zm.05-45.14c-1.16,.33-2.3,.65-3.43,.99-.51,.16-.22,.44-.06,.7,1.51,2.42,1.58,2.44,4.16,1.44,.14-.05,.29-.1,.43-.15,1.4-.52,1.42-.54,.38-1.65-.45-.48-.74-1.19-1.49-1.34h0Zm20.19,43.45c.29-.58,.21-1.28-.22-1.76-3.08-3.8-6.12-7.63-9.2-11.44-.21-.26-.34-.96-.9-.47-.47,.41,.05,.68,.26,.95,1.44,1.86,2.88,3.71,4.34,5.55,1.86,2.35,3.73,4.68,5.71,7.17h0Zm-41.46-70.55c-.06-.13-.13-.25-.21-.37-.57-.72-1.16-1.43-1.73-2.15-.18-.27-.52-.35-.8-.21-.85,.33-1.7,.66-2.55,.98-.46,.18-.44,.42-.15,.77,.58,.71,1.15,1.44,1.7,2.17,.26,.35,.52,.34,.88,.16,.94-.47,1.89-.9,2.86-1.35h0Zm-55.23,56.98c.98-1.41,2.04-2.76,3.17-4.05,1.44-1.49,1-3.21,1.09-5.12-.98,.92-1.59,1.71-1.45,2.94,.21,.8-.1,1.65-.78,2.14-.52-.48-.19-1.17-.41-1.75-1.88,1.78-2.07,2.43-1.62,5.85h0Zm3.76-113.43c.78,.92,1.5,1.75,2.22,2.6,.15,.23,.43,.33,.7,.25,.95-.28,1.9-.54,2.85-.81,.21-.06,.55-.14,.34-.42-.71-.91-1.47-1.77-2.23-2.63-.13-.07-.28-.08-.41-.02-1.04,.56-2.26,.55-3.46,1.03h0Zm77.6,86.65c1.82,3,2.64,3.33,6.02,2.37-.94-1.13-1.83-2.22-2.73-3.31-.14-.17-.32-.4-.56-.19-.78,.68-1.84,.68-2.72,1.13h0ZM117.59,19.98c1.2-.29,2.34-.57,3.48-.85,.51-.12,.33-.37,.15-.66-1.21-2.04-1.64-2.23-3.88-1.64-.11,.03-.22,.07-.32,.1-1.88,.5-1.9,.52-.63,1.99,.35,.4,.56,1.03,1.2,1.05h0Zm103.59,78.89q1.15-1.27,.57-2.51c-.12-.26-.21-.52,.01-.75,.17-.21,.48-.24,.69-.07,.04,.04,.08,.08,.11,.13,.62,.87,.94,.31,1.31-.22,.26-.38,.55-.74,.83-1.11,1.11-1.51,1.11-1.54-.38-2.84-1.37,1.71-2.73,3.43-4.11,5.14-.24,.21-.26,.58-.04,.81,0,0,0,0,.01,.01,.35,.45,.66,.93,1,1.41h0Zm-2.12,38.69c-.47-.48-.9-1-1.28-1.55-.63-1.08-1.4-1.12-2.49-.75-2.44,.83-2.45,.77-.81,2.85,.25,.32,.41,.72,.99,.53,1.11-.38,2.25-.68,3.6-1.07h0Zm-56.06-63.63c.77,.93,1.44,1.72,2.09,2.52,.18,.26,.53,.35,.8,.19,.97-.41,1.96-.78,3.06-1.22-.68-.83-1.29-1.56-1.9-2.29-.18-.22-.36-.38-.68-.27-1.07,.35-2.16,.69-3.37,1.07h0Zm19.43,17.33c-.68-.79-1.25-1.46-1.82-2.12-.18-.21-.36-.4-.68-.25-1.11,.39-2.19,.87-3.23,1.41q1.8,2.77,4.65,1.45l1.08-.5ZM20.45,168.27c.7-.62,1.06-1.12,.24-1.91-.41-.4-.57-.67-1.15-.25-.55,.4-.68,.68-.28,1.28,1.2,1.75,2.72,3.25,4.48,4.42,.29,.21,.61,.64,.98,.41,.33-.21,.18-.71,.27-1.08,.11-.41-.13-.64-.41-.87-.64-.48-1.25-1.01-1.82-1.59-.68-.76-1.33-1.22-2.32-.41h0ZM248.36,63.69c-.31-.49-.65-.96-1.02-1.41-.21-.22-.39,.12-.52,.29-1.24,1.57-2.5,3.12-3.67,4.74-.63,.88,.29,1.5,.75,1.9,.54,.47,.7-.44,.96-.76,.41-.51-.21-.81-.41-1.18-.18-.33-.34-.65-.01-.94,.21-.19,.53-.18,.73,.03,.03,.03,.05,.06,.07,.1,.6,.9,.92,.33,1.29-.2,.47-.66,.96-1.3,1.44-1.95,.13-.18,.24-.38,.38-.62Zm-53.02,43.94c-.51-.55-.98-1.14-1.41-1.75-.54-.87-1.11-.87-1.96-.46-2.35,1.13-2.41,1.42-.45,3.3,.19,.24,.53,.31,.8,.16,.96-.41,1.94-.81,3.01-1.25h0Zm25.46,29.48c.93-.17,1.86-.35,2.78-.52,.21-.04,.41-.19,.27-.38-.6-.84-1.26-1.63-1.99-2.37-.44-.4-1.08,0-1.62,.12-2.19,.5-2.2,.52-.75,2.21,.35,.41,.58,1.05,1.3,.94h0ZM115.1,10.86c-.54-.66-1.01-1.2-1.45-1.77-.21-.38-.64-.58-1.06-.5-1.19,.24-2.38,.47-3.74,.73,.61,.77,1.12,1.39,1.61,2.02,.18,.26,.5,.37,.8,.28,1.22-.25,2.44-.48,3.84-.76h0Zm9.15,11.45c-.58-.74-1.03-1.31-1.48-1.89-.15-.28-.47-.41-.78-.33-1.2,.32-2.41,.62-3.77,.97,.6,.72,1.11,1.34,1.61,1.96,.18,.26,.52,.36,.81,.24,1.14-.3,2.28-.6,3.6-.95h0Zm104.44,125.46c-.79-.59-1.45-1.48-2.05-1.44-1.63,.14-3.22,.53-4.74,1.15,.43,.56,.8,1,1.13,1.46,.18,.35,.6,.5,.95,.34,1.5-.51,3.02-.97,4.7-1.5h0Zm8.18-66.78c-.77,.78-1.59,1.47-.64,2.63,.19,.23,.17,.56-.06,.76-.03,.02-.05,.04-.08,.06-.29,.14-.64,.03-.78-.26,0,0,0-.01,0-.02-.44-.71-.68-.33-1.08,.07-.8,.83-1.1,1.59-.17,2.52,.22,.31,.39,.64,.52,1,.83-1.18,1.63-2.31,2.43-3.44q1.13-1.6-.13-3.33Zm-103.86,115.24c-.54-.09-1.09-.64-1.51-.08-1.6,2.14-3.16,4.32-4.83,6.62,.76,0,1.35,.64,1.88-.17,.33-.49,.84-.94,.29-1.38,2.15-1.02,2.71-3.38,4.17-5h0Zm111.03-124.58q-1.98,1.99-.72,3.97c1.11,1.74,1.12,1.75,2.32,0,.21-.31,.69-.56,.32-1.09-.65-.94-1.27-1.91-1.92-2.88Zm-102.41,131.13c.69,.16,1.41-.17,1.73-.8,1.41-2.16,2.86-4.29,4.29-6.43,.16-.21,.3-.44,.42-.69,.14-.38-.01-.81-.37-1.01-.38-.24-.47,.25-.62,.47-1.29,1.96-2.57,3.93-3.83,5.9-.53,.82-1.05,1.66-1.62,2.55h0Zm32.27-115.75c.53,.65,.98,1.17,1.4,1.71,.19,.35,.62,.49,.98,.31,1-.44,2.01-.84,3.03-1.27q-1.48-2.4-3.88-1.41c-.45,.19-.9,.39-1.52,.65h0Zm51.91,13.36c.76-1.07,1.44-2.04,2.15-3,.25-.25,.28-.65,.06-.93-.44-.63-.86-1.28-1.27-1.93-.27-.43-.46-.33-.77,0-.85,.92,.22,1.12,.54,1.58,.34,.49,1.03,1.03,.45,1.57-.49,.45-.89-.29-1.27-.64-.07-.09-.16-.17-.25-.24-.29-.17-.5-.74-.93-.27-.34,.37-.78,.72-.29,1.37,.56,.73,.99,1.56,1.57,2.5Zm-67.8-32.54q1.65,2.39,4.16,1.66c.29-.09,.59-.17,.88-.26,.18-.06,.37-.1,.34-.37-.05-.52-1.74-2.03-2.19-1.91-1.03,.27-2.05,.57-3.19,.88h0Zm68.99,72.19c-1.54-2.56-2.68-2.88-5.48-1.6,1,1.53,2.05,2.88,4.16,1.78,.43-.13,.88-.19,1.33-.18h0Zm-58.2-59.3q1.52,2.19,3.74,1.42c.25-.1,.5-.19,.76-.25,.9-.17,.79-.52,.28-1.1-1.21-1.39-1.19-1.42-2.9-.79-.6,.22-1.2,.47-1.87,.73h0Zm-12.08-19.41c-.52,.12-1.08,.21-1.62,.37-.63,.19-1.64,0-1.79,.61-.13,.54,.78,1.04,1.18,1.6,.2,.34,.63,.46,.98,.3,.87-.28,1.75-.49,2.63-.73,.21-.06,.48-.02,.48-.36-.45-.75-1.1-1.36-1.86-1.79h0Zm-19.48,126.78c-1.58,2.2-3.11,4.36-4.66,6.5-.43,.6-.26,.78,.4,.8,.46,.02,.86-.06,1.03-.52,.25-.65,1.36-1.01,.66-1.99-.02-.02,.12-.23,.19-.23,1.43-.08,1.53-1.55,2.31-2.3,.64-.52,.74-1.47,.21-2.11-.04-.05-.09-.1-.14-.15Zm73.3-55.14c.41,.54,.77,.98,1.12,1.44,.24,.32,.47,.57,.95,.41,1.06-.37,2.14-.69,3.33-1.06-.49-.62-.9-1.12-1.29-1.65-.2-.35-.63-.48-.99-.29-.99,.39-1.99,.75-3.11,1.16h0ZM121.09,24.32c1.27,2.16,1.28,2.17,3.43,1.59,.11-.03,.22-.05,.33-.08,1.86-.5,1.83-.48,.6-1.99-.26-.39-.75-.53-1.18-.35-1.02,.3-2.06,.54-3.18,.83h0Zm99.52,107.93c-.41-.49-.83-1.03-1.29-1.54-.21-.23-.34-.68-.78-.53-.96,.33-1.9,.7-2.85,1.06-.02,0-.04,.07-.04,.1-.06,.47,1.62,2.05,2.09,1.94,.81-.18,1.62-.39,2.42-.6,.2-.05,.48-.02,.44-.44ZM155.92,60.22c-1.23-2.12-1.44-2.22-3.47-1.63-.47,.14-.95,.27-1.42,.41-.18,.05-.38,.08-.38,.34,0,.3,1.43,1.75,1.72,1.69,1.18-.24,2.34-.52,3.55-.8h0Zm-46.79,129.71c1.05-.47,1.05-1.63,1.88-2.33,1.6-1.54,3.07-3.23,4.38-5.03,.17-.21,.67-.44,.17-.83-.4-.31-.69-.27-1.04,.17-1.67,2.11-3.37,4.19-5.07,6.28-.5,.43-.63,1.15-.32,1.73h0Zm64.16-104.05c.98-.4,2-.81,3.01-1.25,.33-.14,.12-.36,0-.55-.78-1.33-1.22-1.5-2.66-1-.57,.2-1.14,.41-1.72,.61-.18,.06-.38,.12-.41,.34,.43,.76,1.04,1.4,1.78,1.86h0Zm-1.88-7.41q-1.36-2.14-3.43-1.34c-.35,.14-.7,.3-1.06,.41-.48,.15-.59,.33-.25,.8,1.04,1.46,1.07,1.49,2.75,.86l1.99-.74Zm8.38,83.75c-.62,.19-.78-1.22-1.39-.49-1.13,1.36-2.16,2.81-3.18,4.25-.39,.55,.14,.98,.45,1.3,.43,.44,.55-.2,.7-.41,1.16-1.53,2.28-3.1,3.41-4.65h0Zm-42.01-123.03c-1.64-2.26-2.5-2.43-5.24-1.08,.47,.57,.94,1.12,1.39,1.68,.17,.26,.5,.37,.8,.25,.98-.29,1.96-.55,3.06-.85Zm3.99,68.2c.08-.03,.16-.06,.24-.1,.86-.65,1.71-1.3,2.56-1.96,.11-.09,.28-.22,.16-.38-.36-.59-.8-1.13-1.31-1.59-.43-.31-.74,.38-1.12,.58-.16,.11-.31,.22-.45,.36-.82,.75-.95,2-.32,2.91,.07,.07,.15,.14,.24,.19h0Zm28.22,63.98c1.19-1.44,.65-2.5-.49-3.53-.25,.65-1.33,.91-.82,1.82,.83,1.45,1.78,2.83,2.74,4.33,.38-.79,1.24-1.15,.67-2.3-.59-1.2-1.23-.2-2.11-.33h0Zm-10.3,14.24c.46-.37,.84-.83,1.12-1.35,.39-.52-.49-3-1.11-3.16-.07-.02-.14,0-.19,.05-.61,.63-1.15,1.33-1.62,2.07-.23,.44,.49,.78,.77,1.17,.31,.43,.68,.81,1.03,1.22h0Zm-84.37-31.92c-.09-.43-.18-.77-.24-1.11s-.22-.52-.53-.28c-1.02,.81-2.07,1.59-3.02,2.48-.52,.48,.06,1.09,.13,1.64,.03,.24,.26,.27,.44,.13,1.03-.8,2.06-1.59,3.08-2.42,.12-.09,.11-.35,.14-.45h0Zm149.94-52.47c-.03-.11-.03-.22-.08-.24-.9-.5-1.15-1.52-1.75-2.25-.08-.12-.21-.19-.36-.21-.41,.05-1.19,1.59-.99,1.98,.41,.83,.84,1.65,1.26,2.48,.1,.19,.24,.55,.46,.29,.54-.65,.98-1.37,1.45-2.04Zm22.62-31.44c.4-.52,.8-1.03,1.2-1.55,1.19-1.56,1.18-1.63-.14-3.26-.45,.59-.9,1.17-1.33,1.75q-1.15,1.55,.28,3.05h0ZM14.65,161.09c-.87,.21-1.4,.52-1.58,1.26-.28,1.17-.37,2.37-.28,3.57,.01,.21-.05,.49,.28,.53,.36,.04,1.57-1.06,1.58-1.46,.01-1.27,0-2.53,0-3.9ZM248.56,47.91c3.54-2.95,6.4-8.24,6.35-11.48-.8,1.04-1.98,1.72-2.06,3.16-.01,.19-.23,.43,.1,.57,.81,.35,.91,.48,.36,1.19-.8,1.03-1.43,2.18-2.29,3.17-.87,1.09-1.69,2.22-2.45,3.4Zm7.75-18.29c-1.87,1.59-2.87,3.97-2.69,6.41,1.98-1.76,2.36-2.66,2.69-6.41h0ZM111.16,189.88c.79-.35,.57-1.33,1.01-1.61,1.88-1.2,2.83-3.24,4.37-4.74,.25-.2,.29-.56,.09-.81-.03-.04-.07-.08-.12-.11-.38-.31-.5,.16-.67,.36-1.52,1.79-3.01,3.61-4.56,5.37-.45,.35-.54,1-.19,1.45,.02,.03,.04,.05,.07,.08h0Zm100.55-99.4c1.1-2.08,3.79-3.26,3.35-6.21-1.35,1.94-3.77,3.25-3.35,6.21Zm13.66-53.61c.63-.46,1.19-.86,1.73-1.27,.21-.15,.51-.31,.36-.63-.23-.81-.63-1.55-1.17-2.19-.39-.31-.97,.65-1.5,.97-.35,.16-.51,.58-.35,.93,.02,.05,.05,.09,.08,.13,.31,.61,.54,1.27,.86,2.06h0Zm-3.1,2.03c-.21-.66-.43-1.36-.64-2.06-.09-.3-.24-.31-.51-.2-1.1,.25-1.78,1.34-1.53,2.44,.04,.19,.11,.37,.21,.54,.08,.26,.18,.51,.29,.75,.06,.13,.17,.23,.31,.27,.77-.4,1.42-1.01,1.87-1.75h0Zm-61.31,32.29l-.07,.29c.68,.32,.7,1.55,1.8,1.26,1.02-.27,2.01-.64,3.03-.97q-1.01-1.69-2.69-1.19l-2.06,.61Zm45.68-20.65c-.48-.76-.25-1.86-1.12-2.36-.26-.15-1.99,1.38-1.88,1.59,.41,.77,.32,2.04,1.25,2.2,.5,.08,1.42-.57,1.75-1.43h0Zm-76.23,150.6c.52,.26,1,.6,1.4,.06,1.17-1.62,2.28-3.27,3.48-5-.68-.05-1.21-.29-1.61,.28-1.08,1.53-2.17,3.07-3.27,4.65h0Zm15.34-5.89c-.71-.07-1.24-.02-1.57,.47-1.16,1.7-2.28,3.44-3.55,5.35,.76-.09,1.3,.15,1.71-.51,1.07-1.74,2.19-3.43,3.41-5.33h0ZM192.79,60.17c-.21-.85-.59-1.64-1.1-2.35-.76,.4-1.42,.99-1.91,1.7,.19,.84,.59,1.61,1.15,2.25,.73-.39,1.37-.94,1.86-1.62h0Zm-41.15,97.18c1.71-1.34,2.53-3.54,2.11-5.67-1.77,1.3-2.6,3.52-2.11,5.66h0Zm48.89-43.09q-1-1.72-2.69-.96c-.39,.15-.77,.33-1.13,.54-.26,.17-.96,.15-.59,.71,.29,.43,.46,1.27,1.33,.91,1.02-.42,2.04-.81,3.08-1.22h0Zm15.21,1.27c.36-.32,.76-.64,.38-1.23-.55-.88-1.08-1.77-1.65-2.64-.72-1.1-.88-1.07-1.59,.03-.2,.24-.17,.59,.07,.79,0,0,0,0,.01,0,.74,.88,1.48,1.76,2.22,2.64,.14,.16,.26,.38,.55,.39h0Zm46.33-61.57c1.38-1.8,2.7-3.55,4.04-5.28,.26-.29,.24-.73-.04-.99-.02-.01-.03-.03-.05-.04-.46-.41-.57,.18-.73,.38-1.1,1.43-2.14,2.91-3.25,4.33-.42,.45-.41,1.15,.02,1.58h0Zm-41,19.69c-1.63,1.98-3.15,3.81-4.64,5.66-.17,.21-.67,.4-.21,.83,.5,.47,.71,.03,.97-.29,1.13-1.36,2.22-2.76,3.39-4.08,.57-.55,.76-1.38,.48-2.12h0Zm-10.48-25.57c.45-.32,.96-.67,1.43-1.04s.14-.79-.01-1.15c-.23-.55-.23-1.22-.74-1.63-.04-.03-.14,.03-.21,.05-.96,.19-1.59,1.12-1.4,2.08,.03,.16,.09,.32,.16,.47,.11,.29,.22,.58,.33,.86,.06,.17,.13,.35,.43,.34h0Zm-73.34-11.13c.37,.42,.64,.74,.92,1.04,.86,.87,2.2,1.05,3.26,.43,.08-.06,.19-.14,.21-.23,.07-.41-1.51-1.91-1.94-1.82-.78,.15-1.55,.35-2.45,.57h0Zm18.66,28.49c.54,1.33,1.36,1.62,2.5,1.13,.38-.16,.81-.2,1.2-.35,.34-.13,.89-.02,1-.41,.12-.43-.41-.67-.63-1.01-.18-.31-.57-.42-.89-.26-1.05,.31-2.11,.59-3.19,.89h0Zm121.2-42.93c-1.11,1.25-1.19,1.32-.42,2.19,.61,.69,.83,1.55,1.35,2.26,.14,.19,.27,.64,.57,.34,.44-.44,1.16-.82,.49-1.7-.71-.95-1.29-2-1.98-3.08Zm4.83,2.14c-.62,1.01-.88,2.19-1.95,2.92-.97,.67-1.05,1.57-.07,2.48,.78-1.14,1.51-2.32,2.36-3.4,.67-.83,.68-1.44-.33-2h0Zm-25.98,28.98c.12-.08,.2-.1,.24-.16,.58-.8,1.17-1.6,1.74-2.42,.13-.19-.04-.34-.15-.5-.8-1.16-1.03-1.17-1.87-.02-.3,.4-.58,.8-.88,1.2-.19,.26-.34,.5-.05,.81,.34,.35,.66,.73,.97,1.09Zm-138.19,24.28c2.46,1.33,3.14,1.21,4.44-.67-1.67-1.48-3.03-.51-4.44,.67h0Zm140.16-21.8c.61-.84,1.18-1.7,1.82-2.51,.68-.86-.15-1.18-.54-1.56-.54-.52-.64,.24-.88,.48-.25,.29-.48,.59-.68,.92q-.96,1.33,.29,2.67h0Zm-29.01,39.77q1.44-1.68,.18-3.29c-.06-.1-.13-.19-.21-.27-.27-.21-.46-.91-.8-.52-.39,.44-1.22,.89-.76,1.71s1.06,1.57,1.61,2.37h0Zm11.56,57.58c-2.15-2.77-4.22-5.43-6.28-8.11-.27-.35-.55-.56-.94-.25-.51,.4,.08,.61,.23,.78,2.07,2.42,4.18,4.81,6.27,7.21,.16,.24,.43,.39,.72,.37h0Zm2.7-82.98c-.31-.44-.59-1.13-1.1-1.45-.38-.24-.63,.51-.93,.83-.26,.28-.46,.62-.71,.91-.46,.53,.02,.87,.27,1.19,.24,.31,.32,.83,.83,.85,.69-.66,1.25-1.45,1.64-2.32h0Zm-126.04,126.99c-.74-.62-1.44-1.2-2.15-1.77-.03-.03-.19,.09-.29,.16-1.16,.81-1.19,1.44-.13,2.36,.14,.14,.28,.26,.44,.37,.3,.17,.56,.74,.94,.4,.44-.46,.83-.97,1.17-1.5h0Zm50.85-124.91c.57,.69,1.13,1.36,1.68,2.04,.66,.84,1.44,.26,1.92-.06s-.3-.68-.46-1.05c-.1-.16-.22-.31-.36-.45-.39-.47-.72-1.19-1.2-1.32-.4-.1-.98,.5-1.57,.84h0Zm39.26,23.99c1.26-2.04,3.39-3.33,2.93-6.25-1.2,2.04-3.26,3.34-2.93,6.25Zm-86.29,16.38c-.86,.67-1.65,1.26-2.41,1.9-.66,.55-.05,1.14,0,1.72,.02,.19,.17,.45,.36,.31,.87-.56,1.67-1.22,2.38-1.97,.42-.49-.14-1.21-.33-1.95h0Zm21.08,92.27l.41,.32c2.19-3.09,4.31-6.24,6.28-9.48l-.42-.29-6.27,9.45ZM193.34,61.62c-.59,.42-1.16,.8-1.69,1.22-.37,.3,.04,2.41,.48,2.56,.08,.03,.21-.04,.3-.08,1.46-.59,1.82-1.42,1.27-2.89-.09-.24-.21-.48-.35-.81h0Zm-84.11,63.18c.4-.35,.83-.67,1.27-.97,.84-.4,1.2-1.4,.81-2.24-.01-.03-.03-.05-.04-.08-.27-.76-.5-.67-.99-.25s-.92,.94-1.74,.71l.69,2.83Zm54.15,55.75c-.22-.4-.4-.74-.6-1.06-.95-1.55-1.23-1.54-2.09,.08-.19,.35,.99,2.68,1.36,2.68,.07,0,.15-.03,.2-.09,.38-.52,.75-1.05,1.13-1.6h0Zm-14.8-19.29c1.95-1.39,2.02-3.28,1.78-5.34-2.02,1.33-1.81,3.32-1.77,5.34h0ZM215.23,44.61c.48-.35,.86-.61,1.21-.88,.61-.91,.54-2.11-.16-2.94-.65-.52-.96,.44-1.46,.66-.38,.17-.38,.52-.27,.9,.22,.7,.42,1.4,.67,2.27h0Zm31.36-.48c1.75-1.38,2.75-3.5,2.72-5.73-1.69,1.34-2.46,2.95-2.72,5.73h0Zm-83.54,143.39c-.34,.95-1.4,1.47-1.15,2.62,.04,.16-.1,.23-.27,.27-1.46,.4-1.62,.98-.57,2.32,.8-1.16,1.52-2.33,2.36-3.41,.58-.74,.48-1.24-.37-1.8ZM15.34,164.81c1.4-.39,1.92-1.16,1.55-2.5-.1-.37-.08-.77-.17-1.14-.08-.33,.24-.91-.31-.94-.5-.03-.88,.33-.98,.93-.17,1.21-.2,2.43-.08,3.65Zm217.52-17.71c-1.22-1.89-1.95-2.05-4.36-1.08,.8,1.61,.79,1.6,2.38,1.35,.62-.1,1.26-.17,1.97-.26h0Zm-24.68-100.79c-.21,.14-.48,.29-.71,.48-.3,.24-.86,.33-.69,.91,.24,.77,.53,1.51,.81,2.26,.01,.04,.13,.04,.21,.04,.91-.23,1.49-1.13,1.31-2.05-.16-.43-.34-.86-.5-1.29-.08-.18-.14-.37-.43-.35h0Zm56.87-.15c-.16-.5-.49-.93-.93-1.22-.4-.21-.53,.41-.75,.68-.39,.47-.7,1.01-1.1,1.47s-.09,.78,.21,1.07c.22,.22,.32,.65,.77,.53,.69-.78,1.29-1.63,1.79-2.53h0Zm-83.99,109.96c.62-.83,1.23-1.55,1.74-2.35,.41-.65-.33-.92-.58-1.35-.11-.19-.32-.4-.55-.14-.62,.58-1.15,1.23-1.61,1.94-.22,.42,.43,.92,.64,1.41,.1,.17,.22,.34,.34,.49h0Zm-36.51,15.72c.1-.05,.19-.11,.27-.19,2.68-3.28,5.35-6.57,8.02-9.86,.37-.32,.45-.86,.19-1.27-2.71,3.92-5.84,7.4-8.48,11.32h0Zm92.65-96.78c-.36,.13-.52,.51-.76,.79-.69,.66-.71,1.75-.06,2.44,.11,.11,.23,.21,.36,.29,.12,.09,.27,.21,.39,.05,.44-.57,.9-1.13,1.29-1.75,.15-.24-.95-1.82-1.24-1.82h0Zm-101.27,27.95c-.14-.34-.21-.98-.55-1.22-.41-.29-.73,.38-1.11,.59-.26,.14-.46,.41-.72,.55-1.05,.59-.49,1.4-.13,1.97,.4,.64,.72-.18,1.06-.33,.41-.22,.79-.48,1.13-.78,.29-.15,.42-.49,.31-.79h0Zm-1.24,5.14c.62-.51,1.28-.98,1.96-1.41,.96-.52,.52-1.04,.15-1.63-.5-.81-.79,.01-1.15,.16-.28,.11-.49,.4-.77,.48-1.1,.3-.93,.96-.53,1.71,.1,.2,.2,.4,.34,.69h0Zm-32.94,19.67c-.6,.54-1.08,.97-1.56,1.41-.35,.78-.3,1.68,.13,2.41,.15,.1,.27,.02,.41-.04,1.09-.3,1.73-1.42,1.43-2.5-.03-.11-.07-.21-.11-.31-.09-.3-.19-.59-.31-.98h0ZM222.63,40.69c-2.12,1.22-2.21,1.52-1.2,4,1.35-1.02,2.06-2.24,1.2-4.01h0Zm12.79,138.57c.35-.7,.22-1.55-.33-2.11-.83-.95-1.55-2-2.34-2.98-.28-.55-.76-.98-1.34-1.21,.76,2.66,2.74,4.16,4.01,6.29h0Zm-49.75-113.64c.9-.19,1.47-1.06,1.29-1.96-.02-.09-.04-.18-.08-.26-.21-.42-.32-1.24-.71-1.15-.65,.15-1.48,.65-1.59,1.32-.11,.7,.51,1.39,.9,2.04,.02,.03,.12,0,.19,0h0ZM25,169.6c.05-.52,.12-1.03,.22-1.54,.18-.79-.26-1.59-1.03-1.86-.62-.3-1.1,.59-1.65,.94-.24,.15-.01,.34,.11,.46,.69,.77,1.48,1.44,2.34,2ZM195.56,67.26c-.67-.46-.5-1.36-1.04-1.69-.33-.21-.67,.37-1.02,.58-.2,.12-.38,.25-.55,.41-.77,.78-.1,1.59,.18,2.19,.26,.57,.69-.22,1.03-.41,.49-.33,.96-.69,1.4-1.08Zm19.96,13.66l-.32-.21c-1.2,1.47-2.41,2.94-3.61,4.41-.43,.53-.03,.81,.38,1.26,.95-2.03,3.23-3.09,3.55-5.46Zm-5.75,14.08c-1.03,1.73-3.11,2.86-2.89,5.28,1.08-1.7,3.26-2.76,2.88-5.28h0Zm26.35-15.04c-.28-.73-.72-1.4-1.29-1.93-.59,.53-1.1,1.15-1.52,1.83,.39,.64,.91,1.19,1.52,1.62,.53-.41,.96-.93,1.28-1.51Zm14.13-40.19c2.13-1.29,2.08-3.46,2.42-5.56-1.95,1.41-2.07,3.5-2.42,5.56h0Zm5.59-1.19c1.78-1.42,2.18-3.36,2.18-5.55-1.45,1.11-1.93,2.37-2.17,5.55h0Zm-21.85,44.08c-.34-.64-.83-1.19-1.43-1.6-.6,.51-1.1,1.12-1.48,1.81,.46,.54,.95,1.05,1.47,1.53,.58-.48,1.07-1.07,1.44-1.73h0Zm14.13-38.3c-2.12,2.14-2.62,3.17-2.65,5.36,1.59-1.46,2.75-3.02,2.66-5.36h0Zm12.27,3.04c-.27-.41-.59-.77-.96-1.08-.46-.29-.55,.35-.78,.59-.34,.35-.61,.78-.93,1.16-.21,.19-.22,.52-.03,.73,.02,.03,.05,.05,.08,.07,.33,.3,.55,.76,1.02,.87,.68-.67,1.23-1.46,1.6-2.33h0Zm-66.23,8.31c-1.33,.69-1.61,1.58-.81,2.75,.06,.09,.06,.24,.13,.32,.21,.24,.13,.98,.7,.61,.45-.29,1.32-.43,1.03-1.28-.31-.81-.66-1.61-1.05-2.39h0Zm34.34,124.75c.29-.48,.26-.78,.02-1.08-1.56-1.95-3.13-3.9-4.69-5.85-.12-.15-.26-.35-.46-.23-.25,.16-.15,.4,0,.6,.3,.4,.61,.79,.92,1.19,1.39,1.77,2.79,3.55,4.22,5.37h0Zm-87.76,14.63c.6,.21,1.27,0,1.64-.52,.64-.96,1.28-1.92,1.92-2.89,.17-.26,.37-.52-.02-.78-.32-.21-.6-.32-.87,.09-.87,1.35-1.75,2.69-2.66,4.09h0Zm-101.4-20.44c-1.66,1.01-3.16,2.03-3.33,4.33,1.26-1.37,3.45-1.75,3.33-4.33h0Zm-2.27,.78c1.49-1.08,3.18-1.8,2.87-3.99-2.1,.92-2.44,1.39-2.86,3.99h0ZM239.36,75.68c.25-.32,.51-.64,.76-.98,.55-.58,.52-1.49-.05-2.04-.11-.1-.24-.19-.37-.26-.79-.54-.74,.57-1.17,.8-.15,.12-.27,.27-.35,.45-.38,.62,.23,.9,.45,1.29,.17,.28,.29,.65,.74,.73h0Zm-19.03,24.18c-.34-.57-.6-1.61-1.22-1.58-.65,.03-1.05,.99-1.45,1.64,.35,.63,.8,1.19,1.34,1.67,.59-.45,1.05-1.04,1.33-1.73Zm35.01-45.25c-.34-.49-.74-.92-1.21-1.29-.41-.23-.49,.42-.73,.67-.26,.27-.44,.63-.68,.92-.27,.32-.32,.62,.06,.86s.62,1.09,1.08,.75c.58-.56,1.08-1.21,1.48-1.91h0Zm-92.25,11.93c1.4,2.23,1.53,2.29,2.94,1.87,.56-.17,.71-.28,.31-.81-1.19-1.59-1.17-1.6-3.25-1.05h0Zm89.49-2.99c-.29-.56-.66-1.07-1.11-1.51-.46-.31-.58,.42-.86,.67-.23,.21-.42,.45-.56,.73-.36,.76,.4,1.16,.6,1.75,.06,.17,.25,.44,.4,.27,.53-.6,1-1.25,1.53-1.92h0Zm-123.01,142.02c2.78,.86,3.39,.63,4.11-1.49-.81-.32-1.17,.26-1.55,.81-.16,.23-.4,.46-.66,.27-.32-.23-.05-.46,.12-.67,.09-.12,.16-.24,.23-.37-1.35-.49-1.65,.6-2.25,1.45Zm23.91-49.11c-1.82,1.56-2.27,2.65-2,4.79,1.71-1.62,2.1-2.57,2-4.79h0Zm5.49,30.13c-.39-.55-.82-1.07-1.28-1.56-.25-.24-.37-1.06-.99-.47-.44,.42-.9,.89-.22,1.54,.35,.34,.59,.8,.92,1.18,.21,.24,.34,.79,.7,.6,.44-.3,.75-.76,.86-1.28h0Zm7.02-10.07c.05-.04,.14-.1,.21-.18,.78-.66,.88-1.82,.23-2.61-.54-.9-.93-.8-1.39,.02-.09,.17-.24,.3-.34,.47-.23,.41,.79,2.31,1.28,2.3h0Zm-146.34-14.52c1.58-.76,1.59-.76,1.28-2.72-.05-.3,.16-.94-.51-.78-.48,.12-1.21,.14-1.15,.88-.04,.89,.08,1.78,.38,2.61h0ZM239.11,77.92c-.28,.37-.56,.72-.83,1.08-.6,.74-.49,1.82,.25,2.42,0,0,.02,.01,.03,.02,.19,.15,.29,.11,.47-.03,1.31-1.07,1.36-2.09,.08-3.5h0Zm-60.07,77.5c-.38,.1-.55,.48-.8,.75-.63,.69-.58,1.76,.11,2.39,.08,.07,.16,.13,.25,.19,.76,.37,.8-.77,1.28-1.08,.03-.03,.05-.06,.07-.09,.2-.38-.5-2.11-.9-2.16h0Zm-59.47-35.73c.8-.63,1.5-1.24,2.24-1.75,.7-.49,.36-1.14,.11-1.53-.35-.55-.65,.13-.94,.32-.38,.25-.7,.61-1.08,.85-.86,.54-.91,1.22-.33,2.11h0ZM213.34,49.86c-.27-.52-.15-1.28-.72-1.69-.22-.16-1.83,1.2-1.73,1.45,.24,.58,.15,1.34,.77,1.71,.22,.12,1.67-1.16,1.68-1.48h0Zm40.12,12.45c.29-.45,.61-.88,.95-1.29,.88-.94,.04-1.58-.48-2.02-.59-.5-.65,.46-.99,.7-.19,.19-.36,.39-.51,.62-.36,.41-.08,.72,.16,1.02,.26,.31,.37,.76,.87,.97h0Zm-95.92,87.34c1.49-1.18,2.13-3.14,1.64-4.97-1.78,1.17-1.48,3.08-1.63,4.97h0Zm50.08-95.53c-.34-.62-.09-1.7-.79-1.77-.75,0-1.41,.49-1.62,1.21-.06,.59,.11,1.72,.78,1.82,.52,.08,1.26-.59,1.63-1.26h0Zm2.89-2.2c-.38-.57-.15-1.42-.86-1.67-.37-.13-1.71,1.25-1.57,1.58,.23,.55,0,1.63,.71,1.55,.79-.15,1.45-.7,1.72-1.46h-.01Zm-45.63,85.7c-2.01,1.35-1.76,3.16-1.68,5.06,1.87-1.32,1.34-3.24,1.68-5.06Zm24.84-75.11c-.3-.74-.57-1.42-.86-2.08-.05-.09-.14-.16-.25-.17-.56-.05-1.37,1.14-1.13,1.68,.13,.36,.3,.7,.49,1.03,.15,.23,.08,.84,.62,.54,.48-.2,.87-.54,1.13-.99h0Zm27.66-17.9c-.34,.25-.68,.49-1.01,.74-.73,.63-.88,1.69-.37,2.51,.21,.28,.37,.12,.57,.02,1.43-.73,1.62-1.42,.81-3.27h0ZM85.53,141.7c-.15-.38-.23-.96-.56-1.26-.26-.23-.62,.3-.94,.5-.29,.18-.57,.39-.83,.62-.33,.3-.09,1.79,.29,1.92,.85-.35,1.57-.98,2.02-1.79h0Zm125.08-54.09c-.07-.21-.09-.45-.21-.54-.26-.19-.39,.1-.52,.27-.87,1.12-1.73,2.24-2.59,3.37-.17,.22-.46,.44,0,.73,.36,.23,.57,.23,.83-.13,.69-.96,1.42-1.9,2.12-2.86,.15-.26,.28-.54,.37-.83h0Zm-86.47,22.75c-.5,.4-1.02,.84-1.58,1.24-.84,.61-.31,1.39-.02,1.84,.36,.56,.7-.22,1.03-.41,.35-.23,.67-.5,.96-.81,.5-.46,.01-.94-.02-1.4,0-.22-.16-.42-.38-.46h0ZM268.3,41.95c.29-.45,.61-.88,.95-1.29,.8-.9-.07-1.35-.52-1.78-.66-.62-.68,.35-1,.57-.2,.18-.36,.4-.48,.65-.24,.38,.46,1.78,1.05,1.84h0Zm-26.88,32.99c-1.79,2.24-1.82,1.66-.44,3.48q1.75-1.89,.44-3.49h0Zm-17.75,117.36l-3.97-5.38-.25,.19c.45,2.47,2.19,3.96,4.22,5.18h0Zm-42.68-41.41c-.26-.39-.57-.74-.93-1.04-.4-.26-.53,.29-.75,.52-.3,.3-.53,.66-.81,.98-.33,.37-.07,.65,.13,.91s.27,.67,.67,.73c.71-.57,1.28-1.28,1.68-2.1h0Zm-68.28-28.91c.28-.26,.58-.5,.9-.71,1.09-.58,.91-1.44,.6-2.38-.14-.44-.32-.4-.66-.2-1.53,.91-1.63,1.21-.84,3.29h0ZM252.87,57.84c-.25-.54-.64-1.01-1.13-1.36-.64,.56-1.2,1.22-1.65,1.95,.4,.42,.82,.8,1.28,1.15,.14,.1,1.47-1.47,1.51-1.75h0Zm-79.63,113.49c.34-.54,.71-1.07,1.12-1.56,.83-.87,.67-1.57-.22-2.23q-1.98,2.1-.9,3.78h0Zm89.23-121.51c-.29-.43-.64-.81-1.04-1.15-.38-.24-.51,.3-.7,.53-.32,.38-.58,.8-.9,1.19-.34,.42,.02,.63,.25,.84,.26,.24,.53,.86,.83,.59,.58-.62,1.11-1.29,1.57-2h0ZM124.18,119.83c2.17-1.05,2.41-1.59,1.48-3.24-2.17,1.4-2.19,1.45-1.47,3.23h0Zm-7.13-3.86c-.31,.28-.65,.53-1,.74-1.07,.5-.93,1.31-.62,2.2,.13,.38,.22,.59,.68,.29,1.61-1.04,1.69-1.24,.94-3.24h0Zm44.01,61.15c-.38-.65-.78-1.49-1.39-1.62-.5-.1-.89,.8-1.22,1.35,.3,.68,.74,1.3,1.29,1.8,.66-.31,.9-1,1.32-1.54h0Zm14.66-95.96c.32-.11,.86-.13,1.07-.41,.28-.37-.27-.63-.48-.92-.31-.44-.67-.83-1.01-1.26-.21-.26-.43-.31-.67-.08-.28,.25-.76,.24-.9,.65-.08,.26,1.59,1.99,1.99,2.01h0Zm20.11-21.4c-.51,.52-1.43,.65-1.38,1.33s.18,1.68,.88,1.94c.66,.02,1.23-.47,1.32-1.13-.06-.78-.34-1.52-.81-2.15h0Zm-36.39,133.1c-1.87,1.66-2.06,2.23-1.34,3.94,2.06-2.22,2.19-2.58,1.35-3.95h0Zm44.42-91.88c1.22-1.39,2.34-2.69,1.96-4.75-1.06,1.43-2.64,2.5-1.95,4.75h0Zm-14.51-33.32c.54-.39,.95-.65,1.32-.96s.16-2.09-.37-2.46c-.56-.4-.79,.33-1.19,.52-.35,.16-.26,.49-.14,.8,.24,.68,.37,1.39,.38,2.11h0Zm19.98-10.71c.55-.21,1.05-.53,1.48-.93,.44-.31,.6-1.74,.18-2.06-.5-.39-.76,.27-1.13,.43-1.31,.59-.77,1.58-.53,2.55h0Zm46.77-1.2c-1.8,1.77-1.83,2.05-.38,3.36q1.6-1.82,.38-3.37h0Zm-73.96,103.33c.76-1.24,1.42-2.36,2.12-3.45,.2-.26,.14-.63-.12-.82-.03-.02-.06-.04-.1-.06-.33-.25-.46,.11-.61,.31-.35,.5-.72,.99-1.12,1.45-.7,.69-.78,1.8-.18,2.57Zm21.85-62.46c.99-1.39,2.63-2.42,2.31-4.53-.79,1.5-2.87,2.26-2.31,4.53h0Zm-60.83,66.79c1.72-1.42,2.11-2.42,1.58-4.14-1.25,1.1-2.18,2.31-1.58,4.14h0Zm37.81-94.25c.45-.51,1.37-.59,1.29-1.34-.07-.66-.25-1.59-.92-1.79-.33-.1-1.31,.45-1.24,1.19,.05,.73,.36,1.42,.87,1.94h0ZM18.88,162.18c-.07-.65-.1-1.32-.24-1.96-.06-.3,.2-.92-.47-.82-.46,.07-.88,.3-.81,.92,.08,.69,.11,1.39,.21,2.08,.04,.28-.17,.87,.4,.74,.42-.1,.98-.3,.91-.96h0ZM171.1,76.05q1.43,2.05,3.17,1.43c-1.28-2.28-1.33-2.31-3.17-1.42h0Zm-9.28-13.67c-1.41-2.02-1.54-2.07-2.9-1.51-.42,.17-.41,.31-.18,.66,.96,1.46,1.19,1.53,3.08,.86h0Zm2.34,116.92c1.17-1.38,1.18-1.39,.03-2.84-.18-.23-.3-.93-.79-.44-.33,.33-.94,.7-.52,1.36,.41,.65,.85,1.28,1.28,1.93h0Zm-2.11-38.27c-1.81,1.42-1.36,3.23-1.65,4.99,1.96-1.23,1.39-3.1,1.65-4.98h0Zm49.72-30.08c.51-.29,.91-.74,1.13-1.28,.11-.25-1.09-1.81-1.33-1.73-.59,.18-1.01,.71-1.06,1.32,.04,.71,.78,1.16,1.26,1.7h0Zm-48.08,62.6c.45-.62,1.17-1.07,1.13-1.74-.04-.58-.62-1.41-1.19-1.29-.66,.22-1.12,.83-1.15,1.53,.05,.58,.69,1.04,1.22,1.51h0Zm-7.2-25.42c-1.75,1.32-1.54,2.99-1.48,4.7,1.76-1.18,1.25-2.93,1.49-4.69h0ZM21.95,166.78c.59-.42,1.39-.7,1.53-1.32,.12-.52-.53-1.03-.97-1.44-.64,.3-1.2,.74-1.64,1.28,.22,.58,.6,1.1,1.09,1.49h0Zm117.76,22.64c-2.02,.07-2.17,2.03-3.14,3.15,2.13,.08,2.09-2.1,3.15-3.14h0ZM199.01,59.98c-.1-.37-.24-.85-.36-1.34-.15-.58-.33-.69-.93-.35-1.2,.67-.55,1.44-.25,2.21,.1,.28,.09,.85,.54,.68s1.05-.36,1.02-1.19h0Zm-47.21,92.88c1.04-1.46,2.51-2.4,2.09-4.34-1.82,1.38-2.19,2.11-2.09,4.34ZM249.41,59.28c-.24,.29-.42,.49-.59,.7q-.99,1.23,.09,2.28c.18,.18,.27,.29,.54,.08,.76-.4,1.06-1.34,.66-2.1-.08-.16-.19-.3-.32-.42-.12-.15-.22-.31-.39-.55h0Zm16.67-14.36c.25-.33,.53-.74,.86-1.1,.8-.87,0-1.38-.47-1.81-.67-.63-.65,.39-.97,.6-.2,.18-.36,.4-.46,.65-.15,.3,.61,1.64,1.04,1.66Zm5.5-7.9c-.15-.55-.47-1.04-.93-1.38-.41-.21-.51,.44-.74,.7-.2,.24-.37,.49-.52,.76-.4,.66,.3,.85,.53,1.23,.12,.19,.35,.59,.6,.29,.39-.51,.74-1.04,1.06-1.6h0ZM123.45,116.55c2.28-1.35,2.35-1.47,1.59-3.09-2.26,1.56-2.29,1.62-1.59,3.08h0Zm111.35,74.82c.51-.73,.33-1.73-.4-2.24-.1-.07-.21-.13-.33-.18-.08,.63-.62,1.12-.12,1.71,.52,.62,1.02,1.25,1.52,1.88,.24,.31,.47,.35,.75,.07,.23-.22,.47-.43,.23-.78-.38-.55-.65-1.39-1.65-.48h0ZM118.36,75.95c-1.75-.91-2.91-.14-3.99,1.06,1.68,.91,2.74-.2,3.99-1.06h0Zm-36.53,66.8c-.55,.23-1.04,.57-1.45,1-.66,.6-.13,1.29,.15,1.77,.33,.58,.64-.14,.96-.29,1.35-.65,.7-1.57,.34-2.49h0ZM218.02,42.41c1.32-.75,1.34-.76,.65-2.48-.13-.31,.04-1.13-.72-.82-.52,.22-.99,.58-.63,1.34,.29,.62,.47,1.29,.71,1.95h0ZM109.03,187.73c.98-1.19,1.84-2.21,2.67-3.26,.94-1.04,1.79-2.15,2.55-3.32-.18,.07-.34,.16-.5,.26-1.53,1.67-3.06,3.35-4.6,5.01-.31,.34-.24,.7-.13,1.3Zm39.81-31.31c1.81-1.84,2.03-2.41,1.6-4.01-1.59,1.5-1.74,1.85-1.6,4.01h0Zm-7.52-55.73c-.42,.54-1.32,.67-1.32,1.47-.06,.55,.18,1.09,.63,1.4,.21,.11,1.86-1.3,1.77-1.5-.22-.55-.6-1.02-1.08-1.36h0ZM272.4,35.71c.36-.53,.74-1.05,1.08-1.6,.45-.74-.21-1.21-.59-1.55-.41-.37-.52,.33-.76,.56-.89,.86-.85,1.7,.27,2.59h0ZM36.16,174.12c-.77,.3-1.47,.75-2.06,1.33-.62,.57-.08,1.29,.23,1.74,.25,.36,.72-.16,.97-.41,.66-.71,.63-1.67,.87-2.66Zm140.73-18.24c.4-.46,.81-.91,1.2-1.36,.55-.63-.15-.94-.35-1.37-.12-.27-.3-.37-.62-.13-1.28,.94-1.37,1.65-.24,2.87Zm-9.15,12.24c.46-.29,.8-.74,.95-1.26,.04-.71-.38-1.36-1.04-1.6-.54-.17-.77,.76-1.11,1.23-.13,.18,.87,1.59,1.2,1.63h0Zm12.36-6.3c.46-.63,.9-1.29,1.4-1.9,.43-.52,.27-.8-.19-1.19-.58-.5-.68,.06-.94,.31-.83,.6-1.03,1.75-.43,2.59,.05,.07,.1,.13,.15,.19h0Zm-92.12-23.63c-.6,.22-1.14,.58-1.57,1.05-.6,.56-.04,1.19,.21,1.65,.23,.44,.54-.13,.81-.25,1.18-.56,1.2-1.42,.56-2.45h0Zm2.42-2.06c-.25,.78-1.43,.61-1.22,1.56,.09,.42-.15,1.4,.77,1.18,.44-.1,1.36,.04,1.22-.91,0-.69-.28-1.35-.77-1.83h0Zm75.25,31.62c-1.35,1.61-1.34,1.61-.33,2.63,.29,.29,.45,.41,.8,.03,.93-1.01,.92-1.17-.47-2.66h0Zm-145.19-3.2c1.8-1,1.82-1.09,1.27-2.22-.26-.53-.47-.53-.93-.25-1.17,.71-1.21,.9-.34,2.47h0ZM213.7,51.71q-1.98,1.03-1.3,2.97c1.7-1.12,1.85-1.45,1.3-2.98h0ZM46.37,170.81c2.48-1.62,2.52-1.2,2.17-3.09-1.16,.71-2.39,1.3-2.17,3.09Zm94.92,25.13c-1.9-.05-2.01,1.8-3.14,2.9,2.25,.14,2.2-1.91,3.14-2.9h0Zm32.26-48.23c-.23-.32-.41-.77-.92-.84-.64,.47-1.17,1.07-1.57,1.75,.2,.37,.52,.67,.9,.84,.23,.09,1.6-1.41,1.59-1.75Zm-94.51,3.44c.11-.02,.21-.05,.31-.09,.86-.35,1.27-1.32,.93-2.18-.06-.15-.14-.29-.24-.41-.21-.35-.38-.22-.63-.07-1,.6-1.06,.98-.37,2.76h0Zm19.02-17.51c.48-.36,1.17-.55,1.16-1.09,0-.69-.08-1.58-.7-1.94-.29-.17-1.11,.38-1.13,.88,.02,.77,.25,1.51,.67,2.15h0Zm70.81-62.85c-1.13-1.79-1.62-1.92-2.98-.81q1.16,1.46,2.98,.82h0Zm-22.7,88.86c1.53-1.39,1.77-2.07,1.31-3.7-1.21,.81-1.74,2.31-1.31,3.7h0Zm-33.24,21.7c-1.97,.37-3.47,1.98-3.69,3.98,.31-.01,.43-.28,.6-.47,1.01-1.13,2-2.27,3.09-3.5Zm48.33,6.59c1.7-1.61,1.71-1.63,.64-3.03-1.6,1.54-1.63,1.68-.64,3.03h0Zm2.73-122.96q-1.13-1.7-2.98-.96,.96,1.6,2.98,.96Zm49.55-22.44c-1.08,.37-1.3,.95-.83,1.82,.15,.27,.21,.58,.34,.86s.06,.81,.6,.55c.37-.18,.73-.41,.53-.98-.25-.72-.43-1.48-.64-2.25h0Zm43.57-10.71c1.5-.83,1.43-2.25,1.55-3.58,.03-.32-.2-.6-.52-.63-.01,0-.02,0-.03,0-.37-.02-.31,.36-.36,.61-.21,1.17-.42,2.35-.64,3.6h0Zm1.83,26.17c.82-1.07,1.57-2.04,2.3-3.02,.12-.17,.5-.36,.08-.65-.33-.23-.57-.28-.83,.12-.53,.8-1.1,1.58-1.67,2.36-.28,.37-.24,.7,.12,1.19h0Zm-13.17,11.28c-1.25,1.38-1.23,1.6,.2,2.9,.98-.97,1.24-1.96-.2-2.9h0Zm29.42-32.85c-.33-.52-.22-1.21-.73-1.36-.36-.1-.48,.48-.71,.77-.22,.27-.41,.56-.55,.87-.24,.53,.25,.83,.44,1.23,.06,.12,.24,.26,.37,.09,.42-.53,.8-1.08,1.19-1.6h0Zm-100.76,110.28c.66-.47,1.23-1.04,1.71-1.69,0-.08-.02-.15-.07-.21-.22-.26-.39-.76-.7-.69-.73,.17-1.07,.93-1.6,1.41-.22,.2-.15,.41,.04,.59,.22,.21,.44,.42,.61,.59Zm3.1-64.83c-.24,.26-.84-.01-1,.46-.12,.35,.32,.56,.51,.83,.16,.21,.33,.42,.52,.61,.42,.45,.84,.1,1.25-.01,.17-.04,.39-.04,.41-.3,.04-.33-1.26-1.6-1.69-1.58h0Zm98.45-46.48c.53-.72,.9-1.24,1.3-1.75,.23-.3,.15-.41-.1-.71-.69-.83-1.02-.56-1.59,.18-.71,.93,.16,1.37,.4,2.29Zm-118.67,117.94c1.33-.73,1.93-2.31,1.43-3.74-1.14,.88-1.69,2.32-1.43,3.74ZM251.55,40.39c-1.79,1.53-2.22,2.39-2.08,4.2,.9-1.34,2.12-2.37,2.08-4.2h0Zm-67.13,25.89c-.21-.45-.45-.89-.62-1.36-.29-.8-.69-.52-1.08-.13-.72,.73,.17,1.25,.28,1.87,.04,.22,.09,.75,.55,.48,.34-.2,.79-.34,.86-.87h0Zm-107.95,86.76c.87-.14,1.46-.95,1.33-1.82-.03-.19-.1-.38-.19-.55-.15-.38-.19-.59-.68-.32-1.32,.72-.71,1.69-.46,2.68h0Zm36.52,43.53c.58-.38,1.06-.89,1.4-1.49-.21-.45-.56-.82-.99-1.07-.15-.1-1.5,1.34-1.41,1.53,.23,.43,.58,.78,1,1.03h0Zm114.69-106.27c-.48-.36-.94-.96-1.45-1.01-.49-.04-1.02,.67-.93,1.21s.53,1.29,1.07,1.31c.48,.02,.75-.75,1.31-1.52h0Zm-7.95-47.3c-1.37,.64-1.4,.64-.99,2.09,.08,.27-.14,.99,.48,.76,.43-.16,1.21-.28,.92-1.17-.18-.54-.28-1.11-.41-1.68h0Zm54.74-10.42c.52-.39,.91-.93,1.11-1.55,.1-.53-.43-1.32-.87-1.24-.56,.09-1,.84-1.09,1.45-.07,.5,.45,.9,.85,1.33h0Zm-39.34,148.25l.49-.32-3.75-5.01-.3,.22c.69,2.05,2.69,3.18,3.57,5.11Zm-96.5,11.72c.73,.2,1.15,.1,1.46-.41,.36-.59,.78-1.14,1.15-1.73,.15-.23,.48-.5,.09-.78-.23-.21-.59-.2-.8,.03-.03,.04-.06,.08-.09,.12-.58,.89-1.17,1.78-1.82,2.76h0Zm24.14-17.76c0-.33-1.12-1.65-1.3-1.55-.42,.25-.97,.68-.85,1.08,.16,.67,.64,1.22,1.29,1.48,.36,.09,.65-.63,.86-1.01h0ZM277.85,32.6c1.59-1.28,1.64-1.62,.47-2.9-1.31,.77-1.01,1.84-.47,2.9Zm-101.1,119.04c-.27-.33-.45-.73-.76-.89s-.51,.28-.64,.5c-.28,.48-1.13,.7-.78,1.48,.13,.28,.38,.81,.68,.63,.61-.47,1.12-1.05,1.49-1.72ZM276.43,29.85c.42-.28,.75-.66,.98-1.1,.49-.71-.17-1.18-.53-1.55-.42-.43-.55,.27-.78,.48-1.01,.89-.21,1.5,.33,2.17h0Zm-100.27,118.81c.62-.49,1.13-1.11,1.5-1.81-.19-.35-.47-.99-.8-.76-.65,.39-1.15,.99-1.41,1.7-.08,.3,.34,.71,.71,.87Zm4.18-77.4c-.65,.19-1,.46-.71,1.18,.12,.37,.18,.75,.17,1.13,0,.33-.18,.71,.23,.92,.25,.13,.41-.09,.6-.21,.34-.22,.59-.49,.42-.95-.24-.69-.47-1.38-.72-2.07h0Zm-20.04,78.38c1.39-1.13,1.63-1.79,1.33-3.61-1.16,.8-1.7,2.25-1.33,3.61h0Zm-24.36,54.45c-1.74-.53-1.78,1.27-2.71,1.93,1.65,.54,1.79,.44,2.71-1.93h0ZM223.16,35.1c-.35,.17-.76,.35-.59,.9s.33,1.1,.54,1.64c.09,.23,0,.77,.49,.55,.33-.15,.87-.3,.67-.89-.22-.65-.5-1.28-.76-1.92-.05-.13-.09-.3-.33-.28h0Zm-68.37,121.77c1.1-.96,1.6-2.44,1.3-3.88-1.35,1.01-1.44,2.33-1.3,3.88Zm83.44,24.08c-.68,2.04,1,2.58,1.6,3.91,.71-1.97-.9-2.58-1.6-3.91h0Zm-97.96,22.88c-2.12-.3-2.05,1.5-3.06,2.43,2.03,.27,2.04-1.47,3.06-2.43h0Zm33.4-52.4c.62-.45,1.13-1.04,1.49-1.72-.11-.41-.44-1-.75-.83-.68,.35-1.2,.95-1.46,1.66-.08,.25,.39,.68,.73,.87h0Zm-55.69-77.08c.72,.18,1.3,.34,1.9,.46,.35,.04,.7-.12,.9-.41,.31-.4-.13-.62-.32-.86s-.36-.75-.77-.5c-.65,.32-1.24,.77-1.71,1.32Zm-41.35,72.58c-.42,.13-.8,.37-1.09,.7-.69,.6-.23,1.34,.06,1.77,.37,.55,.74-.18,1.03-.41,.9-.68,.03-1.36,0-2.07h0Zm1.48,.91c.39-.26,.76-.54,1.11-.85,.6-.62,.13-1.31-.16-1.78-.32-.52-.68,.15-.96,.36-.99,.72,.04,1.4,.02,2.27h0Zm-32.96,22.42c-1.3,.4-2.12,1.68-1.96,3.03,1.25-.63,2.15-1.42,1.96-3.03h0ZM114.46,78.49c-1.71-.54-2.5-.24-3.61,1.22,1.47,.66,2.27-.67,3.61-1.22h0ZM260.49,30.08c-.99,.7-1.27,1.63-1.21,3.96,1.13-1.04,1.31-1.64,1.21-3.96h0ZM19.1,163.28c-1.47,.79-1.48,.85-.52,2.66q1.34-.77,.52-2.66Zm159.58-15.38c-.46,0-1.86,1.54-1.76,1.75,.11,.32,.3,.61,.56,.83,.28,.2,.43-.19,.59-.37,.3-.34,.57-.71,.87-1.06,.2-.19,.22-.5,.03-.71,0,0,0,0,0-.01-.1-.14-.2-.28-.28-.44Zm-21.25,45.45c.45-.64,.75-1.07,1.06-1.49,.39-.53-.07-.86-.3-1.22-.4-.63-.69,.12-1.04,.16-.61,.06-.21,.53-.15,.8,.09,.49,.24,.97,.44,1.75h0Zm-14.45,1.43c.16,.05,.24,.1,.3,.1,1.08-.68,1.93-1.66,2.47-2.81,0-.23-.15-.34-.33-.42-.29-.14-.41,.09-.53,.27-.63,.95-1.26,1.9-1.91,2.87h0Zm-5.8,1.44c-1.74-.23-1.77,1.49-2.6,2.34,1.82,.34,1.71-1.57,2.6-2.34h0Zm-93.35-26.02c1.26-.37,2.06-1.61,1.88-2.92-1.44,.42-1.88,1.49-1.88,2.92Zm-18.32-6.22c-.44-.36-.54-1.1-1.11-1.21-.46-.08-1.13,.41-1.1,.78,.04,.62,.45,1.16,1.05,1.35,.37,.06,.84-.44,1.17-.92h0ZM242.74,77.03c-.19,.83-.52,1.62-.97,2.34-.17,.27-.15,.62,.06,.87,.07,.13,.23,.17,.35,.1,0,0,.02,0,.02-.02,1.04-.65,1.35-2.02,.7-3.06-.05-.08-.11-.16-.17-.24h0Zm-106.21,121.76c1.65-.09,1.78-1.68,2.56-2.65-1.7,.01-1.77,1.69-2.56,2.65ZM21.6,158.73c.03,.34,.06,.69,.1,1.03,.03,.26-.05,.6,.26,.71,.33,.12,.57-.18,.8-.35,.6-.44,.02-.98,.04-1.48,.01-.3,.13-.88-.52-.78-.48,.07-.78,.31-.68,.87h0Zm141.46-12.35c1.31-.97,1.2-2.27,1.31-3.67-1.19,.8-1.73,2.29-1.32,3.66h0Zm-44.31,43.58c-.84-.48-1.5-1.35-2.18-.11-.39,.72,.27,1.12,.59,1.25,.95,.38,.93-.79,1.58-1.14h0ZM271.12,42.02c-.13-.29-.31-.57-.52-.81-.34-.26-.41,.16-.55,.34-.33,.42-.63,.86-.94,1.29-.27,.37,0,.65,.18,.93,.07,.12,.23,.29,.36,.14,.5-.61,.97-1.24,1.48-1.89h0Zm-132.95,63.43q1.48-.86,.64-2.53-1.3,.8-.65,2.53h0Zm-.64-5.71c-.23,.59-1.13,.53-.9,1.27,.15,.48,.06,1.32,.76,1.3,.53-.04,.94-.5,.9-1.03,0-.03,0-.06-.01-.1-.06-.56-.33-1.07-.75-1.45h0ZM273.94,28.4c-.21-.29-.38-.7-.68-.86s-.5,.27-.64,.51c-.24,.41-.97,.67-.52,1.33,.18,.26,.4,.81,.68,.62,.53-.41,.93-.97,1.14-1.6h0ZM139.42,205.97c1.91,.08,2.06-1.39,2.89-2.4-1.92-.16-1.86,1.53-2.89,2.4Zm-67.64-55c-.44,.09-.83,.33-1.1,.69-.58,.59-.15,1.27,.18,1.66s.72-.21,.98-.46c.67-.64-.07-1.24-.06-1.89h0ZM275.27,24.67c-.36,.45-.7,.9-1.06,1.34s0,.7,.2,1.01c.12,.2,.25,.36,.54,.21,.77-.41,1.06-1.37,.64-2.14-.08-.16-.19-.3-.32-.42ZM137.06,193.51c-1.29-.26-1.6-.01-2.4,1.81q1.21,.21,2.4-1.8h0Zm-62.99-44.52c-.4,.13-.76,.38-1.02,.71-.44,.5,.01,1,.09,1.5,.03,.17,.12,.45,.35,.29,.37-.25,.87-.52,.98-.89,.08-.57-.07-1.14-.4-1.61h0Zm-31.29,20.41c-1.51,.72-1.77,1.21-1.55,2.81,1.28-.48,1.5-1.57,1.55-2.81h0Zm22.18-12.92c-1.05,.46-1.49,1.05-.9,2.08,.18,.31,.3,.36,.6,.19,1.11-.61,.64-1.42,.3-2.27h0Zm76.23,36.26c.29,.07,.4-.15,.53-.34,.36-.54,.73-1.09,1.07-1.65,.1-.17,.36-.36,.05-.57-.24-.16-.48-.26-.69,.05-.43,.64-.86,1.28-1.3,1.91-.32,.47,.06,.5,.34,.6h0Zm-8.66,8.64c1.23,.19,1.24,.2,2.07-1.18,.13-.22,.55-.5,.14-.75-.28-.18-.7-.33-.99,.12-.37,.58-.76,1.13-1.22,1.81h0Zm-65.75-44.36c.35-.44,1.11-.55,.95-1.21-.1-.39,.04-1.22-.64-1.11-.38,.06-1.08,.41-.89,1.12,.1,.4,.08,.92,.58,1.2h0Zm-43.96,5.81c.49-.29,1.13-.44,1.11-.96-.01-.43-.26-1.1-.75-1.2-.48-.06-.92,.27-1.01,.74,.03,.54,.26,1.05,.64,1.42h0ZM178.83,67.66c-.21,.41-.85,.41-.61,.94,.28,.6,.25,1.44,.94,1.74,.21,.09,.73-.31,.56-.8-.13-.69-.44-1.34-.89-1.87h0Zm-43.51,138.55c1.24,.18,1.98-.55,2.42-2.25-1.52,0-1.45,1.58-2.42,2.25h0Zm1.37-10.92c1.28,.14,1.75-.29,2.33-1.9-1.43-.27-1.52,1.1-2.33,1.9h0Zm-110.75-30.71c-.38,.34-1.04,.47-1.08,.97,0,.52,.39,.95,.9,1,.49-.09,.91-.41,1.11-.87,.09-.43-.57-.71-.93-1.1h0Zm135.44-14.84c-1.51,1.58-1.52,1.61-1.21,3.01,.56-.98,1.93-1.45,1.21-3.01h0Zm110.87-111.61c-.38,.93-1.66,1.57-.38,2.63q1.35-1.28,.38-2.63h0Zm-3.61,7.15c-.18-.3-.28-.65-.5-.79-.31-.19-.41,.22-.57,.4-.27,.32-.52,.66-.75,1.01-.22,.34,.08,.57,.24,.81,.08,.12,.22,.28,.36,.12,.42-.49,.8-1.01,1.23-1.55h0ZM40.5,175.29c1.46-.76,1.81-1.47,1.38-2.62-1.18,.47-1.37,1.47-1.38,2.62Zm75.56,17.62c.42-.12,.74-.46,.83-.89-.04-.55-.41-1.01-.93-1.17-.35-.12-.73,.46-.78,.83-.09,.62,.55,.84,.88,1.24h0Zm-3.26,.41c-.16-.15-.52-.55-.57-.52-.54,.37-1.02,.81-1.44,1.31-.09,.11,.29,.68,.68,.8,.58-.4,1.04-.95,1.32-1.6h0Zm23.75,8.08c1.37,.16,1.72-.13,2.27-1.78-1.5-.37-1.64,.96-2.27,1.78h0Zm23.94-12.34c-.22-.41-.35-1.12-.75-1.08-.49,.04-.86,.67-.87,1.19-.01,.42,.31,1.06,.74,1.01s.7-.64,.88-1.12h0Zm8.01-51.36c-1.32,.87-.91,2.1-1.05,3.33,1.38-.89,1.14-2.07,1.06-3.33h0ZM27.19,162.83c-.71-.1-.48-1.84-1.72-.94-.73,.53,.04,.84,.24,1.18,.6,1.08,.97,.02,1.49-.25h0Zm131.41-9.49c-1.06,.66-1.64,1.87-1.5,3.11,.76-1.05,1.92-1.65,1.51-3.11h0Zm-21.9,46.57c.13-.48-.27-.36-.46-.34-.96,.1-1.04,1.09-1.54,1.65-.17,.2-.01,.33,.21,.37,.79,.14,.99-.54,1.34-1,.16-.21,.3-.44,.45-.68h0Zm40.3-130.81c-.84,.9-.73,1.61,.11,2.26,.15,.12,.3,.24,.5,.12,.22-.09,.33-.34,.24-.56,0,0,0,0,0-.01-.19-.64-.47-1.25-.84-1.81h0Zm47.21-27.69c.77-.39,1.07-1.32,.68-2.09-.05-.09-.1-.18-.16-.26-1.21,.7-1.25,.88-.52,2.34h0Zm-68.92,106.98c.79-.93,1.64-1.63,1.24-2.97-1.05,.58-1.57,1.81-1.23,2.97h0Zm-39.64,45.1c-.35-.38-.6-.99-1.12-1-.42,.11-.71,.49-.7,.93,.13,.49,.52,.87,1.01,.98,.39,.04,.61-.49,.81-.92h0Zm23.87-92.9c.41-.24,.97-.49,.97-.91-.04-.51-.39-.94-.87-1.09-.3-.07-.61,.11-.68,.41-.01,.05-.02,.1-.02,.15,.02,.53,.23,1.04,.6,1.43h0Zm-10.51,103.23c-.82-.12-1.05,.56-1.26,1.08-.15,.38,.38,.41,.63,.44,.79,.1,.99-.63,1.21-1.12,.19-.43-.35-.3-.58-.4h0ZM214.98,48.26c-.12-.31,0-.96-.44-1.44-.04-.04-.35,.1-.48,.23-.59,.55,.07,1.05,.09,1.58,0,.04,.02,.07,.04,.1,.12,.19,0,.63,.44,.49,.32-.1,.5-.34,.35-.97h0Zm10.65,126.56c.48-1.24-.42-1.75-.88-2.44-.15-.23-.35-.42-.63-.13-.2,.14-.25,.42-.1,.62,.02,.03,.04,.05,.07,.07,.5,.56,.96,1.15,1.55,1.87h0Zm11.68,6.57c.24-1.29,.05-1.71-1.19-2.59-.1,1.35-.03,1.5,1.19,2.58h0Zm-92.17,13.03c.77,.22,1.58-.22,1.8-.99,0-.02,.01-.04,.02-.06,.13-.39-.07-.58-.31-.77-.34-.27-.48,.04-.6,.25-.39,.46-.7,.99-.91,1.56h0Zm14.36-52.63c-.79,1.02-1.86,1.6-1.47,3.09,.68-.96,1.7-1.56,1.47-3.1h0Zm-18.53,51.58c-1.08,.04-1.5,.45-2.09,1.97,1.13-.11,1.18-.15,2.09-1.98h0ZM27.55,160.5c-.3,.23-.84,.34-.74,.67,.12,.56,.53,1.01,1.08,1.17,.22,.04,.71-.22,.64-.53-.16-.54-.51-1.01-.98-1.33h0Zm208.78,28.87c-.23,.07-.37,.3-.33,.53,.14,.67,.53,1.26,1.07,1.67,.15,.15,.39-.15,.5-.34,.16-.27-.93-1.88-1.23-1.87h0Zm-125.26,1.86c-.35,.48-.66,.86-.91,1.28-.22,.35,.01,.66,.21,.94,.1,.16,.24,.1,.38,.02,.7-.44,.91-1.36,.47-2.06-.04-.07-.09-.13-.15-.2h0ZM228.28,36.43c-.8,.39-1.53,.9-2.19,1.49-.27,.22-.31,.62-.09,.9,0,.01,.02,.02,.03,.03,.31,.37,.5-.08,.65-.27,.63-.64,1.17-1.36,1.6-2.15ZM28.81,164.31c-.64-.34-.98-1.32-1.86-.48-.42,.4-.12,.57,.1,.83,.69,.85,1.15,.24,1.76-.35Zm209.98,24.84c.21-.03,.35-.23,.32-.43-.01-.08-.05-.15-.1-.2-.5-.68-1.03-1.34-1.55-2-.1-.14-.23-.21-.37-.06-.14,.15-.13,.38,0,.53,.48,.65,.96,1.3,1.45,1.94,.07,.08,.16,.16,.24,.23h0Zm-1.96-1.52c-.72,1.24,.55,1.57,.86,2.29,.09,.21,.29,.63,.66,.31,.28-.24,.06-.48-.1-.7-.46-.61-.92-1.22-1.42-1.9h0ZM26.38,160.44c.29-.23,.85-.28,.75-.73-.08-.4-.19-1.02-.67-1.08-.32-.04-.91,.21-.84,.72,.04,.47,.32,.89,.75,1.09ZM244.59,53.29c1.04-.96,1.88-2.11,2.48-3.39-.83,1.13-2.21,1.82-2.48,3.39ZM127.7,203.63c-.75-.07-1.55-.75-1.98,.37-.18,.45,.27,.46,.52,.58,.97,.49,1.09-.37,1.47-.95Zm26.37-78.59c-1.32-.42-1.73,.44-2.24,1.25,1.21,.39,1.7-.36,2.24-1.25Zm-84.86,27.89c-.33,.21-.78,.35-.72,.72,.08,.49,.05,1.16,.58,1.37,.2,.08,.76-.28,.67-.75-.04-.49-.22-.96-.53-1.34h0Zm61.26,48.99c-.81-.18-1.08,.44-1.28,.93-.18,.46,.33,.38,.58,.42,.75,.12,.99-.5,1.18-1.01,.15-.4-.32-.27-.48-.34h0ZM25.6,160.78c-.32-.35-.32-1.02-.86-1.12-.23-.04-.78,.21-.7,.6,.1,.48,.22,1.12,.84,1.18,.36-.03,.66-.31,.71-.67h0Zm5.64,5.25l.11,.31c1.49-.49,2.39-1.81,3.44-2.92l-3.55,2.61Zm208.51,20.23c-.38-1.11-1.07-2.08-1.99-2.79,.22,1.24,1.17,1.97,1.99,2.79h0Zm22-155.57l.2,.11c.3-.38,.62-.75,.9-1.15,.15-.22,.58-.44,.29-.75-.17-.18-.55-.19-.84-.22-.49-.05-.37,.37-.41,.64-.06,.45-.09,.91-.14,1.36h0Zm-59.29,66.17c-.38,.46-.65,.78-.92,1.09-.22,.26-.34,.52-.07,.81,.15,.16,.27,.43,.53,.35,.29-.12,.49-.4,.5-.71,.12-.51,.1-1.04-.05-1.54h0Zm51.57-32.92l.28,.18c.55-.72,1.11-1.43,1.66-2.15,.11-.15,.25-.33,0-.47-.13-.07-.3-.17-.41,0-.52,.81-1.36,1.43-1.52,2.44h0Zm-112.43,137.68c-1.07,.03-1.86,.33-2.1,1.44,1.24,.42,1.59-.54,2.1-1.44h0Zm17.19-75.59c-.68-.43-1.27-.55-1.77,.22-.19,.29-.19,.42,.14,.61,.97,.55,1.24-.19,1.63-.84h0Zm-3.94-2.18c.66-.03,.99-.57,1.2-1.07,.13-.31-.35-.33-.58-.33-.7-.02-1,.56-1.2,1.06-.15,.36,.35,.24,.59,.34h0Zm10.23,11.29c-.77,1.07-1.72,1.65-1.71,2.87,.65-.78,1.66-1.32,1.71-2.87h0Zm-40.96,67.43c-.37,0-.66,.32-.63,.54,.1,.66,.77,.64,1.23,.77,.38,.1,.72-.4,.65-.63-.18-.52-.83-.42-1.25-.68h0ZM30.23,163.16c-.35-.3-.73-.56-1.15-.75-.18-.06-.76,.25-.65,.59,.13,.48,.54,.82,1.03,.87,.37-.06,.68-.34,.77-.71h0Zm87.57,22.74c-.37,.59-1.2,.83-1.06,1.69,.03,.21,.37,.6,.7,.24,.48-.52,1.09-1.05,.35-1.93h0ZM256.51,61.21c.59-.78,1-1.32,1.41-1.86,.17-.17,.18-.44,.02-.62-.1-.12-.27-.26-.36-.11-.44,.7-1.3,1.21-1.08,2.58h0Zm-5.71,7.09c-1.33,.97-2.07,2.09-1.98,3.03,.77-.93,1.43-1.95,1.97-3.03h0ZM23.49,158.31c.15,.3-.19,.93,.41,.99,.29,.03,.83-.16,.65-.71-.13-.4,.08-1.07-.53-1.16-.52-.07-.54,.42-.53,.87Zm98.96,44.59c.41-.04,.69-.37,.65-.59-.1-.55-.68-.7-1.12-.81-.34-.09-.68,.37-.63,.66,.11,.57,.74,.52,1.1,.74h0Zm-12.18-13.21c-.52,.72-1.36,1.22-.52,2.21,.43-.64,1.41-1.07,.52-2.21h0Zm44.33-30.15c.56-.71,.99-1.24,1.41-1.77,.18-.22,.15-.54-.06-.73-.13-.15-.28-.05-.36,.09-.43,.68-1.22,1.2-.98,2.42h0Zm8.21-10.19c.82-.62,1.24-1.64,1.08-2.66-.88,.58-1.3,1.64-1.08,2.66h0Zm4.97-12.27c1.4-1.24,1.4-1.34,.24-2.28-.26,.73-.34,1.51-.24,2.28h0ZM29.94,160.69c-.34-.33-.42-1-1.02-1.08-.21-.03-.7,.23-.54,.59,.21,.46,.44,1.03,1.05,1.08,.3-.02,.53-.28,.51-.58h0s0,0,0,0ZM253.96,64.53c-1.24,.45-2.1,1.58-2.23,2.89l2.23-2.89ZM112.18,191.47c.42-.2,.71-.59,.8-1.04,.02-.28-.27-.76-.6-.69-.41,.13-.71,.5-.77,.93-.01,.37,.22,.7,.57,.81h0Zm25.03,10.77c-.99-.23-1.6,.07-1.86,1.04q1.28,.12,1.86-1.04h0Zm90.17-25.33c.47-1.19-.35-1.63-.85-2.28-.72,1.18,.35,1.52,.85,2.28h0Zm-6.62-66.24l-.24-.16-2.74,4.07,.28,.19,2.7-4.1Zm16.89,74.28l-.29,.1c.5,1.02,1.17,1.94,1.97,2.74l.33-.24-2.01-2.6Zm-123.02,6.23c.33-.3,.75-.58,.78-1.05,.02-.28-.28-.7-.53-.62-.47,.14-.81,.57-.84,1.06,0,.25,.26,.53,.6,.62h0Zm16.64,12.07c1.07,.34,1.55-.12,1.81-1-.98-.37-1.43,.16-1.81,1h0ZM26.36,157.64c-.06-.41-.1-.75-.55-.61-.31,.1-.89-.08-.76,.55,.05,.27-.14,.84,.37,.78,.44,0,.83-.29,.94-.72h0Zm142.04-16.32c-.86,.46-1.27,1.46-.99,2.39,.65-.73,1.35-1.28,.99-2.39Zm-54.96,49.81c-.31,.31-.75,.56-.76,1.05,0,.27,.3,.67,.57,.59,.44-.14,.75-.54,.79-1,.02-.25-.26-.54-.61-.64h0ZM28.62,158.64c-.24-.3-.12-.93-.65-.95-.27-.01-.74,.17-.63,.63,.09,.38,.13,.93,.63,.99,.33,.03,.62-.22,.65-.55,0-.04,0-.07,0-.11h0Zm215.12-1.12l.29-.26-2.4-2.64-.26,.26c.89,.79,1.4,1.92,2.37,2.64h0Zm-212.53,2.29c-.37-.28-.29-1.04-.96-1.06-.22,0-.59,.18-.44,.51,.14,.48,.47,.87,.91,1.1,.18,.06,.49-.15,.49-.55h0Zm138.74-19.43c.45-.36,.84-.79,1.15-1.27,.16-.16,.16-.42,0-.58-.01-.01-.03-.02-.04-.04-.25-.27-.4-.04-.55,.12-.55,.41-.78,1.12-.56,1.77h0Zm59.96,30.33c-.29,1.11,.28,1.72,1.06,2.39-.11-.97-.15-1.81-1.06-2.39h0Zm5.33,14.72c-.73,1.28,.38,1.59,.66,2.31,.81-1.1-.35-1.42-.67-2.31h0Zm.19,3.91c.74-.88-.12-1.3-.47-1.85-.14-.22-.32-.18-.43,.03-.32,.7,.27,1.05,.57,1.5,.1,.12,.2,.22,.32,.31h0Zm11.53-115.51c.34-.46,.68-.92,1.01-1.37,.17-.23,.09-.57-.14-.5-.55,.17-.84,.79-1.41,1.03-.15,.06,.19,.57,.53,.84h0ZM29.62,156.65c-.41,.28-.9,.31-.76,.76,.11,.35,.1,.91,.63,.92,.27,.02,.51-.18,.53-.45,0-.05,0-.09,0-.14-.11-.37-.24-.74-.39-1.09h0Zm200.66,23.88c.57-1.09-.17-1.47-.69-2.03-.47,.96,.14,1.42,.69,2.03h0Zm-91.23,21.57q-.97,.04-1.51,1.09,1.01,.11,1.5-1.09h0Zm90.89-29.08c-.29,1.16,.39,1.65,1,2.26,.3-1.07-.46-1.52-1-2.26h0Zm-197.45-14.01c-.23-.4-.35-.93-.82-1.15-.18-.08-.55,.18-.51,.34,.06,.53,.38,.99,.85,1.24,.19,.08,.4-.15,.47-.43h0Zm-1.92,2.38c-.31,.11-.7,.23-.66,.46,.09,.52,.61,.7,1.04,.86,.18,.07,.55-.18,.46-.33-.24-.36-.53-.69-.84-.98h0Zm191.14-52.35c.81-.85,1.44-1.84,1.87-2.93-.8,.85-1.44,1.84-1.87,2.93Zm12.64,76.59c.64-1.07-.23-1.37-.67-2.05-.4,1.02,.1,1.5,.67,2.05h0Zm-118.25,2.35c-.3,.27-.73,.49-.67,.96,.03,.25,.26,.67,.57,.56,.4-.14,.69-.5,.72-.93,0-.27-.3-.49-.62-.59h0Zm17.36,15.27c.78,.35,1.16-.08,1.46-.67,.12-.24,.02-.34-.21-.37-.76-.08-1.04,.41-1.24,1.03h0Zm32.21-60c.62-.79,.52-1.71,.49-2.91-.41,.91-.58,1.92-.49,2.91h0Zm-6.33-18.47c.31-.02,.65-.09,.58-.49-.05-.33-.3-.71-.65-.68-.34,.08-.59,.38-.62,.73-.02,.37,.42,.32,.68,.43h0Zm73.65,59.07c.31-.69,0-1.5-.68-1.82-.02,0-.04-.02-.06-.02-.33,.88,.13,1.34,.74,1.84h0Zm-199.27-25.73c-.28-.33-.35-.87-.86-.98-.15-.05-.32,.04-.36,.19-.02,.08-.01,.16,.03,.23,.19,.39,.27,.92,.8,1.01,.22,.04,.41-.15,.4-.45ZM218,48.62c-.61,.42-1.6,.5-1.62,1.77,.67-.46,1.22-1.07,1.62-1.77Zm-52.07,90.51c.47-.98,.58-2.1,.31-3.15-.1,1.05-.21,2.1-.31,3.15Zm-131.16,20.63c-.26-.23-.23-.83-.78-.78-.22,.02-.47,.21-.32,.48,.17,.32,.29,.76,.73,.81,.23,.03,.41-.17,.37-.5h0Zm127.24-20.84c-.71,.49-1.08,1.33-.98,2.19,.47-.75,1.23-1.12,.98-2.19Zm-126.44,20.59c.14-.11,.41-.25,.4-.33-.07-.45-.36-.83-.78-1-.16-.06-.42,.14-.37,.32,.1,.42,.37,.79,.74,1.01h0Zm192.55,17.27c-.3,.64-.03,1.4,.6,1.7,.03,.02,.07,.03,.1,.04,.29-.78,0-1.28-.71-1.74h0Z"/>
    <path id="Path_133" data-name="Path 133" d="M211.78,171.27c-1.44-.89-2.69-2.06-3.66-3.45-5.22-6.66-10.43-13.32-15.63-19.99-8.77-11.31-18.15-22.11-27.06-33.3-5.11-6.42-10.09-12.95-15.13-19.43-.13-.16-.26-.33-.37-.5-.25-.38-.62-.83-.12-1.2,.53-.38,.8,.18,1.06,.53,18.8,24.98,39.63,48.36,58.41,73.37,.67,.89,1.3,1.82,1.92,2.75,.22,.4,.41,.8,.58,1.22Z"/>
    <path id="Path_134" data-name="Path 134" d="M169.91,125.45c-1.08-.73-2.04-1.63-2.82-2.67-12.41-15.23-24.84-30.45-37.52-45.45-.37-.44-1.33-1.01-.6-1.6s1.06,.5,1.44,.93c12.41,14.37,24.37,29.11,36.38,43.82,1.33,1.46,2.39,3.15,3.13,4.98Z"/>
    <path id="Path_135" data-name="Path 135" d="M130.25,79.02c-1.01-.42-1.86-1.14-2.45-2.06-6.84-8.97-13.98-17.7-20.98-26.54-5.38-6.79-10.55-13.75-16.4-20.16-.31-.34-.6-.69-.87-1.06-.24-.33-.56-.73-.12-1.09,.45-.37,.74,.05,1.01,.36,1.33,1.53,2.71,3.03,3.98,4.61,11.26,13.98,22.46,28,33.49,42.17,.98,1.11,1.77,2.38,2.33,3.76Z"/>
    <path id="Path_136" data-name="Path 136" d="M207.92,174.35c-1.12-.64-2.06-1.54-2.76-2.63-11.31-15.36-23.37-30.14-35.15-45.14-.41-.52-1.46-1.22-.68-1.82,.81-.63,1.15,.61,1.55,1.12,6.55,8.19,13.08,16.4,19.59,24.63,5.24,6.64,10.4,13.34,15.4,20.16,.89,1.1,1.59,2.34,2.06,3.68Z"/>
    <path id="Path_137" data-name="Path 137" d="M149.88,94.75c-2.04-1.95-3.88-4.1-5.49-6.41-9.95-12.76-20.19-25.28-30.26-37.94-.03-.03-.05-.06-.08-.1-.28-.5-1.16-1.01-.52-1.55,.69-.58,1.04,.36,1.39,.79,10.39,13.2,21.13,26.12,31.4,39.43,1.46,1.74,2.66,3.69,3.57,5.78Z"/>
    <path id="Path_138" data-name="Path 138" d="M108.96,46.08c-1.39-.77-2.56-1.86-3.42-3.19-4.22-5.59-8.43-11.2-12.83-16.66-.13-.16-.26-.32-.38-.5-.22-.35-.52-.76-.09-1.11,.52-.42,.81,.06,1.09,.42,3.01,3.86,6.04,7.7,9,11.6,2.06,2.7,4.21,5.34,6,8.25,.24,.38,.41,.79,.62,1.19Z"/>
    <path id="Path_139" data-name="Path 139" d="M87.86,100.8c-.54,.96-1.32,1.77-2.27,2.34-6.96,5.15-14.22,9.89-21.1,15.16-1.35,1.03-2.67,2.1-4.02,3.13-.41,.31-.93,.86-1.38,.27s.23-.95,.62-1.27c5.52-4.59,11.42-8.65,17.29-12.78,2.68-1.88,5.33-3.81,7.99-5.71,.8-.7,1.81-1.11,2.87-1.14Z"/>
    <path id="Path_140" data-name="Path 140" d="M48.8,131.24c-.16,.52-.52,.96-1,1.21-2.14,1.5-4.3,2.96-6.43,4.48-3.14,2.24-6.24,4.52-9.37,6.78-.37,.27-.74,.54-1.13,.77-.37,.22-.8,.4-1.1-.06-.26-.4,.05-.69,.34-.95,.12-.1,.26-.21,.39-.3,5.35-3.99,10.78-7.86,16.3-11.63,.42-.35,.92-.57,1.46-.65,.24-.01,.53-.05,.53,.34Z"/>
    <path id="Path_141" data-name="Path 141" d="M104.25,89.11c-.5,.73-1.13,1.35-1.87,1.83-2.4,1.62-4.82,3.21-7.24,4.81-.38,.25-.84,.58-1.21,.1-.39-.49,.03-.84,.42-1.1,2.6-1.7,5.19-3.4,7.81-5.07,.61-.43,1.35-.64,2.09-.57Z"/>
    <path id="Path_142" data-name="Path 142" d="M58.68,124.8c-.1,.16-.21,.31-.35,.44-.75,.59-1.5,1.16-2.27,1.72-.23,.24-.61,.25-.84,.02-.01-.01-.03-.03-.04-.04-.18-.19-.16-.49,.03-.66,0,0,0,0,.01-.01,.75-.83,1.68-1.47,2.71-1.88,.29-.09,.68-.15,.75,.43Z"/>
    <path id="Path_143" data-name="Path 143" d="M206.5,20.24c-.43,.86-1.07,1.6-1.86,2.16-4.3,3.23-8.6,6.46-12.9,9.68-.16,.13-.34,.24-.52,.35-.48,.26-1.03,.92-1.5,.26-.5-.7,.36-.96,.78-1.27,4.19-3.16,8.4-6.31,12.61-9.45,.98-.82,2.14-1.41,3.39-1.73Z"/>
    <path id="Path_144" data-name="Path 144" d="M184,38.17c-.14,.71-.59,1.33-1.24,1.67-1.97,1.31-3.96,2.59-5.94,3.87-.39,.25-.84,.55-1.21,.05s.07-.85,.45-1.1c2.12-1.38,4.25-2.74,6.39-4.09,.44-.33,1-.47,1.55-.39Z"/>
    <path id="Path_145" data-name="Path 145" d="M257.38,16.78c-.16,.58-.46,1.1-.88,1.54-4.22,5.65-8.74,11.06-13.11,16.59-7.82,9.89-15.3,20.04-23.38,29.73-1.88,2.26-3.53,4.71-5.29,7.07-.22,.3-.45,.6-.69,.88-.3,.35-.63,.8-1.13,.39s-.12-.83,.15-1.19c1.98-2.66,3.84-5.42,5.96-7.97,8.12-9.81,15.69-20.05,23.59-30.03,4.4-5.56,8.92-11.03,13.19-16.69,.22-.3,.49-.56,.8-.76,.49-.29,.77-.08,.78,.44Z"/>
    <path id="Path_146" data-name="Path 146" d="M239.64,32.14c-.13,1.25-.71,2.42-1.63,3.27-5.52,6.79-11.1,13.52-16.56,20.36-5,6.26-10.45,12.12-15.72,18.14-.08,.1-.16,.19-.25,.27-.38,.35-.77,.96-1.33,.41-.48-.47,.01-.91,.34-1.27,2.89-3.26,5.81-6.49,8.66-9.77,7.23-8.28,13.92-17,20.97-25.43,1.2-1.43,2.34-2.91,3.53-4.35,.49-.73,1.19-1.3,2-1.64Z"/>
    <path id="Path_147" data-name="Path 147" d="M216.6,70.87c.17,.83-.08,1.69-.67,2.31-1.44,1.82-2.93,3.61-4.4,5.4-.29,.35-.65,.58-1.07,.24-.28-.24-.31-.66-.07-.94,.02-.02,.04-.04,.06-.07,1.75-2.31,3.62-4.53,5.6-6.65,.17-.12,.35-.22,.55-.3Z"/>
    <path id="Path_148" data-name="Path 148" d="M140.08,157.27c-.46-.05-.73-.33-.5-.83,.19-.37,.44-.7,.73-.99,6.51-7.36,13.03-14.72,19.55-22.08,.38-.49,.87-.9,1.42-1.19,.19-.09,.39-.19,.58-.03,.21,.17,.06,.38,0,.56-.24,.57-.6,1.09-1.05,1.53-6.63,7.48-13.26,14.96-19.89,22.44-.22,.24-.4,.54-.83,.59Z"/>
    <path id="Path_149" data-name="Path 149" d="M151.71,139.83c-.46,1.25-1.15,2.39-2.04,3.38-5.69,6.81-11.39,13.61-17.47,20.07-.14,.15-.27,.32-.43,.45-.35,.3-.69,.93-1.21,.38-.43-.45,.08-.83,.38-1.15,3.41-3.68,6.74-7.43,9.99-11.25,2.58-3.03,5.14-6.07,7.72-9.11,.87-1.08,1.9-2.02,3.07-2.77Z"/>
    <path id="Path_150" data-name="Path 150" d="M138.61,159.38c-.02,.79-.34,1.55-.89,2.12-4.04,5.09-8.31,10-12.72,14.78-.22,.24-.48,.45-.76,.63-.22,.14-.51,.1-.68-.09-.19-.18-.22-.47-.06-.68,.16-.24,.34-.46,.54-.67,4.35-4.78,8.6-9.64,12.64-14.68,.43-.71,1.12-1.22,1.93-1.41Z"/>
    <path id="Path_151" data-name="Path 151" d="M120.91,161.45c-.21,.05-.42-.04-.54-.22-.16-.25-.13-.59,.08-.8,.46-.53,.94-1.05,1.41-1.57,4.38-4.85,8.77-9.7,13.16-14.54,.27-.3,.55-.78,1-.43,.38,.3,.17,.78-.05,1.13-.24,.39-.51,.75-.81,1.09-4.51,4.96-9.03,9.91-13.55,14.86-.19,.21-.37,.45-.69,.48Z"/>
    <path id="Path_152" data-name="Path 152" d="M112.92,170.06c-.36,.02-.57-.09-.68-.35-.12-.32-.03-.68,.24-.9,.78-.8,1.55-1.6,2.37-2.35,.93-1,1.94-1.91,3.04-2.72,.27-.17,.67-.54,.98-.18,.28,.32,.02,.75-.23,1-1.76,1.79-3.55,3.56-5.34,5.32-.11,.08-.24,.14-.37,.18Z"/>
  </g>
</svg>