<?xml version="1.0" encoding="UTF-8"?>
<svg id="Lag_1" data-name="Lag 1" xmlns="http://www.w3.org/2000/svg" viewBox="0 0 140.04 174.25">
  <defs>
    <style>
      .cls-1 {
        fill: #53162f;
      }
    </style>
  </defs>
  <path class="cls-1" d="M140,173.57c-.57,.92-.98,.91-1.49-.05-.11-.21-.21-.32-.46-.21-.62,.27-1.23,.13-1.84-.07-1.58-.51-3.13-1.11-4.68-1.72-15.19-6.01-28.77-14.57-40.73-25.69-4.27-3.97-8.06-8.38-11.34-13.21-.27-.4-.4-.42-.69,0-1.77,2.55-3.75,4.93-5.69,7.35-2.17,2.71-4.55,5.22-7.29,7.36-4.65,3.64-9.25,7.35-14.06,10.77-3.31,2.36-6.9,4.3-10.28,6.56-1.34,.9-2.69,1.8-4.03,2.7-.36,.24-.71,.48-1.12,.6-.91,.26-1.73-.15-2.05-1.05-.2-.54-.16-1.11-.15-1.67,.07-6.27,.41-12.52,.59-18.79,.13-4.76,.16-9.52,.55-14.27,.59-7.19,1.99-14.22,3.95-21.16,.08-.27,.24-.54,.14-.95-.36,.35-.67,.65-.99,.96-4.59,4.58-9.98,7.96-15.8,10.72-2.69,1.28-5.66,1.56-8.52,2.2-3.9,.87-7.83,1.6-11.67,2.71-.71,.21-1.48,.48-2.07-.21-.57-.65-.12-1.31,.12-1.95,2-5.37,3.64-10.85,5.03-16.41,1.05-4.18,1.99-8.38,3.25-12.51,2.39-7.79,6.22-14.77,11.2-21.19,7.07-9.1,14.6-17.76,23.27-25.39,.23-.2,.48-.36,.3-.78-1-2.3-1.63-4.71-2.18-7.14-.17-.76-.53-1.41-1.05-2-2.82-3.17-5.63-6.35-8.3-9.65-.58-.71-1.15-1.44-1.67-2.2s-.45-1.49,.1-1.86c.53-.36,1.19-.17,1.76,.5,.66,.79,1.32,1.59,1.98,2.38,2.95,3.59,6.02,7.08,9.12,10.55,.3,.33,.63,.55,1.06,.67,2.42,.68,4.82,1.42,7.15,2.37,.27,.11,.42,0,.6-.14,5.22-3.82,10.44-7.63,15.66-11.45,.36-.26,.58-.61,.81-.98,3.65-5.93,6.75-12.17,10.08-18.28,.36-.65,.7-1.31,1.17-1.88,.39-.48,.84-.55,1.44-.33,.71,.26,1.27,.78,2.02,.97,.39,.1,.38,.53,.23,.86-1.21,2.6-2.11,5.34-3.51,7.86-2.27,4.08-4.49,8.19-6.73,12.28-.2,.36-.28,.66-.08,1.06,.11,.22,.1,.53,.09,.79-.18,6.2,.26,12.39-.09,18.59-.02,.37,.11,.51,.43,.7,1.15,.65,2.28,1.36,3.38,2.08,.43,.28,.72,.25,1.11-.09,7.74-6.91,15.74-13.52,23.29-20.65,.57-.53,1.01-1.12,1.34-1.82,2.99-6.31,5.98-12.62,9-18.91,1.21-2.53,2.1-5.2,3.3-7.74,.64-1.36,1.29-2.72,2.04-4.03,.44-.76,.76-.86,1.6-.57,.08,.03,.17,.06,.26,.07,2.08,.19,3.32,2.39,2.23,4.22-1.46,2.46-2.73,5.01-3.92,7.59-3.33,7.2-7.26,14.09-10.85,21.15-1.11,2.18-1.44,4.47-1.61,6.82-.5,7.17-.9,14.34-.67,21.54,.17,5.36-.48,10.67-1.17,15.97-.07,.57-.21,1.08,.54,1.35,.31,.11,.53,.47,.77,.74,1.34,1.49,2.66,2.98,4,4.47,.15,.16,.28,.33,.53,.62,.2-1.09,.35-2.01,.53-2.93,.95-4.93,2.53-9.68,4.23-14.39,2.34-6.46,4.59-12.95,6.91-19.41,.61-1.69,1.32-3.34,1.98-5.01,.13-.32,.18-.62,.05-.97-.28-.74-.13-1.24,.37-1.44,.5-.2,1.05,.11,1.37,.79,.63,1.34,1.29,2.67,1.87,4.03,3.07,7.23,6.18,14.44,8.82,21.85,3.5,9.84,4.67,19.93,3.36,30.25-1.06,8.3-3.32,16.32-6.61,24.02-.96,2.25-1.8,4.55-2.88,6.75-.11,.22-.25,.45,.05,.65,.61,.4,.83,1.05,1.07,1.67,2.76,7.23,5.07,14.58,6.7,22.16,1.41,6.59,2.49,13.24,3.39,19.91,.02,.17,.08,.34,.12,.51v.4l-.04,.04ZM52.1,82.69c.86-.75,1.52-2.57,1.33-3.66-.9,.98-1.11,1.55-1.32,3.67-.08,.37-.19,.74-.22,1.12-.04,.37-.22,.74-.1,1.26,.63-.87,1.14-1.63,1.16-2.71-.24,.21-.41,.39-.61,.53-.28,.19-.17-.13-.24-.21Zm48.79,25.01c-.13,.38-.31,.19-.48,.04-.43-.38-.78-.84-1.25-1.45,.11,.92,.2,1.63,.27,2.35,.03,.33-.08,.74,.08,.99,.66,1.02,1.41,1.99,2.12,2.98-.09-1.69-.57-3.27-.74-4.91-.03-.1-.08-.21-.1-.31-.61-3.31-1.23-6.61-1.82-9.92-.08-.46-.33-.77-.64-1.06-.08-.07-.15-.17-.28-.09-.27,.17-.49,1.44-.29,1.73,.33,.48,.71,.93,.87,1.63-.36-.26-.61-.43-.93-.66,.25,1.3,.48,2.51,.73,3.71,.15,.7,.14,1.44,.52,2.07,.56,.92,1.2,1.79,1.67,2.76,.06,.13,.15,.14,.27,.14h0Zm10.91,11.5c-.9-3.03-1.66-6.11-2.45-9.17-1.14-4.42-1.55-8.94-1.43-13.49,.05-1.71-.89-2.74-2.01-3.75,.18,.93-.1,1.95,.57,2.78,.09,.11,.17,.47-.08,.35-.52-.25-.3,.42-.59,.38-.24-.88-1.38-2.41-2.11-2.83,.67,4.46,2.1,8.81,2.16,13.37-.12-.13-.19-.27-.22-.41-.67-3.25-1.39-6.49-1.97-9.76-.26-1.5-1.51-2.14-2.26-3.21,.24,1.88,.55,3.73,.83,5.57,.06,.42,.21,.76,.51,1.06,.3,.3,.62,.61,.66,1.05-.32,.17-.5-.12-.78-.12,.57,4.8,2.01,9.46,2.24,14.38-.28-.15-.28-.31-.31-.46-1.02-4.44-1.84-8.92-2.51-13.42-.24-1.64-1.28-2.51-2.32-3.64,0,.2-.01,.27,0,.33,.8,4.32,1.67,8.63,2.39,12.97,.34,2.05,1.03,3.85,2.4,5.44,.55,.63,1.24,1.18,1.47,2.08,.1,.37,.05,.72,.13,1.09,.46,2.1,.91,4.21,1.28,6.33,.21,1.2,1.05,1.97,1.69,2.9-.14-1.08-.36-2.12-.56-3.17-.05-.26-.28-.67,.09-.76,.44-.11,.4,.41,.46,.67,.27,1.2,.56,2.41,.71,3.63,.19,1.56,1.36,2.5,2.11,3.72,.06-.16,.06-.29,.04-.42-.81-4.09-1.62-8.18-2.43-12.28-.33-1.67-.66-3.35-.98-5.02-.04-.22-.11-.49,.2-.54,.26-.05,.31,.21,.37,.4,.03,.11,.04,.22,.06,.33,.93,4.73,1.81,9.47,2.81,14.19,.45,2.11,.49,4.34,1.69,6.25,.24,.39,.18,.9-.25,1.13-.44,.24-.37,.51-.27,.88,.67,2.51,1.33,5.03,1.98,7.55,.24,.95,.46,1.9,.49,3.04-.32-.45-.44-.84-.54-1.21-.46-1.66-.93-3.33-1.34-5-.72-2.94-1.43-5.88-3.5-8.25-.12-.14-.15-.37-.44-.41,.07,.26,.13,.5,.2,.73,.6,2.04,1.2,4.09,1.64,6.17,.28,1.35,.26,2.05-.11,2.86-.08-.39-.15-.71-.21-1.03-.61-3.8-1.74-7.46-3.01-11.09-.18-.5-.46-.95-.86-1.34-.11,.25-.03,.44,0,.63,.45,2.27,.91,4.53,1.34,6.8,.15,.77,.22,1.55-.09,2.34-.26-.29-.28-.64-.34-.96-.55-2.79-1.16-5.58-1.61-8.39-.31-1.91-1.1-3.52-2.4-4.95,.3,2.5,1.19,4.92,.9,7.55-.22-.24-.24-.44-.29-.63-.47-1.8-.66-3.66-1.05-5.48-.23-1.05-.17-2.22-.73-3.12-.99-1.59-2.16-3.08-3.44-4.47-.77-.96-1.53-1.92-2.41-3.02,.34,2.22,.76,3.05,1.99,4.01-.07-.45-.5-1.06,.44-1.01,0,.09,0,.18,.02,.26,1.2,3.84,1.98,7.78,2.58,11.75,.11,.74,.08,1.49-.07,2.24-.14-.25-.22-.5-.26-.76-.63-3.35-1.23-6.7-1.99-10.03-.26-1.11-1.14-1.61-1.74-2.49-.1,.31-.03,.48,.01,.65,.77,3.59,1.63,7.17,2.28,10.79,.2,1.12,.36,2.26,.03,3.56-.09-.39-.16-.62-.2-.85-.78-4.74-1.93-9.4-2.87-14.1-.3-1.52-1.31-2.42-2.22-3.48,.27,1.4,.16,2.9,1.26,4.06,.56,.6,.99,1.33,1.35,2.27-.78-.56-1.23-1.18-1.86-1.87,.35,1.98,.66,3.77,.97,5.55,.3,1.76,.68,3.51,.4,5.31-.09-.07-.12-.15-.14-.24-.54-3-1.15-5.99-1.59-9.01-.29-1.97-.88-3.73-2.33-5.14-.11-.11-.15-.34-.43-.27,.08,.58,.21,1.15,.22,1.73,.01,.91,.4,1.63,.98,2.29,.35,.4,.66,.83,.79,1.44-.66-.16-.93-.7-1.39-1.09,.23,3.06,1.06,6,.6,9.03-.13-.23-.19-.46-.23-.71-.4-3.02-.8-6.05-1.2-9.07-.02-.18,0-.36-.13-.51-.64-.8-1.27-1.61-1.91-2.41,.03,1.5,.18,2.94,.32,4.38,.21,2.23,.51,4.46,.56,6.71,.02,.69-.03,1.38-.3,2.04-.33-2.64-.59-5.27-.83-7.9-.09-.95-.08-1.89-1.1-2.45-.48-.27-.7-.89-1.21-1.26-.09,.7,.06,1.32,.12,1.94,.42,4.04,.86,8.08,1.28,12.12,.21,2.05,.66,4.1,.44,6.16-.07,.71,.18,1.1,.63,1.53,13.53,12.98,29.21,22.44,46.84,28.73,.12,.04,.24,.14,.39,0-1.71-9.16-3.53-18.31-6.3-27.28-.7,.68-.96,1.33-.67,2.27,.44,1.43,.71,2.92,1.04,4.38,.29,1.28,.55,2.56,.83,3.85,.3-.1,.42-.31,.59-.45,.18-.16,.38-.29,.59-.07,.19,.21,.06,.42-.1,.59-.09,.1-.18,.2-.3,.27-.53,.34-.59,.77-.46,1.38,.62,2.96,1.17,5.94,1.64,8.93,.15,.93,.09,1.7-.23,2.31-.59-3.02-.94-5.96-1.62-8.88-1.6,1.28-2.96,2.75-4.8,3.56,.09-.54,.45-.84,.81-1.14,.97-.8,1.95-1.59,2.9-2.41,1.07-.93,1.12-1.25,.52-2.63-1.87,1.31-3.54,2.95-5.74,3.75,.19-.52,.58-.84,.99-1.14,.84-.61,1.69-1.19,2.52-1.8s.82-.62,.48-1.61c-.09-.25-.15-.52-.22-.78-.53-2.04-1.06-4.08-1.6-6.12-.04-.14-.02-.32-.25-.36-.78,.73-1.43,1.63-2.63,2.04,.67-.96,1.49-1.6,2.17-2.38,.16-.18,.4-.33,.32-.62-.2-.71-.41-1.43-.63-2.21-.78,.76-1.31,1.62-2.4,2,.57-.92,1.28-1.58,1.9-2.31,.23-.27,.31-.52,.16-.85-.28-.61-.47-1.27-.71-1.88-.2-.52-.32-1.17-.5-1.75-.23-.75-.25-.74-.81-.17-.58,.6-1.14,1.23-2.09,1.51,.45-.95,1.2-1.51,1.81-2.19,.32-.35,.69-.67,.36-1.21-.07-.12-.05-.26,.05-.37,.09-.09,.23-.13,.3-.03,.44,.57,.59,.03,.78-.21,.46-.61,.89-1.24,1.33-1.86,.11-.16,.29-.33,.2-.55-.3-.73-.62-1.46-.99-2.32-1.17,2.02-2.45,3.76-3.45,5.67-.43,.83-.62,1.65-.56,2.58,.21,3.56,.39,7.13,.43,10.7,0,.43,.02,.86-.15,1.26-.2,.47-.55,.77-1.08,.78-.5,0-.89-.23-1.06-.69-.25-.69-.57-1.36-.66-2.11-.44-3.57-.48-7.17-.59-10.76,0-.3-.01-.57-.21-.83-.53-.7-.93-1.49-1.3-2.28-2.3-4.98-4.47-10-6.18-15.22-.08-.25-.11-.53-.3-.74-.06-.24-.11-.49-.17-.73l.02,.07Zm-19.22-58.77c-.14,.03-.16,.18-.22,.29-1.69,3.27-3.37,6.55-5.05,9.82-.2,.39-.26,.8-.27,1.24-.03,2.11-.07,4.22-.12,6.34-.14,5.77-.48,11.53-1.33,17.25-.55,3.68-1.37,7.33-1.7,11.05-.18,2.06-.41,4.11-.77,6.15-.09,.49-.27,.98-.88,.89-.61-.08-.65-.6-.61-1.1,.06-.67,.13-1.34,.19-2.01,.32-3.19,.46-6.41,1.03-9.57,1.46-8.16,2.19-16.37,2-24.67,0-.1,.05-.23-.12-.3-.05,.07-.1,.13-.14,.21-1.79,3.75-3.58,7.49-5.38,11.24-.1,.21-.16,.42-.14,.65,.08,.71-.1,1.38-.31,2.05-1.86,5.92-3.39,11.92-4.29,18.07-.88,5.98-2.02,11.9-3.73,17.71-.94,3.18-1.71,6.42-2.57,9.62-.1,.38-.17,1-.73,.85-.47-.12-.33-.68-.26-1.07,.25-1.39,.49-2.79,.82-4.16,1.24-5.24,2.69-10.44,3.47-15.78,.64-4.33,1.06-8.69,1.58-13.04,.05-.41,.09-.81,.15-1.3-.31,.22-.35,.48-.44,.69-2.99,6.88-5.91,13.78-9.44,20.41-2.68,5.03-4.98,10.26-7.89,15.18-1.9,3.21-3.9,6.38-5.19,9.92-.1,.27-.27,.48-.6,.41-.35-.08-.46-.36-.43-.67,.06-.63,.28-1.23,.56-1.79,2.54-5.18,4.95-10.42,7.43-15.62,3.67-7.71,7.13-15.5,10.43-23.37,.08-.2,.22-.4,.18-.7-1.58,1.7-3.08,3.38-4.64,4.99-5.4,5.56-11.08,10.83-16.28,16.59-.1,.12-.22,.22-.35,.32-.19,.14-.4,.23-.62,.06-.21-.16-.19-.38-.11-.61,.22-.61,.47-1.18,.94-1.68,.93-.98,1.77-2.03,2.67-3.03,3.64-4,6.88-8.35,10.81-12.1,3.85-3.67,7.4-7.64,10.58-11.93,.21-.29,.4-.6,.55-.92,2.72-5.92,5.43-11.83,8.14-17.75,.07-.16,.12-.33,.18-.49-1.26,1.5-2.54,2.94-3.87,4.35-4.02,4.24-8.37,8.14-12.45,12.32-1.69,1.74-3.37,3.49-5.06,5.23-.39,.4-.79,.79-1.44,1.03,.37-.78,.87-1.27,1.34-1.78,4.22-4.51,8.66-8.8,13.09-13.1,2.8-2.72,5.6-5.46,7.94-8.6,.1-.13,.22-.32,.36-.22,.47,.34,.49-.08,.61-.33,.41-.88,.8-1.76,1.2-2.64,.06-.14,.2-.28,.04-.62-.79,.83-1.52,1.62-2.27,2.39-6.65,6.79-13.36,13.5-20.33,19.96-3.67,3.4-7.4,6.75-10.72,10.52-.18,.2-.39,.38-.61,.52-.31,.19-.69,.37-.99,.08-.28-.27-.11-.64,.04-.95,.34-.69,.91-1.23,1.42-1.79,3.13-3.44,6.59-6.56,9.92-9.8,3.87-3.76,7.54-7.69,11.02-11.82,4.58-5.44,9.56-10.49,15.23-14.81,.26-.2,.43-.45,.57-.74,1.23-2.55,2.48-5.09,3.71-7.63,.09-.18,.29-.35,.16-.62-.09,.06-.17,.09-.23,.15-3.06,2.72-6.4,5.08-9.62,7.59-4.91,3.82-9.92,7.51-14.63,11.58-.12,.1-.25,.19-.39,.27-.14,.08-.3,.14-.44,.02s-.11-.29-.06-.44c.14-.39,.4-.7,.67-1,.91-1,1.94-1.86,2.95-2.76,7.71-6.87,16.12-12.93,23.66-20,.64-.6,1.16-1.21,1.53-1.98,.29-.61,.6-1.2,.9-1.8-.29,.04-.45,.16-.6,.28-2.4,1.96-4.81,3.91-7.21,5.87-2.12,1.74-4.21,3.5-6.33,5.24-.45,.37-.94,.71-1.61,.9,.36-.5,.75-.84,1.14-1.18,3.42-2.94,6.89-5.83,10.4-8.67,1.41-1.15,2.77-2.38,4.29-3.37,1.13-.74,1.18-1.96,1.81-2.93-1.1,.74-2.13,1.54-3.13,2.37-4.54,3.75-8.94,7.65-13.32,11.58-.66,.59-1.34,1.16-2.34,1.63,.2-.26,.27-.36,.35-.46,1.07-1.25,2.35-2.28,3.58-3.37,5-4.45,9.98-8.92,15.33-12.94,.3-.22,.49-.52,.65-.84,1.06-2.18,2.12-4.36,3.17-6.55,.08-.17,.24-.33,.15-.56-.25,.04-.37,.25-.52,.39-2.91,2.78-5.96,5.4-8.95,8.08-6.58,5.9-13.55,11.37-19.72,17.72-2.9,2.99-5.69,6.05-8.13,9.43-4.86,6.72-9.32,13.7-13.54,20.84-2.41,4.07-4.4,8.34-5.85,12.85-2.98,9.28-4.81,18.78-5.25,28.53-.22,4.94-.14,9.88-.42,14.81-.25,4.55-.41,9.11-.52,13.67,0,.24-.08,.49,.09,.78,.6-.4,1.19-.78,1.78-1.18,4.39-2.97,9.07-5.5,13.33-8.65,3.73-2.77,7.37-5.66,11.05-8.5,3.19-2.47,6.05-5.28,8.59-8.42,4.22-5.24,8.07-10.75,11.52-16.51,3.09-5.16,6.2-10.32,8.47-15.92,.99-2.43,2.03-4.84,3.02-7.28,4.88-12,7.38-24.47,7.39-37.43,0-4.22-.14-8.44,.15-12.66,.13-1.93,.28-3.85,.41-5.78,.01-.22,.1-.47-.1-.71-.88,1.73-1.73,3.41-2.57,5.09-.05,.11-.18,.27,0,.33,.47,.16,.33,.54,.32,.85-.02,.85-.09,1.7-.12,2.56-.09,2.9-.18,5.79-.27,8.69-.03,.79-.15,1.11-.64,1.59,.13-4.47,.26-8.81,.39-13.15-1.37,2.21-2.59,4.46-3.81,6.7-.08,.15-.12,.34-.13,.52-.33,3.76-.81,7.5-.81,11.28,0,6.4-.09,12.8-.15,19.2-.01,1.19-.03,2.38-.22,3.56-.07,.45-.09,1.08-.71,1.04-.66-.05-.52-.68-.53-1.13-.01-2.04,0-4.09-.01-6.13-.05-7.65-.53-15.3-.23-22.97h0Zm-55.29,48.65c1.17-.86,2.07-1.88,2.25-2.52,1.45-5.3,2.86-10.61,4-15.98,.48-2.26,.88-4.54,1.24-6.82,.04-.22,.02-.59,.35-.55,.39,.05,.23,.41,.23,.66,0,.04-.02,.09-.03,.13-.95,6.08-2.37,12.05-3.97,17.99-.33,1.22-.64,2.45-1.01,3.87,.88-.84,1.14-1.77,1.41-2.69,1.2-4.11,2.24-8.26,3.26-12.42,.06-.23,.09-.57,.41-.5,.34,.07,.21,.38,.15,.62-.27,1.11-.54,2.22-.82,3.33-.41,1.62-.82,3.24-1.23,4.85,1.1-1.84,2.14-3.7,2.42-5.87,.03-.24,.09-.48,.14-.73,.04-.21,.1-.43,.37-.36,.24,.06,.26,.28,.22,.5-.04,.25-.14,.5-.09,.79,1.32-1.66,2.89-6.27,2.62-7.68-.89,1.1-1.52,2.31-1.56,3.77,0,.13-.02,.27-.05,.4-.09,.46-.21,.95-.81,.87-.54-.07-.6-.53-.58-.98,0-.27,.04-.54,.07-.8,.97-6.51,1.93-13.01,3.78-19.35,.2-.7,.34-1.41,.51-2.12-.84,1.02-1.65,2.01-1.85,3.37-.2,1.35-.6,2.67-.93,3.99-.12,.49-.3,.96-.87,1.43,.11-1.83,.82-3.36,.95-5-.63,.94-1.43,1.74-1.73,2.9-.51,1.97-1.12,3.92-1.71,5.88-.15,.51-.32,1.04-.92,1.44,.35-2.22,1.21-4.17,1.57-6.25-.69,.99-1.46,1.89-1.79,3.11-1.3,4.83-2.89,9.57-4.45,14.32-.22,.65-.48,1.29-1.1,1.72,1.41-5,3.15-9.91,4.5-14.93-.48,.43-.72,.98-.93,1.55-1.06,2.96-2.04,5.95-3.36,8.8-1.69,3.65-3.68,7.15-5.5,10.73-1.74,3.43-3.72,6.72-5.8,9.94-.24,.38-.52,.73-.8,1.08-.15,.18-.36,.3-.59,.16-.27-.16-.23-.42-.12-.65,.12-.26,.26-.52,.41-.77,3.83-6.43,6.96-13.23,10.31-19.91,.58-1.16,1.06-2.38,1.56-3.58,.06-.15,.25-.31,.04-.55-.72,1.08-1.49,2.1-2.06,3.25-1.88,3.75-3.84,7.46-5.85,11.14-.33,.61-.64,1.25-1.3,1.65,1.49-3.51,3.5-6.77,5.09-10.24-2.09,2.68-4.39,5.17-6.64,7.71-3.14,3.54-6.03,7.3-9.29,10.75-2.65,2.81-5.51,5.41-8.07,8.31-.09,.1-.19,.2-.3,.27-.36,.26-.75,.35-1.11,.05-.39-.32-.39-.75-.15-1.16,.17-.29,.4-.54,.62-.8,2.56-2.99,5.31-5.79,8-8.65,7.06-7.52,13.51-15.5,19.22-24.08,.12-.18,.31-.32,.28-.82-.25,.33-.37,.53-.53,.7-2.61,2.67-5.36,5.18-8.21,7.58-.48,.41-.97,.83-1.7,.8,4.36-3.88,8.79-7.67,12.47-12.23-.53,.38-1.01,.82-1.47,1.26-5.43,5.14-10.98,10.15-17.04,14.57-1.27,.93-2.55,1.84-4,2.48-.22,.1-.51,.26-.66-.01-.16-.29,.16-.43,.36-.54,.82-.46,1.62-.96,2.38-1.52,5.67-4.16,10.69-9.05,15.76-13.88,3.44-3.29,6.63-6.83,9.9-10.28,.13-.14,.29-.28,.25-.57-1.53,1.28-3.01,2.53-4.51,3.77-3.02,2.48-6.04,4.96-9.07,7.43-.48,.39-.96,.81-1.68,.88,.29-.57,.72-.91,1.15-1.26,4.95-4.02,9.88-8.06,14.76-12.17,.79-.66,1.21-1.55,1.79-2.52-1.33,.48-2.22,1.52-3.63,1.72,.22-.49,.55-.69,.87-.88,.92-.56,1.83-1.15,2.79-1.63,1.12-.56,1.45-1.66,2.03-2.61-.16,.02-.27,.08-.38,.15-2.61,1.7-5.23,3.41-7.84,5.11-.59,.38-1.2,.74-1.99,.87,.51-.69,1.15-1.12,1.79-1.53,3.03-1.97,6.1-3.88,9.06-5.95,.59-.41,.86-.98,1.11-1.6-.23,.09-.42,.23-.6,.37-2.93,2.2-5.88,4.36-9,6.28-5.22,3.21-10.81,5.78-15.81,9.36-.36,.26-.81,.45-1.12-.04-.29-.46,.1-.74,.45-.97,4.31-2.79,8.49-5.79,12.77-8.64,4.07-2.71,8.22-5.31,12.19-8.17,1.73-1.24,3.23-2.71,4.69-4.24,.47-.5,.59-.75,.67-1.19-1.82,1.33-3.4,3.03-5.6,3.82,.35-.59,.88-.96,1.41-1.34,1.73-1.25,3.39-2.59,4.97-4.03,.3-.27,.59-.56,.79-.91,1.1-1.91,2.19-3.82,3.28-5.73,.05-.09,.14-.18,.03-.36-.27,.2-.52,.39-.79,.59-2.3,1.68-4.56,3.42-7.04,4.85-2,1.15-4.02,2.29-5.86,3.7-.11,.08-.22,.16-.34,.21-.36,.16-.71,.16-.98-.17-.26-.33-.22-.69,.04-.99,.23-.27,.51-.5,.8-.72,1.73-1.33,3.63-2.4,5.49-3.53,3.71-2.25,7.27-4.71,10.56-7.55,.85-.73,1.23-1.74,1.68-2.71-1.7,.97-3.12,2.36-5.21,3.01,.39-.61,.8-.9,1.23-1.19,1-.68,1.99-1.39,3.01-2.04,1.44-.91,2.57-2.07,3.31-3.62,.39-.81,.9-1.55,1.34-2.34,.09-.16,.28-.3,.17-.55-.1,.07-.2,.12-.29,.19-3.57,2.66-7.13,5.31-10.7,7.97-3.86,2.87-7.56,5.92-11.14,9.14-8.11,7.29-15.24,15.47-22.07,23.95-6.36,7.9-10.72,16.72-13.06,26.54-1.93,8.08-3.88,16.15-6.82,23.95-.04,.1-.1,.21,.04,.31,.09-.02,.21-.03,.31-.06,3.66-1,7.38-1.75,11.08-2.57,3.19-.71,6.45-1.19,9.4-2.77,1.86-1,3.6-2.2,5.44-3.24,.95-.54,1-1.46,1.35-2.27-.41,.26-.77,.58-1.15,.85-2.35,1.63-4.89,2.93-7.46,4.16-1.4,.67-2.86,1.19-4.34,1.62-.24,.07-.59,.27-.71-.07-.14-.42,.34-.36,.56-.5,.06-.03,.13-.03,.19-.05,2.08-.59,4.06-1.43,5.97-2.44,.19-.1,.39-.17,.53-.39,.49-.78,1.03-1.53,1.53-2.3,2.54-3.92,4.93-7.93,7.37-11.91,.12-.19,.23-.38,.37-.56,.1-.13,.23-.23,.4-.14,.17,.1,.16,.26,.09,.41-.05,.12-.13,.24-.2,.35-2.66,4.4-5.29,8.81-8.11,13.11-.08,.12-.23,.22-.18,.44,2.05-.96,3.83-2.31,5.63-3.63,.08-.06,.12-.19,.17-.28,.12-.21,.23-.51,.54-.35,.32,.16,.13,.42,.03,.64-.27,.63-.54,1.26-.82,1.89,.74-.32,1.38-.73,1.99-1.17,.13-.09,.21-.29,.26-.45,1.04-3.2,2.22-6.35,3.05-9.61,.16-.63,.33-1.26,.5-1.89,.05-.19,.15-.36,.37-.3,.22,.06,.2,.27,.17,.45-.02,.13-.07,.26-.1,.39-.78,3.37-1.97,6.62-3.03,9.9-.07,.21-.13,.42-.26,.82,.61-.52,1.09-.83,1.29-1.43,.51-1.53,1.05-3.05,1.46-4.62,.13-.48,.25-.95,.38-1.43,.05-.19,.14-.37,.36-.32s.22,.26,.19,.44c-.02,.15-.06,.31-.09,.46-.33,1.42-.75,2.81-1.22,4.2-.06,.18-.2,.37-.11,.62,.64-.42,1.01-.95,1.23-1.66,1.24-4.03,2.44-8.07,3.43-12.16,.06-.23,.09-.57,.41-.5,.34,.07,.2,.38,.14,.62-.44,1.71-.86,3.44-1.33,5.14-.62,2.2-1.28,4.38-1.96,6.69l.02-.05Zm82.73,25.33c.09-2.53,.2-5,.4-7.45,.01-.17-.03-.31-.15-.43-.38-.38-.55-.87-.74-1.35-1.35-3.4-2.7-6.79-4.02-10.2-.98-2.55-1.83-5.16-2.48-7.82-.06-.25-.25-.6,.1-.7,.41-.12,.41,.31,.48,.57,.13,.45,.24,.91,.37,1.36,1.66,5.79,4.03,11.32,6.26,16.9,.04,.09,.05,.22,.28,.24-.02-.98,.59-1.99-.33-2.89-.18-.18-.27-.46-.37-.71-.7-1.75-1.4-3.5-2.1-5.25-.09-.23-.26-.51,.03-.65,.35-.17,.45,.18,.54,.42,.45,1.1,.89,2.2,1.33,3.31,.37,.93,.73,1.86,1.1,2.79,.24-1.48,.38-2.95,.51-4.42,.05-.51,.05-1.02-.04-1.54-.99-5.63-2.68-11.08-4.32-16.54-1.38-4.59-2.93-9.14-3.76-13.89-.11-.62-.33-1.24-.14-1.94,.1,.08,.17,.11,.18,.15,.07,.28,.14,.56,.19,.85,.84,4.19,2.31,8.2,3.64,12.24,1.51,4.58,3.39,9.04,4.45,13.76,.07,.32,.16,.64,.28,1.13,.05-.26,.07-.34,.08-.42,.46-6.09,.77-12.19,.8-18.3,0-.24-.02-.5-.08-.73-.76-2.86-1.62-5.7-2.73-8.45-1.18-2.94-2.25-5.91-3.16-8.95-.37-1.22-.67-2.47-.76-3.75-.02-.32,.03-.68,.44-.72,.39-.04,.43,.32,.49,.6,.33,1.51,.71,3.01,1.2,4.49,1.35,4.1,3.23,7.99,4.52,12.11,.02,.06,.06,.11,.08,.17,.12-.32,.12-.57,.12-.83,.03-4.34-.22-8.66-.31-13-.09-4.71-.31-9.43-.21-14.14,0-.33-.03-.68,.13-.99,.12-.24,.3-.4,.57-.41,.28,0,.52,.13,.57,.39,.08,.51,.34,.96,.34,1.5,.06,8.89,.42,17.78,.61,26.67,0,.18-.07,.39,.15,.56,.02-.11,.05-.2,.06-.28,.6-3.27,.78-6.6,1.22-9.89,.51-3.85,1.24-7.67,2.03-11.47,.08-.4,.12-1.08,.69-.98,.61,.11,.35,.75,.28,1.15-1.04,6.77-2.14,13.52-3.06,20.3-.22,1.64-.36,3.34-.88,4.9-.53,1.6-.36,3.18-.44,4.77-.05,.94-.04,1.89-.09,2.83-.23,4.51-.48,9.01-.72,13.52-.01,.26,0,.53,0,.82,.21-.1,.18-.29,.22-.42,.61-2.39,1.44-4.72,2.08-7.11,2.23-8.35,4.3-16.73,6.07-25.19,.09-.44,.19-.88,.32-1.31,.07-.22,.13-.56,.44-.49,.28,.07,.12,.38,.14,.59,0,.04,0,.09-.02,.13-1.38,8.26-3.17,16.43-5.21,24.55-.99,3.96-2.41,7.81-3.32,11.79-.18,.78-.25,1.61-.91,2.2-.14,.13-.09,.34-.1,.52-.12,4.42-.25,8.84-.36,13.27,0,.17-.12,.4,.15,.55,.72-1.09,1.4-2.2,1.95-3.38,3.88-8.35,7.07-16.94,9.02-25.97,2.24-10.36,2.26-20.69-.38-30.96-2.49-9.69-6.48-18.84-10.29-28.05-.05-.11-.06-.28-.32-.26-.46,1.23-.96,2.47-1.4,3.74-2.26,6.58-4.4,13.21-6.78,19.75-3.25,8.92-5.32,18.02-5.3,27.56,0,4.03,.14,8.04,.99,11.99,1.98,9.21,4.92,18.11,8.93,26.63,.07,.15,.09,.35,.38,.46h.07ZM69.65,61.07c1.54-5.34,1.71-10.82,1.77-16.3,.04-3.34-.14-6.69,0-10.03,0-.16,.1-.35-.09-.48-.73,.94-.84,1.22-.89,2.32-.08,1.5-.15,3-.23,4.51-.03,.51-.12,1.01-.52,1.43-.16-1.84,.08-3.67,.08-5.66-.57,.85-1.17,1.5-1.05,2.51,.07,.57,.01,1.17-.02,1.75-.01,.22-.14,.5-.39,.47-.2-.02-.21-.31-.21-.5-.01-.43,0-.85,0-1.28-.49,.53-.82,1.07-1.18,1.58-.39,.55-.58,1.13-.65,1.8-.17,1.76-.42,3.52-.64,5.28-.06,.5-.15,.99-.7,1.52,.08-2.24,.53-4.24,.58-6.31-.2,.24-.46,.5-.47,.77-.04,.84-.35,1.62-.51,2.43-.38,1.85-.54,3.73-1.02,5.56-1.11,4.23-2.37,8.43-3.21,12.73-.27,1.4-.53,2.8-.79,4.21,.54-.56,1.17-1,1.3-1.83,.53-3.44,1.17-6.85,1.9-10.25,.06-.29,.02-.86,.44-.77,.51,.11,.18,.61,.11,.91-.72,3.17-1.23,6.38-1.8,9.68,.62-.52,1.02-1.01,1.08-1.78,.1-1.3,.28-2.59,.43-3.88,.03-.24,0-.58,.34-.56,.4,.02,.28,.39,.28,.64,0,.16-.02,.31-.04,.47-.11,.89-.23,1.78-.32,2.67,0,.13-.24,.44,.15,.44,.18,0,.38-.09,.44,.15,.06,.23-.15,.36-.28,.5-.58,.62-.65,.84-.52,1.56,.79-.6,1.04-1.44,1.15-2.39,.13-1.18,.33-2.35,.51-3.53,.03-.21,.08-.44,.35-.4,.22,.03,.24,.25,.22,.43-.02,.29-.06,.58-.1,.87-.13,.93-.26,1.87-.41,2.9,1.09-1,1.16-1.12,1.34-2.4,.06-.4,.12-.8,.17-1.2,.54-4.5,1.13-9,1.4-13.52,.02-.31-.21-.88,.32-.86,.4,.02,.24,.56,.22,.86-.2,4.71-.86,9.38-1.42,14.06-.03,.25-.11,.5,0,.87,.43-.55,.97-.84,1.02-1.55,.16-2.19,.38-4.38,.56-6.57,.1-1.16,.18-2.33,.27-3.49,.02-.21,.07-.44,.33-.42,.23,.02,.23,.24,.24,.42,0,.09,0,.18-.01,.27-.17,2.87-.39,5.73-.69,8.59-.1,.91-.06,1.83-.34,2.85,.51-.34,.73-.63,.79-1.11,.57-4.52,.96-9.06,1.27-13.61,.01-.16,.02-.31,.05-.47,.03-.15,.14-.23,.29-.22,.13,0,.19,.11,.21,.23,.02,.16,.02,.31,.01,.47-.13,2.71-.38,5.42-.64,8.12-.15,1.51-.31,3.03-.46,4.54h-.02Zm-10.17-7.84c-.78,1.36-1.92,2.5-2.15,4.19-.27,2.02-.74,4.01-1.15,6.01-.07,.36-.15,.76-.55,1.12,.11-2.43,.71-4.67,1.01-6.96-.67,1.04-1.36,2.03-1.59,3.3-.42,2.27-.94,4.52-1.58,6.74-.2,.68-.43,1.35-1.06,2.03,.34-2.38,1.18-4.48,1.4-6.7-2.32,7.46-4.31,15-5.4,22.76,.54-.96,1.33-1.77,1.56-2.86,.45-2.1,.85-4.22,1.25-6.33,.23-1.23,.42-2.48,.63-3.71,.03-.2,.06-.44,.35-.39,.22,.04,.23,.25,.22,.43,0,.11,0,.23-.03,.34-.29,1.66-.57,3.31-.87,4.97-.19,1.08-.41,2.17-.61,3.25,.59-.61,1.06-1.25,1.13-2.1,.04-.51,.16-1.02,.26-1.53,.03-.17,.13-.29,.32-.28,.19,.02,.25,.17,.28,.33,.05,.24-.14,.47,0,.77,1.02-1.46,2.02-2.88,3.01-4.32,.1-.14,.12-.33,.15-.51,.63-3.69,1.26-7.38,1.89-11.07,.04-.23,.02-.58,.36-.53,.35,.05,.23,.37,.19,.61-.34,2.1-.69,4.2-1.04,6.3-.21,1.25-.42,2.49-.63,3.74,.58-.65,1.28-1.16,1.39-2.09,.21-1.69,.48-3.38,.74-5.06,.67-4.24,1.75-8.39,2.82-12.54,.42-1.64,.7-3.3,.86-5-.86,1.46-2.05,2.7-2.35,4.47-.25,1.52-.67,3.02-1.04,4.52-.12,.51-.27,1.02-.81,1.52,.17-1.95,.8-3.64,1.02-5.41h.01Zm-8.37,10.08c.27-.43,.48-.72,.66-1.03,2.36-4.13,5.03-8.08,7.5-12.14,4.33-7.09,9.05-13.93,13.04-21.23,3.18-5.81,6.76-11.39,9.57-17.4,.35-.75,.37-.74-.4-.92-.11-.03-.23-.05-.31-.12-.31-.22-.48-.09-.62,.21-.12,.27-.26,.52-.39,.78-2.36,4.44-4.46,9.02-6.96,13.38-3.29,5.75-6.66,11.45-9.9,17.22-3.86,6.87-7.9,13.64-11.91,20.42-.12,.2-.31,.38-.29,.82h.01Zm52.5,56.76c-.59-1.58-.87-3.04-1.19-4.5-.12-.54-.21-1.09-.56-1.56-1.57-2.13-3.11-4.28-4.67-6.42-.11-.15-.16-.38-.42-.41-.07,.24,.04,.44,.08,.65,.16,.88,.46,1.75,.24,2.66-.09,.35-.02,.59,.17,.87,2.99,4.51,5.97,9.02,8.95,13.53,.13,.2,.22,.44,.56,.63-.42-1.96-.91-3.82-1.19-5.72-.24-1.63-1.51-2.5-2.33-3.72,.14,1.28,.45,2.52,.35,4h.01Zm-16.19,18.12c-.56-5.44-1.02-10.82-1.56-16.23-.42,.94-1.41,1.58-1.25,2.79,.16,1.15,.26,2.32,.35,3.48,.17,2.43,.64,4.85,.46,7.3,0,.13-.01,.3,.06,.38,.64,.76,1.3,1.51,1.95,2.27h0Zm2.29,2.37c-.99-7.05-1.59-14.05-2.43-21.03-.32,.52-.8,.93-.74,1.61,.49,5.63,.97,11.26,1.65,16.87,.14,1.11,.63,1.85,1.52,2.55ZM108.72,24.15c.27-.06,.32-.26,.41-.43,3.49-6.48,6.63-13.15,10.05-19.67,.33-.64,.16-1.15-.3-1.8-3.74,7.21-6.42,14.8-10.16,21.9Zm-24.72,100.89c-.9,.96-1.29,1.85-1.08,3.05,.27,1.52,.39,3.07,.44,4.62,.03,1.14,.86,1.66,1.38,2.43,.06-.02,.12-.05,.18-.08-.3-3.29-.61-6.59-.93-10.02h.01Zm47.24,29.73c.63-.42,.88-.95,.75-1.59-.38-1.79-.76-3.59-1.15-5.38-.21-.94-.45-1.88-.68-2.84-.95,.71-1.12,1.46-.77,2.54,.75,2.36,1.3,4.78,1.86,7.26h-.01Zm-32.56-46.2s.1-.02,.14-.03c-.18-.99-.37-1.97-.54-2.96-.08-.42-.12-.84-.35-1.21-.53-.85-1.06-1.71-1.6-2.56-.07-.11-.17-.26-.26-.27-.2-.02-.21,.21-.26,.34-.41,1.25,.08,2.41,.62,3.45,.6,1.16,1.49,2.17,2.25,3.25h0Zm-3.87-4.39c-.34,.81-.59,1.43-.85,2.05-.07,.18-.1,.33,.06,.49,.69,.66,1.07,1.54,1.63,2.29,.3,.39,.49,.87,1.02,1.31-.59-2.1-.54-4.22-1.86-6.12v-.02Zm-4.63,16.96c-.08-.88-.14-1.57-.21-2.26-.05-.49-.08-.99-.17-1.47-.08-.44-.37-.87-.74-.98-.31-.09-.37,.47-.55,.73s-.31,.54-.46,.82c-.14,.27-.11,.51,.09,.74,.64,.74,1.27,1.5,2.05,2.42h-.01Zm2.21-1.89c.06-2.03-.41-3.79-2.17-4.98-.2,1.91,.48,3.49,2.17,4.98Zm-40.95-37.11c-1.63,1.94-1.41,4.41-2.2,6.76,1.97-1.99,1.73-4.49,2.2-6.76Zm43.33,36.39c-.04-2.01-.67-3.73-2.26-4.93-.32,2.09,.91,3.52,2.26,4.93ZM43.7,43.37c.27,1.07,.72,2.38,1.19,3.67,.02,.06,.09,.16,.11,.16,.57-.14,.86-.66,1.31-.96,.14-.1,.33-.25,.12-.43-.96-.87-1.93-1.72-2.74-2.44h.01Zm55.42,50.79c-.18,1.94,.84,3.28,2.29,4.38,.2-1.98-.88-3.28-2.29-4.38Zm-16.85,33.63c-.06-.01-.13-.02-.19-.03-.39,.57-.77,1.15-1.16,1.72-.11,.16-.16,.33-.05,.5,.57,.82,1.14,1.63,1.71,2.45,.05-.03,.1-.05,.15-.08-.15-1.52-.3-3.04-.45-4.56h0Zm20.72-38.31c-.15,1.98,.97,3.26,2.25,4.42,.26-1.98-.89-3.24-2.25-4.42Zm-8.97,24.6c-.1-.55-.18-1.1-.3-1.65-.13-.61-.1-1.28-.44-1.81-.21-.32-.42-.95-.76-.8-.36,.15-.43,.74-.43,1.25,0,1.43,1.18,2.07,1.93,3.01ZM46.22,41.91s-.08,.09-.12,.13c.72,.76,1.43,1.52,2.15,2.28,.11,.12,.23,.13,.35,.03,.48-.41,1.04-.74,1.53-1.3-1.36-.39-2.64-.76-3.91-1.13h0Zm48.27,70.51c.06,2.02,.63,3.69,2.23,4.87,.04-1.94-1.09-3.34-2.23-4.87Zm32.63,27.35c.22-.27,.43-.47,.59-.71,.19-.29,.58-.49,.48-.9-.17-.68-.38-1.36-.6-2.13-.4,.51-.72,.93-1.05,1.35-.14,.17-.17,.34-.09,.56,.22,.58,.43,1.17,.67,1.83Zm2.14,1.91c-.26,.34-.44,.54-.58,.77-.17,.27-.55,.45-.44,.85,.19,.72,.41,1.43,.65,2.24,.25-.3,.44-.5,.59-.71,.19-.28,.54-.51,.42-.94-.2-.68-.39-1.37-.63-2.2h0ZM60.39,69.37c-.45,.71-1.05,1.15-1.26,1.86-.1,.36-.25,.6-.63,.78-.35,.17-.83,.54-.62,.99,.12,.25,.16,.51,.32,.87,.82-1.45,2.34-2.43,2.2-4.49h-.01Zm44.25,20.82c.19-1.9-1.1-2.78-2.2-3.84-.25,1.89,1.26,2.63,2.2,3.84Zm-3.72,.02c0,1.56,.87,3.05,2.13,3.82,.16-1.69-1.02-2.66-2.13-3.82Zm1.39,.45c-.07-1.19-.03-2.38-1.11-3.15-.12-.09-.28-.37-.39-.09-.19,.47-.41,1.03-.08,1.48,.47,.63,1.05,1.18,1.58,1.77h0Zm26.15,48.52c-1.24,1.22-1.29,1.6-.46,3.09,1.11-1.06,1.15-1.35,.46-3.09Zm-21.05-45.98c.25-1.69-1.04-2.54-2.03-3.74,.02,1.6,.56,2.54,2.03,3.74Zm22.97,46.67c-.2,.51-.69,.8-.61,1.26,.14,.75,.41,1.48,.64,2.27,1.02-1.15,1.01-1.67-.03-3.53Zm-29.48-45.06c-.33-1.15,.01-2.47-1.28-3.24-.1,.3-.21,.56-.28,.83-.07,.27-.32,.56-.07,.82,.5,.53,1.04,1.02,1.63,1.59Zm1.1-11.03c-.1,1.76,1.36,2.19,2.11,3.34,.07-1.71-1.21-2.27-2.11-3.34Zm2.86,2.92c-.11,1.66,1.19,2.35,1.99,3.44,.15-1.69-1.04-2.44-1.99-3.44Zm-40.4-19.53c.98-1.06,1.93-2.09,2.87-3.13,.21-.24,.17-.55,.13-.99-1.07,1.15-2,2.23-2.87,3.36-.14,.18-.22,.44-.13,.76Zm-8.86,8.68c-1.31,1.48-1.64,2.37-1.35,3.48,.86-.97,1.5-2.03,1.35-3.48Zm-1.77,6.05c1.05-1.59,2.07-3.14,3.08-4.69,.09-.13,.14-.32-.03-.57-1,1.47-1.99,2.9-2.95,4.35-.15,.22-.26,.52-.1,.9h0Zm19.17-27.22c-.43,1.05-.12,1.84,.37,2.59,.1,.15,.12,.53,.44,.29,.22-.17,.61-.32,.38-.74-.37-.68-.75-1.36-1.19-2.15h0Zm24.01,44.4c-.74,1.52-.52,2.48,.71,3.54-.24-1.17-.46-2.27-.71-3.54Zm5.18-17.45c-.39,1.12,.03,1.86,1.39,2.61,0-1.09-.63-1.84-1.39-2.61Zm-10.41,33.28c-.06-.93,.03-1.87-.36-2.79-.63,.86-.64,1.64-.03,2.35,.13,.15,.26,.29,.39,.44Zm37.75,25.24c.79-.94,.79-1.38,0-2.5-.69,.79-.69,1.23,0,2.5Zm-.81-2.58c.65-.8,.6-1.34-.29-2.67-.22,.19-.55,.48-.43,.68,.37,.62,.36,1.37,.72,1.99h0ZM73.11,53.59c.57,.88,1.07,1.78,1.55,2.68,.06,.11,.09,.36,.31,.23,.16-.09,.43-.22,.27-.45-.62-.9-1.01-2.01-2.14-2.46h.01Zm-15.71,19.87c-.87,.83-.94,1-1.1,2.93,.78-.81,1.3-1.7,1.1-2.93Zm47.04,10.88c-.07,1.37,1.14,1.84,1.82,2.68-.14-1.21-1.16-1.82-1.82-2.68Zm-43.73-12.83s.1,.08,.15,.12c.93-1.16,1.87-2.31,2.8-3.47,.12-.16,.12-.34-.02-.65-.89,1.49-2.11,2.61-2.93,4.01h0Zm.36-1.69c.75-.71,1.23-1.47,1.15-2.52-.85,.61-1.18,1.44-1.15,2.52Zm-3.23,5.61c.07,.05,.15,.1,.22,.15,.69-1,1.39-1.99,2.08-2.99-.07-.05-.14-.09-.21-.14-.7,.99-1.47,1.93-2.1,2.98h0Zm49.29,12.05c.04,.82,.59,1.13,.97,1.6,.53-1.1-.38-1.17-.97-1.6Zm-5.38-.53c-.03-.57-.08-1.1-.32-1.66-.5,.99-.47,1.13,.32,1.66Zm-29.42-28.11c.88-.52,.91-.69,.24-1.36-.08,.46-.15,.88-.24,1.36Zm35.67,32.43c.06-.58,.38-1.25-.45-1.63,.12,.58,.12,1.15,.45,1.63Z"/>
  <path d="M111.97,119.92c.25,1.48,.78,2.89,1.13,4.35,.25,1.05,.54,2.08,.8,3.13,.15,.59,.22,1.18,.02,1.87-.3-.31-.37-.65-.46-.97-.68-2.51-1.34-5.02-2.03-7.53-.14-.49-.35-.97-.5-1.46-.07-.22-.2-.52,.09-.67,.34-.17,.46,.13,.58,.37,.04,.07,.13,.12,.19,.18,.06,.24,.11,.49,.17,.73h.01Z"/>
  <path d="M64.83,142.5c-.09,.73-.46,1.2-.87,1.64-1.93,2.04-4.03,3.89-6.23,5.64-4.33,3.43-9.1,6.24-13.56,9.49-1.6,1.16-3.15,2.38-4.68,3.63-.16,.13-.31,.26-.48,.37-.16,.11-.34,.15-.48-.03-.12-.16-.02-.3,.11-.41,.13-.12,.27-.23,.41-.35,3.94-3.32,8.24-6.13,12.49-9.01,4.43-3,8.71-6.19,12.33-10.17,.25-.28,.53-.55,.98-.78l-.02-.02Z"/>
  <path d="M41.33,123.28c-.11-.67-.02-1.2,.07-1.71,1.18-7,2.71-13.9,5.65-20.41,1.47-3.24,3.33-6.25,5.48-9.08,.07-.09,.13-.18,.21-.26,.16-.17,.32-.47,.59-.22,.23,.21,0,.42-.14,.58-.97,1.13-1.74,2.39-2.54,3.64-3.29,5.09-5.28,10.71-6.74,16.54-.74,2.98-1.36,5.98-1.89,9.01-.11,.62-.23,1.25-.7,1.91h0Z"/>
  <path d="M76.87,105.86c-.33,2.02-.71,4.02-1.18,6.01-1.68,7.09-3.38,14.18-5.37,21.19-.1,.36-.17,.75-.4,1.07-.09,.13-.2,.28-.38,.2-.2-.08-.14-.27-.11-.41,.18-.72,.38-1.43,.57-2.14,2.09-7.52,3.95-15.1,5.66-22.71,.24-1.07,.41-2.16,.62-3.24,.04-.2,.1-.43,.37-.39,.22,.03,.24,.23,.21,.42h0Z"/>
  <path d="M44.43,132.79c.03-.5,.27-.75,.49-1,6.2-7,12.24-14.15,18.91-20.73,.06-.06,.12-.13,.19-.19,.19-.16,.37-.52,.65-.23,.27,.28-.07,.48-.25,.66-2.83,2.88-5.66,5.76-8.35,8.77-3.34,3.75-6.65,7.53-9.99,11.29-.46,.52-.86,1.14-1.66,1.42h0Z"/>
  <path d="M93.15,97.53c.01-.65,.17-1.12,.32-1.58,1.59-4.9,3.31-9.77,4.55-14.78,.9-3.63,1.31-7.33,1.4-11.06v-.2c.02-.23-.06-.57,.31-.55,.3,.02,.25,.32,.25,.54-.03,1.86-.16,3.72-.35,5.58-.59,5.83-2.55,11.31-4.32,16.84-.41,1.28-.84,2.56-1.27,3.83-.16,.48-.34,.96-.89,1.39h0Z"/>
  <path d="M62.29,87.27c.26-.57,.66-1.04,1.08-1.48,3.59-3.79,7.47-7.26,11.41-10.67,2.72-2.35,5.55-4.57,8.38-6.77,.24-.18,.55-.65,.83-.3,.3,.37-.23,.55-.47,.73-6.74,5.21-13.19,10.75-19.19,16.81-.62,.63-1.25,1.26-2.05,1.68h.01Z"/>
  <path d="M37.23,156.13c-.03-.35,.17-.6,.32-.86,3.73-6.86,7.87-13.47,12.05-20.05,.12-.2,.22-.55,.52-.39,.34,.18,.1,.48-.03,.69-1.38,2.2-2.76,4.41-4.16,6.6-2.66,4.16-5.07,8.46-7.47,12.76-.56,1-.63,1.04-1.23,1.25Z"/>
  <path d="M77.55,59.11c.96-1.12,2.12-2,3.22-2.95,4.3-3.71,8.74-7.26,12.94-11.07,.85-.77,1.64-1.59,2.48-2.38,.19-.18,.4-.59,.69-.26,.27,.3-.13,.51-.32,.69-2.97,2.97-6.21,5.65-9.41,8.36-2.55,2.16-5.1,4.32-7.66,6.48-.58,.49-1.16,.97-1.95,1.13h0Z"/>
  <path d="M78.58,122.61c-.06-.96,.2-1.78,.3-2.61,.47-3.9,.97-7.79,1.43-11.69,.31-2.63,.69-5.25,.82-7.9,.01-.2,.01-.46,.27-.46,.32,0,.29,.29,.28,.5-.02,1.46-.21,2.91-.37,4.36-.51,4.39-1.03,8.78-1.56,13.17-.15,1.22-.23,2.46-.61,3.64-.11,.33-.24,.66-.56,.99Z"/>
  <path d="M47.39,154.95c-.23,.03-.25-.11-.24-.25,0-.28,.15-.51,.27-.75,2.46-5.18,5.26-10.2,7.88-15.3,.24-.46,.46-.92,.71-1.37,.12-.22,.22-.6,.55-.44,.35,.16,.12,.47,0,.7-.26,.54-.54,1.08-.82,1.62-2.61,5.06-5.38,10.03-7.83,15.17-.12,.26-.24,.54-.53,.63h.01Z"/>
  <path d="M79.05,125.4c-.1,.76-.42,1.35-.8,1.89-3.15,4.45-6.36,8.87-9.92,13.01-.1,.12-.21,.24-.32,.34-.14,.13-.3,.2-.48,.06-.14-.11-.17-.27-.09-.42,.1-.22,.18-.52,.36-.63,1.09-.69,1.74-1.79,2.51-2.77,2.59-3.3,5.12-6.65,7.51-10.11,.34-.49,.66-1,1.24-1.37h-.01Z"/>
  <path d="M56.98,107.6c-.24,.75-.63,1.21-1.04,1.64-3.76,3.88-7.5,7.8-11.39,11.55-.23,.22-.46,.42-.71,.62-.15,.12-.32,.18-.48,.02-.17-.17-.07-.33,.06-.47,.05-.05,.1-.09,.15-.14,4.08-3.86,7.92-7.94,11.84-11.95,.44-.45,.89-.88,1.57-1.27Z"/>
  <path d="M62.02,75.82c.22-.65,.55-1.04,.88-1.43,3.74-4.42,7.68-8.67,11.79-12.74,.33-.33,.7-.62,1.07-.92,.14-.11,.33-.22,.48-.05,.19,.21,0,.36-.15,.5-3.22,2.97-6.16,6.22-9.1,9.45-1.19,1.31-2.34,2.66-3.51,3.99-.39,.43-.8,.84-1.45,1.21h-.01Z"/>
  <path d="M39.11,147.23c0-.88-.03-1.77,0-2.65,.16-4.35,.34-8.69,.53-13.03,.03-.74,.13-1.47,.21-2.21,.03-.22,.1-.49,.4-.42,.25,.06,.2,.31,.19,.51-.45,5.18-.46,10.39-.71,15.58-.04,.77-.19,1.53-.62,2.21h0Z"/>
  <path d="M61.78,78.5c.4-.43,.77-.87,1.19-1.27,4.15-3.98,8.11-8.14,12.18-12.2,.03-.03,.06-.07,.1-.09,.18-.15,.35-.46,.6-.19,.23,.25-.05,.45-.21,.61-3.67,3.63-7.18,7.42-10.93,10.97-.88,.83-1.8,1.62-2.92,2.17h0Z"/>
  <path d="M99.75,65.6c-.25-.31-.17-.64-.16-.94,.11-3.41,.34-6.81,.6-10.2,.17-2.19,.38-4.38,.57-6.56,0-.11,.02-.22,.04-.33,.03-.19,.09-.37,.32-.35,.24,.02,.25,.24,.23,.42-.06,.87-.13,1.74-.21,2.61-.4,4.38-.7,8.76-.91,13.15-.04,.75-.06,1.51-.48,2.21h0Z"/>
  <path d="M37.68,159.11c-.11-.35,.1-.59,.24-.82,2.74-4.55,5.48-9.1,8.23-13.65,.16-.27,.28-.85,.71-.58,.35,.22-.06,.6-.22,.86-2.62,4.39-5.25,8.77-7.89,13.15-.26,.43-.48,.92-1.07,1.04h0Z"/>
  <path d="M68.78,124.19c-.13-.56,.03-1.01,.13-1.46,1.15-5.14,2.18-10.29,2.73-15.54,.01-.11,.02-.22,.03-.33,.02-.18,.05-.38,.29-.37,.24,0,.27,.21,.26,.39-.04,.63-.08,1.25-.16,1.87-.66,4.73-1.53,9.41-2.6,14.06-.11,.47-.24,.95-.67,1.38h-.01Z"/>
  <path d="M87.89,107.35c-.08-.95,.16-1.75,.27-2.56,.54-4.25,.97-8.52,1.21-12.8,.02-.29,.04-.58,.07-.87,.02-.18,.04-.4,.27-.4,.28,0,.29,.24,.28,.44-.05,1.03-.08,2.06-.17,3.09-.29,3.47-.59,6.93-1.05,10.38-.12,.91-.2,1.86-.89,2.71h.01Z"/>
  <path d="M81.07,97.7c-.05-1.25,.22-2.45,.37-3.67,.49-4.06,.95-8.11,1.28-12.19,0-.09,0-.18,.01-.27,.01-.21,.06-.44,.33-.41,.22,.03,.23,.25,.22,.43-.05,.9-.09,1.79-.18,2.69-.4,3.86-.77,7.73-1.33,11.57-.1,.66-.23,1.31-.71,1.85h0Z"/>
  <path d="M38.17,161.4c-.12-.36,.11-.6,.28-.85,2.49-3.73,4.81-7.57,7.04-11.46,.07-.12,.13-.24,.21-.34,.1-.13,.22-.25,.39-.15s.14,.27,.09,.42c-.05,.12-.11,.24-.18,.36-2.17,3.8-4.44,7.53-6.85,11.18-.42,.64-.44,.64-.98,.85h0Z"/>
  <path d="M50.06,100.53c.5-.78,1-1.29,1.49-1.81,2.27-2.42,4.53-4.84,6.81-7.25,.34-.36,.47-.87,.93-1.12,.18-.1,.34-.26,.54-.08,.22,.21,.09,.41-.06,.59-.47,.51-.94,1.02-1.42,1.53-2.03,2.18-4.07,4.36-6.11,6.53-.58,.62-1.21,1.18-2.18,1.63v-.02Z"/>
  <path d="M91.43,80.15c-.27-.21-.29-.5-.34-.78-.12-.76-.1-1.52-.1-2.28-.01-3.14-.02-6.28-.02-9.41,0-.18,0-.36,.01-.54,.01-.17,.09-.31,.27-.33,.2-.02,.28,.13,.31,.29,.03,.17,.03,.36,.03,.54,.02,3.79,.03,7.58,.04,11.36,0,.38,.09,.8-.2,1.16h0Z"/>
  <path d="M54.61,125.05c-.08-.55,.27-.9,.53-1.26,1.95-2.64,4.13-5.08,6.31-7.53,.4-.45,.82-.89,1.24-1.33,.16-.17,.36-.46,.61-.21,.24,.24-.03,.44-.19,.62-1.98,2.11-3.88,4.29-5.72,6.53-.64,.78-1.24,1.59-1.86,2.39-.24,.31-.45,.67-.91,.8h-.01Z"/>
  <path d="M96.21,78.44c-.2-.57-.25-1.03-.25-1.5,0-3.39-.11-6.78-.27-10.17,0-.18-.02-.36,0-.54,0-.15,.1-.25,.25-.27,.16-.02,.26,.08,.31,.21,.05,.15,.07,.31,.08,.46,.14,3.34,.28,6.69,.27,10.03,0,.56-.04,1.12-.38,1.77h-.01Z"/>
  <path d="M61.97,103.84c.33-.61,.75-1.01,1.16-1.41,2.67-2.63,5.27-5.32,7.7-8.17,.15-.18,.32-.48,.59-.24,.26,.23,0,.45-.16,.63-2.5,2.91-5.11,5.72-7.92,8.33-.37,.34-.78,.64-1.37,.86Z"/>
  <path d="M53.38,88.39c.21-.76,.57-1.27,.96-1.76,1.79-2.22,3.63-4.4,5.58-6.48,.06-.07,.12-.14,.19-.19,.25-.19,.48-.66,.82-.34,.37,.35-.11,.58-.32,.8-1.93,2.04-3.74,4.19-5.51,6.36-.47,.57-.94,1.14-1.71,1.61h0Z"/>
  <path d="M53.54,104.14c-.23,.55-.51,.92-.84,1.23-2.29,2.14-4.6,4.26-6.9,6.39-.16,.15-.37,.35-.57,.1-.2-.24,.03-.41,.19-.56,.93-.87,1.87-1.74,2.81-2.6,1.27-1.17,2.54-2.33,3.81-3.5,.42-.38,.84-.78,1.5-1.06Z"/>
  <path d="M50.85,150.9c-.29-.04-.4-.2-.22-.46,1.71-2.56,2.93-5.39,4.47-8.05,.12-.21,.27-.49,.56-.3,.24,.16,.08,.41-.03,.6-1.39,2.48-2.61,5.06-4.09,7.49-.17,.28-.32,.6-.69,.71h0Z"/>
  <path d="M42.76,158.3c-.07-.36,.09-.62,.23-.87,1.35-2.5,2.7-5,4.06-7.49,.15-.27,.28-.78,.67-.58,.43,.23,0,.58-.13,.84-1.24,2.33-2.5,4.65-3.76,6.97-.24,.45-.49,.91-1.07,1.12h0Z"/>
  <path d="M72.5,129.05c.28-1.33,.58-2.66,.83-4,.29-1.54,.54-3.09,.81-4.63,0-.04,.01-.09,.03-.13,.08-.24,.03-.63,.42-.55,.31,.06,.24,.38,.2,.62-.14,.88-.28,1.77-.44,2.65-.28,1.57-.51,3.14-.93,4.68-.14,.54-.34,1.05-.93,1.36h.01Z"/>
  <path d="M65.24,125.96c-.06-.61,.11-1.08,.23-1.54,.63-2.54,1.27-5.08,1.91-7.62,.05-.2,.1-.39,.16-.58,.06-.17,.14-.36,.37-.31,.22,.05,.24,.24,.2,.43-.02,.09-.05,.17-.07,.26-.59,2.34-1.18,4.69-1.78,7.03-.21,.79-.46,1.58-1.02,2.34h0Z"/>
  <path d="M86.42,107.97c-.19-.86,.03-1.59,.11-2.34,.19-1.98,.39-3.96,.61-5.94,.03-.27-.06-.75,.42-.67,.38,.06,.26,.46,.23,.74-.25,2.31-.5,4.63-.75,6.94-.05,.45-.17,.88-.62,1.27Z"/>
  <path d="M76.83,71.97c.1-.34,.3-.49,.5-.63,2.02-1.49,3.91-3.15,5.81-4.78,.1-.09,.2-.18,.31-.25,.21-.14,.44-.47,.68-.17s-.13,.47-.32,.62c-1.83,1.52-3.66,3.03-5.5,4.53-.41,.33-.84,.68-1.48,.68Z"/>
  <path d="M77.54,69.08c.8-.94,1.66-1.5,2.48-2.06,1.37-.93,2.69-1.94,4.08-2.84,.15-.1,.3-.2,.46-.28,.15-.08,.32-.09,.41,.08,.08,.13,0,.26-.1,.36-.08,.08-.17,.14-.27,.2-1.7,1.2-3.4,2.41-5.1,3.61-.54,.38-1.11,.73-1.96,.93h0Z"/>
  <path d="M68.11,120.94c-.15-.46,.02-.85,.11-1.22,.47-1.94,.83-3.9,1.2-5.86,.02-.11,.05-.22,.08-.33,.05-.22,.09-.5,.39-.43s.2,.36,.16,.57c-.38,2-.72,4.01-1.23,5.99-.12,.47-.29,.93-.72,1.28h.01Z"/>
  <path d="M69.65,90.86c.17-.43,.42-.66,.66-.89,1.53-1.51,3.07-3.02,4.61-4.52,.18-.17,.38-.52,.65-.23,.25,.27-.08,.48-.26,.66-1.45,1.43-2.91,2.86-4.37,4.29-.34,.33-.7,.61-1.29,.7h0Z"/>
  <path d="M47.87,119.46c-.12,.52-.41,.83-.71,1.11-1.38,1.28-2.78,2.54-4.17,3.8-.18,.16-.4,.4-.63,.12-.21-.26,.04-.43,.23-.6,1.35-1.21,2.7-2.43,4.05-3.64,.34-.31,.69-.61,1.23-.8h0Z"/>
  <path d="M56.7,143.29c.18,.04,.28,.16,.23,.34-.05,.19-.15,.37-.24,.55-.82,1.59-1.64,3.18-2.46,4.77-.07,.14-.14,.28-.24,.4-.1,.13-.23,.24-.4,.13-.14-.08-.11-.23-.08-.36,.02-.09,.06-.17,.1-.25,.84-1.78,1.75-3.53,2.7-5.25,.09-.16,.17-.32,.39-.33Z"/>
  <path d="M78.27,98.38c.16-1.44,.33-2.82,.48-4.2,.09-.8,.15-1.61,.23-2.41,.02-.23-.06-.57,.31-.55,.3,.01,.28,.32,.26,.53-.11,1.97-.33,3.93-.63,5.88-.05,.3-.15,.61-.64,.75h-.01Z"/>
  <path d="M80.37,89.74v-1c0-.18,.03-.38,.26-.41,.27-.03,.35,.18,.35,.39,0,.58,.02,1.17-.03,1.74-.09,1.11-.21,2.23-.33,3.34-.02,.15-.04,.31-.1,.46-.08,.21-.17,.49-.42,.45-.32-.05-.19-.37-.16-.56,.23-1.42,.31-2.85,.43-4.42h0Z"/>
  <path d="M98.03,71.83c-.29-.3-.27-.67-.27-1.02-.01-1.48,0-2.95,0-4.43,0-.15,.02-.31,.05-.46,.03-.14,.13-.24,.29-.22,.16,.01,.24,.12,.26,.26,.02,.13,.02,.27,.02,.4,0,1.48,0,2.95-.01,4.43,0,.37,0,.76-.34,1.04Z"/>
  <path d="M67.8,95.36c-.03-.29,.19-.45,.35-.62,1.32-1.34,2.67-2.65,3.92-4.06,.14-.15,.28-.36,.5-.2,.25,.19,.08,.41-.06,.58-1.26,1.43-2.6,2.78-3.98,4.1-.19,.18-.42,.35-.73,.2Z"/>
  <path d="M82.09,117.39c-.16,1.2-.32,2.4-.49,3.59-.03,.2-.09,.39-.17,.58-.11,.24-.25,.6-.53,.51-.33-.11-.12-.45-.06-.69,.31-1.45,.5-2.91,.55-4.39,0-.25-.05-.55,.29-.57,.38-.03,.38,.29,.39,.57v.4h.02Z"/>
  <path d="M96.27,62.68c-.37-.18-.43-.48-.43-.76v-5.46c0-.22,.02-.5,.32-.5,.25,0,.28,.25,.28,.46-.02,1.91-.03,3.82-.06,5.72,0,.16-.07,.33-.12,.53h.01Z"/>
  <path d="M50.64,109.31c-.11,.54-.39,.89-.72,1.18-1.04,.92-2.09,1.82-3.14,2.73-.2,.17-.44,.44-.69,.16-.26-.3,.09-.47,.28-.63,1.09-.96,2.19-1.91,3.29-2.86,.27-.23,.54-.46,.98-.58Z"/>
  <path d="M90.09,102.74c-.16-.22-.13-.4-.11-.58,.18-1.64,.37-3.28,.56-4.93,.03-.23,.01-.58,.36-.52,.33,.06,.21,.39,.19,.62-.13,1.4-.26,2.8-.42,4.2-.05,.43-.14,.88-.57,1.21h-.01Z"/>
  <path d="M42.33,144.47c-.1-.39,.11-.64,.27-.89,.81-1.26,1.64-2.51,2.46-3.76,.12-.18,.24-.45,.51-.28,.21,.13,.12,.36,0,.54-.81,1.31-1.6,2.64-2.57,3.85-.18,.22-.38,.43-.68,.54h.01Z"/>
  <path d="M42.23,142.36c-.16-.02-.19-.13-.14-.24,.09-.23,.17-.47,.31-.67,.7-1.04,1.42-2.07,2.14-3.09,.14-.2,.31-.55,.62-.29,.26,.21,0,.44-.14,.64-.7,1.01-1.4,2.03-2.11,3.03-.18,.26-.37,.51-.68,.62Z"/>
  <path d="M89.02,78.05c-.33-.26-.36-.58-.39-.88-.13-1.18-.07-2.37,0-3.55,.01-.2,.05-.43,.31-.44,.23-.02,.31,.17,.31,.36-.02,1.39-.04,2.77-.07,4.16,0,.1-.08,.21-.14,.37l-.02-.02Z"/>
  <path d="M97.48,64.42c-.28-.26-.31-.59-.31-.92,0-1.14,0-2.28,.02-3.42,0-.25-.04-.63,.33-.62,.37,.02,.28,.39,.28,.65-.01,1.1-.02,2.19-.06,3.29-.01,.34,.04,.72-.25,1.03h-.01Z"/>
  <path d="M57.99,122.89c.16-.46,.43-.8,.7-1.13,.66-.78,1.32-1.57,1.91-2.42,.11-.15,.24-.3,.44-.19,.21,.11,.17,.32,.07,.47-.84,1.18-1.63,2.4-2.87,3.23-.05,.03-.12,.02-.25,.04Z"/>
  <path d="M85.72,114.12c-.21-.82,.04-1.6,.03-2.38,0-.51,.07-1.03,.1-1.54,.02-.2,.1-.36,.31-.37,.14,0,.29,.1,.28,.24-.1,1.32,.18,2.7-.55,3.93-.02,.03-.07,.05-.18,.12h.01Z"/>
  <path d="M96.91,55.08c.02-.38,.03-.85,.07-1.32,.01-.16,.09-.32,.28-.32s.28,.14,.28,.31c-.01,.9,.06,1.8-.08,2.69-.03,.19-.09,.45-.35,.4-.19-.04-.19-.28-.19-.46v-1.3h0Z"/>
  <path d="M90,75.21c-.35-.55-.37-1.07-.27-1.62,.02-.13,.08-.27,.25-.25,.16,.01,.22,.16,.24,.28,.08,.52,.08,1.04-.22,1.59Z"/>
  <path d="M26.51,73c.25-.42,.55-.69,.87-.92,5.55-3.97,11.05-8.01,16.89-11.55,.28-.17,.68-.67,.95-.21,.24,.4-.37,.52-.64,.69-5.61,3.48-10.95,7.36-16.33,11.18-.5,.36-1,.75-1.74,.8h0Z"/>
  <path d="M11.09,100.86c-.28-.61-.12-1.15,.04-1.65,2.01-6.33,4.23-12.58,7.36-18.47,.16-.29,.28-.93,.72-.68,.46,.26-.07,.67-.22,.96-2.49,4.64-4.27,9.58-6.04,14.52-.49,1.37-.9,2.77-1.35,4.16-.12,.38-.22,.78-.51,1.16Z"/>
  <path d="M26.91,70.29c.32-.73,.72-1.23,1.13-1.72,4.2-4.98,8.75-9.62,13.51-14.07,.17-.16,.37-.46,.61-.17s-.08,.49-.27,.66c-3.07,2.92-6.09,5.91-8.96,9.02-1.4,1.52-2.75,3.08-4.13,4.61-.53,.59-1.05,1.19-1.89,1.67Z"/>
  <path d="M13.33,102.57c.33-.57,.78-.88,1.21-1.19,3.1-2.26,6.16-4.57,9.01-7.15,.18-.16,.37-.42,.62-.14,.19,.22-.01,.41-.17,.58-.14,.15-.28,.29-.43,.42-2.73,2.4-5.61,4.63-8.56,6.74-.47,.34-.98,.62-1.67,.74h0Z"/>
  <path d="M13.78,115.26c.27-.32,.54-.66,.83-.97,2.54-2.68,5.09-5.36,7.64-8.04,.09-.1,.18-.2,.28-.29,.17-.15,.35-.45,.6-.19,.24,.25-.03,.45-.2,.62-2.48,2.62-4.96,5.24-7.45,7.85-.46,.48-.96,.92-1.71,1.02h0Z"/>
  <path d="M23.05,108.18c.06-.66,.26-1.1,.52-1.52,1.72-2.79,3.45-5.57,5.17-8.35,.06-.1,.12-.19,.19-.28,.15-.19,.3-.49,.58-.28,.28,.2,.04,.44-.09,.64-1.76,2.84-3.52,5.68-5.29,8.52-.27,.43-.55,.86-1.08,1.27Z"/>
  <path d="M7.06,115.76c-.11-.73,0-1.31,.17-1.87,.82-2.91,1.53-5.84,2.24-8.77,.08-.35,.05-1.01,.57-.88,.5,.13,.11,.67,.03,.99-.7,2.96-1.39,5.92-2.25,8.84-.16,.55-.34,1.1-.75,1.7h0Z"/>
  <path d="M15.04,120.23c-.57,.56-1.18,.7-1.79,.85-3,.75-6.03,1.35-8.94,2.42-.19,.07-.43,.15-.52-.11-.1-.28,.15-.39,.35-.48,1.18-.51,2.42-.82,3.65-1.13,2-.5,4-.98,6-1.48,.37-.09,.74-.11,1.24-.08h0Z"/>
  <path d="M25.3,78.7c.3-.47,.69-.73,1.07-.98,2.59-1.74,5.23-3.39,7.9-4.99,.1-.06,.19-.12,.3-.16,.17-.07,.36-.11,.47,.1,.09,.17,0,.3-.14,.4-.09,.07-.19,.12-.28,.18-2.37,1.49-4.75,2.97-7.12,4.46-.66,.41-1.33,.81-2.19,.99h-.01Z"/>
  <path d="M27.43,114.56c0-.52,.21-.89,.43-1.25,1.27-2.06,2.46-4.17,3.56-6.33,.07-.14,.15-.27,.25-.4,.07-.1,.19-.13,.3-.09,.15,.05,.23,.18,.19,.32-.05,.19-.13,.38-.22,.56-1.06,2.08-2.2,4.11-3.43,6.1-.26,.42-.54,.83-1.09,1.1h.01Z"/>
  <path d="M19.06,91.92c.24-.48,.57-.78,.92-1.06,1.89-1.55,3.79-3.08,5.68-4.62,.1-.08,.21-.16,.32-.24,.19-.13,.41-.26,.59-.02,.15,.22-.05,.37-.2,.5-2.02,1.63-4.04,3.27-6.07,4.89-.33,.26-.7,.48-1.24,.56h0Z"/>
  <path d="M47.78,49.49c.19-.54,.54-.82,.89-1.09,1.85-1.46,3.77-2.8,5.74-4.09,.13-.08,.27-.16,.41-.22,.13-.05,.28-.04,.36,.09,.11,.15,.05,.3-.09,.41-.07,.06-.14,.11-.22,.15-1.96,1.26-3.85,2.62-5.7,4.02-.39,.3-.81,.55-1.4,.72h.01Z"/>
  <path d="M42.61,59.97c.38-.53,.88-.85,1.37-1.16,1.78-1.13,3.57-2.25,5.35-3.38,.11-.07,.23-.14,.35-.2,.17-.09,.35-.15,.48,.04,.14,.19,0,.33-.14,.45-.08,.07-.18,.13-.28,.19-1.73,1.09-3.45,2.18-5.19,3.26-.58,.37-1.19,.7-1.94,.8Z"/>
  <path d="M36.18,74.1c.18-.37,.47-.59,.77-.77,1.15-.7,2.31-1.38,3.48-2.05,.2-.12,.47-.31,.64,0,.15,.27-.13,.39-.31,.5-1.14,.67-2.28,1.34-3.43,1.99-.34,.19-.69,.41-1.14,.34h0Z"/>
  <path d="M9.95,119.9c.12-.57,.5-.9,.82-1.26,.51-.57,1.02-1.13,1.54-1.69,.14-.15,.32-.27,.53-.11,.15,.12,.15,.3,.04,.42-.87,.92-1.53,2.06-2.73,2.63-.03,.02-.08,0-.2,0h0Z"/>
  <path d="M128.75,165.2c-.6,.04-1.02-.16-1.41-.36-9.07-4.65-18.11-9.32-26.19-15.63-.95-.74-1.87-1.55-2.79-2.33-.18-.15-.46-.34-.25-.6,.22-.27,.44,0,.62,.14,5.89,5.13,12.51,9.16,19.35,12.87,2.96,1.6,5.94,3.15,8.92,4.72,.59,.31,1.18,.62,1.75,1.19h0Z"/>
  <path d="M117.35,144.67c-.6-.65-.82-1.42-1-2.2-.82-3.47-1.63-6.94-2.43-10.41-.07-.31-.35-.84,.13-.92,.46-.08,.4,.5,.47,.82,.88,3.75,1.75,7.51,2.62,11.27,.11,.47,.14,.97,.21,1.45h0Z"/>
  <path d="M107.77,106.76c-.47-1.12-.51-2.18-.72-3.21-.38-1.93-.72-3.88-1.08-5.82-.02-.11-.04-.22-.05-.33-.01-.21,0-.44,.26-.46,.26-.03,.33,.18,.37,.39,.17,.93,.33,1.85,.5,2.78,.27,1.45,.55,2.91,.8,4.36,.12,.7,.19,1.42-.1,2.29h.02Z"/>
  <path d="M125.1,161.2c-.73-.11-1.24-.34-1.73-.58-2.15-1.06-4.27-2.17-6.31-3.42-.17-.1-.34-.21-.51-.33-.18-.13-.41-.3-.23-.54,.18-.25,.4-.07,.59,.05,2.01,1.3,4.16,2.37,6.28,3.48,.65,.34,1.29,.71,1.92,1.34h0Z"/>
  <path d="M136.91,168.77c-.51,.13-.87,.07-1.23-.05-1.5-.51-3.01-1.02-4.51-1.53-.13-.04-.25-.1-.37-.16-.15-.08-.26-.21-.2-.38,.07-.21,.27-.25,.44-.19,1.79,.63,3.59,1.26,5.37,1.91,.16,.06,.27,.22,.5,.41h0Z"/>
  <path d="M109.1,111.62c-.06,.32-.01,.68-.28,.71-.28,.03-.31-.33-.36-.55-.23-1.02-.44-2.05-.66-3.07-.05-.23-.08-.48,.21-.55,.24-.06,.37,.14,.42,.34,.24,1.07,.46,2.13,.68,3.12h0Z"/>
  <path d="M130.75,163.04c.37-.85,1.16-1.33,1.69-2.03,.09-.11,.23-.15,.35-.05,.12,.1,.11,.26,.04,.37-.52,.78-1.14,1.43-2.07,1.71h0Z"/>
  <path d="M111.57,108.56c-.33-.74-.41-1.49-.5-2.22-.53-4.38-.54-8.78-.37-13.18,.15-4.04,.52-8.06,1.55-11.99,.53-2,1.17-3.96,1.93-5.87,.07-.17,.15-.33,.24-.48,.08-.12,.2-.18,.35-.13,.15,.06,.19,.2,.16,.33-.03,.17-.09,.35-.16,.51-2.12,5.19-3.12,10.6-3.37,16.18-.17,3.86-.22,7.72,.02,11.58,.09,1.52,.34,3.04,.27,4.57,0,.21,.06,.44-.12,.7h0Z"/>
  <path d="M123.48,122.84c-.14-.43-.06-.72,.05-1.03,1.59-4.41,3.24-8.79,4.67-13.26,.72-2.24,1.36-4.51,1.97-6.78,.06-.22,.1-.44,.18-.65,.05-.15,.14-.31,.34-.27,.22,.05,.26,.23,.21,.42-.17,.7-.34,1.39-.53,2.09-1.66,6.25-3.93,12.3-6.16,18.36-.14,.39-.32,.78-.73,1.11h0Z"/>
  <path d="M118.08,65c-.12-.96,.11-1.7,.32-2.45,1.3-4.48,2.94-8.84,4.41-13.25,.16-.47,.28-.94,.43-1.41,.06-.18,.14-.35,.37-.31,.23,.04,.25,.24,.22,.42-.07,.33-.15,.66-.25,.97-1.37,4.28-2.98,8.49-4.28,12.8-.32,1.05-.56,2.12-1.22,3.23Z"/>
  <path d="M128.51,61.29c-.49-.41-.73-.87-.9-1.34-.77-2.2-1.74-4.31-2.79-6.39-.07-.14-.12-.29-.16-.44-.04-.17,.02-.32,.2-.38,.14-.05,.26,0,.36,.12,.04,.05,.08,.11,.11,.17,1.25,2.57,2.62,5.1,3.17,7.95,0,.06,0,.13,0,.32h.01Z"/>
  <path d="M119.93,130.62c-.53-.29-.75-.69-.94-1.09-1.18-2.56-2.27-5.16-3.16-7.84-.06-.17-.1-.34-.13-.52-.04-.16-.02-.33,.15-.4,.22-.08,.34,.08,.39,.26,.91,3.17,2.32,6.14,3.61,9.17,.04,.1,.04,.21,.08,.42h0Z"/>
  <path d="M132.62,75.51c-.54-.68-.74-1.35-.9-2.02-.37-1.62-.89-3.19-1.54-4.72-.11-.25-.26-.53,.09-.69,.29-.13,.46,.09,.56,.33,.86,2.07,1.61,4.18,1.83,6.43,.02,.17-.02,.34-.05,.66h0Z"/>
  <path d="M114.74,118.24c-.42-.28-.62-.66-.76-1.06-.7-1.87-1.19-3.79-1.65-5.73-.05-.23-.12-.48,.19-.55,.26-.06,.33,.19,.37,.38,.48,2.16,1.12,4.28,1.84,6.38,.06,.17,.1,.34,.02,.58h0Z"/>
  <path d="M124.24,125.15c-.08-.57,.06-1,.22-1.41,.61-1.57,1.22-3.13,1.83-4.69,.05-.12,.1-.25,.17-.37,.08-.14,.21-.25,.39-.18,.17,.08,.2,.23,.15,.4-.03,.11-.07,.21-.11,.32-.62,1.58-1.24,3.17-1.86,4.75-.16,.41-.35,.81-.78,1.18h-.01Z"/>
</svg>