<?xml version="1.0" encoding="UTF-8"?>
<svg id="Lag_1" data-name="Lag 1" xmlns="http://www.w3.org/2000/svg" viewBox="0 0 827.44 1143.46">
  <defs>
    <style>
      .cls-1 {
        font-family: EuphemiaUCAS, 'Euphemia UCAS';
        font-size: 19px;
      }

      .cls-1, .cls-2 {
        fill: #fff;
      }
    </style>
  </defs>
  <g>
    <g>
      <path class="cls-2" d="M279.06,116.51v58.18h-103.29v-58.18h34.51v21.43c0,10.9,3.96,19.73,16.89,19.73h.47c12.93,0,15.26-8.83,15.26-19.73v-21.43h36.16Z"/>
      <g>
        <path class="cls-2" d="M254.75,80.84l-13.1,14.69s-2.61-2.59-2.65-6.42c-.02-1.26,.24-2.65,.96-4.13,2.33-4.8,7.04-9.42,7.04-9.42l-1.69-10.96-10.62-10.58-10.55,.02-29.14-14.62v-.02l-18.35-9.19V0l27.36,23.64,35.26,12.89s14.58,21.75,15.63,28.26c1.03,6.53-.15,16.04-.15,16.04Z"/>
        <path class="cls-2" d="M176.64,30.21l16.93,8.77,6.9,16.4,11.87,10.26,7.48,16.99c1.12,2.55,4.06,3.77,6.66,2.76l.09-.04c2.65-1.02,3.99-3.98,3.02-6.64l-5.53-15.25,.07-9.43-47.49-32.85v9.02Z"/>
        <g>
          <path class="cls-2" d="M229,91.2c0,1.66-1.35,3.01-3.01,3.01s-3.01-1.35-3.01-3.01,1.35-3.01,3.01-3.01,3.01,1.35,3.01,3.01Z"/>
          <circle class="cls-2" cx="218.68" cy="103.67" r="3.01"/>
          <path class="cls-2" d="M232.01,112.27c0,1.9-1.54,3.44-3.44,3.44s-3.44-1.54-3.44-3.44,1.54-3.44,3.44-3.44,3.44,1.54,3.44,3.44Z"/>
        </g>
      </g>
    </g>
    <path class="cls-2" d="M190.28,10.66c2.2,2.5,3.9,5.46,5.07,8.12l-18.35-9.19V1.43c5.31,3.1,11.13,6.77,13.28,9.23Z"/>
    <path class="cls-2" d="M248.72,77.55s-6.64,6.29-9.72,11.56c-.02-1.26,.24-2.65,.96-4.13,2.33-4.8,7.04-9.42,7.04-9.42l-1.69-10.96-10.62-10.58-10.55,.02s-1.07-4,2.68-5.25c3.75-1.26,18.14,4.37,20.64,12.52,2.51,8.12,1.26,16.25,1.26,16.25Z"/>
  </g>
  <g>
    <g>
      <g>
        <g>
          <g>
            <path class="cls-2" d="M643.36,145.09c-14.49-5.86-13.76-16.48-28.25-22.34,.61-.19,1.23-.38,1.84-.57,13.88,6.05,12.53,16.87,26.41,22.92Z"/>
            <path class="cls-2" d="M643.36,145.09c-13.27-6.24-11.31-17.25-24.57-23.49-.61,.19-1.23,.38-1.84,.57,13.88,6.05,12.53,16.87,26.41,22.92Z"/>
          </g>
          <g>
            <path class="cls-2" d="M590.63,145.32c14.44-5.98,13.62-16.6,28.06-22.58-.61-.19-1.23-.37-1.84-.56-13.83,6.17-12.39,16.97-26.22,23.14Z"/>
            <path class="cls-2" d="M590.63,145.32c13.21-6.36,11.16-17.34,24.38-23.7,.61,.19,1.23,.37,1.84,.56-13.83,6.17-12.39,16.97-26.22,23.14Z"/>
          </g>
          <path class="cls-2" d="M615.28,86.95l.05,10.81-2.15-3.03s-.02-4.39-3.09-8.09c-3.08-3.71-8.85,5.1-19.26,3.12-6.12-1.17-10.35-5.5-8.93-9.23,.99-2.61,4.74-4.92,12.54-5.65,14.4-1.34,18.95,6.32,20.31,10.08,.43,1.19,.54,1.99,.54,1.99Z"/>
          <path class="cls-2" d="M615.32,97l-.05-10.81s1.78-13.86,20.75-12.25c18.97,1.61,14.12,12.78,3.73,14.85-10.39,2.07-16.24-6.69-19.28-2.96-3.04,3.73-3.02,8.12-3.02,8.12l-2.13,3.05Z"/>
          <g>
            <path class="cls-2" d="M615.61,165.63c-6.69-17.16-.81-37.17-2.36-51.57,.71,0,1.43,0,2.14,0,5.98,17.17-5.76,34.41,.22,51.58Z"/>
            <path class="cls-2" d="M615.61,165.63c-5.27-17.17,7.19-34.41,1.92-51.58-.71,0-1.43,0-2.14,0,2.82,18.03-5.76,34.41,.22,51.58Z"/>
          </g>
        </g>
        <path class="cls-2" d="M611.77,80.18c-2.14-2.34-12.41-2.09-21.21,.64-4.26,1.32-7.07,.43-8.68-.29,.99-2.61,4.74-4.92,12.54-5.65,14.4-1.34,19.25,7.4,17.34,5.3Z"/>
        <path class="cls-2" d="M616.07,84.2c.74-.6,3.69-4.33,6.22-5.61,3.21-1.63,9.11-1.38,17.93,1.27,4.27,1.28,7.07,.37,8.67-.36-1.01-2.6-4.78-4.88-12.59-5.55-14.41-1.22-18.9,6.48-20.23,10.25Z"/>
      </g>
      <g>
        <path class="cls-2" d="M614.77,106.44c.41-2.97-.13-5.22,.56-6.31l-.04-8.87h-2.14s.07,15.74,.07,15.74c.48,1.46,1.21,1.91,1.55-.56Z"/>
        <path class="cls-2" d="M615.29,91.27l.04,8.87c.37-.63,1.03-.9,2.14-.72l-.03-8.15h-2.15Z"/>
        <path class="cls-2" d="M614.77,106.44c-.34,2.47-1.08,2.02-1.55,.56l.03,6.35c0,.57,.22,1.13,.61,1.55l1.4,1.52,.07-16.28c-.69,1.09-.15,3.34-.56,6.31Z"/>
        <path class="cls-2" d="M615.33,100.13l-.07,16.28,1.57-1.51c.45-.43,.71-1.04,.7-1.66l-.06-13.84c-1.11-.17-1.77,.1-2.14,.72Z"/>
      </g>
    </g>
    <g>
      <g>
        <g>
          <path class="cls-2" d="M673.57,45.47s-8.67,4.65-15.06,5.21c-6.38,.56-13.85-2.78-17.75-2.94-3.9-.16-14.72,.95-14.72,.95,0,0,13.74-21.7,32.38-18.94,18.64,2.76,15.32,15.19,15.32,15.19l-.18,.53Z"/>
          <path class="cls-2" d="M681.61,59.42l.11,25.63-2.49-.7,.15-24c.04-6.26-2.99-12.14-8.11-15.76-3.5-2.47-8.65-4.3-10.68-4.75-9.41-2.09-20.93-.27-20.93-.27,0,0,14.18-3.43,21.99-.98,3.29,1.03,8.2,2.77,11.57,5.07,5.21,3.56,8.36,9.44,8.39,15.75Z"/>
        </g>
        <g>
          <path class="cls-2" d="M690.25,45.04s7.46,3.16,13.85,3.67c6.39,.51,13.82-2.9,17.73-3.09,3.9-.19,14.73,.83,14.73,.83,0,0-13.93-21.58-32.54-18.67-18.61,2.92-15.01,16.56-15.01,16.56l1.24,.7Z"/>
          <path class="cls-2" d="M681.61,59.42l.11,25.63,2.48-.72-.35-24c-.09-6.26,2.89-12.17,7.98-15.82,3.47-2.5,8.61-4.37,10.64-4.84,9.39-2.17,20.93-.44,20.93-.44,0,0-14.2-3.31-22-.79-3.28,1.06-8.18,2.84-11.52,5.17-5.18,3.6-8.28,9.51-8.26,15.82Z"/>
        </g>
        <g>
          <g>
            <g>
              <rect class="cls-2" x="679.83" y="88.37" width="1.7" height="18.26" transform="translate(-.4 2.84) rotate(-.24)"/>
              <rect class="cls-2" x="681.53" y="88.36" width="1.7" height="18.26" transform="translate(-.4 2.84) rotate(-.24)"/>
            </g>
            <path class="cls-2" d="M681.48,84.94l.04,8.59-1.71-2.41s-.01-3.49-2.46-6.43c-2.45-2.95-7.03,4.05-15.3,2.48-4.86-.93-8.22-4.37-7.1-7.33,.78-2.08,3.77-3.91,9.97-4.49,11.44-1.07,15.06,5.03,16.14,8.01,.34,.95,.43,1.58,.43,1.58Z"/>
            <path class="cls-2" d="M681.51,92.93l-.04-8.59s1.41-11.01,16.48-9.73c15.07,1.28,11.22,10.15,2.97,11.8-8.25,1.65-12.9-5.32-15.32-2.35-2.42,2.96-2.4,6.45-2.4,6.45l-1.69,2.42Z"/>
          </g>
          <path class="cls-2" d="M676.08,78.94c-1.7-1.86-7.25-1.04-14.24,1.13-3.38,1.05-5.61,.34-6.89-.23,.78-2.08,3.77-3.91,9.97-4.49,11.44-1.07,12.68,5.25,11.16,3.59Z"/>
          <path class="cls-2" d="M682.11,82.75c.59-.47,3.44-2.79,4.94-4.46,1.68-1.87,7.24-1.1,14.24,1.01,3.39,1.02,5.62,.3,6.89-.29-.8-2.07-3.8-3.88-10-4.41-11.45-.97-15.01,5.15-16.07,8.15Z"/>
        </g>
        <path class="cls-2" d="M681.02,44.9s2.86,5.13,2.34,7.62c-.52,2.49-1.93,5.86-1.93,5.86,0,0-2.5-5.13-2.34-7.26,.17-2.13,1.93-6.22,1.93-6.22Z"/>
      </g>
      <g>
        <g>
          <path class="cls-2" d="M680.67,102.83c.56-3.44-.17-6.03,.76-7.29l-.04-10.24h-2.89s.08,18.19,.08,18.19c.64,1.69,1.63,2.2,2.09-.65Z"/>
          <path class="cls-2" d="M681.4,85.29l.04,10.24c.5-.73,1.39-1.04,2.89-.84l-.04-9.42h-2.89Z"/>
          <path class="cls-2" d="M680.67,102.83c-.46,2.85-1.45,2.34-2.09,.65l.03,7.97c0,.66,.29-.49,.81,0l1.9,2.9,.11-18.82c-.93,1.26-.21,3.86-.76,7.29Z"/>
          <path class="cls-2" d="M681.44,95.54l-.11,18.82,2.12-1.75c.61-.5,.95-1.2,.95-1.92l-.07-15.99c-1.49-.2-2.39,.11-2.89,.84Z"/>
        </g>
        <g>
          <path class="cls-2" d="M714.39,147.71c-17.17-6.95-16.3-19.53-33.48-26.48,.73-.23,1.45-.45,2.18-.68,16.45,7.17,14.85,19.98,31.3,27.16Z"/>
          <path class="cls-2" d="M714.39,147.71c-15.72-7.4-13.4-20.44-29.12-27.84-.73,.23-1.45,.45-2.18,.68,16.45,7.17,14.85,19.98,31.3,27.16Z"/>
        </g>
        <g>
          <path class="cls-2" d="M651.91,147.98c17.11-7.09,16.14-19.67,33.25-26.76-.73-.22-1.46-.44-2.18-.66-16.39,7.31-14.68,20.11-31.07,27.42Z"/>
          <path class="cls-2" d="M651.91,147.98c15.66-7.53,13.23-20.55,28.88-28.08,.73,.22,1.46,.44,2.18,.66-16.39,7.31-14.68,20.11-31.07,27.42Z"/>
        </g>
        <g>
          <path class="cls-2" d="M681.51,172.04c-7.93-20.34-.96-43.54-2.79-60.59,.85,0,1.69-.52,2.53-.52,7.09,20.34-6.83,40.77,.26,61.11Z"/>
          <path class="cls-2" d="M681.51,172.04c-6.24-20.35,9.07-40.6,2.82-60.94-.85,0-2.24-.17-3.08-.17,3.35,21.36-6.83,40.77,.26,61.11Z"/>
        </g>
      </g>
    </g>
    <g>
      <g>
        <path class="cls-2" d="M569.06,88.63s-3.89,.85-3.33,2.8c.56,1.95,1.43,8.34,1.44,11.4,.01,3.06,3.39,11.39,3.39,11.39,0,0,8.32-5.88,8.02-12.28-.18-3.71-.04-8.63-9.52-13.32Z"/>
        <path class="cls-2" d="M570.71,90.01s-5.16-1.02-4.7,.59,3.12,8.62,3.14,11.15c.01,2.53,2.8,9.42,2.8,9.42,0,0,6.88-4.86,6.63-10.15-.15-3.07-.03-7.13-7.87-11.01Z"/>
        <path class="cls-2" d="M562.31,114.03c.03-.38,.15-9.77-1.65-14.78-.45-1.26-1.21-2.62-2.01-4.07-1.53-2.76-3.26-5.88-2.64-8.03,.26-.9,.96-1.65,2.14-2.28,1.24-.67,2.31-.8,3.28-.37,2.44,1.07,3.97,5.26,4.35,6.78l3.24-.81c-.18-.72-1.88-7.11-6.24-9.03-1.34-.59-3.51-.98-6.23,.49-1.97,1.07-3.23,2.51-3.75,4.29-1.01,3.48,1.08,7.25,2.92,10.58,.73,1.32,1.43,2.57,1.79,3.57,1.55,4.33,2.41,16.4,2.4,16.49l2.39-2.83Z"/>
      </g>
      <path class="cls-2" d="M570.95,91.96s4.91,1.43,6.02,5.06c1.11,3.63-.7,7.09-.7,7.09,0,0-.82-4.26-1.3-5.99-.55-2-4.02-6.16-4.02-6.16Z"/>
    </g>
    <g>
      <path class="cls-2" d="M539.09,109.71l-3.86,.77c-.02-.49,3.05-15.9-6.12-13.63-3.9,.97-5.78,8.49-6.64,16.99-1.22,12.11-.37,26.2-.37,26.2,0,0-4.24-20.64-1.95-34.77,1.11-6.88,3.76-12.21,9.2-12.88,11.94-1.48,9.75,17.32,9.75,17.32Z"/>
      <g>
        <path class="cls-2" d="M541.19,107.84c.74,1.8-6.3,6.35-6.3,6.35,0,0-2.88-5.8-2.72-6.5,.29-1.3,2.2-5.73,3.16-6.9,3.22-3.91,1.66-5.05,1.57-5.16,.07,.05,1.03,.72,1.84,1.93,.63,.94,1.16,2.21,1.1,3.74-.13,3.59-.17,2.86,1.35,6.53Z"/>
        <path class="cls-2" d="M540.69,107.22c.54,1.28-5.63,5.4-7.05,4.99,.04-.85-1.75-3.71,1-6.85,0,0,0,0,0,0,.39-1.08,.89-2.11,1.39-2.69,4.4-5.1-5.75-10.22-5.85-10.36,.08,.06,9.85-1.34,9.62,8.21-.09,3.6,.14,4.9,.9,6.69Z"/>
        <path class="cls-2" d="M537.84,101.03c-.57,2.11-3.51,5.03-4.84,6.97,.39-1.08,.61-2.48,3.03-5.32,3.27-3.84-2.2-8-2.31-8.14,.11,.11,4.91,3.57,4.12,6.49Z"/>
        <path class="cls-2" d="M542.23,120.36c-.7,3.66-1.86,5.21-5.58,5.22-3.72,.02-6.7-3.03-6.17-6.71,.93-6.4,9.95-13.39,9.95-13.39,0,0,3.62,5.32,1.8,14.88Z"/>
        <path class="cls-2" d="M532.17,107.69s-6.69,11.38,.53,16.56c2.67,1.91,4.28-.33,5.8-2.75,1.52-2.42,.2-9.67-6.33-13.81Z"/>
        <path class="cls-2" d="M532.07,110.83s-.72,1.01-.8,2.03c-.08,1.01-.89,4.15,.16,4.8,1.05,.65,1.02,.35,1.35-1.91,.15-1.07-.84-2.56-.7-4.92Z"/>
      </g>
      <path class="cls-2" d="M522.1,140.04s-2.3-11.18-2.6-22.72c-.11-4.14,.04-8.33,.65-12.06,.56,2.51,2.03,2.13,2.59,3.9,.18,.57-.44,4.22-.26,4.68-.3,2.94-.47,6.01-.57,8.96-.29,9.17,.19,17.24,.19,17.24Z"/>
      <path class="cls-2" d="M522.1,140.04s-2.3-11.18-2.6-22.72c.72,2,1.59,3.91,2.41,5.48-.29,9.17,.19,17.24,.19,17.24Z"/>
    </g>
    <g>
      <path class="cls-2" d="M562.57,128.8c.17-1.97,.29-3.84,.31-5.45,.06-3.2-.09-6.44-.58-9.32-1.13,.03-2.12-1.92-2.54-.55-.11,.34,.21,7.81,.41,12.25,.66,1.13,1.48,2.26,2.4,3.07Z"/>
      <path class="cls-2" d="M562.57,128.8c-.92-.8-1.73-1.93-2.4-3.07,.06,1.32,.1,2.38,.13,2.9,.29,7.09-.38,20.33-.38,20.33,0,0,1.89-11.2,2.66-20.16Z"/>
    </g>
  </g>
  <path class="cls-2" d="M679.33,293.19c-.31-.2-.62-.39-.98-.55-3.57-1.57-21.49,17.78-21.49,17.78l2.53-7.26,14.64-42.01c.57-1.62-.15-3.42-1.65-4.22l-.55-.29s-.06-.02-.09-.04c-1.78-.89-3.95-.11-4.74,1.73l-10.37,24.26,4.88-19.03,3.46-13.48c.41-1.55-.32-3.18-1.73-3.93l-.48-.26c-.06-.03-.12-.04-.18-.07-1.87-.85-4.09,.08-4.75,2.06l-10.46,31.92,3.04-18.51,2.09-12.75c.32-1.67-.59-3.31-2.18-3.9l-.07-.03c-.06-.02-.12-.03-.18-.05-1.85-.6-3.86,.44-4.41,2.35l-7.11,30.24,1.2-17.09,.58-8.22c.05-1.57-.96-2.94-2.44-3.41-.1-.03-.18-.09-.28-.12l-.25-.06c-.13-.03-.28-.06-.41-.07-1.8-.17-3.47,1.04-3.79,2.86l-12.88,70.11-8.37,31.52-2.9-.68-3.14,13.46-2.66-.64,3.52-15.1,2.87,.8,8.4-31.63,2.71-14.77-14.55-55.64c-.49-1.92-2.48-3.04-4.38-2.47l-.24,.07c-1.61,.49-2.64,2.05-2.45,3.72l3.66,25.1-9.33-29.63c-.7-1.92-2.89-2.82-4.74-1.96l-.06,.03c-1.53,.71-2.33,2.43-1.89,4.06l7.45,30.79-12.8-31.06c-.83-1.99-3.25-2.76-5.07-1.61l-.45,.28c-1.36,.86-1.95,2.53-1.44,4.06l10.73,31.79-12.13-23.42c-.94-1.81-3.22-2.43-4.95-1.34l-.53,.33c-1.45,.92-2.02,2.75-1.34,4.33l20.77,47.87s-19.3-17.98-22.74-16.14-4.04,5.69-4.04,5.69c0,0,3.08,4,7,6.12s27.06,27.43,27.06,27.43l8.47,29.3-6.42,2.65,4.1,11.15,17.33-5.56,30.59,7.37,2.93-15.48-5.59-1.31,5.6-26.63s21.22-26.96,24.96-29.37c3.76-2.41,6.53-6.61,6.53-6.61,0,0-.72-3.06-3.46-4.83Z"/>
  <polygon class="cls-2" points="476.31 133.22 442.1 111.01 442.18 124.66 418.94 124.79 385.3 124.98 379.29 125.01 379.39 142.51 385.4 142.48 419.03 142.29 442.27 142.16 442.35 155.8 476.31 133.22"/>
  <polygon class="cls-2" points="369.56 328.25 403.77 306.05 403.69 319.7 426.93 319.83 460.57 320.02 466.58 320.05 466.48 337.55 460.47 337.51 426.83 337.32 403.59 337.19 403.52 350.84 369.56 328.25"/>
  <g>
    <rect class="cls-2" x="241.87" y="273.45" width="13.11" height="3.78"/>
    <rect class="cls-2" x="241.87" y="284.16" width="7.06" height="3.78"/>
    <rect class="cls-2" x="241.87" y="294.87" width="13.11" height="3.78"/>
    <rect class="cls-2" x="241.87" y="305.59" width="7.06" height="3.78"/>
    <rect class="cls-2" x="241.87" y="316.3" width="13.11" height="3.78"/>
    <rect class="cls-2" x="241.87" y="327.01" width="7.06" height="3.78"/>
    <rect class="cls-2" x="241.87" y="337.73" width="13.11" height="3.78"/>
    <g>
      <path class="cls-2" d="M239.95,364.51c0-5.64-3.32-10.79-8.47-13.12l-2.65-1.2v-25.37c0-2.39-1.49-4.4-3.26-4.41v58.5c7.93,0,14.38-6.47,14.38-14.4Z"/>
      <path class="cls-2" d="M222.28,324.82v25.37l-2.65,1.2c-6.05,2.74-10.57,10-7.49,18.57,1.33,3.7,4.07,6.5,7.71,7.88,1.9,.71,3.81,1.08,5.7,1.08,0,0,.01,0,.02,0v-58.5s-.01,0-.02,0c-1.78,0-3.28,2.02-3.28,4.41Z"/>
      <path class="cls-2" d="M248.96,364.52c0,12.9-10.48,23.4-23.38,23.41v-4.51h.05c.14,0,.26-.02,.39-.03,.61-.01,1.19-.05,1.78-.12,.24-.03,.48-.06,.71-.11,.48-.08,.95-.17,1.41-.27,.26-.06,.5-.12,.74-.2,.47-.12,.91-.27,1.36-.44,.21-.08,.42-.14,.64-.23,.57-.23,1.12-.48,1.66-.77,.08-.03,.15-.06,.21-.11,.61-.33,1.18-.68,1.74-1.07,.18-.12,.35-.26,.51-.38,.38-.29,.76-.57,1.12-.89l.54-.5c.33-.3,.65-.62,.95-.95,.17-.18,.33-.36,.48-.54,.33-.38,.64-.77,.94-1.18,.11-.15,.23-.29,.33-.44,.38-.56,.74-1.15,1.06-1.75,.08-.14,.14-.29,.21-.42,.24-.48,.45-.95,.67-1.45,.09-.23,.17-.45,.24-.68,.15-.44,.3-.88,.42-1.33,.08-.26,.14-.5,.2-.74,.11-.48,.2-.97,.27-1.45,.03-.23,.08-.44,.09-.67,.09-.73,.14-1.45,.14-2.18,0-7.68-4.57-14.26-11.12-17.23v-70.86c0-1.24-.21-2.42-.61-3.48-1.18-3.21-3.95-5.44-7.15-5.44v-4.51c6.76,0,12.27,6.02,12.27,13.43v68.15c6.84,4.23,11.12,11.77,11.12,19.93Z"/>
      <path class="cls-2" d="M207.9,371.49c1.77,4.9,5.49,8.73,10.36,10.56,.76,.29,1.51,.51,2.27,.71,.21,.06,.42,.11,.65,.15,.56,.12,1.13,.23,1.69,.3,.2,.03,.39,.06,.59,.09,.71,.08,1.41,.12,2.1,.12h.02v4.51h-.02c-2.98,0-5.97-.56-8.89-1.66-6.07-2.28-10.8-7.12-13.01-13.26-3.92-10.92,.2-22.63,9.6-28.42v-68.15c0-7.41,5.52-13.43,12.3-13.43h.02v4.51h-.02c-3.24,0-5.99,2.24-7.18,5.44-.39,1.06-.61,2.24-.61,3.48v70.86c-8.47,3.83-13.63,13.73-9.88,24.2Z"/>
    </g>
  </g>
  <polygon class="cls-2" points="369.95 757.76 404.16 735.56 404.09 749.2 427.33 749.33 460.96 749.52 466.97 749.56 466.88 767.05 460.87 767.02 427.23 766.83 403.99 766.7 403.91 780.35 369.95 757.76"/>
  <path class="cls-2" d="M186.43,563.79c-8.72,0-15.82,7.09-15.82,15.81s7.09,15.81,15.82,15.81,15.81-7.09,15.81-15.81-7.09-15.81-15.81-15.81Zm0,26.83c-6.07,0-11.01-4.94-11.01-11.01s4.94-11.01,11.01-11.01,11.01,4.94,11.01,11.01-4.94,11.01-11.01,11.01Z"/>
  <path class="cls-2" d="M186.43,573c-3.65,0-6.61,2.96-6.61,6.61s2.96,6.61,6.61,6.61,6.61-2.96,6.61-6.61-2.96-6.61-6.61-6.61Z"/>
  <path class="cls-2" d="M267.28,563.79c-8.72,0-15.82,7.09-15.82,15.81s7.09,15.81,15.82,15.81,15.81-7.09,15.81-15.81-7.09-15.81-15.81-15.81Zm0,26.83c-6.07,0-11.01-4.94-11.01-11.01s4.94-11.01,11.01-11.01,11.01,4.94,11.01,11.01-4.94,11.01-11.01,11.01Z"/>
  <path class="cls-2" d="M267.28,573c-3.65,0-6.61,2.96-6.61,6.61s2.96,6.61,6.61,6.61,6.61-2.96,6.61-6.61-2.96-6.61-6.61-6.61Z"/>
  <path class="cls-2" d="M297.44,532.23l-13.26-5.56c-1.69-3.01-8.11-14.15-13.16-18.54-.44-.38-1-.59-1.58-.59h-19.67v-13.14c0-1.33-1.08-2.4-2.4-2.4h-96.74c-1.33,0-2.4,1.08-2.4,2.4v58.67c0,1.33,1.08,2.4,2.4,2.4h4.17v17.53c0,1.33,1.08,2.4,2.4,2.4h10.59c1.02,0,1.92-.64,2.26-1.6,2.46-6.91,9.03-11.56,16.36-11.56s13.9,4.64,16.36,11.56c.34,.96,1.25,1.6,2.26,1.6h43.61c1.02,0,1.92-.64,2.26-1.6,2.46-6.91,9.03-11.56,16.36-11.56s13.9,4.64,16.36,11.56c.34,.96,1.25,1.6,2.26,1.6h10.61c1.33,0,2.4-1.08,2.4-2.4v-38.55c0-.97-.58-1.84-1.47-2.22Zm-47.63-19.88h18.69c5.04,4.91,11.8,17.24,11.87,17.37,.26,.48,.68,.85,1.18,1.06l12.56,5.26v14.89h-44.3v-38.58Zm-96.77-8.53h6.07v40.02h-6.07v-40.02Zm9.16,0h6.46v40.02h-6.46v-40.02Zm9.55,0h6.46v40.02h-6.46v-40.02Zm9.55,0h6.46v40.02h-6.46v-40.02Zm9.55,0h6.46v40.02h-6.46v-40.02Zm9.55,0h6.46v40.02h-6.46v-40.02Zm9.55,0h6.46v40.02h-6.46v-40.02Zm9.55,0h6.46v40.02h-6.46v-40.02Zm9.55,0h6.46v40.02h-6.46v-40.02Zm9.55,0h6.41v40.02h-6.41v-40.02Zm-85.53-7.02h91.93v3.59h-91.93v-3.59Zm0,53.86v-3.4h91.93v3.4h-91.93Zm141.07,19.93h-6.59c-3.54-7.93-11.47-13.15-20.25-13.15s-16.71,5.22-20.25,13.15h-40.36c-3.54-7.93-11.47-13.15-20.25-13.15s-16.71,5.22-20.25,13.15h-6.57v-14.86h134.5v14.86Z"/>
  <path class="cls-2" d="M265.39,516.49h-12.65v15h23.36l-.13-.21c-2.62-4.39-7.18-11.11-10.58-14.79Z"/>
  <rect class="cls-2" x="256.14" y="537.2" width="7.61" height="2.77"/>
  <path class="cls-2" d="M666.92,496.31l-3.49-17.31-42.84,1.18-35.25-1.18-.76,17.31c-8.39,19.28-13.11,57.07-7.59,98.52,14.53,3.94,29.07,5.91,43.6,5.91,14.53,0,29.07-1.97,43.6-5.91l8.88-3.26,2.78-22.41c.38-57.68-8.92-72.85-8.92-72.85Zm-78.34,26.15c-1.55,8.25-4.72,21.16-4.72,21.16,0,0-.3-18.89,1.74-27.98,1.1-4.9,7.71-15.2,7.71-15.2h6.7s-9.87,13.76-11.42,22.01Zm43.52,24.37c-2.02,.64-3.95,.64-5.25-.39-.06-.05-.12-.11-.18-.16l-5.08,5.5-.02-.02,.48,13.98h-3l.45-14.03-5-5.42c-.06,.05-.12,.11-.18,.16-1.3,1.03-3.24,1.03-5.25,.39-5.29-1.67-8.62-6.92-8.37-12.46l.12-2.74,2.74-.12c5.54-.25,10.79,3.08,12.46,8.37,.64,2.02,.64,3.95-.39,5.25-.05,.06-.11,.12-.16,.18l4.12,3.8,.37-11.62c-.13,0-.26,0-.38-.02-1.65-.19-3.01-1.56-3.99-3.44-2.56-4.92-1.2-10.99,2.89-14.73l2.02-1.85,2.02,1.85c4.09,3.74,5.45,9.81,2.89,14.73-.98,1.88-2.34,3.25-3.99,3.44-.11,.01-.22,.01-.33,.02l.41,11.71,4.22-3.9c-.05-.06-.11-.12-.16-.18-1.03-1.3-1.03-3.24-.39-5.25,1.67-5.29,6.92-8.62,12.46-8.37l2.74,.12,.12,2.74c.25,5.54-3.08,10.79-8.37,12.46Z"/>
  <polygon class="cls-2" points="476.97 550.76 442.76 528.56 442.84 542.2 419.6 542.33 385.96 542.52 379.95 542.56 380.05 560.05 386.06 560.02 419.7 559.83 442.94 559.7 443.01 573.35 476.97 550.76"/>
  <path class="cls-2" d="M129.38,961.82l-35.75,27.37,.05-16.75c-1.35,.03-3.15-.09-4.85-.19-1.71-.09-3.41-.2-5.1-.57-1.68-.35-3.4-.52-5.05-1.05l-4.97-1.53-4.82-2.08c-.81-.32-1.57-.8-2.34-1.23l-2.82-1.61c-1.17-.61-2.21-1.47-3.31-2.22-4.41-2.99-8.3-6.89-11.96-11.01l-2.56-3.31-1.27-1.67-1.14-1.79-2.27-3.59-1.99-3.82c-10.45-20.55-11.27-47.28-1.98-68.63,4.46-10.76,11.4-19.95,19.68-26.87,8.26-6.98,18.15-11.19,28.23-12.67,2.44-.38,4.91-.37,7.36-.53l-.07,21.47c-1.73,.17-3.47,.1-5.19,.39-7.06,1.07-13.99,3.95-19.8,8.89-5.8,4.88-10.73,11.33-13.83,18.89l-1.17,2.83-.92,2.95c-.73,1.92-.97,4.03-1.49,6.02-.3,2.06-.64,4.13-.79,6.21-.04,2.1-.31,4.19-.12,6.29,.26,8.38,2.16,16.69,5.88,23.87l1.38,2.69,1.61,2.52,.79,1.27,.9,1.16,1.79,2.34c2.6,2.87,5.3,5.67,8.42,7.73,.77,.52,1.49,1.17,2.32,1.57l1.98,1.12c.54,.3,1.06,.66,1.64,.87l3.37,1.47,3.48,1.06c1.15,.4,2.37,.46,3.54,.73,1.18,.29,2.38,.34,3.59,.4,1.21,.07,2.32,.19,3.88,.16l.05-16.75,35.58,27.59Z"/>
  <path class="cls-2" d="M536.99,781.59c1.07,0,1.95,.87,1.95,1.95,0,1.58,1.2,2.86,2.67,2.86s2.67-1.28,2.67-2.86c0-1.07,.87-1.95,1.95-1.95h.09c1.07,0,1.95,.87,1.95,1.95,0,1.58,1.2,2.86,2.67,2.86,1.33,0,2.43-1.05,2.63-2.41l-9.71-27.31-2.28-5.94c-.32-.84-.21-1.78,.3-2.52,.51-.74,1.35-1.18,2.24-1.18h25.31c.66,0,1.3,.24,1.8,.68l.33,.29v-7.86c0-1.07,.87-1.95,1.95-1.95h1.35v-11.92c0-1.07,.87-1.95,1.95-1.95h17.24c1.07,0,1.95,.87,1.95,1.95v11.92h1.41v-11.92c0-1.07,.87-1.95,1.95-1.95h17.24c1.07,0,1.95,.87,1.95,1.95v11.92h6.8c1.07,0,1.95,.87,1.95,1.95v10.51h10.02l5.88-22.46c.31-1.2,1.4-2.03,2.63-2.03h8.3v-21.43c0-1.5,1.22-2.72,2.72-2.72h17.77c1.5,0,2.72,1.22,2.72,2.72v21.43h10.11c1.24,0,2.32,.84,2.63,2.03l5.91,22.58,6.12,.02c.77,0,1.51,.33,2.02,.91,.52,.58,.76,1.34,.68,2.11-.03,.31-.86,7.78-2.77,15.84-1.38,5.8-2.94,10.35-4.72,13.7,0,.06,.02,.13,.02,.19,0,1.58,1.2,2.86,2.67,2.86s2.67-1.28,2.67-2.86c0-1.07,.87-1.95,1.95-1.95s1.95,.87,1.95,1.95c0,3.72-2.94,6.75-6.56,6.75-1.82,0-3.47-.77-4.66-2-1.19,1.24-2.84,2-4.66,2s-3.47-.77-4.66-2c-1.19,1.24-2.84,2-4.66,2s-3.47-.77-4.66-2c-1.19,1.24-2.84,2-4.66,2s-3.47-.77-4.66-2c-1.19,1.24-2.84,2-4.66,2s-3.47-.77-4.66-2c-1.19,1.24-2.84,2-4.66,2s-3.47-.77-4.66-2c-1.19,1.24-2.84,2-4.66,2s-3.47-.77-4.66-2c-1.19,1.24-2.84,2-4.66,2s-3.47-.77-4.66-2c-1.19,1.24-2.84,2-4.66,2s-3.42-.75-4.61-1.95c-1.19,1.21-2.81,1.95-4.61,1.95s-3.47-.77-4.66-2c-1.19,1.24-2.84,2-4.66,2s-3.47-.77-4.66-2c-1.19,1.24-2.84,2-4.66,2s-3.47-.77-4.66-2c-1.19,1.24-2.84,2-4.66,2s-3.47-.77-4.66-2c-1.19,1.24-2.84,2-4.66,2s-3.47-.77-4.66-2c-1.19,1.24-2.84,2-4.66,2s-3.47-.77-4.66-2c-1.19,1.24-2.84,2-4.66,2-1.54,0-2.95-.55-4.07-1.47-.25-.11-.48-.26-.69-.44-1.18,1.18-2.79,1.91-4.56,1.91s-3.47-.77-4.66-2c-1.19,1.24-2.84,2-4.66,2-3.62,0-6.56-3.03-6.56-6.75,0-1.07,.87-1.95,1.95-1.95Zm122.55-70.7h12.32v-3.44h-12.32v3.44Zm12.32,15.26v-9.82h-12.32v9.82h0s12.32,.01,12.32,.01h0Zm3,5.43c-.09,0-.19,.01-.28,.01h-17.77c-.09,0-.19,0-.28-.01h-8.64l-4.99,19.04-.03,.11h47.44s-5.01-19.15-5.01-19.15h-10.45Zm15.5,24.6h-51.02c-.25,0-.5-.04-.74-.11h-65.08c-.66,0-1.3-.24-1.8-.68l-3.35-2.94h-20.32l.87,2.28s.02,.04,.02,.06l1.93,5.41h147.46c.26-1.53,.47-2.9,.62-4.01l-8.61-.02Zm-67.01-5.55v-8.56h-13.35v9.6h13.35v-1.04Zm-8.75-22.43h-13.35v9.6h13.35v-9.6Zm-22.54,0h-13.35v9.6h13.35v-9.6Zm-16.64,23.47h13.35v-9.6h-13.35v9.6Zm17.34-9.6v9.6h13.35v-9.6h-13.35Zm-32.53,44.31c.14,0,.28-.02,.41-.04,1.28-.21,2.26-1.39,2.26-2.82,0-1.07,.87-1.95,1.95-1.95h.09c1.07,0,1.95,.87,1.95,1.95,0,1.58,1.2,2.86,2.67,2.86s2.67-1.28,2.67-2.86c0-1.07,.87-1.95,1.95-1.95h.09c1.07,0,1.95,.87,1.95,1.95,0,1.58,1.2,2.86,2.67,2.86s2.67-1.28,2.67-2.86c0-1.07,.87-1.95,1.95-1.95h.09c1.07,0,1.95,.87,1.95,1.95,0,1.58,1.2,2.86,2.67,2.86s2.67-1.28,2.67-2.86c0-1.07,.87-1.95,1.95-1.95h.09c1.07,0,1.95,.87,1.95,1.95,0,1.58,1.2,2.86,2.67,2.86s2.67-1.28,2.67-2.86c0-1.07,.87-1.95,1.95-1.95h.09c1.07,0,1.95,.87,1.95,1.95,0,1.58,1.2,2.86,2.67,2.86s2.67-1.28,2.67-2.86c0-1.07,.87-1.95,1.95-1.95h.09c1.07,0,1.95,.87,1.95,1.95,0,1.58,1.2,2.86,2.67,2.86s2.62-1.24,2.67-2.77c0-.03,0-.05,0-.08,0-1.07,.87-1.95,1.95-1.95,0,0,0,0,0,0,0,0,0,0,0,0,1.07,0,1.95,.87,1.95,1.95,0,.03,0,.05,0,.08,.04,1.54,1.22,2.77,2.67,2.77s2.67-1.28,2.67-2.86c0-1.07,.87-1.95,1.95-1.95h.09c1.07,0,1.95,.87,1.95,1.95,0,1.58,1.2,2.86,2.67,2.86s2.67-1.28,2.67-2.86c0-1.07,.87-1.95,1.95-1.95h.09c1.07,0,1.95,.87,1.95,1.95,0,1.58,1.2,2.86,2.67,2.86s2.67-1.28,2.67-2.86c0-1.07,.87-1.95,1.95-1.95h.09c1.07,0,1.95,.87,1.95,1.95,0,1.58,1.2,2.86,2.67,2.86s2.67-1.28,2.67-2.86c0-1.07,.87-1.95,1.95-1.95h.09c1.07,0,1.95,.87,1.95,1.95,0,1.58,1.2,2.86,2.67,2.86s2.67-1.28,2.67-2.86c0-1.07,.87-1.95,1.95-1.95h.09c1.07,0,1.95,.87,1.95,1.95,0,1.58,1.2,2.86,2.67,2.86s2.67-1.28,2.67-2.86c0-1.07,.87-1.95,1.95-1.95h.09c1.07,0,1.95,.87,1.95,1.95,0,1.58,1.2,2.86,2.67,2.86s2.67-1.28,2.67-2.86c0-1.07,.87-1.95,1.95-1.95h.09c1.07,0,1.95,.87,1.95,1.95,0,.62,.18,1.19,.5,1.65,.18-.14,.38-.27,.61-.37,2.59-1.12,5.43-7.25,7.61-16.39,.41-1.74,.78-3.46,1.09-5.09h-145.79l7.85,22.07c.11,.31,.16,.62,.15,.93,0,0,0,.02,0,.03,.08,0,.16,.01,.24,.01Z"/>
  <path class="cls-2" d="M267.64,774.03c8.72,0,15.82,7.09,15.82,15.81s-7.09,15.81-15.82,15.81-15.81-7.09-15.81-15.81,7.09-15.81,15.81-15.81Zm0,26.83c6.07,0,11.01-4.94,11.01-11.01s-4.94-11.01-11.01-11.01-11.01,4.94-11.01,11.01,4.94,11.01,11.01,11.01Z"/>
  <path class="cls-2" d="M267.64,783.24c3.65,0,6.61,2.96,6.61,6.61s-2.96,6.61-6.61,6.61-6.61-2.96-6.61-6.61,2.96-6.61,6.61-6.61Z"/>
  <path class="cls-2" d="M186.79,774.03c8.72,0,15.82,7.09,15.82,15.81s-7.09,15.81-15.82,15.81-15.81-7.09-15.81-15.81,7.09-15.81,15.81-15.81Zm0,26.83c6.07,0,11.01-4.94,11.01-11.01s-4.94-11.01-11.01-11.01-11.01,4.94-11.01,11.01,4.94,11.01,11.01,11.01Z"/>
  <path class="cls-2" d="M186.79,783.24c3.65,0,6.61,2.96,6.61,6.61s-2.96,6.61-6.61,6.61-6.61-2.96-6.61-6.61,2.96-6.61,6.61-6.61Z"/>
  <path class="cls-2" d="M156.62,742.47l13.26-5.56c1.69-3.01,8.11-14.15,13.16-18.54,.44-.38,1-.59,1.58-.59h19.67v-13.14c0-1.33,1.08-2.4,2.4-2.4h96.74c1.33,0,2.4,1.08,2.4,2.4v58.67c0,1.33-1.08,2.4-2.4,2.4h-4.17v17.53c0,1.33-1.08,2.4-2.4,2.4h-10.59c-1.02,0-1.92-.64-2.26-1.6-2.46-6.91-9.03-11.56-16.36-11.56s-13.9,4.64-16.36,11.56c-.34,.96-1.25,1.6-2.26,1.6h-43.61c-1.02,0-1.92-.64-2.26-1.6-2.46-6.91-9.03-11.56-16.36-11.56s-13.9,4.64-16.36,11.56c-.34,.96-1.25,1.6-2.26,1.6h-10.61c-1.33,0-2.4-1.08-2.4-2.4v-38.55c0-.97,.58-1.84,1.47-2.22Zm47.63-19.88h-18.69c-5.04,4.91-11.8,17.24-11.87,17.37-.26,.48-.68,.85-1.18,1.06l-12.56,5.26v14.89h44.3v-38.58Zm96.77-8.53h-6.07v40.02h6.07v-40.02Zm-9.16,0h-6.46v40.02h6.46v-40.02Zm-9.55,0h-6.46v40.02h6.46v-40.02Zm-9.55,0h-6.46v40.02h6.46v-40.02Zm-9.55,0h-6.46v40.02h6.46v-40.02Zm-9.55,0h-6.46v40.02h6.46v-40.02Zm-9.55,0h-6.46v40.02h6.46v-40.02Zm-9.55,0h-6.46v40.02h6.46v-40.02Zm-9.55,0h-6.46v40.02h6.46v-40.02Zm-9.55,0h-6.41v40.02h6.41v-40.02Zm85.53-7.02h-91.93v3.59h91.93v-3.59Zm0,53.86v-3.4h-91.93v3.4h91.93Zm-141.07,19.93h6.59c3.54-7.93,11.47-13.15,20.25-13.15s16.71,5.22,20.25,13.15h40.36c3.54-7.93,11.47-13.15,20.25-13.15s16.71,5.22,20.25,13.15h6.57v-14.86H159.96v14.86Z"/>
  <path class="cls-2" d="M188.67,726.73h12.65v15h-23.36l.13-.21c2.62-4.39,7.18-11.11,10.58-14.79Z"/>
  <rect class="cls-2" x="190.32" y="747.44" width="7.61" height="2.77"/>
  <g>
    <path class="cls-2" d="M279.9,945.66l-13.99-21.08-79.65,.16-13.91,21.14,.02,11.08h0s0,0,0,.01c.01,5.29,4.84,9.57,10.77,9.56s10.75-4.31,10.74-9.6c.01,5.29,4.83,9.57,10.77,9.56s10.75-4.31,10.74-9.6c.01,5.29,4.83,9.57,10.77,9.56s10.75-4.31,10.74-9.6c.01,5.29,4.84,9.57,10.77,9.56s10.74-4.31,10.73-9.6c.01,5.29,4.84,9.57,10.77,9.56s10.75-4.31,10.74-9.6c0,0,0,0,0-.01h0s-.02-11.08-.02-11.08Z"/>
    <path class="cls-2" d="M258.44,967.74c-2.84,2.4-6.61,3.87-10.75,3.88s-7.92-1.45-10.76-3.84c-2.84,2.4-6.61,3.87-10.75,3.88s-7.92-1.45-10.76-3.84c-2.84,2.4-6.61,3.87-10.75,3.88s-7.91-1.45-10.76-3.84c-2.84,2.4-6.61,3.87-10.75,3.88-2.23,0-4.35-.42-6.29-1.19l.1,50.54,63.91-.13-.07-34.67,23.54-.05,.07,34.67,11.17-.02-.1-50.54c-1.93,.77-4.05,1.21-6.28,1.21-4.14,0-7.92-1.45-10.76-3.84Zm-36.27,41.48l-34.05,.07-.05-22.88,34.05-.07,.05,22.88Z"/>
    <polygon class="cls-2" points="244.44 1020.97 240.97 1027.95 240.97 1031 264.65 1030.96 264.65 1027.9 261.15 1020.94 244.44 1020.97"/>
  </g>
  <text class="cls-1" transform="translate(165.74 205.52)"><tspan x="0" y="0">Frøene plantes</tspan></text>
  <text class="cls-1" transform="translate(524.54 192.86)"><tspan x="0" y="0">Teplanten får lov til at </tspan><tspan x="0" y="22.8">gro i mindst 8 måneder</tspan></text>
  <text class="cls-1" transform="translate(542.45 415.44)"><tspan x="0" y="0">Kun de bedste blade </tspan><tspan x="0" y="22.8">bliver plukket</tspan></text>
  <text class="cls-1" transform="translate(136.14 415.54)"><tspan x="0" y="0">Tebladene tøres og </tspan><tspan x="0" y="22.8">bearbejdes</tspan></text>
  <text class="cls-1" transform="translate(134.88 631.54)"><tspan x="0" y="0">Det bearbejdede te blive </tspan><tspan x="0" y="22.8">transporteret i lastbil</tspan></text>
  <text class="cls-1" transform="translate(551.84 632.54)"><tspan x="0" y="0">Teen pakkes og </tspan><tspan x="0" y="22.8">kvalitettjekkes</tspan></text>
  <text class="cls-1" transform="translate(555.09 827.54)"><tspan x="0" y="0">Den pakkede te </tspan><tspan x="0" y="22.8">sejles til Europa</tspan></text>
  <g>
    <path class="cls-2" d="M148.17,825.34h-4.52v13.2h-1.58v-13.2h-4.5v-1.34h10.59v1.34Z"/>
    <path class="cls-2" d="M157.93,836.75c-.44,.58-.97,1.05-1.6,1.41-.63,.36-1.45,.54-2.46,.54-1.31,0-2.37-.47-3.16-1.4-.8-.93-1.2-2.24-1.2-3.94,0-1.48,.36-2.68,1.09-3.61,.72-.93,1.78-1.4,3.18-1.4,1.18,0,2.12,.32,2.8,.97s1.07,1.56,1.16,2.72c.04,.44,.05,.9,.03,1.38h-6.72c0,1.11,.25,2.06,.76,2.85,.51,.79,1.2,1.19,2.08,1.19,.64,0,1.19-.13,1.67-.4,.48-.27,.92-.66,1.32-1.19l1.06,.85Zm-4.17-7.24c-.87,0-1.53,.3-1.98,.9-.45,.6-.68,1.27-.71,2.03h5.2c-.02-.8-.22-1.48-.59-2.06s-1.01-.86-1.92-.86Z"/>
    <path class="cls-2" d="M168.43,836.75c-.44,.58-.97,1.05-1.6,1.41-.63,.36-1.45,.54-2.46,.54-1.31,0-2.37-.47-3.16-1.4-.8-.93-1.2-2.24-1.2-3.94,0-1.48,.36-2.68,1.09-3.61,.72-.93,1.78-1.4,3.18-1.4,1.18,0,2.12,.32,2.8,.97s1.07,1.56,1.16,2.72c.04,.44,.05,.9,.03,1.38h-6.72c0,1.11,.25,2.06,.76,2.85,.51,.79,1.2,1.19,2.08,1.19,.64,0,1.19-.13,1.67-.4,.48-.27,.92-.66,1.32-1.19l1.06,.85Zm-4.17-7.24c-.87,0-1.53,.3-1.98,.9-.45,.6-.68,1.27-.71,2.03h5.2c-.02-.8-.22-1.48-.59-2.06s-1.01-.86-1.92-.86Z"/>
    <path class="cls-2" d="M170.97,829.81c0-.4-.03-.83-.08-1.29h1.42c.06,.27,.09,.57,.11,.89,.43-.28,.95-.52,1.56-.73,.62-.21,1.23-.32,1.84-.32,.95,0,1.7,.28,2.25,.83,.55,.55,.83,1.33,.83,2.35v7h-1.47v-6.88c0-.6-.16-1.1-.47-1.5-.32-.4-.76-.6-1.34-.6s-1.14,.09-1.71,.26c-.56,.17-1.06,.4-1.48,.67v8.05h-1.47v-8.73Z"/>
    <path class="cls-2" d="M191.27,824h1.47v5.34c.3-.25,.7-.48,1.21-.68,.51-.2,1.11-.3,1.79-.3,1.28,0,2.26,.45,2.95,1.34,.68,.89,1.03,2.12,1.03,3.67,0,1.64-.4,2.94-1.2,3.89-.8,.95-2.14,1.43-4.03,1.43-.44,0-.97-.02-1.59-.07-.62-.05-1.16-.1-1.63-.15v-14.46Zm1.47,13.2c.49,.25,1.18,.38,2.05,.38,1.18,0,2.04-.4,2.57-1.21,.53-.81,.8-1.75,.8-2.83,0-1.27-.25-2.25-.74-2.92-.5-.67-1.18-1.01-2.04-1.01-.52,0-1.02,.08-1.49,.23-.47,.15-.86,.34-1.16,.57v6.79Z"/>
    <path class="cls-2" d="M202.07,824h1.47v12.49c0,.38,.07,.63,.22,.77,.15,.14,.41,.2,.78,.2,.05,0,.12,0,.22,0,.1,0,.19-.02,.29-.03l.21,.85c-.11,.05-.24,.1-.37,.15-.14,.05-.28,.09-.43,.13-.15,.04-.3,.07-.45,.09-.15,.02-.29,.03-.42,.03-.48,0-.86-.15-1.13-.46-.27-.31-.4-.77-.4-1.38v-12.84Z"/>
    <path class="cls-2" d="M206.8,825.27c0-.22,.08-.43,.24-.61,.16-.19,.37-.28,.64-.28s.47,.09,.63,.28c.16,.19,.24,.39,.24,.61,0,.25-.09,.47-.26,.64-.17,.17-.37,.25-.6,.25s-.44-.08-.62-.25c-.18-.17-.26-.38-.26-.64Zm.15,3.25h1.47v10.02h-1.47v-10.02Z"/>
    <path class="cls-2" d="M214.43,837.05l2.58-8.54h1.58l-3.47,10.02h-1.44l-3.51-10.02h1.58l2.68,8.54Z"/>
    <path class="cls-2" d="M228.27,836.75c-.44,.58-.97,1.05-1.6,1.41-.63,.36-1.45,.54-2.46,.54-1.31,0-2.37-.47-3.16-1.4-.8-.93-1.2-2.24-1.2-3.94,0-1.48,.36-2.68,1.09-3.61,.72-.93,1.78-1.4,3.18-1.4,1.18,0,2.12,.32,2.8,.97s1.07,1.56,1.16,2.72c.04,.44,.05,.9,.03,1.38h-6.72c0,1.11,.25,2.06,.76,2.85,.51,.79,1.2,1.19,2.08,1.19,.64,0,1.19-.13,1.67-.4,.48-.27,.92-.66,1.32-1.19l1.06,.85Zm-4.17-7.24c-.87,0-1.53,.3-1.98,.9-.45,.6-.68,1.27-.71,2.03h5.2c-.02-.8-.22-1.48-.59-2.06s-1.01-.86-1.92-.86Z"/>
    <path class="cls-2" d="M232.02,828.52c.04,.16,.08,.38,.1,.64,.02,.27,.03,.62,.03,1.05,.48-.57,1.03-1.02,1.67-1.35,.64-.33,1.31-.5,2-.5,.08,0,.17,0,.25,.02,.09,.01,.16,.02,.2,.04l-.32,1.53c-.19-.05-.42-.07-.71-.07-.82,0-1.51,.19-2.05,.56-.54,.37-.89,.74-1.05,1.09v7.01h-1.47v-8.64c-.01-.8-.03-1.26-.06-1.38h1.38Z"/>
    <path class="cls-2" d="M251.45,828.36c.86,0,1.72,.17,2.57,.51v-4.87h1.47v11.37c0,.82,.04,1.45,.11,1.87,.07,.42,.18,.85,.32,1.29h-1.37c-.08-.1-.15-.23-.22-.38-.07-.15-.12-.3-.17-.46-.45,.29-.9,.53-1.36,.71-.46,.18-1.04,.27-1.75,.27-1.26,0-2.26-.47-3.02-1.42-.75-.95-1.13-2.16-1.13-3.65s.42-2.76,1.25-3.76c.83-1,1.93-1.5,3.31-1.5Zm-.18,9.08c.6,0,1.09-.05,1.47-.15,.38-.1,.81-.34,1.28-.73v-6.55c-.71-.25-1.48-.37-2.31-.37-1.16,0-2,.4-2.51,1.19-.51,.79-.77,1.69-.77,2.7,0,1.07,.25,1.99,.77,2.76,.51,.77,1.2,1.16,2.07,1.16Z"/>
    <path class="cls-2" d="M258.58,825.27c0-.22,.08-.43,.24-.61,.16-.19,.37-.28,.64-.28s.47,.09,.63,.28c.16,.19,.24,.39,.24,.61,0,.25-.09,.47-.26,.64-.17,.17-.37,.25-.6,.25s-.44-.08-.62-.25c-.18-.17-.26-.38-.26-.64Zm.15,3.25h1.47v10.02h-1.47v-10.02Z"/>
    <path class="cls-2" d="M263.36,836.12c.42,.46,.85,.81,1.3,1.07,.45,.25,1,.38,1.68,.38s1.24-.14,1.68-.43c.44-.29,.66-.68,.66-1.18,0-.35-.11-.65-.33-.9-.22-.25-.67-.5-1.35-.74-.25-.09-.75-.26-1.49-.51-.7-.19-1.35-.5-1.97-.95s-.92-1.08-.92-1.89,.33-1.41,.99-1.89c.66-.48,1.52-.72,2.57-.72,.37,0,.72,.02,1.03,.06,.32,.04,.62,.11,.9,.2,.28,.09,.55,.21,.8,.36,.25,.15,.49,.33,.73,.56l-.84,1.01c-.42-.36-.83-.63-1.23-.8-.4-.17-.86-.25-1.37-.25-.63,0-1.15,.12-1.56,.35-.41,.24-.62,.58-.62,1.03s.19,.78,.58,1.03c.38,.26,.84,.46,1.36,.62,.28,.09,.55,.18,.83,.27,.27,.09,.55,.18,.83,.27,.88,.32,1.51,.69,1.89,1.11,.38,.43,.58,.99,.58,1.68,0,.87-.36,1.56-1.07,2.07-.71,.51-1.59,.77-2.63,.77-.82,0-1.54-.1-2.17-.31-.63-.21-1.24-.61-1.82-1.22l.97-1.06Z"/>
    <path class="cls-2" d="M271.17,828.52h1.45v-2.53h1.47v2.53h2.44l-.16,1.27h-2.28v5.79c0,.58,.09,1.04,.28,1.38,.19,.35,.48,.52,.89,.52,.22,0,.49-.03,.82-.1,.33-.06,.54-.11,.65-.14l.11,1.27c-.12,.02-.39,.06-.78,.12-.4,.05-.71,.08-.94,.08-.79,0-1.4-.19-1.83-.58-.44-.39-.65-1.11-.65-2.16v-6.17h-1.45v-1.27Z"/>
    <path class="cls-2" d="M280.1,828.52c.04,.16,.08,.38,.1,.64,.02,.27,.03,.62,.03,1.05,.48-.57,1.03-1.02,1.67-1.35,.64-.33,1.31-.5,2-.5,.08,0,.17,0,.25,.02,.09,.01,.16,.02,.2,.04l-.32,1.53c-.19-.05-.42-.07-.71-.07-.82,0-1.51,.19-2.05,.56-.54,.37-.89,.74-1.05,1.09v7.01h-1.47v-8.64c-.01-.8-.03-1.26-.06-1.38h1.38Z"/>
    <path class="cls-2" d="M285.76,825.27c0-.22,.08-.43,.24-.61,.16-.19,.37-.28,.64-.28s.47,.09,.63,.28c.16,.19,.24,.39,.24,.61,0,.25-.09,.47-.26,.64-.17,.17-.37,.25-.6,.25s-.44-.08-.62-.25c-.18-.17-.26-.38-.26-.64Zm.15,3.25h1.47v10.02h-1.47v-10.02Z"/>
    <path class="cls-2" d="M290.33,824h1.47v5.34c.3-.25,.7-.48,1.21-.68,.51-.2,1.11-.3,1.79-.3,1.28,0,2.26,.45,2.95,1.34,.68,.89,1.03,2.12,1.03,3.67,0,1.64-.4,2.94-1.2,3.89-.8,.95-2.14,1.43-4.03,1.43-.44,0-.97-.02-1.59-.07-.62-.05-1.16-.1-1.63-.15v-14.46Zm1.47,13.2c.49,.25,1.18,.38,2.05,.38,1.18,0,2.04-.4,2.57-1.21,.53-.81,.8-1.75,.8-2.83,0-1.27-.25-2.25-.74-2.92-.5-.67-1.18-1.01-2.04-1.01-.52,0-1.02,.08-1.49,.23-.47,.15-.86,.34-1.16,.57v6.79Z"/>
    <path class="cls-2" d="M302.45,828.52v6.8c0,.67,.17,1.19,.51,1.54,.34,.35,.78,.53,1.32,.53,.71,0,1.33-.1,1.86-.29,.54-.2,.97-.45,1.29-.77v-7.81h1.47v8.71c0,.4,.04,.84,.13,1.31h-1.49c-.05-.35-.09-.7-.11-1.04-.33,.25-.74,.48-1.22,.69-.48,.2-.88,.34-1.21,.41-.33,.07-.63,.11-.91,.11-1.08,0-1.86-.3-2.36-.89-.5-.59-.75-1.36-.75-2.31v-6.99h1.47Z"/>
    <path class="cls-2" d="M320.04,836.75c-.44,.58-.97,1.05-1.6,1.41-.63,.36-1.45,.54-2.46,.54-1.31,0-2.37-.47-3.16-1.4-.8-.93-1.2-2.24-1.2-3.94,0-1.48,.36-2.68,1.09-3.61,.72-.93,1.78-1.4,3.18-1.4,1.18,0,2.12,.32,2.8,.97s1.07,1.56,1.16,2.72c.04,.44,.05,.9,.03,1.38h-6.72c0,1.11,.25,2.06,.76,2.85,.51,.79,1.2,1.19,2.08,1.19,.64,0,1.19-.13,1.67-.4,.48-.27,.92-.66,1.32-1.19l1.06,.85Zm-4.17-7.24c-.87,0-1.53,.3-1.98,.9-.45,.6-.68,1.27-.71,2.03h5.2c-.02-.8-.22-1.48-.59-2.06s-1.01-.86-1.92-.86Z"/>
    <path class="cls-2" d="M327.18,831.23l-.23,1.14h-4.88l.23-1.14h4.88Z"/>
    <path class="cls-2" d="M139.99,851.32c.04,.16,.08,.38,.1,.64,.02,.27,.03,.62,.03,1.05,.48-.57,1.03-1.02,1.67-1.35,.64-.33,1.31-.5,2-.5,.08,0,.17,0,.25,.02,.09,.01,.16,.02,.2,.04l-.32,1.53c-.19-.05-.42-.07-.71-.07-.82,0-1.51,.19-2.05,.56-.54,.37-.89,.74-1.05,1.09v7.01h-1.47v-8.64c-.01-.8-.03-1.26-.06-1.38h1.38Z"/>
    <path class="cls-2" d="M153.71,859.55c-.44,.58-.97,1.05-1.6,1.41-.63,.36-1.45,.54-2.46,.54-1.31,0-2.37-.47-3.16-1.4-.8-.93-1.2-2.24-1.2-3.94,0-1.48,.36-2.68,1.09-3.61,.72-.93,1.78-1.4,3.18-1.4,1.18,0,2.12,.32,2.8,.97s1.07,1.56,1.16,2.72c.04,.44,.05,.9,.03,1.38h-6.72c0,1.11,.25,2.06,.76,2.85,.51,.79,1.2,1.19,2.08,1.19,.64,0,1.19-.13,1.67-.4,.48-.27,.92-.66,1.32-1.19l1.06,.85Zm-4.17-7.24c-.87,0-1.53,.3-1.98,.9-.45,.6-.68,1.27-.71,2.03h5.2c-.02-.8-.22-1.48-.59-2.06s-1.01-.86-1.92-.86Z"/>
    <path class="cls-2" d="M154.98,851.32h1.45v-2.53h1.47v2.53h2.44l-.16,1.27h-2.28v5.79c0,.58,.09,1.04,.28,1.38,.19,.35,.48,.52,.89,.52,.22,0,.49-.03,.82-.1,.33-.06,.54-.11,.65-.14l.11,1.27c-.12,.02-.39,.06-.78,.12-.4,.05-.71,.08-.94,.08-.79,0-1.4-.19-1.83-.58-.44-.39-.65-1.11-.65-2.16v-6.17h-1.45v-1.27Z"/>
    <path class="cls-2" d="M170.99,851.32h1.45v-2.53h1.47v2.53h2.44l-.16,1.27h-2.28v5.79c0,.58,.09,1.04,.28,1.38,.19,.35,.48,.52,.89,.52,.22,0,.49-.03,.82-.1,.33-.06,.54-.11,.65-.14l.11,1.27c-.12,.02-.39,.06-.78,.12-.4,.05-.71,.08-.94,.08-.79,0-1.4-.19-1.83-.58-.44-.39-.65-1.11-.65-2.16v-6.17h-1.45v-1.27Z"/>
    <path class="cls-2" d="M178.61,848.07c0-.22,.08-.43,.24-.61,.16-.19,.37-.28,.64-.28s.47,.09,.63,.28c.16,.19,.24,.39,.24,.61,0,.25-.09,.47-.26,.64-.17,.17-.37,.25-.6,.25s-.44-.08-.62-.25c-.18-.17-.26-.38-.26-.64Zm.15,3.25h1.47v10.02h-1.47v-10.02Z"/>
    <path class="cls-2" d="M183.16,846.8h1.47v12.49c0,.38,.07,.63,.22,.77,.15,.14,.41,.2,.78,.2,.05,0,.12,0,.22,0,.1,0,.19-.02,.29-.03l.21,.85c-.11,.05-.24,.1-.37,.15-.14,.05-.28,.09-.43,.13-.15,.04-.3,.07-.45,.09-.15,.02-.29,.03-.42,.03-.48,0-.86-.15-1.13-.46-.27-.31-.4-.77-.4-1.38v-12.84Z"/>
    <path class="cls-2" d="M200.52,846.8c2.32,0,4.05,.63,5.19,1.89,1.14,1.26,1.71,2.97,1.71,5.11,0,2.42-.6,4.28-1.8,5.58-1.2,1.3-2.93,1.95-5.19,1.95h-3.01v-14.54h3.11Zm-1.53,1.21v12.13h1.18c1.74,0,3.1-.54,4.07-1.61,.98-1.07,1.47-2.66,1.47-4.75,0-1.84-.46-3.26-1.38-4.26-.92-1-2.29-1.5-4.12-1.5h-1.22Z"/>
    <path class="cls-2" d="M210.05,852.56c.23-.21,.5-.4,.8-.58,.31-.17,.63-.32,.97-.45,.34-.12,.7-.22,1.07-.28,.37-.06,.73-.1,1.1-.1,1.03,0,1.84,.26,2.45,.77,.61,.51,.91,1.23,.91,2.14v4.46c0,.37,.01,.67,.04,.9,.02,.24,.07,.42,.13,.56,.07,.14,.15,.23,.26,.28,.11,.05,.25,.08,.41,.08,.21,0,.42-.02,.64-.06l.23,.68c-.17,.16-.4,.29-.71,.39-.31,.1-.64,.15-.99,.15-.39,0-.7-.14-.94-.41-.24-.27-.39-.67-.46-1.18-.53,.49-1.1,.88-1.72,1.16-.62,.29-1.29,.43-2,.43-.39,0-.75-.06-1.09-.17-.34-.11-.63-.28-.88-.5-.25-.22-.44-.48-.58-.8-.14-.32-.21-.67-.21-1.08,0-.54,.1-1,.31-1.4,.21-.4,.48-.73,.82-1.01,.34-.28,.73-.5,1.17-.68,.44-.17,.9-.31,1.37-.41,.47-.1,.94-.17,1.41-.2,.47-.03,.9-.05,1.3-.05v-1.03c0-.66-.17-1.13-.51-1.43-.34-.3-.82-.45-1.43-.45-.35,0-.67,.04-.97,.12-.3,.08-.58,.18-.84,.31-.26,.12-.5,.26-.71,.41-.22,.15-.41,.29-.58,.43l-.79-1.01Zm5.84,3.53c-.84,.02-1.56,.09-2.17,.23-.61,.13-1.1,.31-1.49,.54-.39,.23-.68,.5-.86,.81-.19,.31-.28,.65-.28,1.02,0,.53,.15,.91,.45,1.16,.3,.25,.71,.37,1.23,.37,.28,0,.57-.03,.85-.09,.28-.06,.56-.15,.82-.25,.27-.1,.52-.23,.77-.38,.24-.15,.47-.3,.69-.47v-2.94Z"/>
    <path class="cls-2" d="M220.98,852.61c0-.4-.03-.83-.08-1.29h1.42c.06,.27,.09,.57,.11,.89,.43-.28,.95-.52,1.56-.73,.62-.21,1.23-.32,1.84-.32,.95,0,1.7,.28,2.25,.83,.55,.55,.83,1.33,.83,2.35v7h-1.47v-6.88c0-.6-.16-1.1-.47-1.5-.32-.4-.76-.6-1.34-.6s-1.14,.09-1.71,.26c-.56,.17-1.06,.4-1.48,.67v8.05h-1.47v-8.73Z"/>
    <path class="cls-2" d="M231.75,852.56c.23-.21,.5-.4,.8-.58,.31-.17,.63-.32,.97-.45,.34-.12,.7-.22,1.07-.28,.37-.06,.73-.1,1.1-.1,1.03,0,1.84,.26,2.45,.77,.61,.51,.91,1.23,.91,2.14v4.46c0,.37,.01,.67,.04,.9,.02,.24,.07,.42,.13,.56,.07,.14,.15,.23,.26,.28,.11,.05,.25,.08,.41,.08,.21,0,.42-.02,.64-.06l.23,.68c-.17,.16-.4,.29-.71,.39-.31,.1-.64,.15-.99,.15-.39,0-.7-.14-.94-.41-.24-.27-.39-.67-.46-1.18-.53,.49-1.1,.88-1.72,1.16-.62,.29-1.29,.43-2,.43-.39,0-.75-.06-1.09-.17-.34-.11-.63-.28-.88-.5-.25-.22-.44-.48-.58-.8-.14-.32-.21-.67-.21-1.08,0-.54,.1-1,.31-1.4,.21-.4,.48-.73,.82-1.01,.34-.28,.73-.5,1.17-.68,.44-.17,.9-.31,1.37-.41,.47-.1,.94-.17,1.41-.2,.47-.03,.9-.05,1.3-.05v-1.03c0-.66-.17-1.13-.51-1.43-.34-.3-.82-.45-1.43-.45-.35,0-.67,.04-.97,.12-.3,.08-.58,.18-.84,.31-.26,.12-.5,.26-.71,.41-.22,.15-.41,.29-.58,.43l-.79-1.01Zm5.84,3.53c-.84,.02-1.56,.09-2.17,.23-.61,.13-1.1,.31-1.49,.54-.39,.23-.68,.5-.86,.81-.19,.31-.28,.65-.28,1.02,0,.53,.15,.91,.45,1.16,.3,.25,.71,.37,1.23,.37,.28,0,.57-.03,.85-.09,.28-.06,.56-.15,.82-.25,.27-.1,.52-.23,.77-.38,.24-.15,.47-.3,.69-.47v-2.94Z"/>
    <path class="cls-2" d="M243.97,851.32c.06,.2,.09,.46,.11,.76,.19-.1,.39-.2,.63-.32,.23-.11,.48-.21,.75-.3,.27-.09,.54-.16,.83-.22,.29-.06,.58-.09,.88-.09,.51,0,.95,.08,1.34,.24,.39,.16,.72,.43,1.01,.81,1.24-.7,2.41-1.05,3.53-1.05,.47,0,.88,.08,1.23,.24,.35,.16,.64,.37,.86,.65,.23,.27,.39,.6,.51,.97,.11,.37,.17,.77,.17,1.2v7.12h-1.47v-6.98c0-.34-.04-.64-.13-.89-.09-.25-.21-.46-.38-.63-.16-.17-.35-.29-.57-.37-.22-.08-.45-.12-.7-.12-.9,0-1.77,.23-2.63,.69,.08,.37,.12,.77,.12,1.21v7.09h-1.47v-6.96c0-.69-.15-1.2-.46-1.53-.31-.33-.75-.49-1.33-.49-.47,0-.93,.07-1.39,.22-.46,.15-.88,.32-1.28,.52v8.24h-1.47v-8.85c0-.43-.03-.82-.07-1.17h1.37Z"/>
    <path class="cls-2" d="M258.64,852.56c.23-.21,.5-.4,.8-.58,.31-.17,.63-.32,.97-.45,.34-.12,.7-.22,1.07-.28,.37-.06,.73-.1,1.1-.1,1.03,0,1.84,.26,2.45,.77,.61,.51,.91,1.23,.91,2.14v4.46c0,.37,.01,.67,.04,.9,.02,.24,.07,.42,.13,.56,.07,.14,.15,.23,.26,.28,.11,.05,.25,.08,.41,.08,.21,0,.42-.02,.64-.06l.23,.68c-.17,.16-.4,.29-.71,.39-.31,.1-.64,.15-.99,.15-.39,0-.7-.14-.94-.41-.24-.27-.39-.67-.46-1.18-.53,.49-1.1,.88-1.72,1.16-.62,.29-1.29,.43-2,.43-.39,0-.75-.06-1.09-.17-.34-.11-.63-.28-.88-.5-.25-.22-.44-.48-.58-.8-.14-.32-.21-.67-.21-1.08,0-.54,.1-1,.31-1.4,.21-.4,.48-.73,.82-1.01,.34-.28,.73-.5,1.17-.68,.44-.17,.9-.31,1.37-.41,.47-.1,.94-.17,1.41-.2,.47-.03,.9-.05,1.3-.05v-1.03c0-.66-.17-1.13-.51-1.43-.34-.3-.82-.45-1.43-.45-.35,0-.67,.04-.97,.12-.3,.08-.58,.18-.84,.31-.26,.12-.5,.26-.71,.41-.22,.15-.41,.29-.58,.43l-.79-1.01Zm5.84,3.53c-.84,.02-1.56,.09-2.17,.23-.61,.13-1.1,.31-1.49,.54-.39,.23-.68,.5-.86,.81-.19,.31-.28,.65-.28,1.02,0,.53,.15,.91,.45,1.16,.3,.25,.71,.37,1.23,.37,.28,0,.57-.03,.85-.09,.28-.06,.56-.15,.82-.25,.27-.1,.52-.23,.77-.38,.24-.15,.47-.3,.69-.47v-2.94Z"/>
    <path class="cls-2" d="M270.78,851.32c.04,.16,.08,.38,.1,.64,.02,.27,.03,.62,.03,1.05,.48-.57,1.03-1.02,1.67-1.35,.64-.33,1.31-.5,2-.5,.08,0,.17,0,.25,.02,.09,.01,.16,.02,.2,.04l-.32,1.53c-.19-.05-.42-.07-.71-.07-.82,0-1.51,.19-2.05,.56-.54,.37-.89,.74-1.05,1.09v7.01h-1.47v-8.64c-.01-.8-.03-1.26-.06-1.38h1.38Z"/>
    <path class="cls-2" d="M277.86,855.1l4.17-3.79h1.78l-4,3.7,4.18,6.32h-1.73l-3.41-5.49-.98,.8v4.69h-1.47v-14.55h1.47v8.31Z"/>
    <path class="cls-2" d="M299.99,861.5c-1.57,0-2.76-.49-3.56-1.46-.8-.97-1.21-2.26-1.21-3.86,0-1.43,.43-2.63,1.29-3.59,.86-.96,2-1.44,3.43-1.44s2.59,.5,3.38,1.49c.79,1,1.19,2.24,1.19,3.72s-.42,2.62-1.25,3.62c-.83,1.01-1.93,1.51-3.27,1.51Zm-.06-1.18c.51,0,.96-.12,1.35-.36,.38-.24,.77-.68,1.15-1.31,.38-.63,.57-1.49,.57-2.57,0-.95-.26-1.81-.78-2.58-.52-.78-1.29-1.16-2.3-1.16s-1.79,.37-2.33,1.11c-.55,.74-.82,1.71-.82,2.91,0,1.03,.2,1.82,.59,2.39,.39,.57,.79,.97,1.19,1.21,.4,.24,.86,.36,1.4,.36Z"/>
    <path class="cls-2" d="M315.34,852.53c-.25,0-.48,0-.69,.04-.21,.03-.42,.08-.62,.14,.15,.24,.29,.5,.39,.8,.11,.3,.16,.65,.16,1.05,0,.61-.11,1.13-.32,1.57-.21,.44-.49,.81-.84,1.09-.35,.29-.76,.5-1.22,.64-.46,.14-.93,.21-1.43,.21-.42,0-.86-.05-1.31-.16-.1,.01-.23,.05-.38,.1-.15,.06-.3,.13-.45,.22-.15,.09-.27,.2-.38,.32-.11,.12-.16,.25-.16,.39,0,.16,.11,.29,.32,.38,.22,.09,.5,.17,.85,.24,.35,.06,.98,.16,1.87,.28,.95,.15,1.64,.3,2.09,.42,.45,.13,.85,.3,1.2,.51,.35,.21,.64,.47,.85,.77,.22,.31,.32,.68,.32,1.13s-.08,.79-.24,1.1c-.16,.31-.38,.57-.65,.79-.27,.22-.58,.4-.93,.54-.35,.14-.72,.25-1.11,.33-.39,.08-.78,.13-1.18,.16-.4,.03-.78,.04-1.14,.04-.57,0-1.09-.05-1.56-.15-.47-.1-.88-.25-1.22-.46-.34-.21-.61-.47-.8-.79-.19-.32-.29-.7-.29-1.14,0-.24,.04-.47,.12-.7,.08-.23,.2-.45,.34-.66,.15-.21,.31-.41,.5-.58,.19-.18,.39-.34,.6-.48-.17-.08-.33-.17-.49-.26-.16-.09-.3-.19-.43-.31-.13-.11-.23-.25-.31-.4-.08-.15-.12-.33-.12-.53,0-.22,.07-.43,.2-.61,.13-.19,.3-.35,.49-.5,.2-.15,.4-.27,.62-.37,.22-.1,.41-.17,.58-.21-.52-.3-.91-.68-1.18-1.14-.27-.46-.4-1.04-.4-1.73,0-.56,.11-1.06,.34-1.5,.23-.44,.52-.8,.89-1.09,.36-.29,.78-.51,1.25-.66,.47-.15,.95-.23,1.44-.23,.43,0,.85,.06,1.28,.18,.43,.12,.83,.29,1.2,.53,.48-.19,.95-.32,1.41-.39,.45-.07,.89-.11,1.29-.11l-.17,1.19-.62-.02Zm-6.58,8.4c-.28,.3-.49,.61-.64,.91-.15,.3-.23,.6-.23,.88,0,.38,.08,.69,.24,.93,.16,.24,.37,.44,.62,.58,.25,.14,.54,.24,.85,.3s.63,.08,.95,.08c.17,0,.38-.01,.63-.03,.24-.02,.5-.06,.76-.11,.26-.05,.52-.12,.78-.2,.26-.08,.49-.19,.69-.31,.2-.12,.37-.27,.5-.44,.13-.17,.19-.37,.19-.59s-.07-.41-.2-.58c-.13-.17-.31-.32-.53-.45-.22-.13-.48-.25-.78-.35-.3-.11-.81-.23-1.54-.36-.48-.07-.86-.12-1.13-.15-.27-.03-.51-.05-.71-.06-.2-.02-.36-.03-.45-.04Zm2.16-3.79c.38,0,.71-.06,.98-.19,.27-.13,.49-.31,.66-.54,.17-.23,.3-.52,.38-.84,.08-.33,.12-.69,.12-1.09,0-.3-.04-.6-.13-.88-.09-.28-.22-.53-.39-.74-.18-.21-.4-.38-.67-.51-.27-.13-.59-.19-.96-.19-.45,0-.83,.07-1.12,.22-.3,.15-.54,.34-.71,.57-.18,.24-.31,.5-.38,.8s-.11,.6-.11,.9,.05,.61,.14,.91c.1,.3,.24,.56,.44,.8,.2,.24,.44,.43,.73,.57,.29,.15,.64,.22,1.04,.22Z"/>
    <path class="cls-2" d="M139.99,874.12c.04,.16,.08,.38,.1,.64,.02,.27,.03,.62,.03,1.05,.48-.57,1.03-1.02,1.67-1.35,.64-.33,1.31-.5,2-.5,.08,0,.17,0,.25,.02,.09,.01,.16,.02,.2,.04l-.32,1.53c-.19-.05-.42-.07-.71-.07-.82,0-1.51,.19-2.05,.56-.54,.37-.89,.74-1.05,1.09v7.01h-1.47v-8.64c-.01-.8-.03-1.26-.06-1.38h1.38Z"/>
    <path class="cls-2" d="M153.71,882.35c-.44,.58-.97,1.05-1.6,1.41-.63,.36-1.45,.54-2.46,.54-1.31,0-2.37-.47-3.16-1.4-.8-.93-1.2-2.24-1.2-3.94,0-1.48,.36-2.68,1.09-3.61,.72-.93,1.78-1.4,3.18-1.4,1.18,0,2.12,.32,2.8,.97s1.07,1.56,1.16,2.72c.04,.44,.05,.9,.03,1.38h-6.72c0,1.11,.25,2.06,.76,2.85,.51,.79,1.2,1.19,2.08,1.19,.64,0,1.19-.13,1.67-.4,.48-.27,.92-.66,1.32-1.19l1.06,.85Zm-4.17-7.24c-.87,0-1.53,.3-1.98,.9-.45,.6-.68,1.27-.71,2.03h5.2c-.02-.8-.22-1.48-.59-2.06s-1.01-.86-1.92-.86Z"/>
    <path class="cls-2" d="M156.37,881.72c.42,.46,.85,.81,1.3,1.07,.45,.25,1,.38,1.68,.38s1.24-.14,1.68-.43c.44-.29,.66-.68,.66-1.18,0-.35-.11-.65-.33-.9-.22-.25-.67-.5-1.35-.74-.25-.09-.75-.26-1.49-.51-.7-.19-1.35-.5-1.97-.95s-.92-1.08-.92-1.89,.33-1.41,.99-1.89c.66-.48,1.52-.72,2.57-.72,.37,0,.72,.02,1.03,.06,.32,.04,.62,.11,.9,.2,.28,.09,.55,.21,.8,.36,.25,.15,.49,.33,.73,.56l-.84,1.01c-.42-.36-.83-.63-1.23-.8-.4-.17-.86-.25-1.37-.25-.63,0-1.15,.12-1.56,.35-.41,.24-.62,.58-.62,1.03s.19,.78,.58,1.03c.38,.26,.84,.46,1.36,.62,.28,.09,.55,.18,.83,.27,.27,.09,.55,.18,.83,.27,.88,.32,1.51,.69,1.89,1.11,.38,.43,.58,.99,.58,1.68,0,.87-.36,1.56-1.07,2.07-.71,.51-1.59,.77-2.63,.77-.82,0-1.54-.1-2.17-.31-.63-.21-1.24-.61-1.82-1.22l.97-1.06Z"/>
    <path class="cls-2" d="M164.18,874.12h1.45v-2.53h1.47v2.53h2.44l-.16,1.27h-2.28v5.79c0,.58,.09,1.04,.28,1.38,.19,.35,.48,.52,.89,.52,.22,0,.49-.03,.82-.1,.33-.06,.54-.11,.65-.14l.11,1.27c-.12,.02-.39,.06-.78,.12-.4,.05-.71,.08-.94,.08-.79,0-1.4-.19-1.83-.58-.44-.39-.65-1.11-.65-2.16v-6.17h-1.45v-1.27Z"/>
    <path class="cls-2" d="M179.86,882.35c-.44,.58-.97,1.05-1.6,1.41-.63,.36-1.45,.54-2.46,.54-1.31,0-2.37-.47-3.16-1.4-.8-.93-1.2-2.24-1.2-3.94,0-1.48,.36-2.68,1.09-3.61,.72-.93,1.78-1.4,3.18-1.4,1.18,0,2.12,.32,2.8,.97s1.07,1.56,1.16,2.72c.04,.44,.05,.9,.03,1.38h-6.72c0,1.11,.25,2.06,.76,2.85,.51,.79,1.2,1.19,2.08,1.19,.64,0,1.19-.13,1.67-.4,.48-.27,.92-.66,1.32-1.19l1.06,.85Zm-4.17-7.24c-.87,0-1.53,.3-1.98,.9-.45,.6-.68,1.27-.71,2.03h5.2c-.02-.8-.22-1.48-.59-2.06s-1.01-.86-1.92-.86Z"/>
    <path class="cls-2" d="M182.4,875.41c0-.4-.03-.83-.08-1.29h1.42c.06,.27,.09,.57,.11,.89,.43-.28,.95-.52,1.56-.73,.62-.21,1.23-.32,1.84-.32,.95,0,1.7,.28,2.25,.83,.55,.55,.83,1.33,.83,2.35v7h-1.47v-6.88c0-.6-.16-1.1-.47-1.5-.32-.4-.76-.6-1.34-.6s-1.14,.09-1.71,.26c-.56,.17-1.06,.4-1.48,.67v8.05h-1.47v-8.73Z"/>
    <path class="cls-2" d="M202.72,875.36c.23-.21,.5-.4,.8-.58,.31-.17,.63-.32,.97-.45,.34-.12,.7-.22,1.07-.28,.37-.06,.73-.1,1.1-.1,1.03,0,1.84,.26,2.45,.77,.61,.51,.91,1.23,.91,2.14v4.46c0,.37,.01,.67,.04,.9,.02,.24,.07,.42,.13,.56,.07,.14,.15,.23,.26,.28,.11,.05,.25,.08,.41,.08,.21,0,.42-.02,.64-.06l.23,.68c-.17,.16-.4,.29-.71,.39-.31,.1-.64,.15-.99,.15-.39,0-.7-.14-.94-.41-.24-.27-.39-.67-.46-1.18-.53,.49-1.1,.88-1.72,1.16-.62,.29-1.29,.43-2,.43-.39,0-.75-.06-1.09-.17-.34-.11-.63-.28-.88-.5-.25-.22-.44-.48-.58-.8-.14-.32-.21-.67-.21-1.08,0-.54,.1-1,.31-1.4,.21-.4,.48-.73,.82-1.01,.34-.28,.73-.5,1.17-.68,.44-.17,.9-.31,1.37-.41,.47-.1,.94-.17,1.41-.2,.47-.03,.9-.05,1.3-.05v-1.03c0-.66-.17-1.13-.51-1.43-.34-.3-.82-.45-1.43-.45-.35,0-.67,.04-.97,.12-.3,.08-.58,.18-.84,.31-.26,.12-.5,.26-.71,.41-.22,.15-.41,.29-.58,.43l-.79-1.01Zm5.84,3.53c-.84,.02-1.56,.09-2.17,.23-.61,.13-1.1,.31-1.49,.54-.39,.23-.68,.5-.86,.81-.19,.31-.28,.65-.28,1.02,0,.53,.15,.91,.45,1.16,.3,.25,.71,.37,1.23,.37,.28,0,.57-.03,.85-.09,.28-.06,.56-.15,.82-.25,.27-.1,.52-.23,.77-.38,.24-.15,.47-.3,.69-.47v-2.94Z"/>
    <path class="cls-2" d="M213.92,874.12v-.78c0-1.28,.3-2.25,.91-2.89,.61-.65,1.44-.97,2.49-.97,.38,0,.76,.05,1.12,.14,.36,.09,.63,.2,.81,.32l-.63,1.26c-.09-.07-.28-.17-.57-.3-.29-.13-.56-.2-.83-.2-.7,0-1.19,.19-1.48,.56-.16,.2-.26,.53-.3,.99-.04,.46-.06,1.09-.06,1.88h2.36l-.14,1.23h-2.22v8.79h-1.47v-8.79h-1.35v-1.23h1.35Z"/>
    <path class="cls-2" d="M236.77,870.88h-6.19v4.95h4.94v1.22h-4.94v5.81h6.47v1.28h-8.04v-14.54h7.77v1.28Z"/>
    <path class="cls-2" d="M240.6,874.12v6.8c0,.67,.17,1.19,.51,1.54,.34,.35,.78,.53,1.32,.53,.71,0,1.33-.1,1.86-.29,.54-.2,.97-.45,1.29-.77v-7.81h1.47v8.71c0,.4,.04,.84,.13,1.31h-1.49c-.05-.35-.09-.7-.11-1.04-.33,.25-.74,.48-1.22,.69-.48,.2-.88,.34-1.21,.41-.33,.07-.63,.11-.91,.11-1.08,0-1.86-.3-2.36-.89-.5-.59-.75-1.36-.75-2.31v-6.99h1.47Z"/>
    <path class="cls-2" d="M251.44,874.12c.04,.16,.08,.38,.1,.64,.02,.27,.03,.62,.03,1.05,.48-.57,1.03-1.02,1.67-1.35,.64-.33,1.31-.5,2-.5,.08,0,.17,0,.25,.02,.09,.01,.16,.02,.2,.04l-.32,1.53c-.19-.05-.42-.07-.71-.07-.82,0-1.51,.19-2.05,.56-.54,.37-.89,.74-1.05,1.09v7.01h-1.47v-8.64c-.01-.8-.03-1.26-.06-1.38h1.38Z"/>
    <path class="cls-2" d="M261.58,884.3c-1.57,0-2.76-.49-3.56-1.46-.8-.97-1.21-2.26-1.21-3.86,0-1.43,.43-2.63,1.29-3.59,.86-.96,2-1.44,3.43-1.44s2.59,.5,3.38,1.49c.79,1,1.19,2.24,1.19,3.72s-.42,2.62-1.25,3.62c-.83,1.01-1.93,1.51-3.27,1.51Zm-.06-1.18c.51,0,.96-.12,1.35-.36,.38-.24,.77-.68,1.15-1.31,.38-.63,.57-1.49,.57-2.57,0-.95-.26-1.81-.78-2.58-.52-.78-1.29-1.16-2.3-1.16s-1.79,.37-2.33,1.11c-.55,.74-.82,1.71-.82,2.91,0,1.03,.2,1.82,.59,2.39,.39,.57,.79,.97,1.19,1.21,.4,.24,.86,.36,1.4,.36Z"/>
    <path class="cls-2" d="M269.89,874.12c.04,.27,.08,.51,.11,.72,.64-.32,1.19-.54,1.64-.68,.45-.14,.91-.2,1.36-.2,1.27,0,2.24,.46,2.93,1.38,.68,.92,1.03,2.17,1.03,3.74,0,1.48-.38,2.73-1.13,3.73-.75,1-1.75,1.5-2.98,1.5-.69,0-1.27-.08-1.72-.24-.45-.16-.82-.34-1.09-.56v4.83h-1.47v-12.75c-.01-.42-.04-.91-.08-1.48h1.4Zm2.78,1.09c-.46,0-.89,.05-1.31,.16-.41,.11-.86,.29-1.33,.55v6.3c.25,.24,.61,.44,1.06,.59,.45,.15,.98,.23,1.58,.23,.92,0,1.6-.37,2.06-1.12,.46-.75,.69-1.71,.69-2.89s-.24-2.18-.73-2.83c-.49-.66-1.16-.99-2.01-.99Z"/>
    <path class="cls-2" d="M279.43,875.36c.23-.21,.5-.4,.8-.58,.31-.17,.63-.32,.97-.45,.34-.12,.7-.22,1.07-.28,.37-.06,.73-.1,1.1-.1,1.03,0,1.84,.26,2.45,.77,.61,.51,.91,1.23,.91,2.14v4.46c0,.37,.01,.67,.04,.9,.02,.24,.07,.42,.13,.56,.07,.14,.15,.23,.26,.28,.11,.05,.25,.08,.41,.08,.21,0,.42-.02,.64-.06l.23,.68c-.17,.16-.4,.29-.71,.39-.31,.1-.64,.15-.99,.15-.39,0-.7-.14-.94-.41-.24-.27-.39-.67-.46-1.18-.53,.49-1.1,.88-1.72,1.16-.62,.29-1.29,.43-2,.43-.39,0-.75-.06-1.09-.17-.34-.11-.63-.28-.88-.5-.25-.22-.44-.48-.58-.8-.14-.32-.21-.67-.21-1.08,0-.54,.1-1,.31-1.4,.21-.4,.48-.73,.82-1.01,.34-.28,.73-.5,1.17-.68,.44-.17,.9-.31,1.37-.41,.47-.1,.94-.17,1.41-.2,.47-.03,.9-.05,1.3-.05v-1.03c0-.66-.17-1.13-.51-1.43-.34-.3-.82-.45-1.43-.45-.35,0-.67,.04-.97,.12-.3,.08-.58,.18-.84,.31-.26,.12-.5,.26-.71,.41-.22,.15-.41,.29-.58,.43l-.79-1.01Zm5.84,3.53c-.84,.02-1.56,.09-2.17,.23-.61,.13-1.1,.31-1.49,.54-.39,.23-.68,.5-.86,.81-.19,.31-.28,.65-.28,1.02,0,.53,.15,.91,.45,1.16,.3,.25,.71,.37,1.23,.37,.28,0,.57-.03,.85-.09,.28-.06,.56-.15,.82-.25,.27-.1,.52-.23,.77-.38,.24-.15,.47-.3,.69-.47v-2.94Z"/>
  </g>
  <text class="cls-1" transform="translate(135.45 1074) rotate(-.12)"><tspan x="0" y="0">Teen er nu på hylderne </tspan><tspan x="0" y="22.8">i dit supermarked</tspan></text>
  <path class="cls-2" d="M126.04,521.28l-35.75,27.37,.05-16.75c-1.35,.03-3.15-.09-4.85-.19-1.71-.09-3.41-.2-5.1-.57-1.68-.35-3.4-.52-5.05-1.05l-4.97-1.53-4.82-2.08c-.81-.32-1.57-.8-2.34-1.23l-2.82-1.61c-1.17-.61-2.21-1.47-3.31-2.22-4.41-2.99-8.3-6.89-11.96-11.01l-2.56-3.31-1.27-1.67-1.14-1.79-2.27-3.59-1.99-3.82c-10.45-20.55-11.27-47.28-1.98-68.63,4.46-10.76,11.4-19.95,19.68-26.87,8.26-6.98,18.15-11.19,28.23-12.67,2.44-.38,4.91-.37,7.36-.53l-.07,21.47c-1.73,.17-3.47,.1-5.19,.39-7.06,1.07-13.99,3.95-19.8,8.89-5.8,4.88-10.73,11.33-13.83,18.89l-1.17,2.83-.92,2.95c-.73,1.92-.97,4.03-1.49,6.02-.3,2.06-.64,4.13-.79,6.21-.04,2.1-.31,4.19-.12,6.29,.26,8.38,2.16,16.69,5.88,23.87l1.38,2.69,1.61,2.52,.79,1.27,.9,1.16,1.79,2.34c2.6,2.87,5.3,5.67,8.42,7.73,.77,.52,1.49,1.17,2.32,1.57l1.98,1.12c.54,.3,1.06,.66,1.64,.87l3.37,1.47,3.48,1.06c1.15,.4,2.37,.46,3.54,.73,1.18,.29,2.38,.34,3.59,.4,1.21,.07,2.32,.19,3.88,.16l.05-16.75,35.58,27.59Z"/>
  <path class="cls-2" d="M728.68,719.69l35.75,27.37-.05-16.75c1.35,.03,3.15-.09,4.85-.19,1.71-.09,3.41-.2,5.1-.57,1.68-.35,3.4-.52,5.05-1.05l4.97-1.53,4.82-2.08c.81-.32,1.57-.8,2.34-1.23l2.82-1.61c1.17-.61,2.21-1.47,3.31-2.22,4.41-2.99,8.3-6.89,11.96-11.01l2.56-3.31,1.27-1.67,1.14-1.79,2.27-3.59,1.99-3.82c10.45-20.55,11.27-47.28,1.98-68.63-4.46-10.76-11.4-19.95-19.68-26.87-8.26-6.98-18.15-11.19-28.23-12.67-2.44-.38-4.91-.37-7.36-.53l.07,21.47c1.73,.17,3.47,.1,5.19,.39,7.06,1.07,13.99,3.95,19.8,8.89,5.8,4.88,10.73,11.33,13.83,18.89l1.17,2.83,.92,2.95c.73,1.92,.97,4.03,1.49,6.02,.3,2.06,.64,4.13,.79,6.21,.04,2.1,.31,4.19,.12,6.29-.26,8.38-2.16,16.69-5.88,23.87l-1.38,2.69-1.61,2.52-.79,1.27-.9,1.16-1.79,2.34c-2.6,2.87-5.3,5.67-8.42,7.73-.77,.52-1.49,1.17-2.32,1.57l-1.98,1.12c-.54,.3-1.06,.66-1.64,.87l-3.37,1.47-3.48,1.06c-1.15,.4-2.37,.46-3.54,.73-1.18,.29-2.38,.34-3.59,.4-1.21,.07-2.32,.19-3.88,.16l-.05-16.75-35.58,27.59Z"/>
  <path class="cls-2" d="M728.89,296.33l35.75,27.37-.05-16.75c1.35,.03,3.15-.09,4.85-.19,1.71-.09,3.41-.2,5.1-.57,1.68-.35,3.4-.52,5.05-1.05l4.97-1.53,4.82-2.08c.81-.32,1.57-.8,2.34-1.23l2.82-1.61c1.17-.61,2.21-1.47,3.31-2.22,4.41-2.99,8.3-6.89,11.96-11.01l2.56-3.31,1.27-1.67,1.14-1.79,2.27-3.59,1.99-3.82c10.45-20.55,11.27-47.28,1.98-68.63-4.46-10.76-11.4-19.95-19.68-26.87-8.26-6.98-18.15-11.19-28.23-12.67-2.44-.38-4.91-.37-7.36-.53l.07,21.47c1.73,.17,3.47,.1,5.19,.39,7.06,1.07,13.99,3.95,19.8,8.89,5.8,4.88,10.73,11.33,13.83,18.89l1.17,2.83,.92,2.95c.73,1.92,.97,4.03,1.49,6.02,.3,2.06,.64,4.13,.79,6.21,.04,2.1,.31,4.19,.12,6.29-.26,8.38-2.16,16.69-5.88,23.87l-1.38,2.69-1.61,2.52-.79,1.27-.9,1.16-1.79,2.34c-2.6,2.87-5.3,5.67-8.42,7.73-.77,.52-1.49,1.17-2.32,1.57l-1.98,1.12c-.54,.3-1.06,.66-1.64,.87l-3.37,1.47-3.48,1.06c-1.15,.4-2.37,.46-3.54,.73-1.18,.29-2.38,.34-3.59,.4-1.21,.07-2.32,.19-3.88,.16l-.05-16.75-35.58,27.59Z"/>
  <text/>
</svg>